<svg width="207" height="167" viewBox="0 0 207 167" fill="none" xmlns="http://www.w3.org/2000/svg">
<g clip-path="url(#clip0_313_12812)">
<path d="M25.5023 90.2948H7.21137L6.11809 89.2965C4.47202 87.7807 4.09122 85.2789 5.20907 83.344L7.13767 80.0042C8.15724 78.2418 10.1841 77.3175 12.1741 77.6996L12.862 77.8351C13.4394 77.9461 13.9799 78.1556 14.4713 78.4637L25.4901 85.2912V90.2825L25.5023 90.2948ZM7.69045 89.0624H24.2739V85.9814L13.8325 79.5112C13.464 79.2771 13.0586 79.1292 12.6286 79.0429L11.9407 78.9073C10.4544 78.6239 8.95571 79.314 8.1941 80.6204L6.2655 83.9602C5.43018 85.4021 5.725 87.2631 6.94112 88.3846L7.67816 89.0624H7.69045Z" fill="white"/>
<path d="M12.4665 82.0162L11.8302 83.0703L16.7371 86.0517L17.3735 84.9976L12.4665 82.0162Z" fill="white"/>
<path d="M49.0386 90.2952H32.6394V85.3039L43.6582 78.4764C44.1619 78.1683 44.7024 77.9588 45.2797 77.8478L45.9676 77.7123C47.9699 77.3302 49.9968 78.2545 51.0041 80.0169L51.9131 81.5944L50.8444 82.2106L49.9354 80.6331C49.1738 79.3267 47.6751 78.6243 46.1887 78.92L45.5008 79.0556C45.0709 79.1419 44.6655 79.2898 44.297 79.5239L33.8555 85.9941V89.0751H49.0263V90.3075L49.0386 90.2952Z" fill="white"/>
<path d="M45.6808 82.0348L40.7723 85.0137L41.4081 86.0682L46.3166 83.0893L45.6808 82.0348Z" fill="white"/>
<path d="M33.8678 90.2952H24.2739V82.5063C24.2739 82.0011 24.6793 81.582 25.1952 81.582H32.9588C33.4624 81.582 33.8801 81.9887 33.8801 82.5063V90.2952H33.8678ZM25.5023 89.0627H32.6394V82.8144H25.5023V89.0627Z" fill="white"/>
<path d="M52.6379 102.915H0.872803V89.8636C0.872803 89.4199 1.22904 89.0625 1.68355 89.0625H49.0386V90.2949H2.10121V101.682H52.6379V102.915V102.915Z" fill="white"/>
<path d="M53.3872 135.622H4.74228C4.28777 135.622 3.91925 135.252 3.91925 134.796V101.682H54.2102V111.282H52.9818V102.914H5.14766V134.39H52.9818V121.585H54.2102V134.796C54.2102 135.252 53.8417 135.622 53.3872 135.622Z" fill="white"/>
<path d="M42.6386 47.1602L35.4402 39.9383L36.3123 39.0633L42.6386 45.4225L59.6889 28.3167C64.2709 23.7198 64.2709 16.2391 59.6889 11.6422C55.107 7.04529 47.6505 7.04529 43.0686 11.6422L42.6386 12.0735L42.2087 11.6422C37.6267 7.04529 30.1703 7.04529 25.5884 11.6422C21.0064 16.2391 21.0064 23.7198 25.5884 28.3167L24.7162 29.1917C19.6552 24.1141 19.6552 15.857 24.7162 10.7795C29.6298 5.84985 37.553 5.70196 42.6386 10.3605C47.7242 5.70196 55.6352 5.83752 60.5611 10.7795C65.6221 15.857 65.6221 24.1141 60.5611 29.1917L42.6386 47.1725V47.1602Z" fill="white"/>
<path d="M19.6551 53.1621C16.7069 53.1621 13.9922 51.5477 12.5672 48.9473L12.2724 48.405L13.3534 47.8135L13.6482 48.3557C14.8521 50.5617 17.1492 51.9297 19.6551 51.9297C22.1611 51.9297 24.4213 50.5741 25.6375 48.405L25.9323 47.8628L27.001 48.4667L26.7062 49.0089C25.2812 51.5723 22.5787 53.1621 19.6551 53.1621V53.1621Z" fill="white"/>
<path d="M24.0897 41.0723H22.7999V39.8398H24.0283L24.0897 41.0723Z" fill="white"/>
<path d="M16.4613 41.0723H15.1837V39.8398H16.4121L16.4613 41.0723Z" fill="white"/>
<path d="M135.31 122.202H48.8175C45.6483 122.202 43.0686 119.614 43.0686 116.435C43.0686 113.255 45.6483 110.667 48.8175 110.667H132.509C132.853 110.667 133.123 110.938 133.123 111.283C133.123 111.628 132.853 111.899 132.509 111.899H48.8175C46.3239 111.899 44.297 113.933 44.297 116.435C44.297 118.936 46.3239 120.97 48.8175 120.97H135.31C135.654 120.97 135.924 121.241 135.924 121.586C135.924 121.931 135.654 122.202 135.31 122.202V122.202Z" fill="white"/>
<path d="M77.8816 101.09C72.3292 101.09 67.8087 96.5549 67.8087 90.9844V90.3682H69.0371V90.9844C69.0371 95.877 73.0049 99.8577 77.8816 99.8577C82.7584 99.8577 86.7262 95.877 86.7262 90.9844V90.3682H87.9546V90.9844C87.9546 96.5549 83.434 101.09 77.8816 101.09Z" fill="white"/>
<path d="M58.9764 101.09C53.424 101.09 48.9035 96.5552 48.9035 90.9848V85.9072H50.1319V90.9848C50.1319 95.8774 54.0997 99.8581 58.9764 99.8581C63.8532 99.8581 67.821 95.8774 67.821 90.9848V90.3685H69.0494V90.9848C69.0494 96.5552 64.5288 101.09 58.9764 101.09Z" fill="white"/>
<path d="M96.7868 101.09C91.2344 101.09 86.7139 96.5549 86.7139 90.9844V90.3682H87.9423V90.9844C87.9423 95.877 91.91 99.8577 96.7868 99.8577C101.664 99.8577 105.631 95.877 105.631 90.9844V90.3682H106.86V90.9844C106.86 96.5549 102.339 101.09 96.7868 101.09Z" fill="white"/>
<path d="M115.692 101.09C110.14 101.09 105.619 96.5549 105.619 90.9844V90.3682H106.847V90.9844C106.847 95.877 110.815 99.8577 115.692 99.8577C120.569 99.8577 124.536 95.877 124.536 90.9844V90.3682H125.765V90.9844C125.765 96.5549 121.244 101.09 115.692 101.09Z" fill="white"/>
<path d="M133.442 101.041L132.841 100.93C128.025 100.08 124.536 95.8894 124.536 90.9844V90.3682H125.765V90.9844C125.765 95.2978 128.836 98.9704 133.049 99.7221L133.651 99.8331L133.442 101.041V101.041Z" fill="white"/>
<path d="M144.67 93.0306H143.442V83.1344C143.442 82.7893 143.159 82.5058 142.815 82.5058H50.7584C50.4144 82.5058 50.1319 82.7893 50.1319 83.1344V89.6292H48.9035V83.1344C48.9035 82.1115 49.7388 81.2734 50.7584 81.2734H142.815C143.835 81.2734 144.67 82.1115 144.67 83.1344V93.0306Z" fill="white"/>
<path d="M64.0866 70.293H62.8582V82.5185H64.0866V70.293Z" fill="white"/>
<path d="M130.728 70.293H129.499V82.5185H130.728V70.293Z" fill="white"/>
<path d="M100.791 49.3293H91.9838V35.7482C91.9838 34.7499 92.7945 33.9365 93.7895 33.9365H98.9857C99.9807 33.9365 100.791 34.7499 100.791 35.7482V49.3293ZM93.2122 48.0969H99.563V35.7482C99.563 35.4277 99.3051 35.1689 98.9857 35.1689H93.7895C93.4701 35.1689 93.2122 35.4277 93.2122 35.7482V48.0969Z" fill="white"/>
<path d="M102.437 48.0967H90.4605V49.3291H102.437V48.0967Z" fill="white"/>
<path d="M96.4551 35.1687C96.3569 35.1687 96.2709 35.144 96.1849 35.1071C95.8778 34.9592 95.7549 34.5895 95.9146 34.2814C95.9269 34.2567 97.3642 31.3113 96.1972 28.3658C96.0743 28.0454 96.2217 27.688 96.5411 27.5647C96.8605 27.4415 97.2167 27.5894 97.3396 27.9098C98.7031 31.3729 97.0816 34.6881 97.0079 34.8236C96.8974 35.0331 96.6885 35.1564 96.4551 35.1564V35.1687Z" fill="white"/>
<path d="M118.53 49.3293H109.722V35.7482C109.722 34.7499 110.533 33.9365 111.528 33.9365H116.724C117.719 33.9365 118.53 34.7499 118.53 35.7482V49.3293ZM110.95 48.0969H117.301V35.7482C117.301 35.4277 117.043 35.1689 116.724 35.1689H111.528C111.208 35.1689 110.95 35.4277 110.95 35.7482V48.0969Z" fill="white"/>
<path d="M120.176 48.0967H108.199V49.3291H120.176V48.0967Z" fill="white"/>
<path d="M114.193 35.1687C114.095 35.1687 114.009 35.144 113.923 35.1071C113.616 34.9592 113.493 34.5895 113.653 34.2814C113.665 34.2567 115.09 31.3113 113.935 28.3658C113.812 28.0454 113.96 27.688 114.279 27.5647C114.599 27.4415 114.955 27.5894 115.078 27.9098C116.441 31.3729 114.82 34.6881 114.746 34.8236C114.636 35.0331 114.427 35.1564 114.193 35.1564V35.1687Z" fill="white"/>
<path d="M82.9795 49.3293H74.1718V35.7482C74.1718 34.7499 74.9826 33.9365 75.9776 33.9365H81.1737C82.1687 33.9365 82.9795 34.7499 82.9795 35.7482V49.3293ZM75.4002 48.0969H81.7511V35.7482C81.7511 35.4277 81.4931 35.1689 81.1737 35.1689H75.9776C75.6582 35.1689 75.4002 35.4277 75.4002 35.7482V48.0969Z" fill="white"/>
<path d="M84.6501 48.0967H72.6609V49.3291H84.6501V48.0967Z" fill="white"/>
<path d="M78.6432 35.1687C78.5449 35.1687 78.459 35.144 78.373 35.1071C78.0659 34.9592 77.943 34.5895 78.1027 34.2814C78.115 34.2567 79.5522 31.3113 78.3853 28.3658C78.2624 28.0454 78.4098 27.688 78.7292 27.5647C79.0486 27.4415 79.4048 27.5894 79.5277 27.9098C80.8912 31.3729 79.2697 34.6881 79.196 34.8236C79.0854 35.0331 78.8766 35.1564 78.6432 35.1564V35.1687Z" fill="white"/>
<path d="M114.193 55.0968C113.849 55.0968 113.579 54.8256 113.579 54.4806V48.7129C113.579 48.3678 113.849 48.0967 114.193 48.0967C114.537 48.0967 114.808 48.3678 114.808 48.7129V54.4806C114.808 54.8256 114.537 55.0968 114.193 55.0968Z" fill="white"/>
<path d="M96.4551 55.0968C96.1111 55.0968 95.8409 54.8256 95.8409 54.4806V48.7129C95.8409 48.3678 96.1111 48.0967 96.4551 48.0967C96.799 48.0967 97.0693 48.3678 97.0693 48.7129V54.4806C97.0693 54.8256 96.799 55.0968 96.4551 55.0968Z" fill="white"/>
<path d="M78.6433 55.0968C78.2993 55.0968 78.0291 54.8256 78.0291 54.4806V48.7129C78.0291 48.3678 78.2993 48.0967 78.6433 48.0967C78.9872 48.0967 79.2575 48.3678 79.2575 48.7129V54.4806C79.2575 54.8256 78.9872 55.0968 78.6433 55.0968Z" fill="white"/>
<path d="M150.665 74.2608C147.078 74.2608 144.154 71.3277 144.154 67.729C144.154 64.1304 147.078 61.1973 150.665 61.1973C154.252 61.1973 157.175 64.1304 157.175 67.729C157.175 71.3277 154.252 74.2608 150.665 74.2608ZM150.665 62.4297C147.753 62.4297 145.382 64.8082 145.382 67.729C145.382 70.6498 147.753 73.0284 150.665 73.0284C153.576 73.0284 155.947 70.6498 155.947 67.729C155.947 64.8082 153.576 62.4297 150.665 62.4297Z" fill="white"/>
<path d="M156.561 68.3452C156.217 68.3452 155.947 68.0741 155.947 67.729V38.484C155.947 38.2005 156.131 37.9664 156.401 37.8924L188.217 29.2779C188.401 29.2286 188.598 29.2779 188.745 29.3888C188.893 29.4997 188.991 29.6846 188.991 29.8818V61.8258C188.991 62.1709 188.721 62.442 188.377 62.442C188.033 62.442 187.763 62.1709 187.763 61.8258V30.6705L157.175 38.9523V67.729C157.175 68.0741 156.905 68.3452 156.561 68.3452V68.3452Z" fill="white"/>
<path d="M182.48 68.3448C178.893 68.3448 175.97 65.4116 175.97 61.813C175.97 58.2144 178.893 55.2812 182.48 55.2812C186.067 55.2812 188.991 58.2144 188.991 61.813C188.991 65.4116 186.067 68.3448 182.48 68.3448ZM182.48 56.5137C179.569 56.5137 177.198 58.8922 177.198 61.813C177.198 64.7338 179.569 67.1124 182.48 67.1124C185.392 67.1124 187.763 64.7338 187.763 61.813C187.763 58.8922 185.392 56.5137 182.48 56.5137Z" fill="white"/>
<path d="M156.561 47.986C156.291 47.986 156.045 47.8012 155.971 47.53C155.885 47.1973 156.07 46.8645 156.401 46.7783L188.217 38.0035C188.549 37.9173 188.88 38.1021 188.979 38.4349C189.065 38.7676 188.88 39.1004 188.549 39.1866L156.733 47.9614C156.733 47.9614 156.622 47.986 156.573 47.986H156.561Z" fill="white"/>
<path d="M152.298 34.1464C152.04 34.1464 151.795 33.9739 151.721 33.7274C150.444 29.8946 147.287 29.2784 147.151 29.2537C146.857 29.2044 146.648 28.9456 146.648 28.6498C146.648 28.3541 146.857 28.0953 147.151 28.046C147.287 28.0213 150.444 27.4051 151.709 23.5723C151.881 23.067 152.704 23.067 152.876 23.5723C154.153 27.4051 157.31 28.0213 157.445 28.046C157.74 28.0953 157.949 28.3541 157.949 28.6498C157.949 28.9456 157.74 29.2044 157.445 29.2537C157.298 29.2784 154.153 29.9069 152.888 33.7274C152.802 33.9739 152.569 34.1464 152.311 34.1464H152.298ZM149.019 28.6498C150.05 29.1921 151.365 30.178 152.298 31.965C153.232 30.178 154.534 29.1921 155.578 28.6498C154.546 28.1076 153.232 27.1217 152.298 25.3347C151.365 27.1217 150.063 28.1076 149.019 28.6498Z" fill="white"/>
<path d="M143.159 49.3294C142.901 49.3294 142.655 49.1568 142.582 48.9104C141.095 44.4367 137.41 43.7342 137.263 43.6973C136.968 43.648 136.759 43.3892 136.759 43.0934C136.759 42.7976 136.968 42.5388 137.263 42.4895C137.422 42.4649 141.095 41.7501 142.582 37.2764C142.754 36.7711 143.577 36.7711 143.749 37.2764C145.247 41.7747 149.031 42.4772 149.068 42.4895C149.363 42.5388 149.571 42.7976 149.571 43.0934C149.571 43.3892 149.363 43.648 149.068 43.6973C148.908 43.7219 145.235 44.4367 143.749 48.9104C143.663 49.1568 143.429 49.3294 143.171 49.3294H143.159ZM139.191 43.0934C140.42 43.6973 142.054 44.8804 143.159 47.111C144.277 44.8804 145.898 43.7096 147.127 43.0934C145.898 42.4895 144.265 41.3064 143.159 39.0881C142.041 41.3187 140.42 42.4895 139.191 43.0934Z" fill="white"/>
<path d="M162.654 113.587H160.824C160.345 113.587 159.902 113.378 159.583 113.033C159.264 112.675 159.116 112.207 159.178 111.726C159.251 111.123 159.522 110.593 159.939 110.186C158.244 109.878 156.622 109.138 155.173 107.992L155.935 107.019C157.532 108.276 159.362 108.99 161.254 109.089H161.585H161.917C167.85 108.756 172.678 102.619 172.678 95.3847C172.678 88.1504 167.764 81.668 161.733 81.668C155.701 81.668 150.788 87.8177 150.788 95.3847H149.559C149.559 87.1399 155.026 80.4355 161.733 80.4355C168.44 80.4355 173.906 87.1399 173.906 95.3847C173.906 102.705 169.275 109.015 163.33 110.149C163.821 110.531 164.214 111.061 164.288 111.702C164.349 112.17 164.202 112.651 163.882 113.008C163.575 113.365 163.121 113.563 162.642 113.563L162.654 113.587ZM161.585 110.691L161.376 110.753C160.848 110.901 160.455 111.344 160.394 111.887C160.369 112.059 160.455 112.17 160.504 112.219C160.553 112.269 160.652 112.367 160.824 112.367H162.654C162.826 112.367 162.924 112.281 162.973 112.219C163.022 112.17 163.096 112.047 163.084 111.887C163.022 111.394 162.371 110.913 161.794 110.753L161.585 110.691Z" fill="white"/>
<path d="M160.517 118.788C159.46 116.151 161.536 112.971 161.782 112.626L162.801 113.316C162.801 113.316 160.836 116.249 161.671 118.332L160.529 118.788H160.517Z" fill="white"/>
<path d="M142.987 145.999C141.808 142.043 142.226 139.652 143.405 136.608C144.203 134.55 143.528 133.022 142.741 131.259C142.57 130.877 142.41 130.495 142.25 130.113C141.194 127.464 143.27 124.296 143.515 123.951L144.535 124.641C144.535 124.641 142.57 127.574 143.405 129.657C143.552 130.027 143.712 130.384 143.872 130.754C144.695 132.603 145.542 134.513 144.56 137.052C143.479 139.825 143.098 142.018 144.179 145.642L142.999 145.999H142.987Z" fill="white"/>
<path d="M175.368 119.601C161.315 119.601 152.225 117.937 152.102 117.912C151.77 117.851 151.549 117.53 151.611 117.198C151.672 116.865 151.991 116.643 152.323 116.705C152.495 116.742 170.209 119.971 194.507 117.333C194.838 117.296 195.145 117.543 195.182 117.875C195.219 118.208 194.973 118.516 194.642 118.553C187.578 119.317 181.068 119.588 175.368 119.588V119.601Z" fill="white"/>
<path d="M160.111 128.265C160.111 128.265 160.062 128.265 160.037 128.265C159.816 128.24 159.632 128.092 159.546 127.895L155.517 118.122C155.382 117.802 155.541 117.444 155.849 117.321C156.168 117.185 156.524 117.346 156.647 117.654L160.259 126.416L166.069 118.418C166.265 118.147 166.659 118.085 166.929 118.282C167.199 118.479 167.26 118.874 167.064 119.145L160.603 128.018C160.492 128.179 160.295 128.277 160.111 128.277V128.265Z" fill="white"/>
<path d="M173.169 128.363C172.948 128.363 172.739 128.24 172.641 128.043L167.825 119.145C167.666 118.849 167.776 118.467 168.071 118.307C168.366 118.147 168.747 118.258 168.906 118.553L173.206 126.49L177.726 118.652C177.898 118.356 178.279 118.258 178.562 118.43C178.857 118.603 178.955 118.972 178.783 119.268L173.722 128.055C173.611 128.252 173.415 128.363 173.194 128.363H173.169Z" fill="white"/>
<path d="M186.227 128.4C186.018 128.4 185.822 128.289 185.711 128.104L180.343 119.453C180.159 119.157 180.257 118.787 180.54 118.603C180.834 118.43 181.203 118.516 181.387 118.8L186.178 126.527L190.391 118.097C190.539 117.789 190.92 117.666 191.214 117.826C191.509 117.986 191.644 118.344 191.485 118.652L186.78 128.055C186.682 128.252 186.485 128.388 186.264 128.388C186.264 128.388 186.252 128.388 186.239 128.388L186.227 128.4Z" fill="white"/>
<path d="M160.111 134.574C153.969 134.574 150.222 134.291 150.124 134.278C149.78 134.254 149.535 133.958 149.559 133.613C149.584 133.268 149.915 133.021 150.222 133.046C150.493 133.071 176.989 135.055 205.366 128.252C205.697 128.166 206.029 128.375 206.103 128.708C206.176 129.041 205.98 129.373 205.648 129.447C187.689 133.761 170.479 134.562 160.099 134.562L160.111 134.574Z" fill="white"/>
<path d="M49.3949 69.2333H38.4375V58.2402H49.3949V69.2333ZM39.6659 68.0009H48.1665V59.4726H39.6659V68.0009Z" fill="white"/>
<path d="M128.05 142.426H126.821V141.193H128.05V142.426ZM123.136 142.426H121.908V141.193H123.136V142.426ZM118.222 142.426H116.994V141.193H118.222V142.426ZM113.309 142.426H112.08V141.193H113.309V142.426ZM108.395 142.426H107.167V141.193H108.395V142.426ZM103.482 142.426H102.253V141.193H103.482V142.426ZM98.568 142.426H97.3396V141.193H98.568V142.426ZM93.6543 142.426H92.4259V141.193H93.6543V142.426ZM88.7407 142.426H87.5123V141.193H88.7407V142.426ZM83.8271 142.426H82.5987V141.193H83.8271V142.426ZM78.9135 142.426H77.6851V141.193H78.9135V142.426Z" fill="white"/>
<path d="M171.081 25.1251C167.887 25.1251 165.283 22.5124 165.283 19.3082C165.283 16.1039 167.887 13.4912 171.081 13.4912C174.275 13.4912 176.879 16.1039 176.879 19.3082C176.879 22.5124 174.275 25.1251 171.081 25.1251ZM171.081 14.7236C168.563 14.7236 166.511 16.7817 166.511 19.3082C166.511 21.8346 168.563 23.8927 171.081 23.8927C173.599 23.8927 175.65 21.8346 175.65 19.3082C175.65 16.7817 173.599 14.7236 171.081 14.7236V14.7236Z" fill="white"/>
<path d="M166.597 166.704C166.536 166.704 166.474 166.704 166.401 166.704C164.005 166.606 162.593 164.486 162.74 161.171C162.826 159.051 163.588 156.574 164.939 154.59C163.956 153.85 162.826 153.382 161.573 153.32C154.829 152.975 153.846 160.863 153.809 161.195L152.593 161.06C152.593 160.973 153.687 152.076 161.217 152.076C161.352 152.076 161.487 152.076 161.634 152.076C163.17 152.137 164.533 152.716 165.7 153.591C167.125 151.952 169.005 150.868 171.351 150.954C173.66 150.88 175.552 151.952 176.965 153.579C178.12 152.704 179.483 152.137 181.019 152.063C188.954 151.718 190.047 160.949 190.06 161.035L188.844 161.171C188.807 160.838 187.861 153.283 181.436 153.283C181.313 153.283 181.203 153.283 181.08 153.283C179.839 153.333 178.697 153.813 177.726 154.553C179.065 156.537 179.827 159.014 179.913 161.134C180.048 164.449 178.648 166.569 176.252 166.667C174.066 166.741 172.702 165.275 172.592 162.699C172.481 160.123 173.746 156.66 176.031 154.392C174.827 153.012 173.231 152.076 171.363 152.174C169.422 152.088 167.862 153.024 166.659 154.405C168.943 156.672 170.196 160.135 170.086 162.711C169.975 165.213 168.685 166.68 166.622 166.68L166.597 166.704ZM176.756 155.415C174.827 157.4 173.697 160.407 173.796 162.674C173.845 163.993 174.312 165.558 176.179 165.459C178.648 165.361 178.709 162.181 178.672 161.208C178.599 159.371 177.935 157.178 176.768 155.403L176.756 155.415ZM165.872 155.415C164.705 157.19 164.042 159.384 163.956 161.208C163.919 162.181 163.968 165.349 166.45 165.459C168.292 165.558 168.771 163.993 168.833 162.674C168.931 160.407 167.801 157.4 165.872 155.415V155.415Z" fill="white"/>
<path d="M38.4497 135.623H19.6797V89.0625H38.4497V135.623ZM20.9081 134.39H37.2213V90.2949H20.9081V134.39Z" fill="#E4675B"/>
<path d="M19.6306 62.1593C9.98756 62.1593 2.15033 54.2965 2.15033 44.6221C2.15033 34.9477 9.98756 27.085 19.6306 27.085C29.2735 27.085 37.1108 34.9477 37.1108 44.6221C37.1108 54.2965 29.2735 62.1593 19.6306 62.1593V62.1593ZM19.6306 28.3174C10.6755 28.3174 3.37874 35.6255 3.37874 44.6221C3.37874 53.6187 10.6755 60.9269 19.6306 60.9269C28.5856 60.9269 35.8824 53.6187 35.8824 44.6221C35.8824 35.6255 28.5979 28.3174 19.6306 28.3174V28.3174Z" fill="#E4675B"/>
<path d="M99.649 32.7419C99.4893 32.7419 99.3296 32.6803 99.219 32.5571C98.9733 32.3106 98.9733 31.9285 99.219 31.6821C102.573 28.3176 98.482 22.6485 96.7376 20.5411C96.6394 20.7999 96.5411 21.0587 96.4182 21.3298C95.9146 22.4513 95.1776 23.4126 94.5142 24.2137C93.1753 25.8281 92.6225 27.344 92.8681 28.6996C93.2121 30.5606 94.9687 31.5835 94.981 31.5835C95.2758 31.756 95.3741 32.1257 95.2144 32.4215C95.0547 32.7173 94.6739 32.8282 94.3791 32.6557C94.2808 32.6064 92.1065 31.3616 91.6643 28.9215C91.3449 27.1838 91.9837 25.3228 93.5683 23.4126C94.1703 22.6855 94.8582 21.7981 95.3004 20.8122C95.5584 20.2453 95.7426 19.6784 95.8655 19.1485L96.1111 18.0146L96.9096 18.8527C97.2413 19.2101 105.103 27.5165 100.103 32.5447C99.9806 32.668 99.8209 32.7296 99.6735 32.7296L99.649 32.7419Z" fill="#E4675B"/>
<path d="M117.387 32.7416C117.227 32.7416 117.068 32.6799 116.957 32.5567C116.712 32.3102 116.712 31.9282 116.957 31.6817C120.311 28.3172 116.22 22.6481 114.476 20.5407C114.378 20.7995 114.279 21.0706 114.156 21.3295C113.653 22.4509 112.916 23.4122 112.252 24.201C110.913 25.8154 110.361 27.3313 110.606 28.6869C110.95 30.5479 112.707 31.5708 112.719 31.5708C113.014 31.7433 113.125 32.113 112.953 32.4088C112.793 32.7046 112.412 32.8155 112.117 32.643C112.019 32.5937 109.845 31.3489 109.403 28.9088C109.083 27.1711 109.722 25.3101 111.307 23.3999C111.908 22.6728 112.596 21.7854 113.039 20.7995C113.297 20.2326 113.481 19.678 113.604 19.1358L113.849 18.002L114.648 18.84C114.979 19.1974 122.841 27.5038 117.842 32.532C117.719 32.6553 117.559 32.7169 117.412 32.7169L117.387 32.7416Z" fill="#E4675B"/>
<path d="M76.8743 32.7417C76.776 32.7417 76.6655 32.717 76.5795 32.6677C76.4935 32.6185 74.3069 31.3737 73.8647 28.9459C73.5453 27.2082 74.1841 25.3472 75.7687 23.437C76.3706 22.7099 77.0586 21.8226 77.5008 20.8366C77.7587 20.2697 77.943 19.7028 78.0658 19.1729L78.3115 18.0391L79.11 18.8771C79.4417 19.2345 87.3035 27.5409 82.3038 32.5692C82.0582 32.8156 81.6774 32.8156 81.4317 32.5692C81.186 32.3227 81.186 31.9406 81.4317 31.6941C84.7975 28.3297 80.6946 22.6606 78.9503 20.5532C78.852 20.812 78.7538 21.0831 78.6309 21.3419C78.1273 22.4634 77.3902 23.4247 76.7269 24.2134C75.3879 25.8402 74.8351 27.3437 75.0808 28.7117C75.4248 30.585 77.1691 31.5832 77.1937 31.5956C77.4885 31.7558 77.5991 32.1378 77.4271 32.4336C77.3165 32.6308 77.1077 32.754 76.8866 32.754L76.8743 32.7417Z" fill="#E4675B"/>
<path d="M81.6651 71.9451C77.1568 71.9451 73.4839 68.2602 73.4839 63.7373V63.1211H74.7123V63.7373C74.7123 67.5824 77.8325 70.7127 81.6651 70.7127C85.4977 70.7127 88.6179 67.5824 88.6179 63.7373V63.1211H89.8463V63.7373C89.8463 68.2602 86.1734 71.9451 81.6651 71.9451Z" fill="#E4675B"/>
<path d="M66.5434 71.9451C62.0352 71.9451 58.3622 68.2602 58.3622 63.7372V57.5752H59.5907V63.7372C59.5907 67.5824 62.7108 70.7127 66.5434 70.7127C70.3761 70.7127 73.4962 67.5824 73.4962 63.7372V63.121H74.7246V63.7372C74.7246 68.2602 71.0517 71.9451 66.5434 71.9451V71.9451Z" fill="#E4675B"/>
<path d="M96.7868 71.9451C92.2786 71.9451 88.6057 68.2602 88.6057 63.7373V63.1211H89.8341V63.7373C89.8341 67.5824 92.9542 70.7127 96.7868 70.7127C100.619 70.7127 103.74 67.5824 103.74 63.7373V63.1211H104.968V63.7373C104.968 68.2602 101.295 71.9451 96.7868 71.9451Z" fill="#E4675B"/>
<path d="M111.921 71.9451C107.413 71.9451 103.74 68.2602 103.74 63.7373V63.1211H104.968V63.7373C104.968 67.5824 108.088 70.7127 111.921 70.7127C115.753 70.7127 118.874 67.5824 118.874 63.7373V63.1211H120.102V63.7373C120.102 68.2602 116.429 71.9451 111.921 71.9451Z" fill="#E4675B"/>
<path d="M127.042 71.9451C122.534 71.9451 118.861 68.2602 118.861 63.7372V63.121H120.09V63.7372C120.09 67.5824 123.21 70.7127 127.042 70.7127C130.875 70.7127 133.995 67.5824 133.995 63.7372V57.5752H135.224V63.7372C135.224 68.2602 131.551 71.9451 127.042 71.9451Z" fill="#E4675B"/>
<path d="M135.224 62.7755H133.995V55.4797C133.995 55.2702 133.823 55.0976 133.614 55.0976H59.9715C59.7626 55.0976 59.5907 55.2702 59.5907 55.4797V62.7755H58.3622V55.4797C58.3622 54.5924 59.087 53.8652 59.9715 53.8652H133.614C134.499 53.8652 135.224 54.5924 135.224 55.4797V62.7755Z" fill="#E4675B"/>
<path d="M144.4 124.926H142.569C142.09 124.926 141.648 124.716 141.329 124.359C141.022 124.001 140.862 123.533 140.923 123.052C140.997 122.461 141.267 121.919 141.685 121.524C135.776 120.452 131.305 114.228 131.305 106.735C131.305 98.4904 136.771 91.7861 143.478 91.7861C150.186 91.7861 155.652 98.4904 155.652 106.735C155.652 114.056 151.021 120.366 145.075 121.5C145.567 121.882 145.96 122.411 146.034 123.052C146.095 123.521 145.948 124.001 145.628 124.359C145.321 124.716 144.867 124.913 144.388 124.913L144.4 124.926ZM143.331 122.029L143.122 122.091C142.594 122.239 142.201 122.683 142.14 123.225C142.115 123.397 142.201 123.508 142.238 123.558C142.287 123.607 142.385 123.706 142.557 123.706H144.388C144.559 123.706 144.658 123.619 144.707 123.558C144.756 123.508 144.83 123.385 144.805 123.225C144.744 122.732 144.093 122.251 143.515 122.091L143.307 122.029H143.331ZM143.478 93.0309C137.447 93.0309 132.533 99.1806 132.533 106.748C132.533 114.315 137.128 120.119 142.987 120.452H143.319H143.65C149.584 120.119 154.411 113.982 154.411 106.748C154.411 99.5133 149.498 93.0309 143.466 93.0309H143.478Z" fill="#E4675B"/>
<path d="M158.76 144.065C158.76 144.065 158.735 144.065 158.723 144.065C158.502 144.065 158.305 143.917 158.207 143.72L153.527 134.243C153.379 133.934 153.502 133.565 153.809 133.417C154.116 133.269 154.485 133.392 154.632 133.7L158.834 142.192L164.091 133.824C164.275 133.54 164.656 133.454 164.939 133.626C165.221 133.799 165.307 134.193 165.135 134.477L159.3 143.781C159.19 143.966 158.993 144.065 158.784 144.065H158.76Z" fill="#E4675B"/>
<path d="M171.793 143.276C171.584 143.276 171.388 143.165 171.277 142.992L165.86 134.439C165.676 134.156 165.762 133.774 166.044 133.589C166.327 133.404 166.708 133.491 166.892 133.774L171.72 141.403L175.7 133.269C175.847 132.961 176.216 132.837 176.523 132.985C176.83 133.133 176.953 133.503 176.805 133.811L172.346 142.931C172.248 143.128 172.051 143.264 171.83 143.276C171.83 143.276 171.806 143.276 171.793 143.276V143.276Z" fill="#E4675B"/>
<path d="M184.827 142.426C184.63 142.426 184.446 142.327 184.323 142.167L178.378 133.897C178.181 133.626 178.242 133.232 178.513 133.035C178.783 132.837 179.176 132.899 179.373 133.17L184.679 140.552L188.131 132.295C188.266 131.987 188.622 131.839 188.93 131.962C189.237 132.098 189.396 132.455 189.261 132.763L185.379 142.031C185.293 142.241 185.109 142.376 184.888 142.401C184.864 142.401 184.839 142.401 184.814 142.401L184.827 142.426Z" fill="#E4675B"/>
<path d="M197.639 140.54C197.455 140.54 197.27 140.454 197.148 140.306L190.932 132.246C190.723 131.975 190.772 131.593 191.042 131.384C191.313 131.174 191.693 131.223 191.902 131.495L197.43 138.667L200.612 129.646C200.722 129.326 201.078 129.165 201.398 129.276C201.717 129.387 201.889 129.745 201.766 130.065L198.204 140.158C198.13 140.368 197.946 140.528 197.725 140.565C197.688 140.565 197.663 140.565 197.627 140.565L197.639 140.54Z" fill="#E4675B"/>
<path d="M187.91 98.9837C191.362 94.8181 192.676 88.7793 190.748 83.6402C189.875 81.3233 188.315 79.1049 186.018 78.0204C183.979 77.0714 181.608 77.244 179.753 78.538C177.898 79.832 176.891 82.075 177.739 84.2687C178.697 86.7582 181.264 88.0399 183.795 88.1878C189.151 88.4959 194.642 85.2423 197.872 81.1137C201.877 75.9992 202.847 68.9129 200.501 62.8618C200.219 62.1347 199.027 62.4428 199.322 63.1945C201.152 67.9023 200.931 73.3496 198.56 77.8355C196.41 81.8778 192.615 84.9958 188.242 86.3268C185.834 87.0663 182.898 87.4483 180.675 85.9818C178.893 84.7986 177.984 82.4694 179.336 80.6208C180.453 79.0926 182.603 78.3039 184.434 78.7598C186.583 79.2898 188.18 81.0645 189.138 82.987C191.546 87.818 190.428 94.0417 187.05 98.121C186.546 98.7249 187.419 99.5999 187.922 98.996L187.91 98.9837Z" fill="#E4675B"/>
<path d="M77.9921 134.033C76.1741 134.033 74.3437 133.343 72.9556 131.951C71.8378 130.829 70.3637 130.225 68.7914 130.225C67.219 130.225 65.7449 130.841 64.6271 131.951L63.7549 131.076C65.0938 129.732 66.8873 128.98 68.7914 128.98C70.6954 128.98 72.4766 129.72 73.8278 131.076C76.1249 133.38 79.8593 133.38 82.1564 131.076C84.9326 128.29 89.4409 128.29 92.2171 131.076C94.5142 133.38 98.2485 133.38 100.546 131.076C103.322 128.29 107.83 128.29 110.606 131.076C112.903 133.38 116.638 133.38 118.935 131.076C121.711 128.29 126.219 128.29 128.996 131.076L128.123 131.951C127.006 130.829 125.531 130.225 123.959 130.225C122.387 130.225 120.913 130.841 119.795 131.951C117.019 134.736 112.51 134.736 109.734 131.951C107.437 129.646 103.703 129.646 101.406 131.951C98.6293 134.736 94.1211 134.736 91.3449 131.951C89.0478 129.646 85.3134 129.646 83.0163 131.951C81.6282 133.343 79.8102 134.033 77.9798 134.033H77.9921Z" fill="#E4675B"/>
<path d="M181.006 10.7918H179.778C179.778 5.98545 175.884 2.06639 171.081 2.06639C166.278 2.06639 162.384 5.97313 162.384 10.7918H161.155C161.155 5.30763 165.602 0.833984 171.081 0.833984C176.559 0.833984 181.006 5.2953 181.006 10.7918Z" fill="#E4675B"/>
<path d="M162.396 10.7911H161.168C161.168 8.6344 159.423 6.87206 157.261 6.87206C155.099 6.87206 153.355 8.62208 153.355 10.7911H152.126C152.126 7.95658 154.424 5.63965 157.261 5.63965C160.099 5.63965 162.396 7.94425 162.396 10.7911Z" fill="#E4675B"/>
<path d="M62.1088 139.53H60.8804V144.719H62.1088V139.53Z" fill="#E4675B"/>
<path d="M62.1088 155.12H60.8804V160.309H62.1088V155.12Z" fill="#E4675B"/>
<path d="M62.1088 139.53H60.8804V144.719H62.1088V139.53Z" fill="#E4675B"/>
<path d="M62.1088 155.12H60.8804V160.309H62.1088V155.12Z" fill="#E4675B"/>
<path d="M71.8378 149.304H66.6662V150.536H71.8378V149.304Z" fill="#E4675B"/>
<path d="M56.3108 149.304H51.1392V150.536H56.3108V149.304Z" fill="#E4675B"/>
<path d="M71.8378 149.304H66.6662V150.536H71.8378V149.304Z" fill="#E4675B"/>
<path d="M56.3108 149.304H51.1392V150.536H56.3108V149.304Z" fill="#E4675B"/>
<path d="M68.3808 142.135L64.7239 145.804L65.5926 146.675L69.2494 143.006L68.3808 142.135Z" fill="#E4675B"/>
<path d="M57.3989 153.156L53.742 156.825L54.6106 157.697L58.2675 154.028L57.3989 153.156Z" fill="#E4675B"/>
<path d="M68.3808 142.135L64.7239 145.804L65.5926 146.675L69.2494 143.006L68.3808 142.135Z" fill="#E4675B"/>
<path d="M57.3989 153.156L53.742 156.825L54.6106 157.697L58.2675 154.028L57.3989 153.156Z" fill="#E4675B"/>
<path d="M65.5944 153.132L64.7258 154.004L68.3827 157.673L69.2513 156.801L65.5944 153.132Z" fill="#E4675B"/>
<path d="M54.6087 142.128L53.7401 142.999L57.397 146.668L58.2656 145.796L54.6087 142.128Z" fill="#E4675B"/>
<path d="M65.5944 153.132L64.7258 154.004L68.3827 157.673L69.2513 156.801L65.5944 153.132Z" fill="#E4675B"/>
<path d="M54.6087 142.128L53.7401 142.999L57.397 146.668L58.2656 145.796L54.6087 142.128Z" fill="#E4675B"/>
<path d="M204.321 111.911H193.364V100.918H204.321V111.911ZM194.592 110.679H203.093V102.15H194.592V110.679Z" fill="#E4675B"/>
</g>
<defs>
<clipPath id="clip0_313_12812">
<rect width="205.254" height="165.87" fill="white" transform="translate(0.872803 0.833984)"/>
</clipPath>
</defs>
</svg>
