<svg width="32" height="43" viewBox="0 0 32 43" fill="none" xmlns="http://www.w3.org/2000/svg">
<path d="M22.4135 17.8886C22.0095 17.8886 21.6248 17.6186 21.5094 17.2328C19.5089 11.2338 14.5654 10.2693 14.3538 10.2307C13.8921 10.1536 13.5651 9.74848 13.5651 9.28554C13.5651 8.82259 13.8921 8.41751 14.3538 8.34035C14.5654 8.30177 19.5089 7.3373 21.4902 1.33827C21.7595 0.5474 23.0483 0.5474 23.3176 1.33827C25.3181 7.3373 30.2616 8.30177 30.4732 8.34035C30.9349 8.41751 31.2619 8.82259 31.2619 9.28554C31.2619 9.74848 30.9349 10.1536 30.4732 10.2307C30.2424 10.2693 25.3181 11.2531 23.3368 17.2328C23.2021 17.6186 22.8367 17.8886 22.4327 17.8886H22.4135ZM17.2776 9.28554C18.8934 10.1343 20.9516 11.6774 22.4135 14.4744C23.8754 11.6774 25.9144 10.1343 27.5494 9.28554C25.9336 8.4368 23.8754 6.89364 22.4135 4.09666C20.9516 6.89364 18.9126 8.4368 17.2776 9.28554Z" fill="white"/>
<path d="M10.3324 42.9251C9.92848 42.9251 9.54376 42.655 9.42835 42.2692C7.10084 35.2671 1.33015 34.1676 1.09932 34.1098C0.637667 34.0326 0.310669 33.6275 0.310669 33.1646C0.310669 32.7016 0.637667 32.2966 1.09932 32.2194C1.34939 32.1808 7.10084 31.062 9.42835 24.0599C9.69765 23.2691 10.9864 23.2691 11.2557 24.0599C13.6025 31.1006 19.5271 32.2001 19.5848 32.2194C20.0464 32.2966 20.3734 32.7016 20.3734 33.1646C20.3734 33.6275 20.0464 34.0326 19.5848 34.1098C19.3347 34.1483 13.5832 35.2671 11.2557 42.2692C11.1211 42.655 10.7556 42.9251 10.3517 42.9251H10.3324ZM4.11931 33.1646C6.04288 34.1098 8.60122 35.9616 10.3324 39.453C12.0829 35.9616 14.622 34.1291 16.5455 33.1646C14.622 32.2194 12.0636 30.3676 10.3324 26.8955C8.58199 30.3869 6.04288 32.2194 4.11931 33.1646Z" fill="white"/>
</svg>
