<svg width="267" height="277" viewBox="0 0 267 277" fill="none" xmlns="http://www.w3.org/2000/svg">
<g clip-path="url(#clip0_351_687)">
<path d="M126.568 14.4205V82.5545" stroke="#4F4F4F" stroke-width="1.31192" stroke-linecap="round" stroke-linejoin="round"/>
<path d="M126.568 8.57508V1.29031" stroke="#4F4F4F" stroke-width="1.31192" stroke-linecap="round" stroke-linejoin="round"/>
<path d="M110.852 57.4717L103.564 24.0475" stroke="#4F4F4F" stroke-width="1.31192" stroke-linecap="round" stroke-linejoin="round"/>
<path d="M116.53 83.4999L112.427 64.6943" stroke="#4F4F4F" stroke-width="1.31192" stroke-linecap="round" stroke-linejoin="round"/>
<path d="M97.1725 56.6081L109.146 85.5705" stroke="#4F4F4F" stroke-width="1.31192" stroke-linecap="round" stroke-linejoin="round"/>
<path d="M71.8759 45.905L100.506 89.7967" stroke="#4F4F4F" stroke-width="1.31192" stroke-linecap="round" stroke-linejoin="round"/>
<path d="M64.0406 67.8476L92.4019 96.182" stroke="#4F4F4F" stroke-width="1.31192" stroke-linecap="round" stroke-linejoin="round"/>
<path d="M45.3679 75.4693L86.731 103.827" stroke="#4F4F4F" stroke-width="1.31192" stroke-linecap="round" stroke-linejoin="round"/>
<path d="M17.8547 56.6081L36.3475 69.2837" stroke="#4F4F4F" stroke-width="1.31192" stroke-linecap="round" stroke-linejoin="round"/>
<path d="M23.7974 85.5705L82.3173 111.203" stroke="#4F4F4F" stroke-width="1.31192" stroke-linecap="round" stroke-linejoin="round"/>
<path d="M35.1393 110.395L79.7078 120.019" stroke="#4F4F4F" stroke-width="1.31192" stroke-linecap="round" stroke-linejoin="round"/>
<path d="M9.30249 104.818L28.7742 109.021" stroke="#4F4F4F" stroke-width="1.31192" stroke-linecap="round" stroke-linejoin="round"/>
<path d="M69.9801 129.822H78.2213" stroke="#4F4F4F" stroke-width="1.31192" stroke-linecap="round" stroke-linejoin="round"/>
<path d="M1.11047 129.822H64.3125" stroke="#4F4F4F" stroke-width="1.31192" stroke-linecap="round" stroke-linejoin="round"/>
<path d="M37.703 147.561L79.256 139.177" stroke="#4F4F4F" stroke-width="1.31192" stroke-linecap="round" stroke-linejoin="round"/>
<path d="M8.4021 153.479L31.5409 148.808" stroke="#4F4F4F" stroke-width="1.31192" stroke-linecap="round" stroke-linejoin="round"/>
<path d="M54.4963 158.209L81.777 147.633" stroke="#4F4F4F" stroke-width="1.31192" stroke-linecap="round" stroke-linejoin="round"/>
<path d="M37.9321 164.633L47.4404 160.943" stroke="#4F4F4F" stroke-width="1.31192" stroke-linecap="round" stroke-linejoin="round"/>
<path d="M35.1425 188.378L86.1907 155.638" stroke="#4F4F4F" stroke-width="1.31192" stroke-linecap="round" stroke-linejoin="round"/>
<path d="M40.5449 215.542L92.6703 163.371" stroke="#4F4F4F" stroke-width="1.31192" stroke-linecap="round" stroke-linejoin="round"/>
<path d="M81.3285 196.922L99.9653 169.128" stroke="#4F4F4F" stroke-width="1.31192" stroke-linecap="round" stroke-linejoin="round"/>
<path d="M107.437 173.537L75.2974 246.931" stroke="#4F4F4F" stroke-width="1.31192" stroke-linecap="round" stroke-linejoin="round"/>
<path d="M103.387 235.737L99.1533 254.936" stroke="#4F4F4F" stroke-width="1.31192" stroke-linecap="round" stroke-linejoin="round"/>
<path d="M116.438 176.504L105.325 226.935" stroke="#4F4F4F" stroke-width="1.31192" stroke-linecap="round" stroke-linejoin="round"/>
<path d="M126.522 192.604V275.982" stroke="#4F4F4F" stroke-width="1.31192" stroke-linecap="round" stroke-linejoin="round"/>
<path d="M126.522 177.312V188.555" stroke="#4F4F4F" stroke-width="1.31192" stroke-linecap="round" stroke-linejoin="round"/>
<path d="M150.035 235.79L154.252 254.844" stroke="#4F4F4F" stroke-width="1.31192" stroke-linecap="round" stroke-linejoin="round"/>
<path d="M136.875 176.324L148.155 227.285" stroke="#4F4F4F" stroke-width="1.31192" stroke-linecap="round" stroke-linejoin="round"/>
<path d="M145.519 173.354L178.291 247.559" stroke="#4F4F4F" stroke-width="1.31192" stroke-linecap="round" stroke-linejoin="round"/>
<path d="M152.991 168.768L172.08 197.011" stroke="#4F4F4F" stroke-width="1.31192" stroke-linecap="round" stroke-linejoin="round"/>
<path d="M160.375 163.462L222.404 224.894" stroke="#4F4F4F" stroke-width="1.31192" stroke-linecap="round" stroke-linejoin="round"/>
<path d="M167.037 155.366L218.262 188.467" stroke="#4F4F4F" stroke-width="1.31192" stroke-linecap="round" stroke-linejoin="round"/>
<path d="M185.016 152.569L215.473 164.542" stroke="#4F4F4F" stroke-width="1.31192" stroke-linecap="round" stroke-linejoin="round"/>
<path d="M171.088 147.094L177.626 149.661" stroke="#4F4F4F" stroke-width="1.31192" stroke-linecap="round" stroke-linejoin="round"/>
<path d="M221.255 148.608L244.915 153.479" stroke="#4F4F4F" stroke-width="1.31192" stroke-linecap="round" stroke-linejoin="round"/>
<path d="M173.7 138.818L215.309 147.385" stroke="#4F4F4F" stroke-width="1.31192" stroke-linecap="round" stroke-linejoin="round"/>
<path d="M209.347 129.91H265.801" stroke="#4F4F4F" stroke-width="1.31192" stroke-linecap="round" stroke-linejoin="round"/>
<path d="M174.418 129.91H203.951" stroke="#4F4F4F" stroke-width="1.31192" stroke-linecap="round" stroke-linejoin="round"/>
<path d="M210.768 112.132L252.386 103.199" stroke="#4F4F4F" stroke-width="1.31192" stroke-linecap="round" stroke-linejoin="round"/>
<path d="M173.609 120.11L204.517 113.473" stroke="#4F4F4F" stroke-width="1.31192" stroke-linecap="round" stroke-linejoin="round"/>
<path d="M170.459 111.474L221.144 89.1655" stroke="#4F4F4F" stroke-width="1.31192" stroke-linecap="round" stroke-linejoin="round"/>
<path d="M216.55 69.4177L235.098 56.7847" stroke="#4F4F4F" stroke-width="1.31192" stroke-linecap="round" stroke-linejoin="round"/>
<path d="M166.137 103.738L207.857 75.3352" stroke="#4F4F4F" stroke-width="1.31192" stroke-linecap="round" stroke-linejoin="round"/>
<path d="M160.555 96.3619L189.093 67.7593" stroke="#4F4F4F" stroke-width="1.31192" stroke-linecap="round" stroke-linejoin="round"/>
<path d="M152.631 89.7967L181.621 45.9933" stroke="#4F4F4F" stroke-width="1.31192" stroke-linecap="round" stroke-linejoin="round"/>
<path d="M144.259 85.6588L156.052 56.4249" stroke="#4F4F4F" stroke-width="1.31192" stroke-linecap="round" stroke-linejoin="round"/>
<path d="M143.522 45.254L149.209 17.479" stroke="#4F4F4F" stroke-width="1.31192" stroke-linecap="round" stroke-linejoin="round"/>
<path d="M135.707 83.4115L142.193 51.7341" stroke="#4F4F4F" stroke-width="1.31192" stroke-linecap="round" stroke-linejoin="round"/>
</g>
<defs>
<clipPath id="clip0_351_687">
<rect width="266" height="276" fill="white" transform="translate(0.455566 0.636093)"/>
</clipPath>
</defs>
</svg>
