<svg width="464" height="424" viewBox="0 0 464 424" fill="none" xmlns="http://www.w3.org/2000/svg">
<g clip-path="url(#clip0_351_1698)">
<path d="M392.266 357.813L394.876 356.981C398.606 355.786 402.595 357.845 403.789 361.578L404.536 363.926" stroke="white" stroke-width="3.52189" stroke-linecap="round" stroke-linejoin="round"/>
<path d="M249.96 235.154L249.337 232.486C248.446 228.669 250.814 224.852 254.627 223.96L257.024 223.397" stroke="white" stroke-width="3.52189" stroke-linecap="round" stroke-linejoin="round"/>
<path d="M99.5977 246.103L102.324 245.815C106.216 245.405 109.708 248.232 110.117 252.128L110.373 254.578" stroke="white" stroke-width="3.52189" stroke-linecap="round" stroke-linejoin="round"/>
<path d="M85.2239 272.06C85.2239 273.385 84.151 274.463 82.8274 274.463C81.5038 274.463 80.4309 273.385 80.4309 272.06C80.4309 270.735 81.5038 269.661 82.8274 269.661C84.151 269.661 85.2239 270.735 85.2239 272.06Z" fill="white"/>
<path d="M12.0939 348.059C12.0939 349.384 11.021 350.463 9.69738 350.463C8.37375 350.463 7.3009 349.384 7.3009 348.059C7.3009 346.734 8.37375 345.661 9.69738 345.661C11.021 345.661 12.0939 346.734 12.0939 348.059Z" fill="white"/>
<path d="M305.44 275.144C305.44 276.469 304.367 277.548 303.043 277.548C301.72 277.548 300.647 276.469 300.647 275.144C300.647 273.82 301.72 272.746 303.043 272.746C304.367 272.746 305.44 273.82 305.44 275.144Z" fill="white"/>
<path d="M385.23 249.141C385.23 250.466 384.157 251.545 382.833 251.545C381.51 251.545 380.437 250.466 380.437 249.141C380.437 247.816 381.51 246.742 382.833 246.742C384.157 246.742 385.23 247.816 385.23 249.141Z" fill="white"/>
<path d="M81.6586 218.164C81.6586 219.489 80.5857 220.563 79.2621 220.563C77.9384 220.563 76.8656 219.489 76.8656 218.164C76.8656 216.839 77.9384 215.765 79.2621 215.765C80.5857 215.765 81.6586 216.839 81.6586 218.164Z" fill="white"/>
<path d="M162.375 90.6573C162.375 91.9822 161.303 93.0607 159.979 93.0607C158.655 93.0607 157.582 91.9868 157.582 90.6573C157.582 89.3277 158.655 88.2585 159.979 88.2585C161.303 88.2585 162.375 89.3323 162.375 90.6573Z" fill="white"/>
<path d="M63.4911 333.76C63.4911 335.085 62.4182 336.163 61.0946 336.163C59.771 336.163 58.6981 335.089 58.6981 333.76C58.6981 332.43 59.771 331.361 61.0946 331.361C62.4182 331.361 63.4911 332.435 63.4911 333.76Z" fill="white"/>
<path d="M38.8776 312.384C38.8776 313.709 37.8047 314.788 36.4811 314.788C35.1574 314.788 34.0846 313.709 34.0846 312.384C34.0846 311.059 35.1574 309.985 36.4811 309.985C37.8047 309.985 38.8776 311.059 38.8776 312.384Z" fill="#E4675B"/>
<path d="M81.2852 71.174C81.2852 72.4989 80.2123 73.5774 78.8887 73.5774C77.565 73.5774 76.4922 72.4989 76.4922 71.174C76.4922 69.849 77.565 68.7751 78.8887 68.7751C80.2123 68.7751 81.2852 69.849 81.2852 71.174Z" fill="#E4675B"/>
<path d="M434.376 254.655C434.376 255.98 433.303 257.053 431.98 257.053C430.656 257.053 429.583 255.98 429.583 254.655C429.583 253.33 430.656 252.256 431.98 252.256C433.303 252.256 434.376 253.334 434.376 254.655Z" fill="#E4675B"/>
<path d="M22.014 141.767C22.014 143.092 20.9412 144.166 19.6176 144.166C18.2939 144.166 17.2211 143.092 17.2211 141.767C17.2211 140.442 18.2939 139.368 19.6176 139.368C20.9412 139.368 22.014 140.442 22.014 141.767V141.767Z" fill="#E4675B"/>
<path d="M58.5559 242.661C58.5559 243.986 57.4831 245.059 56.1594 245.059C54.8358 245.059 53.7629 243.986 53.7629 242.661C53.7629 241.336 54.8358 240.262 56.1594 240.262C57.4831 240.262 58.5559 241.34 58.5559 242.661Z" fill="#E4675B"/>
<path d="M413.686 99.5551C413.686 100.88 412.613 101.954 411.289 101.954C409.966 101.954 408.893 100.88 408.893 99.5551C408.893 98.2302 409.966 97.1563 411.289 97.1563C412.613 97.1563 413.686 98.2302 413.686 99.5551Z" fill="#E4675B"/>
<path d="M390.617 301.297C390.617 302.622 389.544 303.695 388.221 303.695C386.897 303.695 385.824 302.622 385.824 301.297C385.824 299.972 386.897 298.898 388.221 298.898C389.544 298.898 390.617 299.976 390.617 301.297Z" fill="#E4675B"/>
<path d="M184.186 116.612C184.186 117.937 183.113 119.011 181.789 119.011C180.465 119.011 179.393 117.937 179.393 116.612C179.393 115.287 180.465 114.213 181.789 114.213C183.113 114.213 184.186 115.287 184.186 116.612Z" fill="#E4675B"/>
<path d="M337.458 239.044C337.458 240.369 336.385 241.443 335.062 241.443C333.738 241.443 332.665 240.369 332.665 239.044C332.665 237.719 333.738 236.645 335.062 236.645C336.385 236.645 337.458 237.719 337.458 239.044Z" fill="#E4675B"/>
<path d="M455.852 292.269C455.852 293.593 454.779 294.667 453.455 294.667C452.131 294.667 451.059 293.593 451.059 292.269C451.059 290.944 452.131 289.87 453.455 289.87C454.779 289.87 455.852 290.944 455.852 292.269Z" fill="#E4675B"/>
<path d="M117.119 223.793C117.119 225.118 116.046 226.192 114.718 226.192C113.39 226.192 112.322 225.114 112.322 223.793C112.322 222.473 113.394 221.394 114.718 221.394C116.042 221.394 117.119 222.468 117.119 223.793Z" fill="#E4675B"/>
<path d="M68.4855 117.476C68.4855 118.801 67.408 119.875 66.0843 119.875C64.7607 119.875 63.6879 118.801 63.6879 117.476C63.6879 116.152 64.7607 115.078 66.0843 115.078C67.408 115.078 68.4855 116.152 68.4855 117.476V117.476Z" fill="#E4675B"/>
<path d="M63.4911 389.428C63.4911 390.753 62.4182 391.827 61.0946 391.827C59.771 391.827 58.6981 390.749 58.6981 389.428C58.6981 388.108 59.771 387.03 61.0946 387.03C62.4182 387.03 63.4911 388.104 63.4911 389.428Z" fill="#E4675B"/>
<path d="M398.39 270.119C398.39 270.119 401.214 268.483 405.143 271.216C409.072 273.95 406.546 277.278 411.539 280.756C416.531 284.228 421.241 282.42 421.241 282.42" stroke="white" stroke-width="3.52189" stroke-linecap="round" stroke-linejoin="round"/>
<path d="M172.621 221.628C172.621 221.628 175.774 220.782 178.858 224.441C181.942 228.099 178.64 230.656 182.56 235.314C186.48 239.968 191.495 239.442 191.495 239.442" stroke="white" stroke-width="3.52189" stroke-linecap="round" stroke-linejoin="round"/>
<path d="M423.634 72.9358C423.634 72.9358 422.064 70.0721 424.888 66.2043C427.707 62.3364 430.977 64.9444 434.567 60.026C438.152 55.1121 436.457 50.3564 436.457 50.3564" stroke="white" stroke-width="3.52189" stroke-linecap="round" stroke-linejoin="round"/>
<path d="M118.691 99.5505C118.691 99.5505 117.121 96.6868 119.945 92.819C122.764 88.9511 126.033 91.5591 129.624 86.6406C133.209 81.7268 131.514 76.971 131.514 76.971" stroke="white" stroke-width="3.52189" stroke-linecap="round" stroke-linejoin="round"/>
<path d="M224.832 202.249L222.092 202.286C218.177 202.337 215.042 205.554 215.093 209.473L215.125 211.937" stroke="#4F4F4F" stroke-width="3.52189" stroke-linecap="round" stroke-linejoin="round"/>
<path d="M422.352 214.995C422.352 214.995 422.175 212.75 425.046 211.109C427.916 209.473 429.235 212.039 432.885 209.961C436.531 207.883 436.81 204.41 436.81 204.41" stroke="#4F4F4F" stroke-width="3.52189" stroke-linecap="round" stroke-linejoin="round"/>
<path d="M351.811 386.857L354.388 385.932C358.076 384.607 359.989 380.544 358.666 376.852L357.834 374.533" stroke="#4F4F4F" stroke-width="3.52189" stroke-linecap="round" stroke-linejoin="round"/>
<path d="M358.386 194.353L366.338 215.97" stroke="white" stroke-width="3.52189" stroke-linecap="round" stroke-linejoin="round"/>
<path d="M40.0387 369.342C39.8251 369.342 39.6068 369.309 39.3885 369.239C38.2925 368.886 37.6934 367.696 38.0463 366.599C38.1021 366.422 39.5139 362.21 44.5438 360.741C47.3815 359.914 49.1184 360.625 50.3817 361.146C51.2502 361.504 51.645 361.667 52.4345 361.434C54.1715 360.927 54.4594 359.984 54.4873 359.877C54.4734 359.932 54.4687 359.965 54.4687 359.965L58.5929 360.607C58.3886 361.922 57.1067 364.423 53.6002 365.446C51.4081 366.088 49.894 365.465 48.7933 365.009C47.7994 364.6 47.1446 364.33 45.7095 364.749C42.8579 365.585 42.0358 367.812 42.0033 367.91C41.72 368.793 40.9072 369.346 40.0295 369.346L40.0387 369.342Z" fill="#E4675B"/>
<path d="M424.024 174.364C423.472 174.364 422.919 174.146 422.505 173.709C421.716 172.872 421.753 171.547 422.589 170.757L438.18 156.006C439.016 155.216 440.34 155.253 441.129 156.09C441.919 156.927 441.882 158.251 441.046 159.042L425.455 173.793C425.051 174.174 424.535 174.364 424.024 174.364Z" fill="#E4675B"/>
<path d="M234.047 67.8407C233.253 67.8407 232.496 67.3851 232.143 66.6134L228.437 58.4082C227.963 57.3575 228.427 56.1209 229.477 55.6467C230.526 55.1726 231.762 55.6374 232.236 56.6881L235.942 64.8933C236.415 65.9439 235.951 67.1805 234.901 67.6547C234.623 67.7802 234.33 67.8407 234.042 67.8407H234.047Z" fill="#E4675B"/>
<path d="M349.821 131.479C349.041 131.479 348.293 131.042 347.935 130.289L341.847 117.514C341.35 116.472 341.791 115.226 342.831 114.729C343.872 114.232 345.116 114.673 345.613 115.715L351.702 128.49C352.199 129.531 351.758 130.777 350.717 131.274C350.429 131.414 350.123 131.479 349.821 131.479V131.479Z" fill="#E4675B"/>
<path d="M127.427 284.147C126.944 284.147 126.456 283.98 126.066 283.64C125.193 282.887 125.1 281.567 125.852 280.693L130.334 275.5C131.086 274.626 132.405 274.533 133.279 275.286C134.152 276.039 134.245 277.36 133.492 278.234L129.01 283.426C128.597 283.905 128.017 284.152 127.431 284.152L127.427 284.147Z" fill="#E4675B"/>
<path d="M320.567 310.056C320.084 310.056 319.597 309.888 319.207 309.549C318.334 308.796 318.241 307.476 318.993 306.602L323.475 301.409C324.227 300.535 325.546 300.442 326.419 301.195C327.292 301.948 327.385 303.268 326.633 304.142L322.151 309.335C321.738 309.814 321.157 310.06 320.572 310.06L320.567 310.056Z" fill="#E4675B"/>
<path d="M95.2486 423.325C95.0164 423.325 94.7795 423.288 94.5473 423.205L76.7456 416.836C75.6588 416.45 75.0968 415.25 75.4823 414.167C75.8724 413.079 77.066 412.517 78.1481 412.903L95.9499 419.272C97.0367 419.657 97.5987 420.857 97.2132 421.94C96.9067 422.795 96.1032 423.325 95.2486 423.325V423.325Z" fill="#E4675B"/>
<path d="M235.71 380.866C235.255 380.866 234.795 380.717 234.414 380.415L223.653 371.856C222.752 371.14 222.599 369.825 223.319 368.923C224.034 368.021 225.348 367.867 226.249 368.588L237.01 377.146C237.911 377.862 238.064 379.178 237.345 380.08C236.931 380.601 236.323 380.87 235.71 380.87V380.866Z" fill="#E4675B"/>
<path d="M303.178 233.887C302.713 233.887 302.244 233.733 301.859 233.412L290.262 223.91C289.37 223.18 289.24 221.865 289.969 220.972C290.699 220.079 292.013 219.949 292.905 220.679L304.502 230.181C305.393 230.911 305.523 232.227 304.794 233.119C304.381 233.622 303.782 233.887 303.178 233.887Z" fill="#E4675B"/>
<path d="M12.8369 281.553C12.2517 281.553 11.6758 281.311 11.2625 280.832C10.5055 279.963 10.5983 278.643 11.4668 277.885L23.5561 267.369C24.4246 266.612 25.7435 266.705 26.5006 267.574C27.2576 268.443 27.1647 269.763 26.2962 270.521L14.207 281.037C13.8122 281.381 13.3246 281.548 12.8416 281.548L12.8369 281.553Z" fill="#E4675B"/>
<path d="M82.8226 318.706L93.9087 306.062" stroke="#E0E0E0" stroke-width="3.52189" stroke-linecap="round" stroke-linejoin="round"/>
<path d="M120.883 32.3095L123.326 31.0636C126.814 29.2877 131.082 30.6778 132.861 34.169L133.976 36.3633" stroke="#E0E0E0" stroke-width="3.52189" stroke-linecap="round" stroke-linejoin="round"/>
<path d="M9.87881 233.86L12.4378 223.512L2.15991 226.301" stroke="#E0E0E0" stroke-width="3.52189" stroke-linecap="round" stroke-linejoin="round"/>
<path d="M239.754 345.959L230.944 339.971L229.996 350.589" stroke="#E0E0E0" stroke-width="3.52189" stroke-linecap="round" stroke-linejoin="round"/>
<path d="M453.27 376.194L450.711 365.846L460.989 368.635" stroke="#E0E0E0" stroke-width="3.52189" stroke-linecap="round" stroke-linejoin="round"/>
<path d="M352.854 286.56L354.447 281.85L348.661 273.315L353.435 272.781" stroke="#E0E0E0" stroke-width="4.21112" stroke-linecap="round" stroke-linejoin="round"/>
<path d="M207.11 33.3322V10.618" stroke="#E0E0E0" stroke-width="3.52189" stroke-linecap="round" stroke-linejoin="round"/>
<path d="M339.739 321.886L346.552 331.514" stroke="#E0E0E0" stroke-width="3.52189" stroke-linecap="round" stroke-linejoin="round"/>
<path d="M267.11 306.062L258.439 320.431" stroke="#E0E0E0" stroke-width="3.52189" stroke-linecap="round" stroke-linejoin="round"/>
<path d="M271.922 48.2551L291.735 41.6072" stroke="#E0E0E0" stroke-width="3.52189" stroke-linecap="round" stroke-linejoin="round"/>
<path d="M45.8212 156.099H27.1416" stroke="#E0E0E0" stroke-width="3.52189" stroke-linecap="round" stroke-linejoin="round"/>
<path d="M347.109 65.7533L363.016 70.286" stroke="#E0E0E0" stroke-width="3.52189" stroke-linecap="round" stroke-linejoin="round"/>
<path d="M29.0876 14.5927L14.9363 2.16171" stroke="#E0E0E0" stroke-width="3.52189" stroke-linecap="round" stroke-linejoin="round"/>
<path d="M355.06 14.2348L363.787 2.51501" stroke="#E0E0E0" stroke-width="3.52189" stroke-linecap="round" stroke-linejoin="round"/>
<path d="M343.101 418.216L355.599 407.858" stroke="#E0E0E0" stroke-width="3.52189" stroke-linecap="round" stroke-linejoin="round"/>
</g>
<defs>
<clipPath id="clip0_351_1698">
<rect width="463.148" height="423.385" fill="white"/>
</clipPath>
</defs>
</svg>
