<svg width="372" height="333" viewBox="0 0 372 333" fill="none" xmlns="http://www.w3.org/2000/svg">
<g clip-path="url(#clip0_64_6)">
<path d="M296.889 45.7972C289.09 45.7972 282.745 39.4525 282.745 31.6528C282.745 23.8531 289.09 17.5084 296.889 17.5084C304.689 17.5084 311.034 23.8531 311.034 31.6528C311.034 39.4525 304.689 45.7972 296.889 45.7972ZM296.889 19.8936C290.401 19.8936 285.13 25.1649 285.13 31.6528C285.13 38.1406 290.401 43.4119 296.889 43.4119C303.377 43.4119 308.648 38.1406 308.648 31.6528C308.648 25.1649 303.377 19.8936 296.889 19.8936Z" fill="#E4675B"/>
<path d="M216.65 125.869C215.982 125.869 215.458 125.345 215.458 124.677V75.4456C215.458 74.2052 216.483 73.1796 217.724 73.1796H258.463C259.704 73.1796 260.729 74.2052 260.729 75.4456V121.552C260.729 122.22 260.204 122.745 259.537 122.745C258.869 122.745 258.344 122.22 258.344 121.552V75.4456L217.724 75.5648L217.843 124.677C217.843 125.345 217.318 125.869 216.65 125.869Z" fill="#E4675B"/>
<path d="M98.9391 162.912H32.2481C30.1491 162.912 28.4556 161.218 28.4556 159.119V148.672C28.4556 144.903 31.5326 141.826 35.3012 141.826H95.8383C99.607 141.826 102.684 144.903 102.684 148.672V159.119C102.684 161.218 100.99 162.912 98.8914 162.912H98.9391ZM35.3251 144.212C32.8683 144.212 30.8647 146.215 30.8647 148.672V159.119C30.8647 159.883 31.4849 160.527 32.272 160.527H98.9391C99.7024 160.527 100.346 159.907 100.346 159.119V148.672C100.346 146.215 98.3428 144.212 95.886 144.212H35.3251Z" fill="#E4675B"/>
<path d="M155.612 240.313H137.699V237.927H153.227V224.475H155.612V240.313Z" fill="#E4675B"/>
<path d="M105.976 240.313H88.5396V193.443C88.5396 182.399 97.5319 173.407 108.575 173.407H135.552C140.919 173.407 145.952 175.482 149.721 179.275L150.555 180.109L148.862 181.803L148.027 180.968C144.688 177.629 140.251 175.792 135.529 175.792H108.552C98.8199 175.792 90.9009 183.711 90.9009 193.443V237.927H105.952V240.313H105.976Z" fill="#E4675B"/>
<path d="M123.507 238.524H121.122V289.162H123.507V238.524Z" fill="#E4675B"/>
<path d="M122.314 165.035C114.562 165.035 108.242 158.714 108.242 150.962C108.242 143.21 114.562 136.889 122.314 136.889C130.066 136.889 136.387 143.21 136.387 150.962C136.387 158.714 130.066 165.035 122.314 165.035ZM122.314 139.274C115.874 139.274 110.627 144.522 110.627 150.962C110.627 157.402 115.874 162.65 122.314 162.65C128.755 162.65 134.002 157.402 134.002 150.962C134.002 144.522 128.755 139.274 122.314 139.274Z" fill="#E4675B"/>
<path d="M105.976 204.224H103.59V289.186H105.976V204.224Z" fill="#E4675B"/>
<path d="M140.084 204.224H137.699V289.186H140.084V204.224Z" fill="#E4675B"/>
<path d="M270.318 192.87L269.435 192.059C266.168 189.078 261.946 187.432 257.533 187.432H230.556C226.931 187.432 223.424 188.529 220.467 190.604L219.489 191.296L218.129 189.34L219.107 188.649C222.47 186.311 226.43 185.047 230.556 185.047H257.533C262.542 185.047 267.336 186.907 271.057 190.294L271.94 191.105L270.342 192.87H270.318Z" fill="#E4675B"/>
<path d="M227.932 251.976H210.496V221.66H212.882V249.591H227.932V251.976Z" fill="#E4675B"/>
<path d="M245.464 250.164H243.078V300.802H245.464V250.164Z" fill="#E4675B"/>
<path d="M244.271 176.699C236.519 176.699 230.198 170.378 230.198 162.626C230.198 154.874 235.947 149.078 243.317 148.577L244.51 148.505L244.677 150.89L243.484 150.962C237.378 151.367 232.607 156.496 232.607 162.626C232.607 169.066 237.855 174.313 244.295 174.313C248.684 174.313 252.667 171.904 254.671 167.992L255.219 166.943L257.342 168.04L256.794 169.09C254.361 173.789 249.566 176.699 244.295 176.699H244.271Z" fill="#E4675B"/>
<path d="M227.932 215.864H225.547V300.826H227.932V215.864Z" fill="#E4675B"/>
<path d="M262.041 266.979H259.656V300.826H262.041V266.979Z" fill="#E4675B"/>
<path d="M77.7583 74.6823C77.4005 74.6823 77.0189 74.563 76.7088 74.3484C76.1602 73.9429 75.8979 73.275 75.9933 72.6071L79.5473 51.8557L64.4726 37.1627C63.9956 36.6856 63.8047 35.9939 64.0194 35.3499C64.2341 34.7059 64.7827 34.2527 65.4506 34.1334L86.2736 31.1042L95.5998 12.237C95.9099 11.6168 96.5062 11.2591 97.1979 11.2591C97.8658 11.2591 98.486 11.6407 98.796 12.237L108.122 31.1042L128.945 34.1334C129.613 34.2288 130.162 34.682 130.376 35.326C130.591 35.97 130.424 36.6618 129.923 37.1388L114.849 51.8318L118.403 72.5833C118.522 73.2512 118.26 73.919 117.687 74.3245C117.138 74.73 116.423 74.7777 115.827 74.4676L97.1979 64.6643L78.5693 74.4676C78.3069 74.6107 78.0207 74.6823 77.7345 74.6823H77.7583ZM67.0487 36.3278L81.4554 50.3768C81.8848 50.7823 82.0756 51.3786 81.9563 51.9511L78.5455 71.7962L96.3631 62.4222C96.8879 62.1598 97.4842 62.1598 98.0089 62.4222L115.827 71.7962L112.416 51.9511C112.32 51.3786 112.511 50.7823 112.917 50.3768L127.323 36.3278L107.407 33.4417C106.834 33.3701 106.333 32.9885 106.071 32.4637L97.1741 14.4076L88.2772 32.4637C88.0148 32.9885 87.5139 33.3463 86.9415 33.4417L67.0248 36.3278H67.0487Z" fill="#E4675B"/>
<path d="M77.6152 70.532C77.3528 70.532 77.0904 70.4604 76.8519 70.3412L63.3992 63.2809L49.9465 70.3412C49.3979 70.6274 48.7539 70.5797 48.253 70.2219C47.7521 69.8641 47.5136 69.244 47.609 68.6477L50.1851 53.6684L39.3084 43.0542C38.8552 42.6248 38.7121 41.9808 38.9029 41.4083C39.0937 40.812 39.5947 40.4066 40.2148 40.3111L55.2417 38.1167L61.9681 24.4971C62.5167 23.376 64.3056 23.376 64.8781 24.4971L67.8358 30.5079C68.122 31.1042 67.8835 31.8197 67.2872 32.106C66.6908 32.3922 65.9753 32.1537 65.6891 31.5574L63.4231 26.9539L57.2215 39.5479C56.983 40.0249 56.5298 40.3588 56.005 40.4304L42.123 42.4578L52.1648 52.2611C52.5464 52.6428 52.7134 53.1675 52.6418 53.6923L50.2566 67.5266L62.6837 60.9911C63.1607 60.7526 63.7093 60.7526 64.1864 60.9911L77.329 67.9082C77.4721 67.789 77.639 67.7174 77.8537 67.6936C78.4977 67.5743 79.1179 68.0275 79.2371 68.6715C79.3326 69.2917 79.094 69.888 78.5931 70.2458C78.3069 70.4604 77.973 70.5558 77.639 70.5558L77.6152 70.532Z" fill="#E4675B"/>
<path d="M144.259 70.532C143.996 70.532 143.734 70.4604 143.495 70.3412L130.043 63.2809L118.164 69.5302C117.592 69.8403 116.852 69.6017 116.542 69.0293C116.232 68.4568 116.471 67.7174 117.043 67.4073L129.279 60.9672C129.756 60.7287 130.305 60.7287 130.782 60.9672L143.209 67.5028L140.848 53.6684C140.752 53.1437 140.943 52.6189 141.301 52.2373L151.343 42.434L137.461 40.4065C136.936 40.335 136.483 40.0011 136.244 39.524L130.043 26.93L128.182 30.7225C127.896 31.3188 127.18 31.5573 126.584 31.2711C125.988 30.9849 125.749 30.2693 126.035 29.673L128.588 24.4732C128.874 23.9246 129.422 23.5668 130.043 23.5668C130.663 23.5668 131.211 23.9246 131.498 24.4732L138.224 38.0929L153.251 40.2873C153.871 40.3827 154.372 40.7882 154.563 41.3845C154.754 41.9808 154.587 42.601 154.157 43.0303L143.281 53.6446L145.857 68.6238C145.952 69.244 145.713 69.8403 145.213 70.1981C144.926 70.4127 144.592 70.5081 144.259 70.5081V70.532Z" fill="#E4675B"/>
<path d="M292.548 255.912C291.88 255.912 291.356 255.387 291.356 254.719V227.647H285.464C284.796 227.647 284.271 227.122 284.271 226.454C284.271 225.787 284.796 225.262 285.464 225.262H292.548C293.216 225.262 293.741 225.787 293.741 226.454V254.719C293.741 255.387 293.216 255.912 292.548 255.912Z" fill="#E4675B"/>
<path d="M291.189 273.515C272.202 273.515 256.746 258.059 256.746 239.072C256.746 220.086 272.202 204.63 291.189 204.63C310.175 204.63 325.631 220.086 325.631 239.072C325.631 258.059 310.175 273.515 291.189 273.515ZM291.189 207.039C273.514 207.039 259.131 221.422 259.131 239.096C259.131 256.771 273.514 271.154 291.189 271.154C308.863 271.154 323.246 256.771 323.246 239.096C323.246 221.422 308.863 207.039 291.189 207.039Z" fill="#E4675B"/>
<path d="M238.69 332.669H236.304V330.283H238.69V332.669ZM229.149 332.669H226.764V330.283H229.149V332.669ZM219.608 332.669H217.223V330.283H219.608V332.669ZM210.067 332.669H207.682V330.283H210.067V332.669ZM200.526 332.669H198.141V330.283H200.526V332.669ZM190.985 332.669H188.6V330.283H190.985V332.669ZM181.444 332.669H179.059V330.283H181.444V332.669ZM171.903 332.669H169.518V330.283H171.903V332.669ZM162.362 332.669H159.977V330.283H162.362V332.669ZM152.821 332.669H150.436V330.283H152.821V332.669ZM143.281 332.669H140.895V330.283H143.281V332.669ZM133.74 332.669H131.354V330.283H133.74V332.669Z" fill="#E4675B"/>
<path d="M353.061 180.205H350.676V190.247H353.061V180.205Z" fill="#E4675B"/>
<path d="M353.061 210.354H350.676V220.396H353.061V210.354Z" fill="#E4675B"/>
<path d="M353.061 180.205H350.676V190.247H353.061V180.205Z" fill="#E4675B"/>
<path d="M353.061 210.354H350.676V220.396H353.061V210.354Z" fill="#E4675B"/>
<path d="M371.976 199.096H361.934V201.481H371.976V199.096Z" fill="#E4675B"/>
<path d="M341.827 199.096H331.785V201.481H341.827V199.096Z" fill="#E4675B"/>
<path d="M371.976 199.096H361.934V201.481H371.976V199.096Z" fill="#E4675B"/>
<path d="M341.827 199.096H331.785V201.481H341.827V199.096Z" fill="#E4675B"/>
<path d="M365.23 185.203L358.129 192.303L359.816 193.99L366.916 186.889L365.23 185.203Z" fill="#E4675B"/>
<path d="M343.906 206.558L336.805 213.658L338.492 215.345L345.592 208.244L343.906 206.558Z" fill="#E4675B"/>
<path d="M365.23 185.203L358.129 192.303L359.816 193.99L366.916 186.889L365.23 185.203Z" fill="#E4675B"/>
<path d="M343.906 206.558L336.805 213.658L338.492 215.345L345.592 208.244L343.906 206.558Z" fill="#E4675B"/>
<path d="M359.839 206.57L358.152 208.256L365.251 215.358L366.938 213.672L359.839 206.57Z" fill="#E4675B"/>
<path d="M338.508 185.241L336.821 186.927L343.92 194.029L345.607 192.342L338.508 185.241Z" fill="#E4675B"/>
<path d="M359.839 206.57L358.152 208.256L365.251 215.358L366.938 213.672L359.839 206.57Z" fill="#E4675B"/>
<path d="M338.508 185.241L336.821 186.927L343.92 194.029L345.607 192.342L338.508 185.241Z" fill="#E4675B"/>
<path d="M1.69337 208.494C-0.501036 218.75 2.71902 230.295 10.6618 237.355C14.4782 240.742 19.5587 243.199 24.7824 242.579C29.1474 242.054 32.8922 239.144 34.5857 235.089C36.3269 230.939 35.2297 226.359 31.4849 223.759C27.1915 220.778 21.6577 221.493 17.2689 223.831C7.96653 228.84 1.78878 239.406 0.357647 249.663C-1.28816 261.565 3.4823 273.849 12.5223 281.72C13.6672 282.722 15.3607 281.052 14.2158 280.027C7.25096 273.968 2.83828 265.143 2.4328 255.864C2.02731 246.729 5.60515 237.546 11.9499 230.962C15.2415 227.552 19.6542 224.188 24.6154 224.117C28.6465 224.069 33.0353 226.598 33.0353 231.034C33.0353 234.731 30.2923 238.285 26.9291 239.621C22.5641 241.362 17.579 239.549 13.9773 236.949C5.48589 230.819 1.83649 219.132 3.98319 209.09C4.29327 207.587 2.00345 206.943 1.69337 208.446V208.494Z" fill="#E4675B"/>
<path d="M69.6724 310.247H48.3961V288.971H69.6724V310.247ZM50.7814 307.862H67.2872V291.356H50.7814V307.862Z" fill="#E4675B"/>
<path d="M188.338 87.801C182.136 87.801 177.079 82.7444 177.079 76.5428C177.079 70.3412 182.136 65.2845 188.338 65.2845C194.539 65.2845 199.596 70.3412 199.596 76.5428C199.596 82.7444 194.539 87.801 188.338 87.801ZM188.338 67.6697C183.448 67.6697 179.464 71.653 179.464 76.5428C179.464 81.4325 183.448 85.4158 188.338 85.4158C193.227 85.4158 197.211 81.4325 197.211 76.5428C197.211 71.653 193.227 67.6697 188.338 67.6697Z" fill="#E4675B"/>
<path d="M309.221 103.639C304.999 103.639 301.517 101.564 298.893 98.5346C296.651 100.228 294.003 101.325 291.022 101.468C275.589 102.112 273.49 84.2709 273.49 84.104L275.852 83.8416C275.923 84.4856 277.927 99.6556 290.926 99.0832C293.335 98.9878 295.554 98.0575 297.438 96.6264C294.838 92.7862 293.359 87.9919 293.192 83.8893C292.93 77.473 295.649 73.3704 300.3 73.1796C304.498 72.9649 307.194 75.8749 307.408 80.86C307.623 85.8452 305.166 92.5477 300.73 96.9365C303.067 99.6079 306.144 101.373 309.793 101.23C313.586 101.349 316.591 99.5841 318.929 96.9126C314.516 92.5238 312.059 85.8213 312.274 80.8362C312.489 75.8511 315.184 72.9411 319.382 73.1558C324.033 73.3466 326.776 77.4492 326.49 83.8654C326.323 87.968 324.844 92.7623 322.22 96.6026C324.129 98.0337 326.323 98.9639 328.756 99.0593C341.851 99.5364 343.759 84.4617 343.831 83.8177L346.192 84.0801C346.192 84.2709 344.069 102.065 328.637 101.445C325.655 101.325 323.008 100.204 320.742 98.5107C317.975 101.683 314.254 103.782 309.77 103.615C309.579 103.615 309.388 103.615 309.221 103.615V103.639ZM300.658 75.5648C300.658 75.5648 300.491 75.5648 300.396 75.5648C295.601 75.7795 295.482 81.9095 295.554 83.7939C295.697 87.3479 296.985 91.5936 299.251 95.0283C303.019 91.1881 305.19 85.3681 304.999 80.9793C304.904 78.4987 304.045 75.5648 300.634 75.5648H300.658ZM319 75.5648C315.59 75.5648 314.755 78.4748 314.635 80.9793C314.445 85.3681 316.615 91.1881 320.384 95.0283C322.65 91.5936 323.938 87.3479 324.105 83.8177C324.176 81.9334 324.081 75.8034 319.263 75.5887C319.167 75.5887 319.096 75.5887 319 75.5887V75.5648Z" fill="#E4675B"/>
<path d="M296.889 58.5104C284.486 58.5104 273.657 49.9236 270.771 37.9736H262.9C262.232 37.9736 261.707 37.4489 261.707 36.781C261.707 36.1131 262.232 35.5884 262.9 35.5884H271.725C272.298 35.5884 272.775 35.9939 272.894 36.5425C275.184 47.8962 285.273 56.1252 296.865 56.1252C303.52 56.1252 309.77 53.5014 314.421 48.7071C319.072 43.9367 321.529 37.6158 321.338 30.9372C321.004 18.5578 311.058 8.1344 298.726 7.22801C286.442 6.34547 275.327 14.7176 272.894 26.763C272.775 27.3116 272.298 27.7171 271.725 27.7171H262.9C262.232 27.7171 261.707 27.1924 261.707 26.5245C261.707 25.8566 262.232 25.3319 262.9 25.3319H270.771C273.824 12.6425 285.75 3.88869 298.893 4.86663C312.441 5.86843 323.341 17.2937 323.723 30.8895C323.914 38.2121 321.242 45.1293 316.138 50.3768C311.034 55.6243 304.212 58.5104 296.889 58.5104Z" fill="#FFFDFF"/>
<path d="M202.053 46.7036H197.425C195.923 46.7036 194.682 45.4871 194.682 43.9606V37.9498H191.414V43.9606C191.414 45.4633 190.198 46.7036 188.671 46.7036H184.044C183.305 46.7036 182.637 46.4173 182.112 45.8926C181.587 45.3678 181.301 44.7 181.325 43.9606V37.9498H174.861C173.334 37.9498 172.094 36.7095 172.094 35.2068V28.0988C172.094 26.5722 173.334 25.3558 174.861 25.3558H213.526C214.193 25.3558 214.718 25.8805 214.718 26.5484C214.718 27.2163 214.193 27.741 213.526 27.741H174.861C174.646 27.741 174.479 27.908 174.479 28.0988V35.2068C174.479 35.4214 174.646 35.5646 174.861 35.5646H182.518C183.185 35.5646 183.71 36.0893 183.71 36.7572V43.9606C183.71 44.0798 183.758 44.1514 183.806 44.1991C183.853 44.2468 183.925 44.2945 184.044 44.2945H188.671C188.862 44.2945 189.029 44.1275 189.029 43.9367V36.7333C189.029 36.0655 189.554 35.5407 190.222 35.5407H195.875C196.543 35.5407 197.067 36.0655 197.067 36.7333V43.9367C197.067 44.1275 197.234 44.2945 197.425 44.2945H202.053C202.243 44.2945 202.41 44.1275 202.41 43.9367V36.7333C202.41 36.0655 202.935 35.5407 203.603 35.5407H213.549C214.217 35.5407 214.742 36.0655 214.742 36.7333C214.742 37.4012 214.217 37.9259 213.549 37.9259H204.796V43.9367C204.796 45.4394 203.579 46.6797 202.053 46.6797V46.7036Z" fill="#FFFDFF"/>
<path d="M221.063 74.6107C220.395 74.6107 219.87 74.086 219.87 73.4181V66.4532C215.338 64.6882 212.357 60.3709 212.357 55.4335V23.4714C212.357 21.0385 214.336 19.0826 216.746 19.0826C221.492 19.0826 225.38 22.9467 225.38 27.7171V41.2891C227.932 41.5037 234.134 42.4101 239.167 46.0118C239.691 46.3935 239.835 47.1329 239.429 47.6815C239.047 48.2062 238.308 48.3255 237.759 47.9439C232.035 43.8174 224.211 43.5789 224.14 43.5789C223.496 43.5789 222.971 43.0303 222.971 42.3863V27.6933C222.971 24.2585 220.18 21.444 216.722 21.444C215.625 21.444 214.718 22.3503 214.718 23.4476V55.4096C214.718 59.5838 217.39 63.2093 221.397 64.4496C221.898 64.5927 222.232 65.0698 222.232 65.5945V73.4181C222.232 74.086 221.707 74.6107 221.039 74.6107H221.063Z" fill="#FFFDFF"/>
<path d="M229.721 43.8651H228.29C225.356 43.8651 222.971 41.4799 222.971 38.5461V17.7707C222.971 14.4314 225.666 11.7361 229.006 11.7361C232.345 11.7361 235.04 14.4314 235.04 17.7707V38.5222C235.04 41.456 232.655 43.8413 229.721 43.8413V43.8651ZM229.006 14.1213C227.002 14.1213 225.356 15.7671 225.356 17.7707V38.5222C225.356 40.1442 226.668 41.456 228.29 41.456H229.721C231.343 41.456 232.655 40.1442 232.655 38.5222V17.7707C232.655 15.7671 231.009 14.1213 229.006 14.1213Z" fill="#FFFDFF"/>
<path d="M258.773 43.8651H257.342C254.408 43.8651 252.023 41.4799 252.023 38.5461V21.3486C252.023 18.0331 254.718 15.3139 258.058 15.3139C261.397 15.3139 264.092 18.0092 264.092 21.3486V38.5461C264.092 41.4799 261.707 43.8651 258.773 43.8651ZM258.058 17.6992C256.054 17.6992 254.408 19.345 254.408 21.3486V38.5461C254.408 40.168 255.72 41.4799 257.342 41.4799H258.773C260.395 41.4799 261.707 40.168 261.707 38.5461V21.3486C261.707 19.345 260.061 17.6992 258.058 17.6992Z" fill="#FFFDFF"/>
<path d="M239.405 43.8651H237.974C235.04 43.8651 232.655 41.4799 232.655 38.5461V14.0975C232.655 10.782 235.35 8.06284 238.69 8.06284C242.029 8.06284 244.724 10.782 244.724 14.0975V38.5222C244.724 41.456 242.339 43.8413 239.405 43.8413V43.8651ZM238.69 10.4481C236.686 10.4481 235.04 12.0939 235.04 14.0975V38.5222C235.04 40.1442 236.352 41.456 237.974 41.456H239.405C241.027 41.456 242.339 40.1442 242.339 38.5222V14.0975C242.339 12.0939 240.693 10.4481 238.69 10.4481Z" fill="#FFFDFF"/>
<path d="M247.658 43.8651C244.724 43.8651 242.339 41.4799 242.339 38.5461V16.6735C242.339 13.3342 245.034 10.6389 248.374 10.6389C251.713 10.6389 254.408 13.3342 254.408 16.6735V38.5461C254.408 39.9772 253.86 41.3129 252.858 42.3147C251.856 43.3165 250.52 43.8651 249.089 43.8651H247.658ZM248.374 13.0241C246.37 13.0241 244.724 14.6699 244.724 16.6735V38.5461C244.724 40.168 246.036 41.4799 247.658 41.4799H249.089C249.876 41.4799 250.616 41.1698 251.164 40.6212C251.713 40.0726 252.023 39.3332 252.023 38.5461V16.6735C252.023 14.6699 250.377 13.0241 248.374 13.0241Z" fill="#FFFDFF"/>
<path d="M255.386 74.6107C254.718 74.6107 254.194 74.086 254.194 73.4181V65.5946C254.194 65.0698 254.528 64.6166 255.029 64.4497C259.012 63.2332 261.707 59.6076 261.707 55.4096V27.2162C261.707 26.5484 262.232 26.0236 262.9 26.0236C263.568 26.0236 264.092 26.5484 264.092 27.2162V55.4096C264.092 60.3471 261.111 64.6643 256.579 66.4294V73.3943C256.579 74.0621 256.054 74.5869 255.386 74.5869V74.6107Z" fill="#FFFDFF"/>
<path d="M98.4144 273.634H32.5344V257.701H98.4144V273.634ZM34.9196 271.249H96.0291V260.086H34.9196V271.249Z" fill="#FFFDFF"/>
<path d="M87.9432 260.086H42.9817C42.4808 260.086 42.0514 259.776 41.8606 259.323C41.6698 258.87 41.8129 258.345 42.1946 258.011L55.1463 246.538C55.5041 245.489 56.9591 240.67 56.6967 230.342C53.6436 226.812 29.8391 198.762 30.006 180.825C30.173 161.433 39.8332 160.598 40.2625 160.551H90.6385C91.0679 160.551 99.2015 161.266 100.728 176.221C100.8 176.866 100.323 177.462 99.6547 177.533C98.9868 177.605 98.4144 177.128 98.3428 176.46C97.031 163.651 90.8055 162.96 90.5431 162.936H40.3341C40.3341 162.936 32.5344 163.842 32.3913 180.849C32.2243 198.69 58.5095 228.792 58.7719 229.102C58.9627 229.317 59.0581 229.579 59.0581 229.865C59.4398 242.579 57.3408 247.54 57.2453 247.755C57.1738 247.921 57.0784 248.041 56.9353 248.16L46.1302 257.749H84.8186L74.0135 248.16C73.8942 248.041 73.775 247.898 73.7034 247.755C73.608 247.54 71.509 242.579 71.8906 229.865C71.8906 229.579 72.0099 229.317 72.1769 229.126C72.2723 229.03 80.8353 219.251 88.134 207.587C88.4918 207.039 89.2313 206.872 89.7799 207.206C90.3285 207.563 90.4954 208.303 90.1615 208.851C83.5067 219.466 75.8263 228.553 74.252 230.366C73.9897 240.694 75.4208 245.536 75.8024 246.586L88.7542 258.059C89.1359 258.393 89.2551 258.917 89.0881 259.371C88.9212 259.824 88.468 260.134 87.9671 260.134L87.9432 260.086Z" fill="#FFFDFF"/>
<path d="M40.4533 207.182C40.3102 207.182 40.191 207.182 40.0478 207.11C39.7378 206.991 9.20683 195.59 9.20683 170.592C9.20683 167.587 9.15913 164.701 9.13527 161.982C8.96831 148.314 8.84905 138.439 13.7149 133.502C15.957 131.236 19.1294 130.115 23.4228 130.115C38.3066 130.115 43.3395 130.115 43.3395 142.971C43.3395 143.639 42.8147 144.164 42.1468 144.164C41.479 144.164 40.9542 143.639 40.9542 142.971C40.9542 132.834 39.213 132.5 23.4228 132.5C19.7972 132.5 17.1735 133.383 15.4084 135.172C11.2343 139.394 11.3535 148.863 11.5205 161.934C11.5444 164.653 11.5921 167.539 11.5921 170.568C11.5921 193.872 40.5726 204.725 40.8588 204.844C41.479 205.059 41.7891 205.751 41.5744 206.371C41.4074 206.848 40.9304 207.158 40.4533 207.158V207.182Z" fill="#FFFDFF"/>
<path d="M88.5872 144.212C87.9194 144.212 87.3946 143.687 87.3946 143.019C87.3946 130.163 92.4036 130.163 107.311 130.163C113.656 130.163 117.568 132.548 119.619 137.652C119.858 138.272 119.571 138.964 118.951 139.203C118.331 139.441 117.639 139.155 117.401 138.535C115.731 134.385 112.606 132.548 107.287 132.548C91.4972 132.548 89.756 132.882 89.756 143.019C89.756 143.687 89.2312 144.212 88.5634 144.212H88.5872Z" fill="#FFFDFF"/>
<path d="M65.4744 206.18C56.649 206.18 49.4456 199 49.4456 190.151C49.4456 181.302 56.6252 174.122 65.4744 174.122C74.3236 174.122 81.5031 181.302 81.5031 190.151C81.5031 199 74.3236 206.18 65.4744 206.18ZM65.4744 176.532C57.9609 176.532 51.8309 182.638 51.8309 190.175C51.8309 197.712 57.9371 203.819 65.4744 203.819C73.0117 203.819 79.1179 197.712 79.1179 190.175C79.1179 182.638 73.0117 176.532 65.4744 176.532Z" fill="#FFFDFF"/>
<path d="M215.338 319.55H153.203V274.231H215.338V319.55ZM155.588 317.165H212.953V276.616H155.588V317.165Z" fill="#FFFDFF"/>
<path d="M281.385 319.55H212.977V298.417H281.385V319.55ZM215.362 317.165H279V300.802H215.362V317.165Z" fill="#FFFDFF"/>
<path d="M155.612 319.55H87.2038V286.777H155.612V319.55ZM89.589 317.165H153.227V289.162H89.589V317.165Z" fill="#FFFDFF"/>
<path d="M220.3 224.045H201.218V221.66H217.914V173.669C217.914 163.127 209.351 154.564 198.809 154.564H169.757C159.214 154.564 150.651 163.127 150.651 173.669V221.66H166.87V224.045H148.266V173.669C148.266 161.815 157.902 152.178 169.757 152.178H198.809C210.663 152.178 220.3 161.815 220.3 173.669V224.045Z" fill="#FFFDFF"/>
<path d="M185.738 222.28H183.352V276.616H185.738V222.28Z" fill="#FFFDFF"/>
<path d="M184.545 142.995C176.244 142.995 169.494 136.245 169.494 127.944C169.494 119.644 176.244 112.894 184.545 112.894C192.846 112.894 199.596 119.644 199.596 127.944C199.596 136.245 192.846 142.995 184.545 142.995ZM184.545 115.255C177.556 115.255 171.879 120.932 171.879 127.921C171.879 134.909 177.556 140.586 184.545 140.586C191.534 140.586 197.211 134.909 197.211 127.921C197.211 120.932 191.534 115.255 184.545 115.255Z" fill="#FFFDFF"/>
<path d="M166.87 185.357H164.485V276.64H166.87V185.357Z" fill="#FFFDFF"/>
<path d="M203.603 185.357H201.218V276.64H203.603V185.357Z" fill="#FFFDFF"/>
<path d="M148.957 102.876L147.335 102.232C147.145 102.16 127.633 94.5989 97.2456 94.5989C66.8578 94.5989 47.2751 102.16 47.0843 102.232L45.4623 102.876V77.0914L46.2256 76.8051C46.6072 76.662 55.4803 73.2034 70.7934 70.9375L71.1512 73.2988C58.6049 75.1593 50.3282 77.8785 47.8714 78.761V99.4648C53.2382 97.652 71.4375 92.2376 97.2695 92.2376C123.102 92.2376 141.253 97.652 146.596 99.4648V78.761C144.139 77.9023 135.886 75.1593 123.364 73.2988L123.722 70.9375C139.011 73.2273 147.86 76.662 148.242 76.8051L149.005 77.0914V102.9L148.957 102.876Z" fill="#FFFDFF"/>
<path d="M55.0509 112.44H28.2171L36.0645 98.0575L28.2171 83.6508H46.6549V86.036H32.2243L38.7837 98.0575L32.2243 110.055H52.6657V98.8685H55.0509V112.44Z" fill="#FFFDFF"/>
<path d="M166.203 112.44H139.369V98.8447H141.754V110.055H162.195L155.636 98.0575L162.195 86.036H147.765V83.6508H166.203L158.355 98.0575L166.203 112.44Z" fill="#FFFDFF"/>
<path d="M314.087 144.546H268.362C267.956 144.546 267.575 144.331 267.36 143.997L253.311 122.172C253.073 121.814 253.049 121.337 253.263 120.956C253.478 120.574 253.884 120.336 254.313 120.336H328.088C328.517 120.336 328.923 120.574 329.138 120.956C329.352 121.337 329.328 121.814 329.09 122.172L315.089 143.997C314.874 144.331 314.492 144.546 314.087 144.546ZM269.006 142.16H313.443L325.918 122.721H256.507L269.03 142.16H269.006Z" fill="#FFFDFF"/>
<path d="M304.832 201.481H277.068C276.663 201.481 276.281 201.266 276.066 200.932L239.525 145.19C239.262 144.808 239.262 144.307 239.501 143.925L253.335 120.908C253.55 120.55 253.931 120.336 254.337 120.336C254.742 120.336 255.124 120.526 255.362 120.884L305.834 199.644C306.072 200.002 306.096 200.479 305.882 200.861C305.667 201.243 305.261 201.481 304.832 201.481ZM277.712 199.096H302.638L254.384 123.794L241.934 144.522L277.712 199.096Z" fill="#FFFDFF"/>
<path d="M304.832 201.481C304.427 201.481 304.069 201.266 303.854 200.932L290.211 179.632C289.948 179.251 289.948 178.726 290.211 178.344L327.11 120.884C327.349 120.526 327.659 120.288 328.16 120.336C328.589 120.336 328.971 120.598 329.161 120.956L342.447 145.38C342.662 145.762 342.638 146.239 342.399 146.621L305.858 200.956C305.643 201.29 305.261 201.481 304.88 201.481H304.832ZM292.62 178.988L304.856 198.094L339.967 145.881L327.993 123.842L292.596 178.964L292.62 178.988Z" fill="#FFFDFF"/>
<path d="M308.004 276.616C307.527 276.616 307.05 276.306 306.883 275.829C306.669 275.208 306.979 274.517 307.599 274.302C316.496 271.058 323.461 264.093 326.728 255.196C326.967 254.576 327.635 254.266 328.255 254.481C328.875 254.696 329.185 255.387 328.971 256.007C325.464 265.572 317.975 273.038 308.41 276.52C308.267 276.568 308.148 276.592 308.004 276.592V276.616Z" fill="#FFFDFF"/>
<path d="M311.821 213.67C311.153 213.67 310.628 213.145 310.628 212.477V208.279C310.628 204.534 307.575 201.481 303.83 201.481H278.332C274.587 201.481 271.534 204.534 271.534 208.279V212.477C271.534 213.145 271.01 213.67 270.342 213.67C269.674 213.67 269.149 213.145 269.149 212.477V208.279C269.149 203.222 273.275 199.096 278.332 199.096H303.83C308.887 199.096 313.013 203.222 313.013 208.279V212.477C313.013 213.145 312.489 213.67 311.821 213.67Z" fill="#FFFDFF"/>
<path d="M291.189 263.759C277.569 263.759 266.501 252.692 266.501 239.072C266.501 225.453 277.569 214.385 291.189 214.385C304.808 214.385 315.876 225.453 315.876 239.072C315.876 252.692 304.808 263.759 291.189 263.759ZM291.189 216.747C278.881 216.747 268.887 226.764 268.887 239.048C268.887 251.332 278.905 261.35 291.189 261.35C303.473 261.35 313.49 251.332 313.49 239.048C313.49 226.764 303.473 216.747 291.189 216.747Z" fill="#FFFDFF"/>
<path d="M170.687 10.4481C167.157 10.4481 163.603 9.0885 160.907 6.41704C158.737 4.24648 155.875 3.07772 152.821 3.07772C149.768 3.07772 146.906 4.27034 144.736 6.41704C139.345 11.8077 130.591 11.8077 125.201 6.41704L126.894 4.72353C131.354 9.18391 138.605 9.18391 143.066 4.72353C145.666 2.12363 149.148 0.66864 152.845 0.66864C156.542 0.66864 160.001 2.09978 162.625 4.72353C167.085 9.18391 174.336 9.18391 178.797 4.72353C184.187 -0.667088 192.941 -0.667088 198.332 4.72353C202.792 9.18391 210.043 9.18391 214.503 4.72353L216.197 6.41704C210.806 11.8077 202.053 11.8077 196.662 6.41704C192.202 1.95666 184.95 1.95666 180.49 6.41704C177.795 9.11235 174.265 10.4481 170.711 10.4481H170.687Z" fill="#FFFDFF"/>
<path d="M317.927 320.265C311.725 320.265 306.669 315.209 306.669 309.007C306.669 302.806 311.725 297.749 317.927 297.749C324.129 297.749 329.185 302.806 329.185 309.007C329.185 315.209 324.129 320.265 317.927 320.265ZM317.927 300.134C313.037 300.134 309.054 304.117 309.054 309.007C309.054 313.897 313.037 317.88 317.927 317.88C322.817 317.88 326.8 313.897 326.8 309.007C326.8 304.117 322.817 300.134 317.927 300.134Z" fill="#FFFDFF"/>
</g>
<defs>
<clipPath id="clip0_64_6">
<rect width="371.953" height="332" fill="white" transform="translate(0.0237122 0.66864)"/>
</clipPath>
</defs>
</svg>
