<svg width="140" height="160" viewBox="0 0 140 160" fill="none" xmlns="http://www.w3.org/2000/svg">
<path d="M34.809 114.651C34.8655 114.934 34.9221 115.217 34.9787 115.5C35.0918 115.839 35.2333 116.15 35.3464 116.461C35.4596 116.773 35.6293 117.027 35.7707 117.282C35.7707 117.367 35.8556 117.452 35.9405 117.536C35.9405 117.621 36.0253 117.706 36.1102 117.791C36.2799 118.046 36.4497 118.244 36.6194 118.413C36.8174 118.64 36.9871 118.781 37.2134 118.951C37.3266 119.064 37.4397 119.149 37.5529 119.205C37.7226 119.347 37.8923 119.46 38.0903 119.545C39.731 120.393 41.8527 120.648 44.4834 120.309C45.2189 120.195 46.011 120.054 46.8313 119.884C55.5157 117.848 59.9286 112.586 60.0701 104.156L60.6641 73.1244C60.6641 72.0494 60.6641 71.031 60.4661 70.1258C60.1266 67.495 59.1932 65.5998 57.609 64.4117C57.609 64.4117 57.5902 64.3928 57.5524 64.3551C57.5524 64.3551 57.411 64.2419 57.3261 64.2136C56.9867 63.9873 56.6755 63.8176 56.2795 63.6479C55.94 63.5064 55.6006 63.365 55.2329 63.2801C55.1763 63.2801 55.0914 63.2802 55.0065 63.2236C53.9599 62.969 52.7718 62.8841 51.4706 62.969H51.414C51.0462 62.969 50.6502 63.0256 50.2825 63.0821C50.2259 63.0821 50.1693 63.0821 50.1127 63.0821C49.4055 63.1953 48.67 63.3367 47.878 63.5064C46.8596 63.761 45.9544 64.0156 45.0775 64.3551C44.936 64.4117 44.7946 64.4399 44.6814 64.5248C44.54 64.5814 44.3985 64.6097 44.2854 64.6945C44.0874 64.8077 43.8894 64.8643 43.6631 64.9774C43.5782 64.9774 43.4933 65.034 43.4085 65.0905C43.1539 65.2037 42.9276 65.3169 42.7013 65.43C42.6447 65.43 42.5881 65.4866 42.5316 65.5149C42.3618 65.5998 42.1921 65.6846 42.0507 65.7977C42.0507 65.7977 41.9658 65.7978 41.9375 65.8543C41.6546 66.0241 41.4 66.1938 41.1454 66.3635C40.9474 66.505 40.7777 66.6181 40.608 66.7313C40.4383 66.8444 40.2685 66.9858 40.0988 67.1273C40.0988 67.1273 40.0422 67.1273 40.0139 67.1839C39.7028 67.4667 39.4199 67.693 39.137 67.9759C38.8824 68.2305 38.6844 68.4568 38.4298 68.7114C38.4298 68.768 38.3449 68.8246 38.2884 68.8812C38.2884 68.8812 38.2884 68.9 38.2884 68.9377C38.0055 69.2772 37.7792 69.5883 37.5246 69.9561C36.7891 71.031 36.2233 72.2191 35.7707 73.5204C35.6859 73.8033 35.601 74.0861 35.5162 74.3973C35.4596 74.567 35.4313 74.7651 35.3747 74.9348C35.3747 75.1328 35.2898 75.3025 35.2615 75.5005C35.1767 75.84 35.1201 76.1511 35.0918 76.4906C35.0352 76.8583 34.9787 77.2544 34.9504 77.6221C34.8938 78.1313 34.8655 78.6688 34.8655 79.178L34.2715 110.464C34.2715 111.454 34.2715 112.36 34.4129 113.208C34.4695 113.718 34.6109 114.198 34.7524 114.679L34.809 114.651Z" fill="#828282"/>
<path d="M113.364 43.0542C113.364 41.753 113.308 40.5366 113.195 39.3485C113.195 39.1788 113.195 39.0091 113.195 38.8393C113.166 38.5282 113.082 38.2453 113.053 37.9624C112.997 37.5381 112.912 37.1138 112.855 36.6895C112.742 36.1803 112.629 35.6711 112.488 35.1902C112.374 34.7942 112.29 34.3981 112.176 34.0304C112.12 33.8889 112.092 33.7192 112.063 33.6061C111.95 33.2666 111.809 32.9837 111.667 32.6443C111.526 32.3048 111.384 31.9371 111.243 31.5976C111.186 31.4845 111.158 31.3713 111.101 31.2865C110.819 30.6924 110.507 30.155 110.168 29.5892C110.168 29.5892 110.14 29.5326 110.111 29.5043C109.829 29.0517 109.546 28.6274 109.206 28.2031C109.065 28.0334 108.923 27.8636 108.782 27.6939C108.669 27.5807 108.584 27.4393 108.471 27.3262C108.386 27.213 108.301 27.0998 108.188 26.9867C107.848 26.5906 107.481 26.2229 107.085 25.8834C107.028 25.8269 106.943 25.7703 106.887 25.7137C106.773 25.6289 106.689 25.544 106.575 25.4591C106.349 25.2611 106.095 25.0348 105.84 24.8368C105.472 24.5539 105.076 24.271 104.68 23.9882L75.5153 4.24319C76.1942 4.6958 76.8165 5.205 77.4105 5.71418C77.5237 5.79904 77.6086 5.8839 77.7217 5.96876C78.2875 6.47794 78.7966 7.01543 79.3058 7.58119C79.419 7.69435 79.5038 7.83576 79.617 7.94891C80.0979 8.51467 80.5505 9.137 80.9465 9.75933C80.9465 9.75933 80.9748 9.81591 81.0031 9.84419C81.3992 10.4948 81.7669 11.1737 82.078 11.8809C82.2478 12.2204 82.3609 12.5882 82.5024 12.9276C82.6721 13.3802 82.8701 13.8328 83.0115 14.3137C83.1247 14.6814 83.2378 15.0775 83.3227 15.4735C83.4642 15.9544 83.5773 16.4636 83.6905 16.9728C83.7753 17.3971 83.8319 17.8214 83.8885 18.2457C83.945 18.6983 84.0016 19.1509 84.0582 19.6318C84.1713 20.8199 84.2562 22.0646 84.2279 23.3376C84.2279 23.4507 84.2279 23.5638 84.2279 23.677L84.0865 30.6076L75.4587 32.616L61.4561 35.8974L61.5693 29.7306C61.6541 25.5157 60.5792 22.6304 58.3728 21.1028C58.2879 21.0462 58.203 20.9896 58.0899 20.9331C57.8353 20.735 57.5807 20.5936 57.2695 20.5088C56.9018 20.339 56.5623 20.1976 56.1663 20.1127C55.7703 19.9996 55.3176 19.9147 54.8933 19.8581C54.4407 19.8016 53.9316 19.7733 53.4507 19.7733C52.7435 19.7733 52.008 19.8299 51.2159 19.943C50.4522 20.0279 49.6601 20.1976 48.8114 20.3673C47.7648 20.6219 46.7464 20.9048 45.8129 21.2725C45.5866 21.3857 45.3886 21.4989 45.1623 21.5837C44.7379 21.7817 44.2288 21.9232 43.8328 22.1495C43.6913 22.206 43.5782 22.2909 43.465 22.3758C43.267 22.4606 43.1255 22.5738 42.9558 22.6869C42.7295 22.7718 42.5598 22.8849 42.3618 23.0264C40.7494 24.0447 39.4481 25.2611 38.458 26.7038C38.3166 26.9018 38.1751 27.0715 38.0903 27.2978C37.9771 27.4393 37.8923 27.5808 37.8074 27.7222C37.8074 27.7222 37.8074 27.7788 37.8074 27.8071C37.6943 28.0051 37.5811 28.1465 37.4963 28.3445C37.4114 28.486 37.3265 28.6557 37.27 28.7688C37.2134 28.9386 37.1568 29.1083 37.072 29.2214C36.9022 29.6175 36.7325 30.0418 36.6476 30.4661C36.4779 30.9187 36.3647 31.3996 36.2799 31.8805C36.2799 32.0502 36.2233 32.22 36.195 32.3897C36.195 32.5877 36.1384 32.7574 36.1101 32.9554C36.0253 33.3515 35.9687 33.8041 35.9404 34.2284C35.8838 34.6527 35.8556 35.1053 35.8556 35.5296L35.5161 53.153C39.929 49.3059 46.2655 46.4205 54.6105 44.4686C56.1946 44.1009 57.7221 43.818 59.1931 43.62C63.1251 43.1108 66.6611 43.224 69.8011 43.9878C69.9142 43.8746 70.0274 43.7615 70.1405 43.6766C70.1971 43.6766 70.2254 43.62 70.282 43.5634C70.678 43.2522 71.1306 42.9694 71.5832 42.6865V42.6299L90.6776 55.5575L113.28 50.2677H113.336L113.478 43.3371C113.478 43.3089 113.478 43.2523 113.478 43.224C113.478 43.1391 113.478 43.0825 113.478 42.9977L113.364 43.0542ZM61.4278 35.8974V35.8408L61.541 35.9257H61.4278V35.8974Z" fill="#828282"/>
<path d="M35.4027 116.631C35.5159 116.857 35.6573 117.056 35.7705 117.282C35.6008 117.027 35.4311 116.773 35.3462 116.461C35.3462 116.518 35.3462 116.575 35.4027 116.631Z" fill="#828282"/>
<path d="M36.8455 118.611C36.8455 118.611 37.1284 118.838 37.2415 118.951C37.0152 118.781 36.8455 118.611 36.6475 118.413C36.704 118.498 36.7889 118.555 36.8455 118.64V118.611Z" fill="#828282"/>
<path d="M112.431 79.6588C112.431 79.5174 112.431 79.3477 112.431 79.1779C112.431 78.9516 112.346 78.7536 112.318 78.5273C112.261 78.1313 112.205 77.7635 112.12 77.3675C112.035 76.9432 111.95 76.5188 111.837 76.0945C111.752 75.7268 111.639 75.3873 111.526 75.0479C111.469 74.8782 111.441 74.7085 111.384 74.5387C111.3 74.3124 111.186 74.0861 111.102 73.8598C110.988 73.5486 110.847 73.2375 110.734 72.9263C110.677 72.8131 110.621 72.6717 110.564 72.5303C110.394 72.1625 110.196 71.8513 109.998 71.5119C109.942 71.3987 109.885 71.2856 109.829 71.2007C109.829 71.1724 109.8 71.1442 109.772 71.1159C109.517 70.7198 109.263 70.3238 108.98 69.956C108.895 69.8429 108.81 69.758 108.725 69.6449C108.64 69.5317 108.556 69.4469 108.471 69.3337C108.358 69.1923 108.273 69.0791 108.16 68.9377C107.877 68.6265 107.566 68.3154 107.254 68.0325C107.226 68.0042 107.198 67.9759 107.141 67.9476C107.085 67.8911 107.028 67.8345 106.943 67.7779C106.717 67.5799 106.491 67.3819 106.236 67.1838C105.925 66.9575 105.642 66.7312 105.303 66.5049L76.1377 46.7599C76.7034 47.156 77.2409 47.5803 77.7501 48.0329C77.8066 48.0895 77.8632 48.146 77.9198 48.2026C78.4007 48.6269 78.825 49.1078 79.2493 49.5887C79.3342 49.7019 79.4191 49.7868 79.5039 49.8999C79.9 50.4091 80.296 50.9183 80.6354 51.484C80.692 51.5972 80.7486 51.7103 80.8052 51.7952C81.0598 52.2478 81.3143 52.7287 81.5406 53.2096C81.6821 53.5208 81.7952 53.8319 81.9084 54.1431C82.0498 54.5391 82.1913 54.9069 82.3327 55.3312C82.4459 55.6706 82.5307 56.0384 82.6156 56.3779C82.7287 56.8022 82.8136 57.1982 82.8985 57.6508C82.9834 58.0186 83.0399 58.4146 83.0965 58.8106C83.1531 59.1783 83.1814 59.5461 83.2379 59.9421C83.3511 61.0454 83.4076 62.1769 83.4076 63.365C83.4076 63.4498 83.4076 63.5347 83.4076 63.6479L82.7288 99.6584C82.7288 100.875 82.6156 102.063 82.5025 103.251C82.4459 103.647 82.3893 104.015 82.3327 104.411C82.2196 105.175 82.1064 105.967 81.965 106.73C81.8801 107.155 81.7387 107.579 81.6255 108.003C81.4558 108.711 81.286 109.418 81.0597 110.097C80.7486 111.087 80.3809 112.049 79.9848 113.01C79.9283 113.18 79.8434 113.321 79.7585 113.491C79.4191 114.283 79.0513 115.047 78.627 115.811C78.5138 116.037 78.4007 116.263 78.2593 116.49C77.7784 117.367 77.2692 118.215 76.6751 119.064C76.6186 119.149 76.562 119.234 76.5054 119.319C75.9679 120.082 75.4022 120.846 74.8081 121.582C74.6384 121.808 74.4687 122.006 74.2989 122.232C73.62 123.053 72.9129 123.873 72.1208 124.665C71.2722 125.542 70.4235 126.362 69.5183 127.154C69.1222 127.494 68.7262 127.805 68.3302 128.144C67.7927 128.597 67.2835 129.05 66.7461 129.446C65.7277 130.238 64.6527 130.973 63.5495 131.709C63.3798 131.822 63.2101 131.907 63.0403 132.02C61.8522 132.784 60.6076 133.491 59.3346 134.141C58.8537 134.396 58.3728 134.622 57.8919 134.877C57.4676 135.075 57.0716 135.273 56.6473 135.443C55.9967 135.754 55.3177 136.008 54.6105 136.291C54.1862 136.461 53.7902 136.631 53.3659 136.772C52.6021 137.055 51.8383 137.31 51.0746 137.564C50.7068 137.677 50.3391 137.819 49.9713 137.932C48.8115 138.271 47.6517 138.611 46.4353 138.894C44.5966 139.318 42.8145 139.658 41.0889 139.884C33.2532 140.902 26.662 139.827 21.3439 136.631C21.0327 136.433 20.7216 136.235 20.4104 136.037L49.5753 155.782C49.8865 155.98 50.1976 156.178 50.5088 156.376C55.8269 159.572 62.3897 160.647 70.2538 159.629C71.9793 159.403 73.7615 159.063 75.6002 158.639C76.7883 158.356 77.9764 158.045 79.1079 157.677C79.4756 157.564 79.8434 157.422 80.2111 157.309C80.9749 157.055 81.7387 156.8 82.5025 156.517C82.9268 156.347 83.3511 156.178 83.7471 156.036C84.426 155.753 85.1049 155.47 85.7556 155.188C86.1799 154.99 86.6042 154.792 87.0002 154.594C87.2831 154.452 87.566 154.339 87.8489 154.198C88.0469 154.084 88.2166 153.971 88.4146 153.858C89.6876 153.207 90.9322 152.5 92.1203 151.736C92.2335 151.652 92.3749 151.595 92.5164 151.51C92.5447 151.51 92.6013 151.454 92.6295 151.425C93.7328 150.718 94.7794 149.954 95.8261 149.162C95.8261 149.162 95.8826 149.134 95.8826 149.106C96.4201 148.71 96.901 148.257 97.4102 147.833C97.8062 147.493 98.2022 147.21 98.57 146.871C98.57 146.871 98.5983 146.843 98.6266 146.814C99.4469 146.079 100.267 145.287 101.059 144.495C101.088 144.466 101.144 144.41 101.172 144.382C101.795 143.759 102.361 143.137 102.926 142.486C103.068 142.317 103.209 142.147 103.351 141.977C103.52 141.779 103.69 141.553 103.86 141.327C104.058 141.072 104.256 140.846 104.454 140.591C104.85 140.082 105.218 139.573 105.557 139.035C105.614 138.95 105.67 138.865 105.727 138.781C105.727 138.781 105.755 138.724 105.783 138.696C106.208 138.073 106.604 137.423 106.972 136.8C107.085 136.602 107.17 136.404 107.283 136.206C107.396 135.98 107.537 135.754 107.65 135.528C107.792 135.273 107.933 135.018 108.046 134.764C108.301 134.255 108.527 133.717 108.782 133.18C108.839 133.01 108.923 132.868 109.008 132.699C109.008 132.642 109.065 132.586 109.093 132.529C109.433 131.68 109.772 130.803 110.055 129.927C110.055 129.87 110.055 129.813 110.083 129.757C110.31 129.078 110.451 128.371 110.649 127.663C110.734 127.267 110.875 126.9 110.96 126.504C110.96 126.475 110.96 126.447 110.96 126.391C111.13 125.627 111.215 124.863 111.328 124.071C111.384 123.675 111.469 123.307 111.498 122.911C111.639 121.723 111.696 120.535 111.724 119.319L112.403 83.308C112.403 83.308 112.403 83.2514 112.403 83.1948C112.403 83.1383 112.403 83.0817 112.403 83.0251C112.403 81.837 112.346 80.7055 112.233 79.6022L112.431 79.6588Z" fill="#828282"/>
<path d="M56.5341 71.2856C56.6473 71.0876 52.6587 68.3154 50.4523 66.9293C48.8681 65.9109 48.6984 66.0523 48.5852 66.2503C48.4721 66.4484 48.4155 66.6464 49.9996 67.6365C52.2061 69.0226 56.421 71.4836 56.5341 71.2856Z" fill="#333333"/>
<path d="M56.4491 76.038C56.5622 75.84 50.4238 71.7099 47.0575 69.56C44.6247 68.0042 44.455 68.1457 44.3418 68.3437C44.2287 68.5417 44.2287 68.768 46.6049 70.2956C49.9429 72.4171 56.3076 76.236 56.4491 76.038Z" fill="#333333"/>
<path d="M56.3642 80.7903C56.4774 80.5923 48.6699 75.4156 44.455 72.7283C41.3999 70.7764 41.2019 70.8895 41.0605 71.0875C40.9473 71.2856 40.9756 71.5402 43.9741 73.4355C48.189 76.1228 56.1945 80.9883 56.336 80.7903H56.3642Z" fill="#333333"/>
<path d="M56.2794 85.5428C56.3925 85.3447 47.7364 79.6306 43.0689 76.6603C39.6744 74.5105 39.4763 74.5953 39.3349 74.7933C39.2217 74.9913 39.25 75.2459 42.588 77.3675C47.2555 80.3378 56.1097 85.7408 56.2511 85.5428H56.2794Z" fill="#333333"/>
<path d="M56.1945 90.2951C56.3077 90.0971 47.2272 84.1 42.3334 80.9884C38.7691 78.7253 38.5711 78.8102 38.4297 79.0082C38.3165 79.2062 38.3448 79.4608 41.8808 81.6956C46.7746 84.8072 56.0814 90.4931 56.1945 90.2951Z" fill="#333333"/>
<path d="M56.1096 95.0475C56.2227 94.8495 47.1423 88.8524 42.2484 85.7407C38.6842 83.4777 38.4862 83.5625 38.3447 83.7606C38.2316 83.9586 38.2599 84.2132 41.7959 86.4479C46.6897 89.5596 55.9964 95.2455 56.1096 95.0475Z" fill="#333333"/>
<path d="M56.0532 99.7998C56.1663 99.6018 47.0859 93.6048 42.1921 90.4931C38.6278 88.2301 38.4298 88.3149 38.2883 88.5129C38.1752 88.7109 38.2035 88.9655 41.7395 91.2003C46.6333 94.312 55.94 99.9978 56.0814 99.7998H56.0532Z" fill="#333333"/>
<path d="M55.9682 104.524C56.0813 104.326 47.0009 98.3289 42.1071 95.2172C38.5428 92.9541 38.3448 93.039 38.2034 93.237C38.0902 93.4351 38.1185 93.6896 41.6545 95.9244C46.5483 99.0361 55.855 104.722 55.9682 104.524Z" fill="#333333"/>
<path d="M54.5822 108.456C54.6953 108.258 46.2655 102.685 41.7112 99.7715C38.4015 97.6782 38.2034 97.7631 38.0903 97.9611C37.9771 98.1591 38.0055 98.4137 41.2586 100.479C45.8129 103.364 54.4407 108.626 54.5822 108.428V108.456Z" fill="#333333"/>
<path d="M52.8564 112.162C52.9696 111.964 45.4167 106.928 41.315 104.326C38.3448 102.431 38.1467 102.544 38.0336 102.742C37.9204 102.94 37.9204 103.166 40.8624 105.033C44.9641 107.636 52.715 112.36 52.8564 112.162Z" fill="#333333"/>
<path d="M49.3769 114.764C49.4901 114.566 43.691 110.634 40.5228 108.626C38.2315 107.155 38.0617 107.296 37.9203 107.494C37.8071 107.692 37.7789 107.918 40.0419 109.361C43.2101 111.37 49.2355 114.962 49.3487 114.764H49.3769Z" fill="#333333"/>
<path d="M44.8793 116.716C44.9924 116.518 41.4564 114.057 39.5329 112.812C38.1185 111.907 37.977 112.049 37.8639 112.247C37.7507 112.445 37.6941 112.643 39.0802 113.519C41.0321 114.764 44.7661 116.914 44.8793 116.716Z" fill="#333333"/>
<path d="M57.4109 29.3912C57.524 29.1932 53.5354 26.421 51.329 25.0349C49.7448 24.0165 49.5751 24.1579 49.462 24.3559C49.3488 24.5539 49.2922 24.752 50.8763 25.7703C53.0828 27.1564 57.2977 29.6175 57.4109 29.4194V29.3912Z" fill="#333333"/>
<path d="M57.326 34.1436C57.4392 33.9456 51.2724 29.8155 47.9345 27.6656C45.5017 26.1098 45.3319 26.2513 45.2188 26.4493C45.1056 26.6473 45.1056 26.8736 47.4818 28.4011C50.8198 30.5227 57.1846 34.3416 57.326 34.1436Z" fill="#333333"/>
<path d="M58.0615 39.3768C58.1746 39.1788 49.9711 33.7192 45.5299 30.9187C42.3051 28.882 42.1071 28.9668 41.9939 29.1648C41.8808 29.3629 41.909 29.6175 45.0773 31.6259C49.5185 34.4547 57.9483 39.5748 58.0615 39.3768Z" fill="#333333"/>
<path d="M52.4322 40.6215C52.5454 40.4234 46.3503 36.2651 42.984 34.1152C40.5513 32.5594 40.3533 32.6725 40.2401 32.8706C40.127 33.0686 40.127 33.2949 42.5314 34.8224C45.8977 36.9723 52.3191 40.8195 52.4322 40.6215Z" fill="#333333"/>
<path d="M47.2556 42.1207C47.3688 41.9227 43.3802 39.1505 41.202 37.7644C39.6179 36.746 39.4764 36.8875 39.335 37.0855C39.2218 37.2835 39.1653 37.4815 40.7494 38.4716C42.9276 39.8577 47.1425 42.3187 47.2556 42.1207Z" fill="#333333"/>
<path d="M42.6162 43.9878C42.7294 43.7897 41.0887 42.5168 40.1552 41.9228C39.4763 41.4984 39.3631 41.6398 39.2217 41.8379C39.1085 42.0359 39.0237 42.2056 39.7026 42.63C40.6361 43.224 42.5031 44.1858 42.6162 43.9878Z" fill="#333333"/>
<path d="M104.171 70.7764C104.312 70.5784 95.7127 64.5814 91.0452 61.4697C87.6789 59.2067 87.4809 59.2915 87.3395 59.4895C87.198 59.6876 87.2546 59.9421 90.5643 62.1769C95.2035 65.2886 104.029 70.9745 104.143 70.7764H104.171Z" fill="#333333"/>
<path d="M108.329 78.3576C108.471 78.1596 97.6647 70.6916 91.8374 66.7878C87.6225 63.9591 87.3962 64.0156 87.2548 64.2136C87.1133 64.4116 87.1982 64.6945 91.3565 67.495C97.1838 71.3988 108.188 78.5556 108.301 78.3576H108.329Z" fill="#333333"/>
<path d="M108.244 83.11C108.386 82.912 97.5798 75.4439 91.7525 71.5402C87.5376 68.7114 87.3113 68.768 87.1698 68.966C87.0284 69.164 87.1132 69.4469 91.2716 72.2474C97.0989 76.1511 108.103 83.308 108.216 83.11H108.244Z" fill="#333333"/>
<path d="M108.159 87.8623C108.301 87.6643 97.4948 80.1963 91.6675 76.2926C87.4526 73.4638 87.2263 73.5203 87.0849 73.7184C86.9434 73.9164 87.0283 74.1993 91.1866 76.9998C97.0139 80.9035 108.018 88.0603 108.131 87.8623H108.159Z" fill="#333333"/>
<path d="M105.105 29.3911C105.246 29.1931 96.4485 23.0546 91.6962 19.8864C88.245 17.5668 88.047 17.6516 87.9055 17.8496C87.7641 18.0477 87.8207 18.3023 91.2153 20.5936C95.9676 23.7901 104.963 29.5891 105.105 29.3911Z" fill="#333333"/>
<path d="M108.442 36.4349C108.583 36.2368 98.2017 29.0517 92.6007 25.2894C88.5273 22.5738 88.301 22.6304 88.1878 22.8284C88.0464 23.0264 88.1312 23.3093 92.1481 25.9966C97.7491 29.7589 108.329 36.6329 108.47 36.4349H108.442Z" fill="#333333"/>
<path d="M109.376 41.3004C109.517 41.1024 98.7112 33.6344 92.8838 29.7306C88.6689 26.9018 88.4426 26.9584 88.3012 27.1564C88.1597 27.3545 88.2446 27.6373 92.403 30.4378C98.2303 34.3416 109.234 41.4984 109.347 41.3004H109.376Z" fill="#333333"/>
<path d="M108.074 92.6147C108.216 92.4167 97.4099 84.9487 91.5825 81.0449C87.3676 78.2162 87.1413 78.2728 86.9999 78.4708C86.8585 78.6688 86.9433 78.9516 91.1016 81.7521C96.929 85.6559 107.933 92.8128 108.046 92.6147H108.074Z" fill="#333333"/>
<path d="M108.018 97.3671C108.159 97.169 97.3533 89.701 91.5259 85.7973C87.311 82.9685 87.0847 83.0251 86.9433 83.2231C86.8018 83.4211 86.8867 83.704 91.045 86.5045C96.8723 90.4082 107.876 97.5651 107.989 97.3671H108.018Z" fill="#333333"/>
<path d="M107.933 102.119C108.075 101.921 97.2687 94.4534 91.4414 90.5497C87.2265 87.7209 87.0002 87.7775 86.8588 87.9755C86.7174 88.1735 86.8022 88.4564 90.9605 91.2569C96.7878 95.1606 107.792 102.317 107.905 102.119H107.933Z" fill="#333333"/>
<path d="M107.848 106.844C107.989 106.646 97.1833 99.1775 91.356 95.2738C87.1411 92.445 86.9148 92.5016 86.7733 92.6996C86.6319 92.8976 86.7168 93.1805 90.8751 95.981C96.7024 99.8847 107.706 107.042 107.82 106.844H107.848Z" fill="#333333"/>
<path d="M107.763 111.596C107.905 111.398 97.0988 103.93 91.2715 100.026C87.0566 97.1973 86.8303 97.2539 86.6889 97.4519C86.5474 97.6499 86.6323 97.9328 90.7906 100.733C96.6179 104.637 107.622 111.794 107.735 111.596H107.763Z" fill="#333333"/>
<path d="M107.679 116.348C107.82 116.15 97.0143 108.682 91.187 104.779C86.9721 101.95 86.7458 102.006 86.6044 102.204C86.463 102.402 86.5478 102.685 90.7061 105.486C96.5335 109.389 107.537 116.546 107.651 116.348H107.679Z" fill="#333333"/>
<path d="M107.594 121.101C107.735 120.903 96.7029 113.293 90.7624 109.305C86.4626 106.419 86.2363 106.476 86.0949 106.674C85.9534 106.872 86.0383 107.155 90.2815 110.012C96.222 114 107.452 121.299 107.565 121.101H107.594Z" fill="#333333"/>
<path d="M107.028 125.542C107.17 125.344 95.9675 117.621 89.9422 113.548C85.5576 110.606 85.3313 110.691 85.1899 110.889C85.0484 111.087 85.1333 111.37 89.4613 114.255C95.4867 118.3 106.887 125.74 107.028 125.542Z" fill="#333333"/>
<path d="M105.953 129.587C106.095 129.389 94.7794 121.468 88.6975 117.31C84.2846 114.283 84.03 114.368 83.9168 114.566C83.7754 114.764 83.8602 115.047 88.2166 118.017C94.2985 122.176 105.812 129.785 105.953 129.615V129.587Z" fill="#333333"/>
<path d="M66.6327 34.6244L75.4303 32.5594L84.0581 30.551L84.1995 23.5921C84.3692 15.6432 82.0496 9.67448 77.2973 5.57273C76.3072 4.6958 75.204 3.93203 74.0159 3.25312C70.197 1.07495 65.7275 0 60.4943 0C58.7121 0 56.8168 0.141432 54.8649 0.367735C53.0545 0.622327 51.1309 0.961796 49.1508 1.44269C38.9105 3.87545 30.4524 8.51469 23.7765 15.4452C17.044 22.3758 13.6211 30.6641 13.4514 40.2254L12.0087 116.179C11.8107 125.768 14.9789 132.557 21.4852 136.461C22.2772 136.914 23.0693 137.366 23.9179 137.706C27.3691 139.29 31.3294 140.082 35.6857 140.082C37.4679 140.082 39.3066 139.94 41.2019 139.714C42.9557 139.488 44.7096 139.177 46.5483 138.724C51.1875 137.649 55.4873 136.037 59.4759 133.972C60.8903 133.264 62.2481 132.444 63.5776 131.595C66.7176 129.587 69.603 127.211 72.2055 124.524C79.0794 117.48 82.5871 109.163 82.7851 99.5453L83.1246 82.7422V81.5824L83.464 63.5347C83.6055 56.7739 81.7667 51.6255 78.0045 48.1744C77.2973 47.4954 76.5052 46.9014 75.6566 46.3922C73.8744 45.289 71.9226 44.4686 69.7727 43.9594C67.934 43.5068 65.8972 43.2522 63.7473 43.2522C62.2764 43.2522 60.7488 43.3654 59.1364 43.5917C57.6654 43.7897 56.1379 44.0443 54.5538 44.4404C49.0942 45.7133 44.4833 47.4106 40.721 49.5039C38.7408 50.5788 36.9587 51.7952 35.4311 53.1247L35.7706 35.5014C35.7706 35.077 35.7706 34.6244 35.8554 34.2001C35.912 33.3798 36.0252 32.5877 36.1949 31.8239C36.308 31.343 36.4212 30.8621 36.5626 30.4095C36.6758 29.9852 36.8455 29.5609 36.9869 29.1649C37.0435 28.9951 37.1001 28.8537 37.185 28.7122C37.2416 28.5708 37.3264 28.4011 37.4113 28.2879C37.5244 28.0616 37.6376 27.8636 37.7507 27.6656C37.8356 27.4959 37.9205 27.3544 38.0336 27.2413C38.1468 27.015 38.2882 26.8452 38.4013 26.6472C39.4197 25.2045 40.721 23.9882 42.3051 22.9698C42.7577 22.6586 43.2669 22.4041 43.8043 22.1212C44.4267 21.7817 45.0773 21.5271 45.7845 21.2442C46.718 20.9048 47.7081 20.5936 48.7831 20.339C49.6317 20.141 50.4237 19.9996 51.1875 19.9147C51.9796 19.8015 52.7151 19.745 53.4223 19.745C53.9315 19.745 54.4123 19.745 54.8649 19.8298C55.3175 19.8864 55.7419 19.9713 56.1379 20.0845C56.5339 20.1976 56.9017 20.339 57.2411 20.4805C57.5523 20.5936 57.8069 20.7351 58.0615 20.9048C58.1746 20.9614 58.2595 21.0179 58.3443 21.0745C59.0798 21.5837 59.7022 22.2626 60.1548 23.083C61.1448 24.6954 61.5692 26.9018 61.5126 29.7023L61.3994 35.8974L66.6327 34.681V34.6244ZM59.8436 18.7549C59.8436 18.7549 59.6456 18.6135 59.5324 18.5569C59.1647 18.274 58.7404 18.076 58.2878 17.9063C57.8069 17.6517 57.326 17.5102 56.8451 17.3688C56.7602 17.3688 56.7037 17.3688 56.6471 17.3688C56.1379 17.2274 55.6287 17.1425 55.1478 17.0859C54.5821 17.001 53.988 16.9728 53.394 16.9728C52.5453 16.9728 51.6967 17.0294 50.8763 17.1708C49.9994 17.2557 49.1508 17.4254 48.1607 17.6517C46.9726 17.9346 45.8411 18.2457 44.8227 18.6701C44.1438 18.9246 43.3518 19.2358 42.588 19.6601C41.9091 19.9996 41.3716 20.3107 40.8624 20.6219C38.9671 21.81 37.3547 23.3093 36.1949 25.0348C36.0252 25.2611 35.8554 25.4874 35.714 25.742C35.5726 25.9401 35.4594 26.1381 35.3746 26.3078C35.2614 26.5058 35.12 26.7321 35.0351 26.9584C34.922 27.1847 34.8088 27.3544 34.7239 27.5807C34.6108 27.807 34.5259 27.9768 34.441 28.2031C34.2713 28.6274 34.1016 29.1083 33.9602 29.6175C33.7621 30.1832 33.6207 30.7207 33.5359 31.2582C33.3378 32.1351 33.2247 33.0403 33.1681 33.9455C33.1115 34.4547 33.0832 34.9922 33.0832 35.4448L32.7438 53.0682C32.7438 54.1431 33.3378 55.1332 34.3279 55.5858C34.6674 55.7555 35.0917 55.8404 35.4594 55.8404C36.11 55.8404 36.7324 55.6141 37.2416 55.1615C38.2599 54.2845 39.3914 53.4359 40.6361 52.6721C44.3984 50.3242 49.2639 48.4572 55.1478 47.0711C56.5622 46.7317 58.0049 46.4771 59.4476 46.2791C60.9468 46.081 62.3612 45.9679 63.6908 45.9679C65.4163 45.9679 67.0287 46.1376 68.5563 46.4771C68.7543 46.5337 68.8958 46.5619 69.0938 46.6185C70.8759 47.0145 72.6015 47.6935 74.129 48.6836C78.6834 51.5123 80.8333 56.3496 80.6918 63.4781L80.3524 81.5541V82.6574L80.0129 99.4604C79.8149 108.428 76.6184 116.009 70.197 122.572C67.7359 125.118 64.992 127.352 62.0501 129.276C61.0034 129.926 59.6173 130.775 58.1464 131.511C54.2992 133.491 50.1691 135.018 45.8411 136.065C44.0589 136.461 42.3899 136.772 40.7492 136.998C38.9671 137.253 37.2415 137.338 35.5726 137.338C30.6504 137.338 26.3507 136.263 22.7864 134.113C21.3155 133.208 20.0425 132.19 18.9393 130.917C15.9125 127.437 14.4981 122.6 14.6112 116.207L16.0539 40.2537C16.2236 31.2864 19.3636 23.7619 25.6152 17.2839C31.8669 10.806 39.9855 6.3365 49.66 4.04518C51.527 3.62086 53.394 3.2814 55.0913 3.02681C56.93 2.77222 58.7121 2.68735 60.3811 2.68735C62.3612 2.68735 64.2565 2.85707 65.9821 3.19653C68.4148 3.67742 70.593 4.4695 72.5732 5.60102C78.6551 9.08044 81.5405 14.936 81.399 23.5073L81.2859 28.3445L74.7231 29.9004L66.5761 31.7957L64.1151 32.3614L64.1717 29.6741C64.2282 27.6939 64.0019 25.9118 63.5776 24.3559C62.927 21.8666 61.654 19.9996 59.7587 18.7266L59.8436 18.7549ZM32.6589 74.9348C32.5457 75.3308 32.4892 75.7551 32.4609 76.1511C32.376 76.5471 32.3195 76.9715 32.2912 77.3109C32.2346 77.905 32.2063 78.5273 32.2063 79.0648L31.6123 110.323C31.6123 111.398 31.6123 112.473 31.7537 113.435C31.8669 114.51 32.0932 115.5 32.376 116.348C32.5175 116.716 32.6872 117.112 32.8287 117.452C32.9984 117.876 33.1964 118.272 33.3661 118.555C33.451 118.696 33.5358 118.866 33.649 118.979C33.7621 119.149 33.9036 119.318 34.0167 119.46C34.2148 119.715 34.4128 119.969 34.6956 120.252C34.9785 120.563 35.2331 120.761 35.4594 120.931C35.6574 121.101 35.8272 121.27 36.0252 121.355C36.308 121.582 36.5627 121.723 36.8455 121.864C38.4014 122.685 40.2401 123.081 42.3334 123.081C42.8425 123.081 43.38 123.081 43.9458 122.996C44.257 122.996 44.5681 122.911 44.9076 122.883C45.8694 122.741 46.6897 122.572 47.4535 122.402C57.2977 120.082 62.6158 113.746 62.7856 104.1L63.3796 73.096C63.3796 71.7948 63.323 70.635 63.1533 69.6166C63.0401 68.8811 62.8987 68.2022 62.7573 67.5516C62.1632 65.2886 61.0317 63.5064 59.4193 62.2335C59.3344 62.1486 59.2213 62.0637 59.1364 62.0071C59.0515 61.9223 58.9101 61.8374 58.797 61.7526C58.3726 61.4414 57.8917 61.2151 57.4108 61.0171C56.9582 60.7908 56.4774 60.6493 56.0248 60.5362C55.9116 60.4796 55.7985 60.4796 55.7136 60.4513C54.6952 60.1967 53.6486 60.0836 52.517 60.0836C52.1776 60.0836 51.7816 60.0836 51.4138 60.1401H51.2724C50.8763 60.1401 50.4237 60.225 50.0277 60.2816C49.9145 60.2816 49.8014 60.2816 49.7165 60.2816C48.8396 60.423 48.0475 60.5927 47.2555 60.7625C46.0957 61.0454 45.0773 61.3566 44.0872 61.7243C43.9741 61.7243 43.8044 61.8091 43.6064 61.9223C43.5215 61.9223 43.4083 62.0072 43.2669 62.0637C43.0123 62.1486 42.786 62.2617 42.5314 62.4032C42.4182 62.4032 42.2768 62.488 42.1636 62.5729C41.8808 62.6861 41.6545 62.8275 41.3999 62.9407L41.315 62.9972C41.0887 63.0821 40.919 63.1952 40.6927 63.3367C40.6361 63.3367 40.5795 63.3933 40.5229 63.4499C40.1835 63.6762 39.7875 63.8741 39.5612 64.0722L39.4197 64.1571C39.2217 64.2985 39.0237 64.4399 38.854 64.5531L38.7125 64.6662C38.7125 64.6662 38.5145 64.8077 38.4297 64.8925C38.3165 64.9491 38.2316 65.034 38.1468 65.1188L37.8639 65.3734C37.6093 65.5997 37.383 65.7695 37.1567 65.9958C37.0153 66.1655 36.8738 66.3069 36.7607 66.4201L36.4495 66.7312C36.4495 66.7312 36.2798 66.9293 36.2232 67.0141C36.1101 67.1273 36.0252 67.2404 35.9686 67.3536C35.6857 67.693 35.4594 68.0042 35.2048 68.3719C34.3279 69.5883 33.649 71.031 33.0832 72.7C32.9984 72.9829 32.9135 73.2375 32.8287 73.6052C32.7721 73.7467 32.7438 73.9447 32.6872 74.171C32.6872 74.2841 32.6023 74.5104 32.574 74.6236C32.574 74.7085 32.5741 74.8216 32.5175 74.9348H32.6589ZM34.9503 79.1496C34.9503 78.6404 34.9503 78.103 35.0351 77.5938C35.0351 77.2261 35.1199 76.83 35.1765 76.4623C35.1765 76.1228 35.2614 75.8117 35.3463 75.4722C35.3463 75.2742 35.4311 75.1045 35.4594 74.9064C35.516 74.7084 35.5443 74.5387 35.6009 74.369C35.6857 74.0578 35.7706 73.7749 35.8554 73.492C36.2798 72.1908 36.8738 71.0027 37.6093 69.9278C37.8639 69.56 38.0902 69.2489 38.3731 68.9094C38.3731 68.9094 38.3731 68.8905 38.3731 68.8528C38.3731 68.8528 38.4862 68.7397 38.5145 68.6831C38.7691 68.4285 38.9671 68.2022 39.2217 67.9476C39.5046 67.6648 39.7875 67.4385 40.0986 67.1556C40.0986 67.1556 40.1552 67.099 40.1835 67.099C40.3815 66.9293 40.523 66.8161 40.6927 66.703C40.8624 66.5615 41.0321 66.4484 41.2301 66.3352C41.4847 66.1372 41.7394 65.9958 42.0222 65.826C42.0222 65.826 42.1071 65.826 42.1354 65.7694C42.3051 65.6563 42.4748 65.5714 42.6163 65.4866C42.6728 65.4866 42.7294 65.43 42.786 65.4017C43.0123 65.2603 43.2386 65.1471 43.4932 65.0623C43.578 65.0057 43.6629 64.9774 43.7478 64.9491C43.9458 64.836 44.1438 64.7228 44.3701 64.6662C44.5115 64.5814 44.653 64.5531 44.7661 64.4965C44.9076 64.4116 45.049 64.3834 45.1622 64.3268C46.0391 63.9873 46.9443 63.7327 47.9627 63.4781C48.7547 63.2801 49.4903 63.1387 50.1975 63.0538C50.254 63.0538 50.3106 63.0538 50.3672 63.0538C50.7349 62.9972 51.1309 62.9689 51.4987 62.9407H51.5553C51.8947 62.9407 52.2342 62.8841 52.5736 62.8841C53.5354 62.8841 54.3558 62.9972 55.0913 63.1952C55.1761 63.1952 55.261 63.1952 55.3176 63.2518C55.6853 63.3367 56.053 63.4781 56.3925 63.6196C56.7602 63.761 57.0997 63.959 57.4392 64.1853C57.524 64.1853 57.5806 64.2702 57.6655 64.3268C57.6655 64.3268 57.6843 64.3456 57.722 64.3833C58.3726 64.8642 58.9384 65.4866 59.391 66.2503C59.9851 67.297 60.4094 68.57 60.5791 70.0975C60.7488 71.0027 60.8054 71.9928 60.7771 73.096L60.1831 104.128C60.0134 112.558 55.6004 117.819 46.9443 119.856C46.124 120.054 45.3319 120.195 44.5964 120.28C43.8326 120.393 43.1255 120.45 42.4465 120.45C41.9091 120.45 41.3999 120.45 40.8907 120.337C39.8723 120.195 38.9954 119.941 38.2034 119.517C38.0053 119.403 37.8356 119.29 37.6659 119.177C37.5527 119.121 37.4396 119.036 37.3264 118.922C37.1001 118.753 36.9304 118.583 36.7324 118.385C36.5344 118.215 36.3929 118.017 36.2232 117.791C36.2232 117.791 36.0818 117.593 36.0535 117.508C35.9686 117.423 35.912 117.338 35.8837 117.253C35.714 116.999 35.5443 116.744 35.4594 116.433C35.318 116.122 35.1765 115.811 35.0917 115.471C34.8371 114.792 34.6956 114 34.6108 113.152C34.4976 112.303 34.441 111.37 34.4693 110.408L35.0634 79.1214L34.9503 79.1496ZM63.2099 69.6732C63.0967 68.9377 62.9553 68.2588 62.8138 67.6081C62.2198 65.3451 61.0883 63.563 59.4759 62.29C59.391 62.2052 59.2779 62.1203 59.193 62.0637C59.1081 61.9789 58.9667 61.894 58.8535 61.8092C58.4292 61.498 57.9483 61.2717 57.4674 61.0736C57.0148 60.8473 56.5339 60.7059 56.0813 60.5928C55.9682 60.5362 55.855 60.5362 55.7701 60.5079C54.7518 60.2533 53.7051 60.1401 52.5736 60.1401C52.2342 60.1401 51.8381 60.1401 51.4704 60.1967H51.329C50.9329 60.1967 50.4803 60.2816 50.0843 60.3382C49.9711 60.3382 49.858 60.3382 49.7731 60.3382C48.8962 60.4796 48.1041 60.6493 47.3121 60.8191C46.1523 61.1019 45.1339 61.4131 44.1438 61.7808C44.0307 61.7808 43.8609 61.8657 43.6629 61.9789C43.578 61.9789 43.4649 62.0637 43.3235 62.1203C43.0689 62.2052 42.8426 62.3183 42.588 62.4598C42.4748 62.4598 42.3334 62.5446 42.2202 62.6295C41.9374 62.7426 41.711 62.8841 41.4564 62.9972L41.3716 63.0538C41.1453 63.1387 40.9756 63.2518 40.7492 63.3933C40.6927 63.3933 40.6361 63.4498 40.5795 63.5064C40.2401 63.7327 39.8441 63.9307 39.6177 64.1287L39.4763 64.2136C39.2783 64.355 39.0803 64.4965 38.9105 64.6096L38.7691 64.7228C38.7691 64.7228 38.5711 64.8643 38.4862 64.9491C38.3731 65.0057 38.2882 65.0905 38.2034 65.1754L37.9205 65.43C37.6659 65.6563 37.4396 65.826 37.2133 66.0523C37.0718 66.2221 36.9304 66.3635 36.8172 66.4766L36.5061 66.7878C36.5061 66.7878 36.3363 66.9858 36.2797 67.0707C36.1666 67.1839 36.0817 67.297 36.0252 67.4102C35.7423 67.7496 35.516 68.0608 35.2614 68.4285C34.3845 69.6449 33.7055 71.0876 33.1398 72.7566C33.0549 73.0395 32.9701 73.294 32.8852 73.6618C32.8286 73.8032 32.8003 74.0013 32.7438 74.2276C32.7438 74.3407 32.6589 74.567 32.6306 74.6801C32.6306 74.765 32.6306 74.8781 32.574 74.9913C32.4609 75.3873 32.4043 75.8117 32.376 76.2077C32.2912 76.6037 32.2346 77.0281 32.2063 77.3675C32.1497 77.9616 32.1215 78.5839 32.1215 79.1214L31.5274 110.38C31.5274 111.454 31.5274 112.529 31.6688 113.491C31.782 114.566 32.0083 115.556 32.2912 116.405C32.4326 116.773 32.6023 117.169 32.7438 117.508C32.9135 117.932 33.1115 118.328 33.2812 118.611C33.3661 118.753 33.451 118.922 33.5641 119.036C33.6773 119.205 33.8187 119.375 33.9319 119.517C34.1299 119.771 34.3279 120.026 34.6108 120.309C34.8936 120.62 35.1483 120.818 35.3746 120.988C35.5726 121.157 35.7423 121.327 35.9403 121.412C36.2232 121.638 36.4778 121.78 36.7607 121.921C38.3165 122.741 40.1552 123.137 42.2485 123.137C42.7577 123.137 43.2952 123.137 43.8609 123.053C44.1721 123.053 44.4833 122.968 44.8227 122.939C45.7845 122.798 46.6049 122.628 47.3687 122.458C57.2129 120.139 62.531 113.802 62.7007 104.156L63.2947 73.1526C63.2947 71.8514 63.2382 70.6916 63.0684 69.6732H63.2099ZM60.0982 104.1C59.9285 112.529 55.5156 117.791 46.8595 119.828C46.0391 120.026 45.247 120.167 44.5115 120.252C43.7478 120.365 43.0406 120.422 42.3617 120.422C41.8242 120.422 41.315 120.422 40.8058 120.309C39.7875 120.167 38.9106 119.913 38.1185 119.488C37.9205 119.375 37.7507 119.262 37.581 119.149C37.4679 119.092 37.3547 119.007 37.2416 118.894C37.0153 118.724 36.8455 118.555 36.6475 118.357C36.4495 118.187 36.3081 117.989 36.1383 117.763C36.1383 117.763 35.9969 117.565 35.9686 117.48C35.8837 117.395 35.8271 117.31 35.7989 117.225C35.6291 116.971 35.4594 116.716 35.3746 116.405C35.2331 116.094 35.0917 115.783 35.0068 115.443C34.7522 114.764 34.6108 113.972 34.5259 113.123C34.4128 112.275 34.3562 111.341 34.3845 110.38L34.9785 79.0931C34.9785 78.5839 34.9785 78.0464 35.0634 77.5372C35.0634 77.1695 35.1483 76.7734 35.2048 76.4057C35.2048 76.0662 35.2897 75.7551 35.3746 75.4156C35.3746 75.2176 35.4594 75.0479 35.4877 74.8499C35.5443 74.6519 35.5726 74.4821 35.6291 74.3124C35.714 74.0013 35.7989 73.7184 35.8837 73.4355C36.308 72.1343 36.9021 70.9461 37.6376 69.8712C37.8922 69.5034 38.1185 69.1923 38.4013 68.8528C38.4013 68.8528 38.4013 68.834 38.4013 68.7963C38.4013 68.7963 38.5145 68.6831 38.5428 68.6265C38.7974 68.3719 38.9954 68.1456 39.25 67.891C39.5329 67.6082 39.8157 67.3819 40.1269 67.099C40.1269 67.099 40.1835 67.0424 40.2118 67.0424C40.4098 66.8727 40.5512 66.7595 40.721 66.6464C40.8907 66.5049 41.0604 66.3918 41.2585 66.2787C41.513 66.0806 41.7676 65.9392 42.0505 65.7694C42.0505 65.7694 42.1354 65.7694 42.1636 65.7129C42.3334 65.5997 42.5031 65.5149 42.6445 65.43C42.7011 65.43 42.7577 65.3734 42.8143 65.3451C43.0406 65.2037 43.2669 65.0905 43.5215 65.0057C43.6064 64.9491 43.6912 64.9208 43.7761 64.8925C43.9741 64.7794 44.1721 64.6662 44.3984 64.6096C44.5399 64.5248 44.6813 64.4965 44.7944 64.4399C44.9359 64.355 45.0773 64.3268 45.1905 64.2702C46.0674 63.9307 46.9726 63.6761 47.991 63.4215C48.783 63.2235 49.5185 63.0821 50.2257 62.9972C50.2823 62.9972 50.3389 62.9972 50.3954 62.9972C50.7632 62.9407 51.1592 62.9124 51.5269 62.8841H51.5835C51.923 62.8841 52.2624 62.8275 52.6019 62.8275C53.5637 62.8275 54.384 62.9407 55.1195 63.1387C55.2044 63.1387 55.2893 63.1387 55.3458 63.1952C55.7136 63.2801 56.0813 63.4216 56.4208 63.563C56.7885 63.7044 57.128 63.9024 57.4674 64.1287C57.5523 64.1287 57.6089 64.2136 57.6937 64.2702C57.6937 64.2702 57.7126 64.2891 57.7503 64.3268C58.4009 64.8077 58.9667 65.43 59.4193 66.1938C60.0133 67.2404 60.4377 68.5134 60.6074 70.0409C60.7771 70.9461 60.8337 71.9362 60.8054 73.0395L60.2114 104.071L60.0982 104.1ZM63.2099 69.6732C63.0967 68.9377 62.9553 68.2588 62.8138 67.6081C62.2198 65.3451 61.0883 63.563 59.4759 62.29C59.391 62.2052 59.2779 62.1203 59.193 62.0637C59.1081 61.9789 58.9667 61.894 58.8535 61.8092C58.4292 61.498 57.9483 61.2717 57.4674 61.0736C57.0148 60.8473 56.5339 60.7059 56.0813 60.5928C55.9682 60.5362 55.855 60.5362 55.7701 60.5079C54.7518 60.2533 53.7051 60.1401 52.5736 60.1401C52.2342 60.1401 51.8381 60.1401 51.4704 60.1967H51.329C50.9329 60.1967 50.4803 60.2816 50.0843 60.3382C49.9711 60.3382 49.858 60.3382 49.7731 60.3382C48.8962 60.4796 48.1041 60.6493 47.3121 60.8191C46.1523 61.1019 45.1339 61.4131 44.1438 61.7808C44.0307 61.7808 43.8609 61.8657 43.6629 61.9789C43.578 61.9789 43.4649 62.0637 43.3235 62.1203C43.0689 62.2052 42.8426 62.3183 42.588 62.4598C42.4748 62.4598 42.3334 62.5446 42.2202 62.6295C41.9374 62.7426 41.711 62.8841 41.4564 62.9972L41.3716 63.0538C41.1453 63.1387 40.9756 63.2518 40.7492 63.3933C40.6927 63.3933 40.6361 63.4498 40.5795 63.5064C40.2401 63.7327 39.8441 63.9307 39.6177 64.1287L39.4763 64.2136C39.2783 64.355 39.0803 64.4965 38.9105 64.6096L38.7691 64.7228C38.7691 64.7228 38.5711 64.8643 38.4862 64.9491C38.3731 65.0057 38.2882 65.0905 38.2034 65.1754L37.9205 65.43C37.6659 65.6563 37.4396 65.826 37.2133 66.0523C37.0718 66.2221 36.9304 66.3635 36.8172 66.4766L36.5061 66.7878C36.5061 66.7878 36.3363 66.9858 36.2797 67.0707C36.1666 67.1839 36.0817 67.297 36.0252 67.4102C35.7423 67.7496 35.516 68.0608 35.2614 68.4285C34.3845 69.6449 33.7055 71.0876 33.1398 72.7566C33.0549 73.0395 32.9701 73.294 32.8852 73.6618C32.8286 73.8032 32.8003 74.0013 32.7438 74.2276C32.7438 74.3407 32.6589 74.567 32.6306 74.6801C32.6306 74.765 32.6306 74.8781 32.574 74.9913C32.4609 75.3873 32.4043 75.8117 32.376 76.2077C32.2912 76.6037 32.2346 77.0281 32.2063 77.3675C32.1497 77.9616 32.1215 78.5839 32.1215 79.1214L31.5274 110.38C31.5274 111.454 31.5274 112.529 31.6688 113.491C31.782 114.566 32.0083 115.556 32.2912 116.405C32.4326 116.773 32.6023 117.169 32.7438 117.508C32.9135 117.932 33.1115 118.328 33.2812 118.611C33.3661 118.753 33.451 118.922 33.5641 119.036C33.6773 119.205 33.8187 119.375 33.9319 119.517C34.1299 119.771 34.3279 120.026 34.6108 120.309C34.8936 120.62 35.1483 120.818 35.3746 120.988C35.5726 121.157 35.7423 121.327 35.9403 121.412C36.2232 121.638 36.4778 121.78 36.7607 121.921C38.3165 122.741 40.1552 123.137 42.2485 123.137C42.7577 123.137 43.2952 123.137 43.8609 123.053C44.1721 123.053 44.4833 122.968 44.8227 122.939C45.7845 122.798 46.6049 122.628 47.3687 122.458C57.2129 120.139 62.531 113.802 62.7007 104.156L63.2947 73.1526C63.2947 71.8514 63.2382 70.6916 63.0684 69.6732H63.2099ZM60.0982 104.1C59.9285 112.529 55.5156 117.791 46.8595 119.828C46.0391 120.026 45.247 120.167 44.5115 120.252C43.7478 120.365 43.0406 120.422 42.3617 120.422C41.8242 120.422 41.315 120.422 40.8058 120.309C39.7875 120.167 38.9106 119.913 38.1185 119.488C37.9205 119.375 37.7507 119.262 37.581 119.149C37.4679 119.092 37.3547 119.007 37.2416 118.894C37.0153 118.724 36.8455 118.555 36.6475 118.357C36.4495 118.187 36.3081 117.989 36.1383 117.763C36.1383 117.763 35.9969 117.565 35.9686 117.48C35.8837 117.395 35.8271 117.31 35.7989 117.225C35.6291 116.971 35.4594 116.716 35.3746 116.405C35.2331 116.094 35.0917 115.783 35.0068 115.443C34.7522 114.764 34.6108 113.972 34.5259 113.123C34.4128 112.275 34.3562 111.341 34.3845 110.38L34.9785 79.0931C34.9785 78.5839 34.9785 78.0464 35.0634 77.5372C35.0634 77.1695 35.1483 76.7734 35.2048 76.4057C35.2048 76.0662 35.2897 75.7551 35.3746 75.4156C35.3746 75.2176 35.4594 75.0479 35.4877 74.8499C35.5443 74.6519 35.5726 74.4821 35.6291 74.3124C35.714 74.0013 35.7989 73.7184 35.8837 73.4355C36.308 72.1343 36.9021 70.9461 37.6376 69.8712C37.8922 69.5034 38.1185 69.1923 38.4013 68.8528C38.4013 68.8528 38.4013 68.834 38.4013 68.7963C38.4013 68.7963 38.5145 68.6831 38.5428 68.6265C38.7974 68.3719 38.9954 68.1456 39.25 67.891C39.5329 67.6082 39.8157 67.3819 40.1269 67.099C40.1269 67.099 40.1835 67.0424 40.2118 67.0424C40.4098 66.8727 40.5512 66.7595 40.721 66.6464C40.8907 66.5049 41.0604 66.3918 41.2585 66.2787C41.513 66.0806 41.7676 65.9392 42.0505 65.7694C42.0505 65.7694 42.1354 65.7694 42.1636 65.7129C42.3334 65.5997 42.5031 65.5149 42.6445 65.43C42.7011 65.43 42.7577 65.3734 42.8143 65.3451C43.0406 65.2037 43.2669 65.0905 43.5215 65.0057C43.6064 64.9491 43.6912 64.9208 43.7761 64.8925C43.9741 64.7794 44.1721 64.6662 44.3984 64.6096C44.5399 64.5248 44.6813 64.4965 44.7944 64.4399C44.9359 64.355 45.0773 64.3268 45.1905 64.2702C46.0674 63.9307 46.9726 63.6761 47.991 63.4215C48.783 63.2235 49.5185 63.0821 50.2257 62.9972C50.2823 62.9972 50.3389 62.9972 50.3954 62.9972C50.7632 62.9407 51.1592 62.9124 51.5269 62.8841H51.5835C51.923 62.8841 52.2624 62.8275 52.6019 62.8275C53.5637 62.8275 54.384 62.9407 55.1195 63.1387C55.2044 63.1387 55.2893 63.1387 55.3458 63.1952C55.7136 63.2801 56.0813 63.4216 56.4208 63.563C56.7885 63.7044 57.128 63.9024 57.4674 64.1287C57.5523 64.1287 57.6089 64.2136 57.6937 64.2702C57.6937 64.2702 57.7126 64.2891 57.7503 64.3268C58.4009 64.8077 58.9667 65.43 59.4193 66.1938C60.0133 67.2404 60.4377 68.5134 60.6074 70.0409C60.7771 70.9461 60.8337 71.9362 60.8054 73.0395L60.2114 104.071L60.0982 104.1Z" fill="#E0E0E0"/>
<path d="M33.1399 33.9172C33.2248 32.9837 33.3379 32.1068 33.5077 31.2298C33.6208 30.7207 33.7623 30.1549 33.932 29.5892C34.0734 29.08 34.2715 28.5991 34.4129 28.1748C34.4978 27.9485 34.5826 27.7787 34.6957 27.5524C34.7806 27.3261 34.8938 27.1564 35.0069 26.9301C35.1201 26.7038 35.2615 26.4775 35.3464 26.2794C35.4313 26.1097 35.5444 25.9117 35.6858 25.7137C35.8556 25.4591 36.0253 25.2328 36.1667 25.0065C37.3265 23.2809 38.9389 21.81 40.8342 20.5936C41.3151 20.2824 41.8809 19.9713 42.5598 19.6318C43.3236 19.2358 44.1156 18.8963 44.7946 18.6417C45.8412 18.2457 46.9444 17.9062 48.1325 17.6233C49.1509 17.3688 49.9712 17.2273 50.8482 17.1425C51.6968 17.001 52.5455 16.9445 53.3658 16.9445C53.9598 16.9445 54.5539 16.9444 55.1196 17.0576C55.6005 17.1142 56.1097 17.1991 56.6189 17.3405C56.6755 17.3405 56.7321 17.3405 56.8169 17.3405C57.2978 17.4819 57.7787 17.6517 58.2596 17.878C58.7122 18.0477 59.1365 18.2457 59.5043 18.5286C59.6174 18.5852 59.7306 18.6417 59.8154 18.7266C61.6824 19.9995 62.9837 21.8948 63.6343 24.3559C65.5296 25.7703 66.548 28.2314 66.6328 31.7956L74.7797 29.9003L81.3426 28.3445L81.4557 23.5072C81.6254 14.936 78.7401 9.08041 72.6299 5.60099C70.678 4.49777 68.4715 3.70569 66.0388 3.1965C64.1152 3.1965 62.0785 3.30967 59.9569 3.56426C58.1465 3.81885 56.2229 4.1583 54.2427 4.63919C44.0025 7.07196 35.5444 11.7112 28.8684 18.6417C22.1359 25.5723 18.7131 33.8607 18.5434 43.422L17.1006 119.375C17.0158 123.845 17.6381 127.663 18.9959 130.917C20.0709 132.161 21.3721 133.208 22.8431 134.113C26.4074 136.263 30.7072 137.338 35.6293 137.338C37.2982 137.338 38.9955 137.225 40.806 136.998C42.4467 136.772 44.0874 136.489 45.8978 136.065C50.2258 135.018 54.3559 133.519 58.203 131.511C59.674 130.775 61.0601 129.926 62.1068 129.276C65.0487 127.381 67.7926 125.146 70.2537 122.572C76.6751 115.981 79.8716 108.428 80.0696 99.4604L80.4091 82.6573V81.5541L80.7485 63.4781C80.8899 56.3496 78.7401 51.5123 74.1857 48.6835C72.6582 47.6935 70.9609 47.0145 69.1505 46.6185C68.9525 46.5619 68.811 46.5337 68.613 46.4771C67.2269 46.4771 65.7842 46.5902 64.2849 46.8165C62.814 47.0145 61.2864 47.2691 59.7023 47.6652C51.3574 49.617 45.0209 52.5024 40.608 56.3495L40.6645 52.6721C39.4198 53.4359 38.26 54.2845 37.27 55.1615C36.7608 55.6141 36.1384 55.8404 35.4878 55.8404C35.1201 55.8404 34.6958 55.7555 34.3563 55.5858C33.3662 55.1331 32.7439 54.1431 32.7722 53.0681L33.1116 35.4448C33.1116 34.9921 33.1116 34.4547 33.1965 33.9455L33.1399 33.9172ZM32.8288 74.1709C32.8854 73.9164 32.9136 73.7466 32.9702 73.6052C33.055 73.2657 33.1399 72.9828 33.2248 72.7C33.7906 71.031 34.4695 69.5883 35.3464 68.3719C35.601 68.0325 35.8273 67.693 36.1101 67.3535C36.1667 67.2404 36.2516 67.1273 36.3648 67.0141C36.4213 66.9292 36.5062 66.8161 36.591 66.7312L36.9022 66.42C36.9022 66.42 37.1851 66.1372 37.2982 65.9957C37.5245 65.7694 37.7508 65.5997 38.0054 65.3734L38.2883 65.1188C38.2883 65.1188 38.4581 64.9491 38.5712 64.8925C38.6561 64.8076 38.7692 64.7228 38.8541 64.6662L38.9955 64.5531C39.1653 64.4116 39.3633 64.2702 39.5613 64.157L39.7027 64.0721C39.929 63.8741 40.2968 63.6761 40.6645 63.4215C40.6645 63.4215 40.7776 63.365 40.8342 63.3367C41.0605 63.1952 41.2303 63.0821 41.4566 62.9972L41.5414 62.9406C41.796 62.7992 42.0223 62.6577 42.3052 62.5729C42.4466 62.488 42.5881 62.4314 42.673 62.4032C42.9276 62.2617 43.1538 62.1486 43.4084 62.0637C43.5499 62.0071 43.663 61.9506 43.7479 61.9223C43.9742 61.8091 44.1157 61.7526 44.2288 61.7243C45.2189 61.3565 46.209 61.0453 47.397 60.7625C48.1891 60.5644 48.9812 60.423 49.8581 60.2816C49.9429 60.2816 50.0561 60.2816 50.1692 60.2816C50.5653 60.225 51.0179 60.1684 51.4139 60.1401H51.5554C51.9231 60.1401 52.3191 60.0836 52.6586 60.0836C53.7618 60.0836 54.8368 60.225 55.8552 60.4513C55.94 60.4513 56.0532 60.4513 56.1663 60.5361C56.6189 60.6493 57.0998 60.8191 57.5524 61.0171C58.0333 61.2151 58.5142 61.4414 58.9385 61.7525C59.08 61.8374 59.2214 61.9223 59.278 62.0071C59.3628 62.0637 59.476 62.1486 59.5609 62.2334C61.2016 63.4781 62.3048 65.2885 62.8988 67.5233C64.4829 68.7396 65.4165 70.6349 65.7559 73.2657C65.9257 74.1709 65.9822 75.161 65.9539 76.2643L65.3599 107.296C65.1902 115.726 60.7772 120.987 52.1211 123.024C51.3008 123.222 50.5087 123.364 49.7732 123.449C47.4819 123.76 45.6149 123.59 44.0874 123.024C43.5216 123.081 43.0124 123.109 42.4749 123.109C40.3816 123.109 38.5429 122.713 36.9871 121.893C36.7042 121.723 36.4496 121.582 36.1667 121.384C35.9687 121.27 35.799 121.101 35.601 120.959C35.3747 120.789 35.1201 120.591 34.8372 120.28C34.5543 119.997 34.3563 119.743 34.1583 119.488C34.0168 119.319 33.8754 119.149 33.7906 119.007C33.6774 118.866 33.5925 118.696 33.5077 118.583C33.3379 118.272 33.1399 117.904 32.9702 117.48C32.8005 117.14 32.6308 116.744 32.5176 116.377C32.2064 115.528 32.0084 114.566 31.8953 113.463C31.7821 112.501 31.7255 111.426 31.7538 110.351L32.3478 79.0931C32.3478 78.5556 32.3478 77.9332 32.4327 77.3392C32.4327 76.9714 32.5176 76.5754 32.6025 76.1794C32.6025 75.7834 32.6873 75.359 32.8005 74.963C32.8005 74.8499 32.8005 74.7367 32.857 74.6518C32.857 74.5104 32.9419 74.3124 32.9702 74.1992L32.8288 74.1709Z" fill="#E4675B"/>
<path d="M129.704 5.67416H126.844V13H126.052V5.67416H123.192V4.97323H129.704V5.67416ZM138.907 4.97323V13H138.127V9.24664H133.368V13H132.576V4.97323H133.368V8.54571H138.127V4.97323H138.907Z" fill="#828282"/>
</svg>
