<svg width="140" height="160" viewBox="0 0 140 160" fill="none" xmlns="http://www.w3.org/2000/svg">
<path d="M55.8579 44.6996L29.3577 91.5386L55.0877 85.4912L55.8579 44.6996Z" fill="#828282"/>
<path d="M54.7454 104.518L3 116.67L32.4099 136.581L54.2034 131.474L54.7454 104.518Z" fill="#828282"/>
<path d="M118.386 96.7017L107.546 89.3422L108.858 19.9394L79.4486 0L78.3075 59.9037L77.9652 77.504L77.9367 79.3582L88.9761 76.7624L88.7764 86.7178L88.5768 96.8158H88.6053H88.5768L77.5659 99.4117L76.8813 134.698L54.0608 140.089L83.4707 160L106.291 154.609L106.976 119.323L117.987 116.727L117.958 116.698L117.987 116.727L118.386 96.7017Z" fill="#828282"/>
<path d="M104.466 21.8791C104.608 21.6794 93.8255 14.0916 88.0348 10.1266C83.813 7.2455 83.5848 7.33108 83.4422 7.50224C83.2996 7.70192 83.3851 7.98718 87.5499 10.8112C93.3691 14.7763 104.351 22.0503 104.466 21.8506V21.8791Z" fill="#333333"/>
<path d="M104.409 26.6714C104.551 26.4717 93.7686 18.8839 87.9779 14.9189C83.7561 12.0378 83.5279 12.1234 83.3853 12.2945C83.2427 12.4657 83.3282 12.7795 87.493 15.6035C93.3122 19.5685 104.295 26.8425 104.409 26.6429V26.6714Z" fill="#333333"/>
<path d="M104.323 31.4637C104.465 31.264 93.6827 23.6762 87.892 19.7112C83.6702 16.8301 83.442 16.9157 83.2994 17.0868C83.1567 17.258 83.2423 17.5717 87.407 20.3958C93.2263 24.3608 104.209 31.6349 104.323 31.4352V31.4637Z" fill="#333333"/>
<path d="M104.237 36.2275C104.38 36.0278 93.5972 28.44 87.8065 24.4749C83.5847 21.5939 83.3565 21.6794 83.2139 21.8506C83.0713 22.0503 83.1569 22.3355 87.3216 25.1596C93.1408 29.1246 104.123 36.3986 104.237 36.199V36.2275Z" fill="#333333"/>
<path d="M104.152 41.0198C104.294 40.8201 93.5118 33.2323 87.7211 29.2672C83.4993 26.3862 83.2711 26.4717 83.1285 26.6429C82.9858 26.8426 83.0714 27.1278 87.2361 29.9519C93.0554 33.9169 104.038 41.1909 104.152 40.9913V41.0198Z" fill="#333333"/>
<path d="M104.066 45.8121C104.209 45.6124 93.4261 38.0246 87.6354 34.0595C83.4136 31.1785 83.1854 31.264 83.0428 31.4352C82.9001 31.6349 82.9857 31.9201 87.1505 34.7442C92.9697 38.7092 103.952 45.9832 104.066 45.7836V45.8121Z" fill="#333333"/>
<path d="M103.981 50.6044C104.123 50.4047 93.3406 42.8169 87.5499 38.8518C83.3281 35.9707 83.0999 36.0563 82.9573 36.2275C82.8147 36.4271 82.9003 36.7124 87.065 39.5364C92.8842 43.5015 103.867 50.7755 103.981 50.5758V50.6044Z" fill="#333333"/>
<path d="M103.895 55.3967C104.038 55.197 93.2549 47.6092 87.4642 43.6441C83.2425 40.7631 83.0142 40.8486 82.8716 41.0198C82.729 41.1909 82.8146 41.5047 86.9793 44.3288C92.7985 48.2938 103.781 55.5678 103.895 55.3682V55.3967Z" fill="#333333"/>
<path d="M103.809 60.189C103.952 59.9893 93.1692 52.4015 87.3785 48.4364C83.1568 45.5553 82.9286 45.6409 82.7859 45.8121C82.6433 46.0118 82.7289 46.297 86.8936 49.1211C92.7128 53.0861 103.695 60.3601 103.809 60.1604V60.189Z" fill="#333333"/>
<path d="M103.724 64.9813C103.867 64.7816 93.084 57.1938 87.2933 53.2287C83.0716 50.3476 82.8434 50.4332 82.7007 50.6044C82.5581 50.8041 82.6437 51.0893 86.8084 53.9133C92.6276 57.8784 103.61 65.1524 103.724 64.9527V64.9813Z" fill="#333333"/>
<path d="M103.638 69.7451C103.781 69.5454 92.9983 61.9576 87.2077 57.9925C82.9859 55.1114 82.7577 55.197 82.615 55.3682C82.4724 55.5679 82.558 55.8531 86.7227 58.6772C92.5419 62.6422 103.524 69.9162 103.638 69.7165V69.7451Z" fill="#333333"/>
<path d="M103.553 74.5374C103.695 74.3377 92.9127 66.7499 87.122 62.7848C82.9002 59.9037 82.672 59.9893 82.5293 60.1605C82.3867 60.3602 82.4723 60.6454 86.637 63.4694C92.4562 67.4345 103.439 74.7085 103.553 74.5088V74.5374Z" fill="#333333"/>
<path d="M103.496 79.3296C103.638 79.13 92.8555 71.5422 87.0648 67.5771C82.843 64.696 82.6148 64.7816 82.4722 64.9528C82.3296 65.1524 82.4152 65.4377 86.5799 68.2617C92.3991 72.2268 103.381 79.5008 103.496 79.3011V79.3296Z" fill="#333333"/>
<path d="M114.136 98.5844C114.279 98.3847 103.41 90.9396 97.5911 87.0601C93.3408 84.2361 93.1126 84.3216 92.9985 84.5213C92.8559 84.721 92.9414 85.0063 97.1347 87.7732C102.982 91.6527 114.022 98.7841 114.164 98.5844H114.136Z" fill="#333333"/>
<path d="M114.05 103.377C114.193 103.177 103.324 95.7318 97.5052 91.8524C93.2549 89.0283 93.0267 89.1139 92.9126 89.3136C92.7699 89.5133 92.8555 89.7985 97.0488 92.5655C102.897 96.445 113.936 103.576 114.079 103.377H114.05Z" fill="#333333"/>
<path d="M113.965 108.14C114.107 107.941 103.239 100.496 97.4197 96.6161C93.1694 93.7921 92.9412 93.8777 92.8271 94.0774C92.6845 94.277 92.7701 94.5623 96.9633 97.3293C102.811 101.209 113.85 108.34 113.993 108.14H113.965Z" fill="#333333"/>
<path d="M102.726 121.462C102.868 121.262 92.0571 113.789 86.2379 109.881C82.0161 107.057 81.7879 107.114 81.6453 107.313C81.5027 107.513 81.5883 107.798 85.753 110.594C91.5722 114.502 102.583 121.662 102.726 121.462Z" fill="#333333"/>
<path d="M102.64 126.254C102.783 126.055 91.9714 118.581 86.1522 114.673C81.9304 111.849 81.7022 111.906 81.5596 112.106C81.417 112.305 81.5026 112.59 85.6673 115.386C91.4865 119.294 102.497 126.454 102.64 126.254Z" fill="#333333"/>
<path d="M102.554 131.047C102.697 130.847 91.8858 123.373 86.0665 119.465C81.8448 116.641 81.6165 116.698 81.4739 116.898C81.3313 117.098 81.4169 117.383 85.5816 120.178C91.4008 124.086 102.412 131.246 102.554 131.047Z" fill="#333333"/>
<path d="M102.469 135.839C102.612 135.639 91.8003 128.165 85.9811 124.257C81.7593 121.433 81.5311 121.49 81.3885 121.69C81.2458 121.89 81.3314 122.175 85.4962 124.971C91.3154 128.879 102.326 136.039 102.469 135.839Z" fill="#333333"/>
<path d="M102.383 140.631C102.526 140.431 91.7144 132.958 85.8951 129.05C81.6734 126.226 81.4452 126.283 81.3025 126.482C81.1599 126.682 81.2455 126.967 85.4102 129.763C91.2294 133.671 102.24 140.831 102.383 140.631Z" fill="#333333"/>
<path d="M102.298 145.423C102.44 145.224 91.6292 137.75 85.8099 133.842C81.5882 131.018 81.36 131.075 81.2173 131.275C81.0747 131.474 81.1603 131.76 85.325 134.555C91.1442 138.463 102.155 145.623 102.298 145.423Z" fill="#333333"/>
<path d="M51.2369 69.5739C51.3795 69.3742 49.6965 68.0335 48.7266 67.3774C48.042 66.921 47.8994 67.0636 47.7853 67.2633C47.6426 67.463 47.5856 67.6341 48.2702 68.0905C49.2115 68.7181 51.1228 69.7735 51.2654 69.5739H51.2369Z" fill="#333333"/>
<path d="M50.9513 74.3947C51.0939 74.1951 48.6407 72.2268 47.243 71.2569C46.2446 70.5438 46.102 70.6864 45.9593 70.8861C45.8167 71.0858 45.7596 71.2569 46.7295 71.97C48.0987 72.9399 50.7801 74.5944 50.9228 74.4232L50.9513 74.3947Z" fill="#333333"/>
<path d="M50.9516 79.0444C51.0942 78.8447 47.5856 76.2774 45.6744 74.9938C44.2766 74.0524 44.134 74.195 43.9913 74.3947C43.8487 74.5944 43.8202 74.7941 45.1894 75.7069C47.1006 76.9906 50.809 79.2441 50.9516 79.0444Z" fill="#333333"/>
<path d="M48.8406 82.6386C48.9832 82.4389 45.4175 79.8716 43.4778 78.588C42.0515 77.6466 41.9088 77.7892 41.7947 77.9889C41.6806 78.1886 41.6236 78.3883 43.0213 79.3011C44.9611 80.5848 48.7265 82.8383 48.8691 82.6386H48.8406Z" fill="#333333"/>
<path d="M43.6206 83.8367C43.7632 83.637 41.9661 82.2108 40.9392 81.5261C40.1975 81.0412 40.0834 81.1838 39.9408 81.3835C39.7981 81.5832 39.7411 81.7543 40.4542 82.2393C41.4811 82.9239 43.4779 84.0364 43.6206 83.8367Z" fill="#333333"/>
<path d="M83.1854 78.1316L77.9367 79.3582V77.504L78.279 59.9037L79.363 4.50705L79.4486 0L57.655 5.13461L3.34231 99.3831L3 116.67L8.24871 115.443L50.1243 105.63L54.7454 104.546L54.6598 108.682V109.025L54.232 131.474L54.0608 140.089L59.3095 138.863L76.8813 134.726L77.0524 126.14L77.1951 119.75L77.5659 99.4402L88.6053 96.8443L88.805 86.7463L88.9191 81.2979L89.0046 76.7909L83.214 78.1601L83.1854 78.1316ZM86.038 86.6607L85.8668 94.6194L76.9383 96.7588C75.7117 97.044 74.856 98.0995 74.8274 99.3546L74.4566 119.665L74.314 126.055L74.1713 132.501L59.3666 135.981L56.8563 136.581L56.9704 131.503L57.3983 108.711V108.369L57.4839 104.546C57.4839 103.69 57.113 102.863 56.4569 102.35C55.972 101.979 55.3444 101.751 54.7169 101.751C54.4887 101.751 54.289 101.751 54.0893 101.836L49.4682 102.92L8.27723 112.59L5.76698 113.161L6.02371 100.125L59.3951 7.50224L76.596 3.48012V5.16312L75.5406 59.8467L75.1983 77.4469V79.3011C75.1412 80.1569 75.5406 80.9842 76.1967 81.4976C76.6816 81.8684 77.2806 82.0966 77.9367 82.0966C78.1649 82.0966 78.3361 82.0966 78.5643 82.0111L83.1284 80.9271L86.1521 80.2139V81.897L86.038 86.6322V86.6607ZM56.5711 42.0182C56.3143 41.9611 56.1146 41.9326 55.8579 41.9326C54.8595 41.9326 53.9752 42.4461 53.4618 43.3304L26.9615 90.1694C26.4195 91.1107 26.5051 92.2803 27.1612 93.1646C27.6746 93.8492 28.5019 94.2486 29.3576 94.2486C29.5573 94.2486 29.757 94.2485 29.9852 94.1629L35.6047 92.8508L55.7153 88.1155C56.9134 87.8303 57.7976 86.7463 57.8262 85.5197L58.4537 52.4585L58.5964 44.7281C58.5964 43.473 57.7691 42.332 56.5711 42.0182ZM55.0877 85.4627L37.4589 89.6274L29.3576 91.5101L55.8579 44.6425L55.6012 57.4505L55.0877 85.4341V85.4627ZM56.5711 42.0182C56.3143 41.9611 56.1146 41.9326 55.8579 41.9326C54.8595 41.9326 53.9752 42.4461 53.4618 43.3304L26.9615 90.1694C26.4195 91.1107 26.5051 92.2803 27.1612 93.1646C27.6746 93.8492 28.5019 94.2486 29.3576 94.2486C29.5573 94.2486 29.757 94.2485 29.9852 94.1629L35.6047 92.8508L55.7153 88.1155C56.9134 87.8303 57.7976 86.7463 57.8262 85.5197L58.4537 52.4585L58.5964 44.7281C58.5964 43.473 57.7691 42.332 56.5711 42.0182ZM55.0877 85.4627L37.4589 89.6274L29.3576 91.5101L55.8579 44.6425L55.6012 57.4505L55.0877 85.4341V85.4627ZM56.5711 42.0182C56.3143 41.9611 56.1146 41.9326 55.8579 41.9326C54.8595 41.9326 53.9752 42.4461 53.4618 43.3304L26.9615 90.1694C26.4195 91.1107 26.5051 92.2803 27.1612 93.1646C27.6746 93.8492 28.5019 94.2486 29.3576 94.2486C29.5573 94.2486 29.757 94.2485 29.9852 94.1629L35.6047 92.8508L55.7153 88.1155C56.9134 87.8303 57.7976 86.7463 57.8262 85.5197L58.4537 52.4585L58.5964 44.7281C58.5964 43.473 57.7691 42.332 56.5711 42.0182ZM55.0877 85.4627L37.4589 89.6274L29.3576 91.5101L55.8579 44.6425L55.6012 57.4505L55.0877 85.4341V85.4627Z" fill="#E0E0E0"/>
<path d="M83.0997 82.6386V80.9556L78.5641 82.0396C78.3359 82.0966 78.1648 82.1252 77.9366 82.1252C77.309 82.1252 76.71 81.897 76.1965 81.5261C75.5404 81.0127 75.1411 80.1854 75.1696 79.3297V77.4755L75.5119 59.8752L76.5674 5.19168L62.761 8.41504L8.47678 102.664L8.2771 112.619L49.468 102.949L54.0892 101.865C54.2889 101.808 54.4885 101.779 54.7168 101.779C55.3158 101.779 55.9434 102.008 56.4568 102.378C57.1129 102.892 57.4837 103.719 57.4837 104.575L57.3982 108.397L59.9084 107.798L59.8228 111.934L59.395 134.726V135.981L74.1712 132.501L74.3138 126.055L74.4565 119.665L74.8273 99.3546C74.8273 98.0995 75.7116 97.0155 76.9382 96.7588L85.8667 94.6194L86.0378 86.6608L86.1234 81.9255L83.0997 82.6386ZM60.2507 88.7431L34.5206 94.8191L35.6046 92.9079L29.9851 94.22C29.7569 94.2771 29.5572 94.3056 29.3575 94.3056C28.5017 94.3056 27.6745 93.9063 27.161 93.2216C26.505 92.3374 26.4194 91.1678 26.9614 90.2265L53.4616 43.3874C53.9466 42.5031 54.8594 41.9897 55.8578 41.9897C56.1145 41.9897 56.3142 41.9897 56.5709 42.0752C57.769 42.4176 58.6248 43.53 58.5962 44.7852L58.4536 52.5156L60.9924 47.9801L60.2222 88.7716L60.2507 88.7431Z" fill="#E4675B"/>
<path d="M129.704 5.67416H126.844V13H126.052V5.67416H123.192V4.97323H129.704V5.67416ZM138.907 4.97323V13H138.127V9.24664H133.368V13H132.576V4.97323H133.368V8.54571H138.127V4.97323H138.907Z" fill="#828282"/>
</svg>
