<svg width="140" height="160" viewBox="0 0 140 160" fill="none" xmlns="http://www.w3.org/2000/svg">
<path d="M45.3185 43.3898L18 49.8127L44.8617 67.9964L45.3185 43.3898Z" fill="#828282"/>
<path d="M68.6404 0L66.0427 134.765L43.4629 140.075L72.8938 160L95.4736 154.69L98.0713 19.9251L68.6404 0Z" fill="#828282"/>
<path d="M46.3176 5.25245V6.25156C46.2034 12.2748 43.5486 17.6699 38.4103 22.4371C33.2721 27.2328 27.4202 30.4014 20.9688 31.8858L18.3426 32.5138L18 49.8127L22.7386 48.6994L45.2899 43.3898L45.2043 47.7574L44.8332 67.9964L43.463 140.075L48.2016 138.962L66.0143 134.794L67.3559 65.0562L67.4701 58.405L68.5263 4.36753L68.612 0L46.289 5.25245H46.3176ZM64.7583 58.3479L64.6441 64.9991L63.331 132.596L48.2872 136.136L46.289 136.592L47.6021 68.0535L47.9732 47.1008L48.0589 43.4469C48.0589 42.5905 47.6878 41.7627 47.0312 41.2489C46.5459 40.8492 45.9465 40.6494 45.2899 40.6494C45.0616 40.6494 44.8903 40.6494 44.6619 40.7065L22.7957 45.8733L20.7975 46.3301L21.0259 34.6833L21.5682 34.5406C28.5049 32.942 34.8136 29.545 40.2658 24.4353C45.6325 19.4398 48.5442 13.7306 49.0009 7.42194L65.8144 3.4826V5.05263L64.7583 58.3764V58.3479Z" fill="#E0E0E0"/>
<path d="M65.7573 5.05264L64.7296 58.3765L64.6155 65.0277L63.3023 132.624L48.2586 136.164L49.9999 46.6726L47.9732 47.1294L48.0588 43.4755C48.0588 42.6191 47.6877 41.7913 47.0312 41.2774C46.5459 40.8778 45.9464 40.678 45.2899 40.678C45.0615 40.678 44.8902 40.678 44.6618 40.7351L22.7957 45.9019L22.9955 35.7966L25.6217 35.1686C32.1016 33.6842 37.925 30.5156 43.0633 25.7199C48.2301 20.9527 50.8563 15.5575 50.9705 9.53435V8.53525L65.7573 5.08119V5.05264Z" fill="#E4675B"/>
<path d="M95.3882 22.8938C95.5309 22.694 83.3703 14.33 76.8333 9.96251C72.0947 6.79391 71.8378 6.851 71.7236 7.05083C71.5809 7.25065 71.6951 7.53611 76.3766 10.6762C82.9136 15.0437 95.274 23.0936 95.3882 22.8938Z" fill="#333333"/>
<path d="M95.3025 27.6895C95.4452 27.4897 83.2847 19.1257 76.7476 14.7582C72.009 11.5896 71.7521 11.6467 71.6379 11.8465C71.5237 12.0463 71.6094 12.3318 76.2909 15.4719C82.8279 19.8394 95.1883 27.8893 95.3025 27.6895Z" fill="#333333"/>
<path d="M95.2168 32.4853C95.3595 32.2854 83.199 23.9215 76.662 19.554C71.9233 16.3854 71.6664 16.4424 71.5522 16.6423C71.438 16.8421 71.5237 17.1275 76.2052 20.2676C82.7422 24.6351 95.1026 32.6851 95.2168 32.4853Z" fill="#333333"/>
<path d="M95.1311 37.281C95.2739 37.0811 83.1133 28.7172 76.5763 24.3496C71.8376 21.1811 71.5807 21.2381 71.4665 21.438C71.3524 21.6378 71.438 21.9232 76.1195 25.0633C82.6565 29.4308 95.0169 37.4808 95.1311 37.281Z" fill="#333333"/>
<path d="M95.0454 42.0767C95.1881 41.8769 83.0276 33.5129 76.4906 29.1454C71.7519 25.9768 71.495 26.0339 71.3808 26.2337C71.2381 26.4335 71.3523 26.719 76.0338 29.859C82.5708 34.2266 94.9312 42.2765 95.0454 42.0767Z" fill="#333333"/>
<path d="M94.9597 46.8439C95.1025 46.644 82.9419 38.2801 76.4049 33.9126C71.6662 30.744 71.4093 30.801 71.2951 31.0009C71.1524 31.2007 71.2666 31.4862 75.9481 34.6262C82.4851 38.9937 94.8455 47.0437 94.9597 46.8439Z" fill="#333333"/>
<path d="M94.8743 51.6396C95.017 51.4397 82.8564 43.0758 76.3194 38.7083C71.5808 35.5397 71.3239 35.5967 71.2097 35.7966C71.067 35.9964 71.1811 36.2819 75.8627 39.4219C82.3997 43.7894 94.7601 51.8394 94.8743 51.6396Z" fill="#333333"/>
<path d="M94.7886 56.4353C94.9313 56.2355 82.7707 47.8715 76.2337 43.504C71.4951 40.3354 71.2382 40.3925 71.124 40.5923C70.9813 40.7921 71.0955 41.0776 75.777 44.2176C82.314 48.5852 94.6744 56.6351 94.7886 56.4353Z" fill="#333333"/>
<path d="M94.7029 61.231C94.8456 61.0312 82.685 52.6672 76.148 48.2997C71.4094 45.1311 71.1525 45.1882 71.0383 45.388C70.8956 45.5878 71.0098 45.8733 75.6913 49.0133C82.2283 53.3809 94.5887 61.4308 94.7029 61.231Z" fill="#333333"/>
<path d="M94.6172 66.0267C94.7599 65.8269 82.5994 57.463 76.0623 53.0954C71.3237 49.9268 71.0668 49.9839 70.9526 50.1837C70.8099 50.3836 70.9241 50.669 75.6056 53.8091C82.1426 58.1766 94.503 66.2266 94.6172 66.0267Z" fill="#333333"/>
<path d="M94.5603 70.8225C94.703 70.6226 82.5425 62.2587 76.0055 57.8911C71.2668 54.7225 71.0099 54.7796 70.8957 54.9795C70.753 55.1793 70.8672 55.4647 75.5487 58.6048C82.0857 62.9723 94.4461 71.0223 94.5603 70.8225Z" fill="#333333"/>
<path d="M94.4746 75.5896C94.6174 75.3898 82.4568 67.0258 75.9198 62.6583C71.1811 59.4897 70.9242 59.5468 70.81 59.7466C70.6673 59.9465 70.7815 60.2319 75.463 63.372C82 67.7395 94.3604 75.7895 94.4746 75.5896Z" fill="#333333"/>
<path d="M94.3889 80.3854C94.5317 80.1855 82.3711 71.8216 75.8341 67.454C71.0954 64.2854 70.8385 64.3425 70.7243 64.5423C70.5816 64.7422 70.6958 65.0276 75.3773 68.1677C81.9143 72.5352 94.2747 80.5852 94.3889 80.3854Z" fill="#333333"/>
<path d="M94.3032 85.1811C94.446 84.9812 82.2854 76.6173 75.7484 72.2498C71.0097 69.0812 70.7528 69.1382 70.6386 69.3381C70.4959 69.5379 70.6101 69.8233 75.2916 72.9634C81.8287 77.3309 94.1891 85.3809 94.3032 85.1811Z" fill="#333333"/>
<path d="M94.2175 89.9768C94.3603 89.777 82.1997 81.413 75.6627 77.0455C70.924 73.8769 70.6671 73.934 70.553 74.1338C70.4102 74.3336 70.5244 74.6191 75.2059 77.7591C81.743 82.1266 94.1034 90.1766 94.2175 89.9768Z" fill="#333333"/>
<path d="M94.1321 94.7725C94.2748 94.5727 82.1143 86.2087 75.5772 81.8412C70.8386 78.6726 70.5817 78.7297 70.4675 78.9295C70.3248 79.1293 70.439 79.4148 75.1205 82.5548C81.6575 86.9224 94.0179 94.9723 94.1321 94.7725Z" fill="#333333"/>
<path d="M94.0464 99.5682C94.1891 99.3684 82.0286 91.0044 75.4915 86.6369C70.7529 83.4683 70.496 83.5254 70.3818 83.7252C70.2391 83.9251 70.3533 84.2105 75.0348 87.3506C81.5718 91.7181 93.9322 99.7681 94.0464 99.5682Z" fill="#333333"/>
<path d="M93.9607 104.335C94.1034 104.136 81.9429 95.7716 75.4058 91.4041C70.6672 88.2355 70.4103 88.2926 70.2961 88.4924C70.1534 88.6922 70.2676 88.9777 74.9491 92.1177C81.4861 96.4853 93.8465 104.535 93.9607 104.335Z" fill="#333333"/>
<path d="M93.875 109.131C94.0177 108.931 81.8572 100.567 75.3202 96.1998C70.5815 93.0312 70.3246 93.0883 70.2104 93.2881C70.0677 93.4879 70.1819 93.7734 74.8634 96.9135C81.4004 101.281 93.7608 109.331 93.875 109.131Z" fill="#333333"/>
<path d="M93.7893 113.927C93.932 113.727 81.7715 105.363 75.2345 100.996C70.4958 97.8269 70.2389 97.884 70.1247 98.0838C69.982 98.2837 70.0962 98.5691 74.7777 101.709C81.3147 106.077 93.6751 114.127 93.7893 113.927Z" fill="#333333"/>
<path d="M93.7039 118.723C93.8466 118.523 81.686 110.159 75.149 105.791C70.4104 102.623 70.1535 102.68 70.0393 102.88C69.8966 103.079 70.0107 103.365 74.6923 106.505C81.2293 110.872 93.5897 118.922 93.7039 118.723Z" fill="#333333"/>
<path d="M93.6467 123.518C93.7895 123.318 81.6289 114.954 75.0919 110.587C70.3533 107.418 70.0963 107.475 69.9822 107.675C69.8394 107.875 69.9536 108.161 74.6351 111.301C81.1722 115.668 93.5326 123.718 93.6467 123.518Z" fill="#333333"/>
<path d="M93.561 128.314C93.7038 128.114 81.5432 119.75 75.0062 115.383C70.2676 112.214 70.0106 112.271 69.8965 112.471C69.7537 112.671 69.8679 112.956 74.5495 116.096C81.0865 120.464 93.4469 128.514 93.561 128.314Z" fill="#333333"/>
<path d="M93.4754 133.11C93.6181 132.91 81.4575 124.546 74.9205 120.178C70.1819 117.01 69.925 117.067 69.8108 117.267C69.6966 117.467 69.7822 117.752 74.4638 120.892C81.0008 125.26 93.3612 133.31 93.4754 133.11Z" fill="#333333"/>
<path d="M93.3897 137.877C93.5324 137.677 81.3718 129.313 74.8348 124.946C70.0962 121.777 69.8393 121.834 69.7251 122.034C69.6109 122.234 69.6965 122.519 74.3781 125.659C80.9151 130.027 93.2755 138.077 93.3897 137.877Z" fill="#333333"/>
<path d="M93.3042 142.673C93.4469 142.473 81.2864 134.109 74.7493 129.741C70.0107 126.573 69.7538 126.63 69.6396 126.83C69.4969 127.029 69.6111 127.315 74.2926 130.455C80.8296 134.822 93.19 142.872 93.3042 142.673Z" fill="#333333"/>
<path d="M93.2185 147.468C93.3612 147.268 81.2007 138.905 74.6637 134.537C69.925 131.368 69.6681 131.425 69.5539 131.625C69.4112 131.825 69.5254 132.111 74.2069 135.251C80.7439 139.618 93.1043 147.668 93.2185 147.468Z" fill="#333333"/>
<path d="M112.698 6.47684C112.585 6.34871 112.453 6.23565 112.302 6.13768C112.151 6.03216 111.982 5.94172 111.793 5.86635C111.605 5.79098 111.402 5.73068 111.183 5.68546C110.972 5.64024 110.746 5.61763 110.505 5.61763C109.804 5.61763 109.287 5.75329 108.956 6.02462C108.632 6.28841 108.47 6.65018 108.47 7.10993C108.47 7.42648 108.545 7.6752 108.696 7.85608C108.854 8.03697 109.099 8.18394 109.431 8.29699C109.762 8.41004 110.184 8.52686 110.697 8.64745C111.27 8.76804 111.763 8.91125 112.178 9.07706C112.592 9.24287 112.913 9.46897 113.139 9.75538C113.365 10.0342 113.478 10.4149 113.478 10.8972C113.478 11.2665 113.406 11.5868 113.263 11.8582C113.12 12.1295 112.92 12.3556 112.664 12.5365C112.408 12.7174 112.102 12.853 111.748 12.9435C111.394 13.0264 111.006 13.0678 110.584 13.0678C110.169 13.0678 109.77 13.0264 109.385 12.9435C109.009 12.853 108.651 12.7249 108.311 12.5591C107.972 12.3857 107.656 12.1672 107.362 11.9034L107.757 11.259C107.901 11.4097 108.07 11.5529 108.266 11.6886C108.47 11.8167 108.692 11.9335 108.933 12.039C109.182 12.1446 109.446 12.2275 109.725 12.2878C110.011 12.3405 110.305 12.3669 110.606 12.3669C111.247 12.3669 111.744 12.2501 112.099 12.0164C112.46 11.7828 112.641 11.4361 112.641 10.9763C112.641 10.6447 112.551 10.3809 112.37 10.185C112.189 9.98148 111.918 9.81567 111.556 9.68754C111.194 9.55942 110.75 9.43506 110.222 9.31447C109.664 9.18634 109.193 9.04314 108.809 8.88487C108.424 8.72659 108.134 8.51933 107.938 8.26307C107.75 7.99928 107.656 7.65259 107.656 7.22299C107.656 6.72555 107.776 6.30726 108.017 5.9681C108.266 5.6214 108.605 5.36138 109.035 5.18803C109.465 5.00714 109.958 4.9167 110.516 4.9167C110.87 4.9167 111.198 4.95439 111.5 5.02976C111.809 5.09759 112.091 5.19933 112.347 5.335C112.611 5.47066 112.856 5.64024 113.082 5.84374L112.698 6.47684ZM122.23 5.67416H119.37V13H118.579V5.67416H115.718V4.97323H122.23V5.67416Z" fill="#828282"/>
</svg>
