<svg width="140" height="160" viewBox="0 0 140 160" fill="none" xmlns="http://www.w3.org/2000/svg">
<path d="M36.589 45.8359L14.8657 50.944L14.9481 46.6049L15.003 43.8585L29.0092 40.5904L29.1465 34.4387C29.1465 33.9993 29.1465 33.4775 29.2289 32.9832C29.2289 32.5987 29.2838 32.1043 29.3937 31.61C29.3937 31.3354 29.4761 31.0607 29.531 30.7861C29.531 30.5389 29.6134 30.3742 29.6409 30.2369C29.7507 29.7974 29.888 29.2756 30.0253 28.7813C30.1627 28.2595 30.3549 27.7926 30.4922 27.4082C30.5746 27.2159 30.6295 27.0786 30.7119 26.9138L30.7668 26.749C30.7668 26.749 30.8492 26.5568 30.8767 26.4744C31.014 26.2272 31.1788 25.9801 31.2886 25.7329L31.426 25.4583C31.7006 25.0189 31.9203 24.6344 32.1949 24.2774C32.7167 23.5359 33.2385 22.9317 33.7878 22.3824C33.98 22.1627 34.1174 22.0529 34.2821 21.8881C34.5018 21.6958 34.7215 21.5036 34.9412 21.3388C35.4356 20.8994 35.9848 20.4875 36.6439 20.103C37.1108 19.8009 37.5502 19.5537 37.9347 19.3615C38.1269 19.2516 38.2643 19.1418 38.4565 19.0594C38.6762 18.9495 38.8959 18.8397 39.1706 18.7298C39.7198 18.4552 40.2691 18.2629 40.7634 18.0707C41.2028 17.9059 41.7246 17.7411 42.1915 17.6313C42.576 17.494 42.9879 17.3841 43.3999 17.2743L43.7294 17.1644C44.6357 16.9722 45.4321 16.8349 46.3933 16.6975C47.2996 16.5602 48.0961 16.5053 48.9199 16.5053C49.4967 16.5053 50.0459 16.5053 50.6501 16.6152C51.1719 16.6701 51.6663 16.7525 52.1331 16.8898C52.1881 16.8898 52.243 16.8898 52.2979 16.8898C52.7922 17.0271 53.314 17.2193 53.7535 17.4116C54.3302 17.6588 54.7971 17.9334 55.1541 18.1531C55.2365 18.208 55.3189 18.2629 55.3738 18.3179C57.104 19.5537 58.3123 21.3663 58.9165 23.6732C58.9165 23.6732 58.8616 23.6182 58.8341 23.5908C58.7792 23.5908 58.7243 23.5359 58.6968 23.5084C58.3673 23.2887 58.0652 23.1239 57.7081 22.9866C57.3786 22.8218 56.9941 22.6845 56.6096 22.6021C56.2801 22.5197 55.9505 22.4373 55.566 22.3824C55.4836 22.3824 55.4287 22.3824 55.3463 22.3824C54.9069 22.3275 54.44 22.3 53.9457 22.3C53.2591 22.3 52.5451 22.3549 51.7761 22.4648C51.0346 22.5747 50.2382 22.712 49.4143 22.8767C48.9199 23.0141 48.4256 23.1239 47.9862 23.2612C47.5468 23.3985 47.0799 23.5359 46.668 23.6732C46.1736 23.8654 45.6518 24.0302 45.2124 24.2774C44.9653 24.3598 44.773 24.4696 44.5533 24.5795C44.416 24.6344 44.3061 24.7168 44.1963 24.7992C43.8118 24.9914 43.3999 25.2111 43.0428 25.4583C42.5485 25.7878 42.0542 26.1174 41.6148 26.5019C41.4225 26.6392 41.2577 26.804 41.093 26.9413C40.9282 27.0786 40.7909 27.2434 40.681 27.3532C40.1867 27.8476 39.7473 28.3968 39.3628 28.9461C39.1431 29.2482 38.9783 29.5228 38.7861 29.8524C38.6213 30.1545 38.4565 30.4566 38.2917 30.7861C38.2094 31.0058 38.0995 31.1981 38.0171 31.4452C37.8523 31.8297 37.6876 32.2417 37.6052 32.6536C37.4404 33.093 37.3305 33.5599 37.2481 34.0268C37.2481 34.1092 37.1932 34.1915 37.1932 34.2739C37.1383 34.5486 37.0834 34.8232 37.0559 35.1253C36.9735 35.5098 36.946 35.9217 36.9186 36.3337C36.8637 36.7456 36.8362 37.185 36.8362 37.597L36.6714 45.8084L36.589 45.8359Z" fill="#E4675B"/>
<path d="M77.3991 94.7477L82.4523 93.5667L82.3699 98.3453L81.7932 127.813L63.8873 132.043L55.6484 133.965L13.0806 143.989L13.163 139.65L13.2179 136.904L50.0459 128.28L58.2848 126.33L74.186 122.568L74.7352 95.4068L77.3991 94.7477Z" fill="#E4675B"/>
<path d="M44.1962 54.377C44.7454 53.6629 45.2398 52.9763 45.789 52.2898C53.0118 42.5129 56.6644 34.631 56.7743 28.6166C56.8567 24.6894 55.8405 21.9705 53.7808 20.4875C53.7259 20.4875 53.6709 20.4326 53.6435 20.4051C53.3139 20.1854 53.0118 20.0206 52.6548 19.8833C52.3253 19.7185 51.9408 19.5812 51.5563 19.4988C51.1993 19.389 50.7599 19.3066 50.3205 19.2517C49.881 19.1967 49.3867 19.1693 48.9198 19.1693C48.2333 19.1693 47.5192 19.2242 46.7502 19.334C46.0087 19.4439 45.2123 19.5812 44.3884 19.746C43.8941 19.8558 43.3998 20.0206 42.9603 20.1305C42.5209 20.2678 42.0541 20.4051 41.6421 20.5424C41.34 20.6523 41.1203 20.7896 40.8457 20.872C40.5985 20.9818 40.4063 21.0642 40.1866 21.1466C39.9394 21.229 39.7472 21.3389 39.5275 21.4487C39.3901 21.5036 39.2803 21.586 39.1704 21.6684C39.0057 21.7508 38.8409 21.8607 38.7036 21.9705C38.4564 22.0804 38.2367 22.2177 38.017 22.3275C37.5226 22.6571 37.0283 22.9866 36.5889 23.3711C36.4791 23.4535 36.3417 23.5634 36.2319 23.6458C36.177 23.7007 36.0946 23.7831 36.0397 23.838C35.8749 23.9753 35.7376 24.1401 35.6277 24.2499C35.1334 24.7443 34.6939 25.2935 34.3095 25.8428C34.2545 25.9252 34.1996 25.9801 34.1447 26.0625C34.0074 26.3097 33.8426 26.5019 33.7327 26.7491C33.568 27.0512 33.4032 27.3533 33.2384 27.6828C33.156 27.9025 33.0462 28.0948 32.9638 28.3419C32.799 28.7264 32.6342 29.1384 32.5518 29.5503C32.3871 29.9897 32.2772 30.4566 32.1948 30.9235C32.1948 31.0059 32.1399 31.0883 32.1399 31.1706C32.085 31.4453 32.03 31.7199 32.0026 32.022C31.9202 32.4065 31.8927 32.8184 31.8653 33.2304C31.8103 33.6423 31.7829 34.0817 31.7829 34.4937L31.6181 42.7051L9.89478 47.8133L35.6826 65.2798C38.5113 61.6547 41.395 58.057 44.2511 54.4044L44.1962 54.377Z" fill="#828282"/>
<path d="M106.977 39.5743C106.977 39.2997 106.977 39.0525 106.922 38.7779C106.922 38.3934 106.867 37.9815 106.812 37.6245C106.812 37.3773 106.73 37.1576 106.702 36.9379C106.62 36.471 106.538 36.0041 106.455 35.5647C106.373 35.0704 106.263 34.5761 106.126 34.1092C106.016 33.6972 105.906 33.2578 105.769 32.8733C105.686 32.6536 105.659 32.4339 105.576 32.2142C105.494 31.9671 105.357 31.7748 105.274 31.5276C105.137 31.1706 104.972 30.8136 104.835 30.4841C104.752 30.2918 104.698 30.127 104.615 29.9623C104.45 29.6327 104.258 29.3031 104.066 28.9736C103.984 28.8088 103.901 28.644 103.819 28.5067C103.764 28.4518 103.736 28.3694 103.709 28.3145C103.407 27.8751 103.132 27.4082 102.803 26.9962C102.72 26.9139 102.61 26.804 102.528 26.6941C102.446 26.5843 102.363 26.4744 102.253 26.3646C102.116 26.1998 101.979 26.0076 101.841 25.8703C101.512 25.5132 101.21 25.1837 100.853 24.8541C100.853 24.8541 100.77 24.7992 100.743 24.7717C100.743 24.7168 100.66 24.6893 100.606 24.6344C100.303 24.3872 100.056 24.1401 99.7267 23.9204C99.3972 23.6457 99.0676 23.426 98.7106 23.1789L70.5335 4.09202C71.8242 4.9983 72.9502 6.01443 73.9114 7.19535C74.241 7.55237 74.5431 7.96431 74.8452 8.37626C75.1198 8.73328 75.3395 9.0903 75.5317 9.44732C75.6691 9.66703 75.7789 9.94166 75.9162 10.1888C76.2458 10.793 76.5479 11.4521 76.8225 12.1112C77.0422 12.633 77.2345 13.1548 77.3992 13.7041C77.5365 14.171 77.6739 14.6653 77.7837 15.1871C77.9485 15.8737 78.0858 16.5877 78.2231 17.3018C78.2231 17.2194 78.1957 17.137 78.1682 17.0546C78.1682 17.1919 78.2231 17.3292 78.2506 17.4665C78.2506 17.4116 78.2506 17.3842 78.2506 17.3292C78.3604 18.0707 78.4703 18.8122 78.5252 19.6087C78.5252 19.6087 78.5252 19.6636 78.5252 19.6911C78.6351 20.8994 78.69 22.1353 78.6625 23.426C78.6625 22.3824 78.6625 21.3938 78.5801 20.4051C78.5801 20.1579 78.5801 19.9108 78.5252 19.6636C78.6351 20.872 78.69 22.1078 78.6625 23.3986C78.6625 24.3872 78.5527 25.3485 78.4154 26.3921C78.3604 26.7216 78.2781 27.0786 78.2231 27.4082C78.1682 27.7377 78.1133 28.0948 78.0583 28.4518C77.8386 29.6327 77.5366 30.8685 77.1246 32.1044C77.0422 32.4889 76.9049 32.8733 76.795 33.2578C76.6577 33.6972 76.493 34.1916 76.3282 34.631C76.1634 35.0979 75.9986 35.5647 75.8064 36.0316C75.5043 36.8555 75.1473 37.7068 74.7628 38.5307C74.5156 39.1075 74.2684 39.6842 73.9389 40.2884C73.8016 40.5905 73.6642 40.8926 73.5269 41.1947C73.3896 41.4693 73.2248 41.7439 73.115 42.0186C71.9341 44.3529 70.5335 46.7971 68.9406 49.3237C68.9406 49.3787 68.8582 49.4611 68.8307 49.516C68.7758 49.5984 68.7484 49.6533 68.666 49.7357C67.8146 51.0539 66.9633 52.3996 66.002 53.7728C63.9423 56.4367 61.8826 59.1006 59.8228 61.792C59.8228 61.792 59.8228 61.8103 59.8228 61.8469C59.8228 61.8469 59.7679 61.8469 59.7679 61.9018L53.7535 69.7563C50.1833 74.4525 46.6131 79.1761 43.0704 83.8723C42.4936 84.6687 41.9444 85.4652 41.3676 86.2341C38.5939 90.1614 36.3419 93.759 34.6667 97.0271C34.5019 97.3567 34.3096 97.6588 34.1723 97.9883C34.1174 98.0433 34.0899 98.0982 34.0899 98.1531C34.035 98.263 34.0075 98.3454 33.9526 98.4552C33.6505 99.0045 33.4583 99.5263 33.2111 100.076C33.0189 100.46 32.8266 100.899 32.6618 101.284C32.5795 101.421 32.5245 101.559 32.4971 101.668C32.3323 102.08 32.1675 102.492 32.0577 102.904C31.9203 103.261 31.7281 103.673 31.6457 104.058C31.5908 104.222 31.5359 104.387 31.5084 104.497C31.3711 104.909 31.2612 105.321 31.1514 105.733C30.9866 106.255 30.8493 106.777 30.7944 107.326C30.7394 107.518 30.712 107.71 30.6845 107.93C30.6021 108.287 30.5747 108.589 30.5472 108.919C30.4923 109.331 30.4648 109.743 30.4648 110.127L30.3275 117.103L55.0717 111.28L55.4013 95.6265L77.3718 90.436L77.2894 95.2146L76.7127 124.682L8 140.831L36.3144 160L105.055 143.852L105.714 109.633L79.7336 92.0289C80.6948 90.7655 81.6285 89.5297 82.5898 88.2664C86.4895 83.1308 90.4167 78.0501 94.344 72.9695C94.701 72.4751 95.0031 71.9808 95.3326 71.5414C95.9643 70.5527 96.5685 69.6464 97.1727 68.6852C97.1727 68.6303 97.255 68.5479 97.2825 68.493C97.9416 67.4494 98.5458 66.4607 99.1225 65.4446C99.2324 65.2798 99.3148 65.115 99.3972 64.9502C100.139 63.6595 100.825 62.4236 101.457 61.1603C101.567 60.9132 101.732 60.6935 101.814 60.4463C101.814 60.4463 101.869 60.3914 101.869 60.3364C102.583 58.9358 103.215 57.5627 103.764 56.217C103.764 56.217 103.764 56.162 103.764 56.1346C103.901 55.805 104.011 55.5029 104.121 55.1459C104.478 54.2122 104.835 53.2784 105.137 52.3721C105.137 52.3172 105.219 52.2348 105.219 52.1524C105.329 51.8229 105.384 51.5208 105.494 51.1912C105.769 50.3124 106.016 49.4336 106.208 48.5822C106.208 48.4449 106.29 48.2801 106.318 48.1703C106.455 47.621 106.51 47.0992 106.592 46.5225C106.647 46.1929 106.73 45.8634 106.785 45.5064C106.922 44.4902 107.004 43.5016 107.032 42.5404V42.403C107.032 41.3869 107.032 40.4532 106.95 39.4919L106.977 39.5743Z" fill="#828282"/>
<path d="M76.0537 10.2163C76.3833 10.8205 76.6854 11.4521 76.9325 12.1112C76.8227 11.8366 76.7128 11.562 76.603 11.3148C76.4382 10.9303 76.246 10.5733 76.0537 10.2163Z" fill="#828282"/>
<path d="M77.9209 15.1871C78.0582 15.7913 78.1955 16.4229 78.3054 17.0546C78.2779 16.8349 78.223 16.6152 78.1955 16.4229C78.1406 16.011 78.0308 15.599 77.9209 15.1871Z" fill="#828282"/>
<path d="M78.3602 17.4391C78.4701 18.1257 78.5525 18.8397 78.6074 19.5812C78.5525 18.9496 78.4701 18.3454 78.3877 17.7412C78.3877 17.6313 78.3602 17.5489 78.3328 17.4391H78.3602Z" fill="#828282"/>
<path d="M78.6352 19.6636V19.5537C78.4979 17.9883 78.2782 16.5053 77.9212 15.1596C77.9212 15.0772 77.9212 14.9948 77.8662 14.9125C77.7564 14.5005 77.6465 14.0611 77.5367 13.6766C77.3719 13.2097 77.2071 12.7703 77.0698 12.3309C77.0698 12.2485 76.9874 12.1662 76.96 12.0563C76.6853 11.3972 76.4107 10.793 76.0537 10.1888C75.9713 10.024 75.9164 9.85925 75.834 9.7494C75.7791 9.66701 75.7241 9.55716 75.6692 9.4473C75.477 9.09028 75.2573 8.7058 74.9826 8.37624C74.7629 8.07415 74.5707 7.79952 74.3235 7.49742C74.2411 7.38757 74.1587 7.27772 74.0489 7.16787C73.5271 6.53622 72.9504 5.93203 72.3187 5.38277C71.8244 4.91589 71.2751 4.47648 70.6709 4.092C70.3414 3.84483 69.9569 3.62513 69.5724 3.37796C65.755 1.09852 61.1961 0 55.9232 0C54.1656 0 52.2981 0.109852 50.3757 0.35702C48.5631 0.631651 46.6682 0.961208 44.7183 1.40062C34.914 3.70752 26.73 8.34878 20.1663 15.3519C13.5751 22.3275 10.1972 30.4016 10.0324 39.5743L9.86761 47.7583L14.9483 46.5774L31.6184 42.6776L31.7832 34.4662C31.7832 34.0542 31.7832 33.6148 31.8656 33.2029C31.8656 32.7909 31.9205 32.379 32.0029 31.9945C32.0029 31.6924 32.0853 31.4178 32.1402 31.1431C32.1402 31.0608 32.1402 30.9784 32.1951 30.896C32.305 30.4291 32.4148 29.9622 32.5521 29.5228C32.662 29.1109 32.8268 28.6989 32.9641 28.3144C33.0465 28.0673 33.1563 27.875 33.2387 27.6553C33.4035 27.3258 33.5957 27.0237 33.733 26.7216C33.9253 26.392 34.0901 26.1174 34.3098 25.8153C34.6943 25.266 35.1337 24.7442 35.628 24.2224C35.7653 24.0851 35.9026 23.9204 36.04 23.8105C36.2047 23.6457 36.3695 23.4809 36.5617 23.3711C37.0012 22.9866 37.4955 22.6296 37.9898 22.3275C38.3469 22.0803 38.7588 21.8606 39.1433 21.6684C39.2806 21.586 39.3904 21.5036 39.5003 21.4487C39.72 21.3388 39.9123 21.229 40.1594 21.1466C40.5988 20.8994 41.1206 20.7346 41.615 20.5424C42.0269 20.3776 42.4938 20.2403 42.9332 20.1304C43.3726 19.9657 43.8669 19.8558 44.3613 19.746C45.1852 19.5537 45.9816 19.4164 46.7231 19.334C47.4921 19.2242 48.2061 19.1692 48.8927 19.1692C49.387 19.1692 49.8539 19.1692 50.2933 19.2516C50.7327 19.3066 51.1721 19.3889 51.5291 19.4988C51.9136 19.6086 52.2981 19.746 52.6277 19.8833C52.9572 20.0206 53.2868 20.2128 53.6163 20.4051C53.6163 20.4051 53.6987 20.46 53.7536 20.4875C54.4402 20.9818 55.017 21.6135 55.4564 22.4099C56.3626 23.9478 56.7746 26.0075 56.7197 28.6165C56.6098 34.6035 52.9298 42.5129 45.7344 52.2897C45.2126 52.9763 44.6908 53.6629 44.1416 54.3769C41.2854 58.0295 38.4018 61.6272 35.5731 65.2523C30.7396 71.3766 25.961 77.4459 21.2099 83.5153C12.9435 95.0498 8.71417 104.936 8.54939 113.12L8.02759 140.858L13.1083 139.677L50.6229 130.862L58.8618 128.939L76.7677 124.71L77.3445 95.242V94.8026L77.4268 90.4634L55.4564 95.6539L55.1268 111.308L35.4632 115.922L30.3825 117.103L30.5199 110.127C30.5199 109.743 30.5199 109.331 30.6023 108.919C30.6023 108.589 30.6572 108.287 30.7396 107.93C30.7396 107.71 30.7945 107.545 30.8494 107.326C30.9044 106.804 31.0417 106.282 31.179 105.733C31.2614 105.348 31.3712 104.909 31.5085 104.497C31.5085 104.36 31.5909 104.195 31.6458 104.058C31.893 103.289 32.1676 102.465 32.5247 101.641C32.5247 101.504 32.6071 101.366 32.6895 101.256C33.0739 100.24 33.5683 99.2241 34.1175 98.1531C34.1175 98.0982 34.1175 98.0432 34.1999 97.9883C34.3372 97.6587 34.502 97.3567 34.6943 97.0271C36.397 93.759 38.6215 90.1613 41.3953 86.2341C41.9171 85.4651 42.4938 84.6687 43.098 83.8723C46.6407 79.1486 50.2109 74.4524 53.7811 69.7563L59.7955 61.9018C59.7955 61.9018 59.7955 61.9018 59.8505 61.8469C59.8505 61.8469 59.8505 61.8286 59.8505 61.792C61.9102 59.1006 63.9699 56.4367 66.0297 53.7727C66.9909 52.3996 67.8422 51.0539 68.6936 49.7357C68.776 49.5983 68.8858 49.461 68.9682 49.3512C70.5611 46.8246 71.9617 44.3529 73.1426 42.046C73.4447 41.4693 73.7193 40.8925 73.994 40.3158C74.296 39.7116 74.5432 39.1349 74.8178 38.5582C75.2023 37.7068 75.5868 36.8555 75.8614 36.059C75.9438 35.8943 75.9988 35.7569 76.0537 35.6471C76.191 35.3175 76.3008 34.988 76.3832 34.6584C76.5755 34.219 76.7128 33.7247 76.8501 33.2853C76.9874 32.9008 77.0973 32.5163 77.1797 32.1318C77.5641 30.896 77.8937 29.6876 78.1134 28.4792C78.2782 27.7926 78.388 27.1061 78.443 26.447C78.5803 25.4034 78.6627 24.4422 78.6901 23.4535C78.6901 22.1353 78.6901 20.8994 78.5528 19.691L78.6352 19.6636ZM75.9164 26.0899C75.834 26.7491 75.7241 27.3258 75.5868 27.8201C75.5868 27.875 75.5868 27.93 75.5868 27.9574C75.422 29.001 75.1474 30.0721 74.708 31.3903C74.6256 31.7199 74.5158 32.0494 74.3784 32.4888C74.2686 32.8459 74.1313 33.2303 73.994 33.5874C73.994 33.6423 73.9939 33.6972 73.939 33.7521L73.8841 33.9718C73.8017 34.1641 73.7468 34.3563 73.6369 34.6035C73.6369 34.6584 73.582 34.7408 73.5271 34.8232C73.5271 34.9331 73.4447 35.0429 73.4172 35.1253C73.1701 35.7569 72.8954 36.4984 72.4011 37.5146C72.1265 38.0638 71.9068 38.5856 71.6321 39.1898C71.3575 39.7116 71.0829 40.2884 70.8082 40.8376C69.6548 43.1171 68.2816 45.5063 66.6888 48.0604C66.6064 48.1703 66.524 48.3076 66.4965 48.3625C65.6452 49.6533 64.7938 50.9715 63.9425 52.2073C61.8827 54.8713 59.823 57.5352 57.7633 60.2266C57.7633 60.2266 57.7633 60.2449 57.7633 60.2815C57.7633 60.2815 57.7633 60.2815 57.7633 60.3364L51.7214 68.1909C48.1512 72.9145 44.581 77.6107 41.0382 82.3618C40.4615 83.1857 39.8573 83.9821 39.3355 84.7511C36.4519 88.8431 34.1999 92.4682 32.4972 95.7638C32.305 96.0659 32.1402 96.3955 31.9754 96.7525C31.893 96.9173 31.8106 97.082 31.7557 97.2193C31.2064 98.2629 30.767 99.2516 30.3825 100.185C30.2727 100.433 30.1903 100.625 30.1079 100.872C29.7784 101.668 29.4763 102.492 29.2291 103.289C29.1742 103.481 29.1193 103.646 29.0643 103.81C28.8996 104.222 28.7897 104.689 28.7073 105.184C28.4876 105.843 28.3777 106.392 28.3228 106.914C28.2679 107.106 28.213 107.353 28.1855 107.655C28.1031 108.067 28.0757 108.424 28.0757 108.644C27.9933 109.193 27.9658 109.688 27.9658 110.154L27.8285 117.13C27.8285 117.954 28.158 118.723 28.8172 119.245C29.284 119.602 29.8607 119.821 30.4924 119.821C30.7121 119.821 30.8769 119.821 31.0966 119.739L35.5182 118.695L55.8408 113.917C56.9943 113.642 57.8456 112.626 57.8731 111.418L58.1477 97.7961L74.8453 93.8688V95.242V95.4892L74.296 122.678L58.3949 126.44L50.156 128.39L13.328 137.013L10.9112 137.59L11.3781 113.258C11.5154 105.651 15.6074 96.2032 23.4619 85.2454C28.1855 79.2036 32.9641 73.1342 37.825 66.9825C39.308 65.115 40.7911 63.1926 42.3015 61.2976C43.6747 59.5674 45.0204 57.8373 46.3935 56.1071C46.7231 55.7226 46.9977 55.3107 47.3273 54.9262L48.0139 53.965C55.6486 43.6389 59.3836 35.3999 59.5209 28.8088C59.5758 26.9688 59.3836 25.2935 58.9716 23.838C58.3674 21.5036 57.1865 19.7185 55.4289 18.4827C55.374 18.4277 55.2916 18.3728 55.2092 18.3179C54.8796 18.0982 54.3853 17.8235 53.8086 17.5764C53.3692 17.3567 52.8474 17.1919 52.353 17.0546C52.2981 17.0546 52.2432 17.0546 52.1882 17.0546C51.7214 16.9173 51.227 16.8349 50.7052 16.78C50.1285 16.6976 49.5793 16.6701 48.9751 16.6701C48.1512 16.6701 47.3273 16.725 46.4485 16.8623C45.4598 16.9997 44.6908 17.1644 43.7845 17.3292L43.455 17.4391C43.043 17.5489 42.6311 17.6588 42.2466 17.7961C41.7797 17.9334 41.2579 18.0982 40.8185 18.2355C40.3517 18.4277 39.8024 18.62 39.2257 18.8946C38.951 19.0045 38.7313 19.1143 38.5116 19.2242C38.3194 19.3066 38.1821 19.4164 37.9898 19.5263C37.6054 19.7185 37.1659 19.9657 36.6991 20.2678C36.0674 20.6522 35.5181 21.0642 34.9963 21.5036C34.7766 21.6684 34.5569 21.8606 34.3372 22.0529C34.1725 22.2176 34.0077 22.355 33.8429 22.5472C33.2936 23.0965 32.7993 23.7007 32.25 24.4422C31.9754 24.7992 31.7557 25.1837 31.4811 25.6231L31.3438 25.8977C31.2065 26.1449 31.0417 26.392 30.9318 26.6392C30.9318 26.7216 30.8769 26.804 30.822 26.9138L30.767 27.0786C30.6846 27.2434 30.6297 27.4082 30.5473 27.5729C30.3826 27.9574 30.2178 28.4243 30.0804 28.9461C29.9157 29.4404 29.7784 29.9622 29.696 30.4016C29.696 30.539 29.6136 30.7312 29.5861 30.9509C29.5312 31.2255 29.4763 31.5002 29.4488 31.7748C29.339 32.2691 29.3115 32.7635 29.284 33.148C29.2291 33.6423 29.2016 34.1641 29.2016 34.6035L29.0643 40.7552L15.0582 44.0233L12.6414 44.6001L12.7512 39.8215C12.916 31.1981 15.9919 23.8654 22.1711 17.3567C28.3503 10.793 36.1773 6.34397 45.3774 4.17439C47.19 3.78991 48.9751 3.43289 50.7876 3.15826C52.5727 2.91109 54.3304 2.8287 55.9781 2.8287C57.928 2.8287 59.7681 2.99348 61.4982 3.3505C63.9974 3.78991 66.2768 4.64126 68.2542 5.82218C68.5837 6.01442 68.9407 6.20666 69.2428 6.42636C70.3414 7.19533 71.3026 8.07415 72.0715 9.00789C72.1539 9.09028 72.1539 9.11775 72.2363 9.17267L72.3462 9.33745C72.5659 9.61208 72.7306 9.83179 72.9778 10.1613C73.1426 10.381 73.3074 10.6008 73.3623 10.793C73.4721 11.0127 73.6095 11.2049 73.6644 11.3148L73.8017 11.6169C74.1038 12.1662 74.351 12.6879 74.5707 13.2647C74.5707 13.2647 74.6256 13.3745 74.6531 13.402L74.8178 13.8689C74.9277 14.1435 75.0101 14.3907 75.1199 14.7202C75.2298 15.0498 75.3122 15.3793 75.422 15.7638C75.422 15.7638 75.422 15.9561 75.477 16.011C75.7791 17.2194 75.9713 18.5651 76.1086 20.0755C76.2185 21.3663 76.2734 22.4923 76.2459 23.5359C76.2459 24.4147 76.1361 25.2935 76.0262 26.2822L75.9164 26.0899Z" fill="#E0E0E0"/>
<path d="M76.1083 23.3436C76.1083 24.2224 75.9984 25.1013 75.8885 26.0899C75.8062 26.749 75.6963 27.3258 75.559 27.8201C75.559 27.875 75.559 27.93 75.559 27.9574C75.3942 29.001 75.1196 30.0721 74.6802 31.3903C74.5978 31.7199 74.4879 32.0494 74.3506 32.4888C74.2408 32.8459 74.1035 33.2303 73.9661 33.5874C73.9661 33.6423 73.9662 33.6972 73.9112 33.7521L73.8563 33.9718C73.7739 34.1641 73.719 34.3563 73.6091 34.6035C73.6091 34.6584 73.5542 34.7408 73.4993 34.8232C73.4993 34.933 73.4169 35.0429 73.3894 35.1253C73.1423 35.7569 72.8676 36.4984 72.3733 37.5146C72.0986 38.0638 71.8789 38.5856 71.6043 39.1898C71.3297 39.7116 71.055 40.2884 70.7804 40.8376C69.627 43.1171 68.2538 45.5063 66.6609 48.0604C66.5786 48.1703 66.4962 48.3076 66.4687 48.3625C65.6174 49.6533 64.766 50.9715 63.9146 52.2073C61.8549 54.8713 59.7952 57.5352 57.7354 60.2266C57.7354 60.2266 57.7354 60.2449 57.7354 60.2815C57.7354 60.2815 57.7354 60.2815 57.7354 60.3364L51.6936 68.1909C48.1234 72.9145 44.5532 77.6107 41.0104 82.3618C40.4337 83.1857 39.8295 83.9821 39.3077 84.7511C36.4241 88.8431 34.1721 92.4682 32.4694 95.7638C32.2772 96.0659 32.1124 96.3955 31.9476 96.7525C31.8652 96.9173 31.7828 97.082 31.7279 97.2193C31.1786 98.2629 30.7392 99.2516 30.3548 100.185C30.2449 100.433 30.1625 100.625 30.0801 100.872C29.7505 101.668 29.4485 102.492 29.2013 103.289C29.1464 103.481 29.0914 103.646 29.0365 103.81C28.8717 104.222 28.7619 104.689 28.6795 105.184C28.4598 105.843 28.3499 106.392 28.295 106.914C28.2401 107.106 28.1852 107.353 28.1577 107.655C28.0753 108.067 28.0478 108.424 28.0478 108.644C27.9655 109.193 27.938 109.688 27.938 110.154L27.8007 117.13C27.8007 117.954 28.1302 118.723 28.7894 119.245C29.2562 119.602 29.8329 119.821 30.4646 119.821C30.6843 119.821 30.8491 119.821 31.0688 119.739L35.4903 118.695V120.316L60.2071 114.494L60.5367 98.8397L74.79 95.4617L74.2408 122.65L58.3396 126.413L50.1007 128.362L13.2727 136.986L13.6572 116.334C13.822 108.15 18.0513 98.2629 26.3177 86.7284C31.0688 80.6866 35.8474 74.6172 40.6809 68.493C43.5096 64.8678 46.3932 61.2702 49.2494 57.6176C49.7986 56.9035 50.293 56.2169 50.8422 55.5304C58.065 45.7535 61.7176 37.8716 61.8275 31.8572C61.9098 27.9849 60.9212 25.2935 58.9164 23.8105C58.3122 21.4761 57.1313 19.691 55.3736 18.4552C55.3187 18.4003 55.2363 18.3453 55.1539 18.2904C54.8244 18.0707 54.33 17.7961 53.7533 17.5489C53.3139 17.3292 52.7921 17.1644 52.2978 17.0271C52.2428 17.0271 52.1879 17.0271 52.133 17.0271C51.6661 16.8898 51.1718 16.8074 50.65 16.7525C50.0733 16.6701 49.524 16.6426 48.9198 16.6426C48.0959 16.6426 47.272 16.6976 46.3932 16.8349C45.4045 16.9722 44.6355 17.137 43.7293 17.3017L43.3997 17.4116C42.9878 17.5214 42.5758 17.6313 42.1913 17.7686C41.7245 17.9059 41.2027 18.0707 40.7632 18.208C40.2964 18.4003 39.7471 18.5925 39.1704 18.8671C38.8958 18.977 38.6761 19.0868 38.4564 19.1967C38.2641 19.2791 38.1268 19.3889 37.9346 19.4988C37.5501 19.691 37.1107 19.9382 36.6438 20.2403C36.0121 20.6248 35.4629 21.0367 34.9411 21.4761C34.7214 21.6409 34.5017 21.8332 34.282 22.0254C34.1172 22.1902 33.9524 22.3275 33.7876 22.5197C33.2384 23.069 32.744 23.6732 32.1948 24.4147C31.9201 24.7717 31.7004 25.1562 31.4258 25.5956L31.2885 25.8702C31.1512 26.1174 30.9864 26.3646 30.8765 26.6117C30.8765 26.6941 30.8216 26.7765 30.7667 26.8864L30.7118 27.0511C30.6294 27.2159 30.5744 27.3807 30.4921 27.5455C30.3273 27.93 30.1625 28.3968 30.0252 28.9186C29.8604 29.413 29.7231 29.9348 29.6407 30.3742C29.6407 30.5115 29.5583 30.7037 29.5309 30.9234C29.4759 31.1981 29.421 31.4727 29.3935 31.7473C29.2837 32.2417 29.2562 32.736 29.2288 33.1205C29.1738 33.6148 29.1464 34.1366 29.1464 34.576L29.009 40.7278L15.0029 43.9959V42.8973C15.2226 33.7247 18.5731 25.6505 25.1642 18.6749C31.7279 11.6718 39.9394 7.03054 49.7162 4.72364C51.6661 4.28423 53.5336 3.92721 55.3736 3.68005C57.4883 3.40542 59.5206 3.29556 61.443 3.35049C63.9421 3.7899 66.2216 4.64125 68.1989 5.82217C68.5285 6.01441 68.8855 6.20665 69.1876 6.42636C70.2861 7.19532 71.2473 8.07414 72.0163 9.00789C72.0987 9.09028 72.0986 9.11774 72.181 9.17267L72.2909 9.33744C72.5106 9.61208 72.6754 9.83178 72.9226 10.1613C73.0873 10.381 73.2521 10.6007 73.307 10.793C73.4169 11.0127 73.5542 11.2049 73.6091 11.3148L73.7464 11.6169C74.0485 12.1661 74.2957 12.6879 74.5154 13.2647C74.5154 13.2647 74.5703 13.3745 74.5978 13.402L74.7626 13.8689C74.8724 14.1435 74.9548 14.3907 75.0647 14.7202C75.1745 15.0498 75.2569 15.3793 75.3668 15.7638C75.3668 15.7638 75.3668 15.9561 75.4217 16.011C75.7238 17.2194 75.916 18.565 76.0533 20.0755C76.1632 21.3663 76.2181 22.4923 76.1906 23.5359L76.1083 23.3436Z" fill="#E4675B"/>
<path d="M99.1501 27.161C99.2874 26.9687 90.2795 20.7346 85.446 17.494C81.9307 15.1322 81.711 15.2145 81.6012 15.4068C81.4638 15.599 81.5188 15.8462 85.0066 18.1806C89.8675 21.4212 99.0402 27.3532 99.1775 27.161H99.1501Z" fill="#333333"/>
<path d="M102.61 34.1366C102.748 33.9444 92.2568 26.749 86.5994 23.014C82.5074 20.2952 82.2603 20.3501 82.1504 20.5424C82.0131 20.7346 82.0955 21.0092 86.16 23.7006C91.8174 27.4631 102.501 34.3288 102.638 34.1366H102.61Z" fill="#333333"/>
<path d="M103.462 39.382C103.599 39.1898 92.6687 31.6375 86.7641 27.7102C82.4799 24.8541 82.2602 24.909 82.1228 25.1012C81.9855 25.2935 82.0679 25.5681 86.2972 28.3968C92.1743 32.3515 103.324 39.5743 103.434 39.382H103.462Z" fill="#333333"/>
<path d="M103.462 44.2156C103.599 44.0233 92.3665 36.3062 86.3246 32.2416C81.9305 29.3031 81.7108 29.3855 81.5735 29.5503C81.4362 29.7425 81.5186 30.0171 85.8577 32.9282C91.8996 36.9653 103.324 44.4078 103.434 44.2156H103.462Z" fill="#333333"/>
<path d="M102.803 48.2526C102.94 48.0604 91.5152 40.206 85.3635 36.0865C80.9145 33.093 80.6673 33.1754 80.53 33.3402C80.3927 33.5324 80.5025 33.8071 84.8966 36.7456C91.0484 40.8651 102.665 48.4174 102.803 48.2252V48.2526Z" fill="#333333"/>
<path d="M101.759 51.8228C101.896 51.6306 90.2793 43.7487 84.0452 39.6292C79.5138 36.6358 79.2666 36.6907 79.1567 36.8829C79.0194 37.0752 79.1293 37.3498 83.6058 40.3158C89.8399 44.4353 101.649 52.0151 101.786 51.8228H101.759Z" fill="#333333"/>
<path d="M100.194 56.0247C100.331 55.8325 88.7418 47.8682 82.5076 43.6663C77.9762 40.6454 77.7565 40.7003 77.6192 40.8925C77.4819 41.0848 77.5917 41.3594 82.0408 44.3529C88.2749 48.5273 100.057 56.2169 100.194 56.0247Z" fill="#333333"/>
<path d="M98.7929 59.54C98.9302 59.3477 87.176 51.2736 80.8595 47.0443C76.2732 43.9684 76.026 44.0233 75.9161 44.2156C75.7788 44.4078 75.8887 44.6824 80.4201 47.7308C86.7366 51.9602 98.683 59.7322 98.7929 59.54Z" fill="#333333"/>
<path d="M96.6784 62.9179C96.8157 62.7257 85.1988 54.7339 78.9373 50.5321C74.4058 47.4837 74.1587 47.5661 74.0488 47.7583C73.9115 47.9505 74.0214 48.2252 78.4979 51.2187C84.7594 55.393 96.5686 63.1102 96.6784 62.9179Z" fill="#333333"/>
<path d="M94.6187 66.186C94.756 65.9938 83.1666 58.0295 76.9324 53.8551C72.401 50.8342 72.1813 50.8891 72.044 51.0813C71.9067 51.2736 72.0165 51.5482 76.4655 54.5417C82.6997 58.7161 94.4814 66.3783 94.5912 66.186H94.6187Z" fill="#333333"/>
<path d="M92.559 69.3992C92.6963 69.207 81.1343 61.2427 74.9002 57.0683C70.3963 54.0474 70.1491 54.1023 70.0118 54.2945C69.8745 54.4868 69.9843 54.7614 74.4333 57.7549C80.6675 61.9293 92.4217 69.5915 92.559 69.3992Z" fill="#333333"/>
<path d="M90.307 72.5025C90.4443 72.3103 78.8824 64.346 72.6483 60.1716C68.1443 57.1507 67.8971 57.2056 67.7598 57.3978C67.6225 57.5901 67.7324 57.8647 72.1814 60.8582C78.4155 65.0326 90.1697 72.6948 90.307 72.5025Z" fill="#333333"/>
<path d="M88.1924 75.8531C88.3297 75.6608 76.6304 67.6141 70.3414 63.4123C65.7825 60.3639 65.5353 60.4188 65.4255 60.6111C65.2882 60.8033 65.398 61.0779 69.902 64.0989C76.191 68.3007 88.0825 76.0453 88.1924 75.8531Z" fill="#333333"/>
<path d="M85.4185 79.0662C85.5558 78.874 73.8565 70.8273 67.5674 66.6255C63.0086 63.5771 62.7614 63.632 62.6515 63.8242C62.5142 64.0165 62.6241 64.2911 67.128 67.312C73.4171 71.5139 85.3086 79.2585 85.4185 79.0662Z" fill="#333333"/>
<path d="M83.4687 81.7851C83.6061 81.5928 71.9068 73.5461 65.6177 69.3443C61.0589 66.2959 60.8117 66.3508 60.7018 66.543C60.5645 66.7353 60.6744 67.0099 65.1783 70.0309C71.4674 74.2327 83.3589 81.9773 83.4687 81.7851Z" fill="#333333"/>
<path d="M80.8323 84.8884C80.9696 84.6962 69.2703 76.6495 62.9813 72.4476C58.4224 69.3992 58.1752 69.4541 58.0654 69.6464C57.9281 69.8386 58.0379 70.1133 62.5418 73.1342C68.8309 77.3361 80.7224 85.0806 80.8323 84.8884Z" fill="#333333"/>
<path d="M77.2896 86.9207C77.4269 86.7284 66.4966 79.3409 60.6195 75.4686C56.3627 72.6673 56.1155 72.7223 56.0057 72.9145C55.8683 73.1068 55.9507 73.3814 60.1801 76.1552C66.0572 80.0275 77.1797 87.1129 77.2896 86.9207Z" fill="#333333"/>
<path d="M71.9342 88.1291C72.0715 87.9368 62.6791 81.4281 57.6259 78.0501C53.9459 75.5784 53.7536 75.6608 53.6163 75.853C53.479 76.0453 53.5339 76.2925 57.159 78.7367C62.2122 82.1146 71.7969 88.3213 71.9342 88.1291Z" fill="#333333"/>
<path d="M66.7986 89.4748C66.936 89.2825 58.9717 83.735 54.6874 80.8788C51.5841 78.7916 51.3644 78.874 51.2545 79.0662C51.1172 79.2585 51.1721 79.5057 54.2205 81.5654C58.5048 84.449 66.6613 89.667 66.7986 89.4748Z" fill="#333333"/>
<path d="M61.8278 90.436C61.9651 90.2437 55.3739 85.6299 51.8037 83.2406C49.2222 81.5105 49.0299 81.6203 48.9201 81.7851C48.7828 81.9773 48.8102 82.197 51.3643 83.8997C54.9345 86.289 61.7179 90.6007 61.8278 90.4085V90.436Z" fill="#333333"/>
<path d="M56.6372 91.7542C56.7746 91.562 51.7213 87.9643 48.975 86.1243C46.9702 84.7786 46.8329 84.9159 46.6956 85.0807C46.5583 85.2454 46.5583 85.4926 48.5082 86.7834C51.2545 88.6234 56.4999 91.919 56.6372 91.7267V91.7542Z" fill="#333333"/>
<path d="M51.9409 93.4294C52.0782 93.2372 48.2059 90.436 46.0912 89.0079C44.5533 87.9917 44.416 88.1016 44.2787 88.2938C44.1413 88.4861 44.1139 88.6783 45.6243 89.6945C47.739 91.1225 51.8035 93.6217 51.9409 93.4294Z" fill="#333333"/>
<path d="M51.941 97.9883C52.0783 97.7961 47.08 94.2533 44.3611 92.4408C42.3838 91.1225 42.219 91.2324 42.1092 91.4246C41.9719 91.6169 41.9718 91.8366 43.9217 93.1273C46.6406 94.9399 51.8311 98.1805 51.941 97.9883Z" fill="#333333"/>
<path d="M51.7213 102.849C51.8586 102.657 45.9266 98.3179 42.7134 96.0934C40.379 94.473 40.2142 94.5829 40.0769 94.7751C39.9396 94.9674 39.9396 95.1871 42.2465 96.7799C45.4597 99.0045 51.6114 103.042 51.7213 102.877V102.849Z" fill="#333333"/>
<path d="M51.7211 107.491C51.8584 107.298 44.8004 102.355 40.983 99.8009C38.2093 97.9334 38.017 98.0432 37.9072 98.2355C37.7699 98.4277 37.7973 98.6474 40.5162 100.487C44.3335 103.042 51.5838 107.683 51.6937 107.491H51.7211Z" fill="#333333"/>
<path d="M48.3983 109.44C48.5356 109.248 42.5212 105.019 39.2531 102.822C36.8912 101.229 36.7265 101.339 36.5891 101.531C36.4518 101.723 36.4518 101.943 38.7862 103.508C42.0543 105.678 48.261 109.633 48.3708 109.44H48.3983Z" fill="#333333"/>
<path d="M42.7958 110.704C42.9331 110.511 38.9235 107.545 36.7264 106.035C35.1336 104.936 34.9963 105.046 34.8589 105.239C34.7216 105.431 34.6942 105.623 36.2596 106.694C38.4566 108.205 42.6585 110.896 42.7958 110.704Z" fill="#333333"/>
<path d="M37.6876 111.912C37.8249 111.72 36.0673 110.347 35.0786 109.688C34.3645 109.221 34.2272 109.358 34.1174 109.55C33.9801 109.743 33.9251 109.907 34.6117 110.374C35.6004 111.033 37.5503 112.104 37.6601 111.94L37.6876 111.912Z" fill="#333333"/>
<path d="M52.6277 28.7264C52.765 28.5341 49.0849 25.7604 47.0526 24.3323C45.5971 23.3162 45.4323 23.426 45.295 23.6183C45.1577 23.8105 45.1302 24.0027 46.5583 25.0189C48.5906 26.4195 52.4629 28.9186 52.6002 28.7264H52.6277Z" fill="#333333"/>
<path d="M52.0509 32.7909C52.1882 32.5987 46.4759 28.5616 43.3726 26.5019C41.1206 24.9914 40.9558 25.1013 40.8185 25.2935C40.6812 25.4858 40.6812 25.7055 42.9057 27.1885C46.009 29.2482 51.9136 32.9832 52.0235 32.8184L52.0509 32.7909Z" fill="#333333"/>
<path d="M50.6504 36.3886C50.7877 36.1963 44.2789 31.6375 40.7636 29.2756C38.2096 27.5729 38.0173 27.6553 37.9075 27.8476C37.7702 28.0398 37.7976 28.2595 40.2968 29.9622C43.812 32.324 50.513 36.5808 50.6504 36.3886Z" fill="#333333"/>
<path d="M48.8652 40.0137C49.0025 39.8215 42.5212 35.2626 39.0334 32.9282C36.4794 31.2255 36.3146 31.3354 36.1773 31.5276C36.0399 31.7199 36.0674 31.9396 38.5666 33.6148C42.0818 35.9492 48.7279 40.206 48.8652 40.0137Z" fill="#333333"/>
<path d="M46.9153 43.3917C47.0526 43.1994 41.3677 39.1898 38.2919 37.1301C36.0674 35.6471 35.9026 35.7295 35.7653 35.9217C35.6279 36.114 35.6279 36.3337 37.825 37.8167C40.9009 39.8764 46.778 43.5839 46.8878 43.3917H46.9153Z" fill="#333333"/>
<path d="M103.654 113.12C103.791 112.928 92.0921 104.882 85.803 100.68C81.2442 97.6313 80.997 97.6862 80.8871 97.8785C80.7498 98.0707 80.8597 98.3453 85.3636 101.366C91.6527 105.568 103.544 113.313 103.654 113.12Z" fill="#333333"/>
<path d="M103.572 117.734C103.709 117.542 92.0096 109.495 85.7205 105.293C81.1616 102.245 80.9145 102.3 80.8046 102.492C80.6673 102.684 80.7772 102.959 85.2811 105.98C91.5702 110.182 103.462 117.927 103.572 117.734Z" fill="#333333"/>
<path d="M103.489 122.321C103.626 122.128 91.9271 114.082 85.638 109.88C81.0791 106.831 80.832 106.886 80.7221 107.079C80.5848 107.271 80.6946 107.545 85.1986 110.566C91.4876 114.768 103.379 122.513 103.489 122.321Z" fill="#333333"/>
<path d="M103.407 126.934C103.544 126.742 91.8448 118.695 85.5557 114.494C80.9969 111.445 80.7497 111.5 80.6398 111.692C80.5025 111.885 80.6124 112.159 85.1163 115.18C91.4054 119.382 103.297 127.127 103.407 126.934Z" fill="#333333"/>
<path d="M103.324 131.548C103.462 131.356 91.7625 123.309 85.4735 119.107C80.9146 116.059 80.6674 116.114 80.5576 116.306C80.4202 116.498 80.5301 116.773 85.034 119.794C91.3231 123.996 103.215 131.74 103.324 131.548Z" fill="#333333"/>
<path d="M103.242 136.162C103.379 135.97 91.68 127.923 85.3909 123.721C80.832 120.673 80.5849 120.728 80.475 120.92C80.3377 121.112 80.4476 121.387 84.9515 124.408C91.2406 128.61 103.132 136.354 103.242 136.162Z" fill="#333333"/>
<path d="M116.798 6.43161V13H116.006V4.97323H116.662L121.93 11.666V4.98453H122.722V13H121.987L116.798 6.43161ZM126.409 13V4.97323H129.134C129.985 4.97323 130.694 5.15411 131.259 5.51588C131.832 5.87012 132.262 6.35248 132.548 6.96296C132.834 7.56591 132.978 8.2367 132.978 8.97531C132.978 9.78929 132.819 10.4978 132.503 11.1007C132.194 11.7037 131.749 12.1709 131.169 12.5026C130.596 12.8342 129.918 13 129.134 13H126.409ZM132.186 8.97531C132.186 8.33467 132.066 7.76564 131.824 7.26821C131.591 6.77077 131.248 6.38262 130.796 6.10376C130.343 5.81736 129.789 5.67416 129.134 5.67416H127.201V12.2991H129.134C129.797 12.2991 130.355 12.1521 130.807 11.8582C131.259 11.5642 131.602 11.1685 131.836 10.6711C132.069 10.1661 132.186 9.60087 132.186 8.97531Z" fill="#828282"/>
</svg>
