<svg width="140" height="161" viewBox="0 0 140 161" fill="none" xmlns="http://www.w3.org/2000/svg">
<path d="M57.8857 93.6845L57.9405 90.9964L58.352 68.7785C58.352 67.023 58.2422 65.4869 57.8857 64.1977C57.4194 62.3051 56.5142 60.9062 55.2524 59.9736C55.0056 59.809 54.7861 59.6444 54.5118 59.5621C54.4021 59.5073 54.2924 59.425 54.1827 59.3701C54.1004 59.3153 53.9907 59.2878 53.8535 59.233C53.6066 59.1233 53.3598 59.041 53.0855 58.9587C52.8386 58.8764 52.5918 58.8215 52.3175 58.7941C52.098 58.7392 51.906 58.6844 51.6592 58.6844C51.2751 58.6295 50.8363 58.6021 50.3974 58.6021C50.1505 58.6021 49.9585 58.6021 49.7117 58.6021C49.3002 58.6021 48.8613 58.657 48.4225 58.7118C47.7367 58.8215 46.9961 58.9587 46.2281 59.1232C45.4052 59.3152 44.6097 59.5347 43.8691 59.8364C43.7594 59.8364 43.6223 59.9187 43.5126 59.9736C43.4029 60.0284 43.2657 60.0833 43.1834 60.1382C42.8817 60.2753 42.6074 60.385 42.3331 60.4947C42.2782 60.4947 42.2508 60.4947 42.1959 60.5496C42.0039 60.6319 41.8394 60.7416 41.6474 60.8513C41.3731 60.9885 41.1262 61.153 40.8519 61.2902C40.7696 61.3451 40.6599 61.3999 40.5776 61.4548C40.221 61.7016 39.837 61.9485 39.5079 62.2228C39.069 62.5519 38.6301 62.9359 38.2461 63.32C37.9992 63.5394 37.8072 63.7314 37.5878 63.9783C36.9843 64.6092 36.4357 65.2949 35.9146 66.0629C35.7226 66.3646 35.5306 66.6664 35.3386 66.9956C35.0643 67.4344 34.8174 67.9007 34.5705 68.367C34.4608 68.6139 34.3237 68.8608 34.2139 69.1351C33.9945 69.5739 33.8299 70.0676 33.6379 70.5614C33.5282 70.8082 33.4459 71.0277 33.3636 71.2746C33.2813 71.4391 33.2265 71.6037 33.1716 71.7957C33.0619 72.1249 32.9522 72.4266 32.8699 72.7832C32.7602 73.1123 32.6779 73.4415 32.5956 73.7981L11.6394 78.7354L39.9193 97.8812L57.8308 93.6571L57.8857 93.6845Z" fill="#828282"/>
<path d="M109.81 20.1458L81.53 1L81.1734 19.2681L34.4883 30.2399L34.5432 30.3222L34.4883 30.2674L34.1592 48.0691C38.1639 44.997 43.5401 42.6381 50.2878 40.9375L50.178 40.8552H50.2878V40.8826C50.6443 40.8003 51.0009 40.6906 51.3575 40.6083C52.921 40.2517 54.4022 39.9774 55.8285 39.758C62.3842 38.9077 67.925 39.8677 72.396 42.6107C72.8074 42.8575 73.1366 43.1318 73.4932 43.4061C73.9046 43.7078 74.3161 44.0096 74.6726 44.3387C74.7549 44.3936 74.8372 44.4759 74.8921 44.5307C75.3584 44.9696 75.7972 45.4085 76.2087 45.8748C76.291 45.9845 76.3733 46.0668 76.4556 46.1765C76.867 46.6702 77.251 47.1914 77.6076 47.74C77.6076 47.74 77.635 47.7948 77.6625 47.8223C77.9916 48.3434 78.2659 48.892 78.5128 49.4406C78.6499 49.7149 78.7596 50.0166 78.8694 50.3184C79.0339 50.7024 79.1711 51.0864 79.3082 51.4978C79.4179 51.827 79.5003 52.1562 79.5825 52.5127C79.6923 52.9242 79.802 53.3356 79.8843 53.7471C79.9666 54.1037 80.0214 54.4602 80.0763 54.8442C80.1311 55.2282 80.186 55.6123 80.2134 55.9963C80.3231 57.0112 80.378 58.0535 80.3506 59.1781C80.3506 59.2604 80.3506 59.3701 80.3506 59.4524L79.5002 103.532C79.5002 104.684 79.418 105.808 79.2808 106.906C79.2534 107.262 79.1711 107.619 79.1162 107.975C79.0065 108.716 78.9242 109.429 78.7596 110.142C78.6225 110.746 78.4579 111.322 78.2933 111.898C78.1562 112.364 78.0739 112.83 77.9367 113.269C77.9367 113.297 77.9368 113.324 77.9093 113.379C77.6076 114.284 77.2784 115.189 76.8944 116.067C76.8121 116.286 76.7024 116.506 76.5927 116.725C76.2636 117.466 75.907 118.179 75.4955 118.892C75.4132 119.057 75.331 119.194 75.2487 119.359C74.7824 120.181 74.2612 120.977 73.7126 121.772C73.5755 121.964 73.4657 122.129 73.3286 122.294C72.8074 123.007 72.2588 123.72 71.6828 124.406C71.6005 124.515 71.5182 124.598 71.436 124.707C70.7228 125.558 69.9547 126.381 69.1319 127.176C68.4187 127.862 67.6781 128.52 66.9375 129.178C66.4712 129.59 65.9775 130.001 65.4837 130.385C65.0723 130.714 64.6334 131.071 64.222 131.4C63.4539 131.976 62.6859 132.525 61.8905 133.046C61.6162 133.238 61.3693 133.43 61.095 133.595C59.7784 134.445 58.4069 135.213 57.008 135.926C56.5143 136.173 56.0205 136.447 55.4994 136.667C55.0879 136.859 54.6765 137.051 54.2376 137.243C53.6067 137.517 52.9484 137.791 52.3175 138.038C51.9061 138.203 51.4947 138.367 51.0832 138.532C50.3701 138.806 49.6294 139.026 48.8888 139.272C48.5323 139.382 48.1757 139.519 47.8191 139.629C46.6945 139.958 45.5699 140.26 44.4178 140.534C42.6349 140.946 40.9068 141.275 39.2336 141.494C31.6356 142.482 25.2446 141.439 20.0878 138.34C19.7861 138.148 19.4843 137.956 19.1826 137.764L47.4625 156.91C47.7642 157.102 48.066 157.294 48.3677 157.486C53.5244 160.585 59.9155 161.628 67.5135 160.64C69.1867 160.421 70.9148 160.091 72.6977 159.68C73.8498 159.406 75.0018 159.104 76.099 158.775C76.4556 158.665 76.8121 158.528 77.1962 158.418C77.9368 158.171 78.6774 157.952 79.3905 157.678C79.802 157.513 80.2134 157.349 80.6249 157.184C81.2832 156.937 81.914 156.663 82.5449 156.389C82.9838 156.197 83.3952 156.004 83.8067 155.812C84.1633 155.648 84.5199 155.483 84.8764 155.319C85.041 155.236 85.1782 155.154 85.3153 155.072C86.7142 154.359 88.0857 153.591 89.4023 152.74C89.4297 152.74 89.4846 152.686 89.512 152.686C89.7315 152.548 89.9509 152.356 90.1704 152.219C90.9658 151.698 91.7613 151.149 92.5019 150.573C92.6116 150.491 92.7487 150.409 92.8584 150.327C93.1602 150.08 93.4619 149.805 93.7911 149.559C94.2848 149.175 94.7785 148.763 95.2448 148.352C95.382 148.242 95.5191 148.132 95.6563 148.022C96.2597 147.474 96.8357 146.925 97.4392 146.377C97.6312 146.185 97.7958 146.02 97.9878 145.828C98.5638 145.225 99.1398 144.621 99.661 144.018C99.6884 143.99 99.7158 143.935 99.7433 143.908C99.8256 143.798 99.9078 143.716 99.9901 143.606C100.374 143.167 100.731 142.729 101.087 142.262C101.279 142.015 101.471 141.741 101.636 141.494C101.773 141.33 101.883 141.138 102.02 140.973C102.102 140.836 102.212 140.699 102.322 140.562C102.706 139.986 103.09 139.382 103.419 138.806C103.474 138.724 103.501 138.642 103.556 138.559C103.638 138.395 103.721 138.258 103.803 138.093C104.022 137.709 104.242 137.325 104.434 136.941C104.598 136.612 104.735 136.283 104.9 135.953C105.01 135.734 105.119 135.515 105.202 135.295C105.257 135.158 105.311 135.048 105.366 134.911C105.668 134.171 105.942 133.403 106.217 132.634C106.217 132.607 106.217 132.58 106.244 132.525C106.381 132.086 106.491 131.62 106.601 131.181C106.765 130.577 106.957 130.001 107.067 129.398C107.204 128.712 107.314 127.999 107.424 127.286C107.478 126.902 107.561 126.545 107.616 126.161C107.725 125.064 107.808 123.939 107.835 122.787L108.685 78.708C108.685 78.708 108.685 78.6531 108.685 78.6257C108.685 78.5708 108.685 78.516 108.685 78.4337C108.685 77.3365 108.63 76.2667 108.548 75.2518C108.548 75.1147 108.548 74.9501 108.548 74.813C108.521 74.5661 108.466 74.3467 108.438 74.0998C108.384 73.7432 108.329 73.3592 108.246 73.0026C108.164 72.5912 108.054 72.1797 107.945 71.7683C107.862 71.4391 107.78 71.0825 107.67 70.7534C107.616 70.6162 107.588 70.4791 107.561 70.342C107.478 70.0677 107.341 69.8482 107.259 69.5739C107.149 69.2722 107.04 68.9705 106.902 68.6962C106.848 68.5865 106.82 68.5042 106.765 68.3944C106.546 67.9281 106.299 67.4893 106.025 67.0778C106.025 67.0778 105.997 67.023 105.97 66.9956C105.723 66.5841 105.449 66.2001 105.174 65.8435C105.065 65.7064 104.955 65.5692 104.845 65.4321C104.763 65.3223 104.681 65.24 104.598 65.1303C104.516 65.0206 104.434 64.9109 104.351 64.8286C104.05 64.4994 103.748 64.1977 103.446 63.896C103.391 63.8411 103.337 63.8137 103.309 63.7863C103.227 63.7314 103.145 63.6491 103.09 63.5943C102.87 63.4023 102.678 63.2377 102.459 63.0457C102.157 62.7988 101.828 62.5794 101.499 62.3325L77.4156 46.0119L109.508 38.4688H109.563L109.92 20.2281L109.81 20.1458Z" fill="#828282"/>
<path d="M33.9396 69.7933C33.8299 70.0402 33.7476 70.2871 33.6653 70.534C33.8573 70.0402 34.0219 69.5465 34.2413 69.1076C34.1316 69.327 34.0219 69.5465 33.9122 69.7933H33.9396Z" fill="#828282"/>
<path d="M35.8595 66.1453C35.6674 66.447 35.5303 66.6938 35.3657 66.9956C35.5577 66.6664 35.7497 66.3647 35.9417 66.0629C35.9417 66.0629 35.8869 66.1178 35.8595 66.1453Z" fill="#828282"/>
<path d="M37.8619 63.6766C37.8619 63.6766 37.6974 63.8686 37.5876 63.9783C37.8071 63.7314 37.9991 63.5394 38.246 63.32C38.1088 63.4297 37.9717 63.5669 37.8619 63.6766Z" fill="#828282"/>
<path d="M34.5705 120.483C34.7625 120.675 34.927 120.867 35.119 121.032C35.2288 121.169 35.3385 121.251 35.4756 121.361C35.5579 121.416 35.6402 121.471 35.7225 121.525C35.7225 121.525 35.7774 121.58 35.8322 121.608C37.4506 122.678 39.6724 123.062 42.525 122.678C43.2656 122.568 44.0062 122.431 44.8017 122.266C48.2852 121.443 51.0556 120.099 53.1128 118.207L32.815 104.464L32.6504 113.132C32.6504 114.12 32.6504 115.025 32.815 115.875C32.8973 116.341 33.007 116.78 33.1167 117.219C33.199 117.493 33.2264 117.795 33.3087 118.069C33.3087 118.152 33.3636 118.234 33.391 118.344C33.391 118.399 33.4458 118.426 33.4733 118.481C33.5281 118.645 33.583 118.783 33.6379 118.892C33.6927 119.002 33.7476 119.112 33.8024 119.221C33.8847 119.413 33.9944 119.578 34.1042 119.77C34.1042 119.825 34.159 119.852 34.2139 119.907C34.2962 120.044 34.3784 120.154 34.4607 120.236C34.4607 120.236 34.5979 120.428 34.6527 120.511L34.5705 120.483Z" fill="#828282"/>
<path d="M12.9011 17.1286L11.7216 78.7354L16.7961 77.5559L32.6778 73.7981C32.7601 73.4415 32.8698 73.0849 32.9795 72.7557C33.0618 72.4266 33.1716 72.0974 33.2813 71.7683C33.3361 71.5763 33.391 71.4117 33.4733 71.2471C33.5556 71.0002 33.6378 70.7808 33.7476 70.534C33.9396 70.0402 34.1042 69.5465 34.3236 69.1076C34.4333 68.8333 34.5705 68.5864 34.6527 68.3396C34.8996 67.8733 35.1465 67.407 35.4208 66.9681C35.6128 66.6389 35.8048 66.3372 35.9968 66.0355C36.4905 65.2675 37.0391 64.5818 37.67 63.9509C37.8894 63.704 38.0815 63.512 38.3283 63.2925C38.7123 62.9085 39.1512 62.5245 39.5901 62.1954C39.9192 61.9211 40.3032 61.6742 40.6598 61.4274C40.7421 61.3725 40.8518 61.3176 40.9341 61.2627C41.2084 61.0982 41.4553 60.9336 41.7296 60.8239C41.9216 60.7142 42.0862 60.6045 42.2782 60.5222C42.333 60.5222 42.3605 60.4673 42.4153 60.4673C42.7719 60.2479 43.2108 60.0833 43.5948 59.9461C43.7045 59.8913 43.8417 59.8364 43.924 59.809C44.6646 59.5073 45.46 59.2878 46.2829 59.0958C47.0509 58.9038 47.7915 58.7667 48.4773 58.6844C48.9161 58.6295 49.355 58.6021 49.7664 58.5747C50.0133 58.5747 50.2053 58.5747 50.4522 58.5747C50.8911 58.5747 51.3299 58.5747 51.7139 58.6569C51.9608 58.6569 52.1528 58.7118 52.3722 58.7667C52.6465 58.7667 52.8934 58.849 53.1403 58.9313C53.4146 59.0135 53.6615 59.0958 53.9083 59.2055C54.0455 59.2604 54.1552 59.2878 54.2375 59.3427C54.3472 59.3975 54.4569 59.4799 54.5666 59.5347C54.8409 59.6444 55.0603 59.809 55.3072 59.9461C55.9929 60.4399 56.5415 61.0708 57.0078 61.8388C57.4193 62.4971 57.7484 63.2651 57.9679 64.1429C58.3245 65.4595 58.4616 66.9956 58.4342 68.751L58.0227 90.969L57.9679 93.7119L57.721 107.043C57.6113 111.843 56.1027 115.601 53.1677 118.234C51.1105 120.127 48.3401 121.471 44.8566 122.294C44.0611 122.486 43.3205 122.623 42.5799 122.705C41.8667 122.815 41.181 122.842 40.5501 122.842C40.0289 122.842 39.5078 122.842 39.0141 122.732C37.8072 122.568 36.7374 122.211 35.8871 121.635C35.8322 121.635 35.8048 121.58 35.7774 121.553C35.5579 121.388 35.3934 121.251 35.2014 121.087C35.0093 120.922 34.8448 120.73 34.6527 120.538C34.5979 120.456 34.5156 120.373 34.4607 120.264C34.3785 120.154 34.2962 120.044 34.2139 119.935C34.0493 119.715 33.9122 119.496 33.8299 119.249C33.775 119.139 33.7201 119.029 33.6653 118.92C33.583 118.728 33.5007 118.563 33.4184 118.371C33.4184 118.261 33.3636 118.179 33.3361 118.097C33.0893 117.439 32.9521 116.698 32.8698 115.902C32.7327 115.052 32.6778 114.147 32.7053 113.16L32.7875 108.798L32.8698 104.464L11.2005 109.594L11.0085 118.728C10.8165 128.026 13.8886 134.609 20.1699 138.395C20.938 138.834 21.706 139.245 22.5289 139.602C25.8753 141.138 29.7429 141.906 33.967 141.906C35.6951 141.906 37.478 141.769 39.3158 141.549C41.0164 141.33 42.7171 141.028 44.5 140.589C48.9984 139.547 53.1951 138.011 57.0901 136.008C58.4342 135.323 59.7508 134.582 61.0126 133.787C63.975 131.894 66.7179 129.7 69.2414 127.231C75.9891 120.62 79.4452 112.721 79.6372 103.559L80.131 77.8302V76.7605L80.4601 59.5073C80.5699 53.9391 79.2532 49.5229 76.5377 46.2039C76.0714 45.6005 75.4954 45.0519 74.9194 44.5033C74.1788 43.845 73.3559 43.2415 72.4781 42.693C69.0769 40.6083 65.0173 39.566 60.3817 39.566C58.9554 39.566 57.4741 39.6757 55.9107 39.8677C54.4569 40.0872 52.9757 40.334 51.4397 40.718C51.0831 40.8003 50.7265 40.91 50.3699 40.9923C46.1732 42.0346 42.4976 43.3787 39.3706 44.9422C37.478 45.9022 35.7499 46.9445 34.2413 48.0966L34.5979 30.2948L81.283 19.323L81.5573 5.33388L81.6396 1L13.0108 17.156L12.9011 17.1286ZM78.5675 17.1286L33.8847 27.6615C32.7327 27.9358 31.8824 28.9507 31.8549 30.1576L31.5258 47.9594C31.5258 48.9743 32.0469 49.9069 32.9795 50.3732C33.3361 50.5653 33.7476 50.6749 34.159 50.6749C34.7076 50.6749 35.2836 50.483 35.7774 50.1538C36.8197 49.3583 37.9443 48.6177 39.2061 47.9046C42.3605 46.1491 46.2555 44.6679 50.7813 43.4884H50.8636C51.0831 43.4335 51.2751 43.3787 51.4945 43.3238C51.6591 43.269 51.7962 43.2415 51.9882 43.1867C53.3049 42.8575 54.7038 42.6107 56.2124 42.3912C57.6387 42.1992 59.0102 42.1169 60.3268 42.1169C62.0549 42.1169 63.7281 42.2815 65.2642 42.6107H65.319C67.4311 43.0495 69.3511 43.8176 71.0792 44.8873C72.4233 45.7102 73.5205 46.6428 74.4805 47.8223C76.7846 50.6201 77.8818 54.4877 77.7995 59.3701L77.4703 76.6782V77.7205L76.9766 103.449C76.7846 111.98 73.6576 119.112 67.3762 125.283C64.9898 127.615 62.3566 129.727 59.5862 131.482C58.4342 132.223 57.1724 132.909 55.8284 133.595C52.1528 135.487 48.1207 136.968 43.8416 137.983C42.1136 138.367 40.4953 138.669 38.9043 138.888C37.1763 139.135 35.4756 139.218 33.8847 139.218C29.112 139.218 24.9153 138.175 21.4591 136.091C20.0328 135.24 18.8259 134.253 17.7836 133.046C14.8212 129.672 13.4497 124.954 13.5594 118.728L13.6966 111.651L30.0995 107.783V109.402L29.9897 113.05C29.9897 114.147 29.9897 115.244 30.1817 116.204C30.2915 117.192 30.4835 118.097 30.7852 118.947C30.7852 119.084 30.8675 119.249 30.9223 119.331L31.0595 119.633L31.1692 119.907C31.1692 119.907 31.2241 120.017 31.2241 120.072L31.3612 120.291C31.5258 120.675 31.7178 121.032 31.9647 121.361C32.047 121.471 32.1292 121.58 32.1841 121.69C32.2938 121.855 32.3761 121.964 32.4035 121.992C32.4858 122.129 32.623 122.266 32.7327 122.376L32.8973 122.513C33.0618 122.705 33.2264 122.87 33.3636 122.979C33.583 123.199 33.775 123.363 34.0493 123.555C34.159 123.638 34.2962 123.747 34.4333 123.857C36.0791 124.927 38.1089 125.475 40.4953 125.475C40.989 125.475 41.5376 125.475 42.1136 125.393C42.3879 125.393 42.6348 125.338 42.9091 125.311C43.7868 125.174 44.6097 125.037 45.4051 124.845C49.3276 123.912 52.5368 122.376 54.8683 120.209C58.3519 117.082 60.1622 112.666 60.2994 107.098L60.5463 93.7668L60.6011 91.0238L61.0126 68.8059C61.0126 66.7487 60.8754 65.0481 60.4914 63.6491C60.4914 63.5943 60.4914 63.5394 60.4914 63.4846C60.4914 63.3749 60.4365 63.2926 60.4091 63.1828C59.7508 60.8513 58.5713 59.0684 56.7336 57.7518C56.4867 57.5598 56.1575 57.3678 55.7187 57.1758C55.6638 57.1209 55.5815 57.0935 55.5266 57.0386C55.2524 56.874 55.0603 56.8192 54.9506 56.7918C54.6215 56.6272 54.2649 56.49 53.9632 56.4352C53.6066 56.3254 53.2226 56.2157 52.8386 56.1608C52.5917 56.106 52.29 56.0512 51.9059 56.0237C51.4396 55.9689 50.9185 55.9414 50.4247 55.9414C50.123 55.9414 49.8487 55.9414 49.547 55.9414C49.1081 55.9414 48.6144 56.0237 48.0384 56.0786C47.1058 56.2157 46.3377 56.3803 45.652 56.5174C44.7194 56.7369 43.8691 56.9838 43.0462 57.3129C42.8542 57.3678 42.7171 57.45 42.5525 57.5049C42.1685 57.6695 41.7296 57.8341 41.3456 58.0261C41.2633 58.0809 41.1536 58.1084 41.0713 58.1632C40.8518 58.273 40.6598 58.3827 40.4404 58.4924C40.1112 58.657 39.837 58.8215 39.4255 59.041C39.3158 59.0958 39.2335 59.1781 39.1786 59.2055C38.7672 59.4798 38.3009 59.7816 37.9169 60.1107C37.4231 60.4947 36.902 60.9336 36.4357 61.3725C36.1339 61.6468 35.8871 61.8936 35.6951 62.1405C34.9271 62.9085 34.2962 63.7314 33.7202 64.6092L33.5556 64.8561C33.391 65.1029 33.199 65.3772 33.0893 65.6241C32.7875 66.1178 32.4858 66.6389 32.1841 67.2698L32.0744 67.5167C31.9921 67.6813 31.8824 67.8733 31.8001 68.0653C31.5806 68.5316 31.3886 69.0528 31.1966 69.5739C31.0869 69.8208 31.0046 70.0402 30.9223 70.2871C30.7852 70.5888 30.7029 70.8357 30.6755 70.9454C30.5932 71.1923 30.5383 71.3843 30.456 71.6037L16.7687 74.813L14.3549 75.389L15.4246 19.2407L78.7869 4.31898V5.93733L78.5126 17.1834L78.5675 17.1286Z" fill="#E0E0E0"/>
<path d="M31.8549 30.1851L31.5258 47.9868C31.5258 49.0017 32.0469 49.9343 32.9795 50.4006C33.3361 50.5927 33.7476 50.7024 34.159 50.7024C34.7076 50.7024 35.2836 50.5104 35.7774 50.1812C36.8197 49.3858 37.9443 48.6451 39.2061 47.932L39.1512 51.1961C43.1559 48.124 48.5321 45.7651 55.2798 44.0644C55.6364 43.9821 55.993 43.8724 56.3496 43.7901C57.913 43.4335 59.3942 43.1592 60.8206 42.9398C62.3566 42.7204 63.8378 42.6381 65.2367 42.6381H65.2916C67.4037 43.0769 69.3237 43.845 71.0518 44.9147C72.3959 45.7376 73.493 46.6702 74.4531 47.8497C76.7571 50.6475 77.8543 54.5151 77.772 59.3975L77.4429 76.7056V77.7479L76.9491 103.477C76.7571 112.007 73.6302 119.139 67.3488 125.311C64.9624 127.642 62.3292 129.754 59.5588 131.51C58.4068 132.25 57.145 132.936 55.801 133.622C52.1254 135.515 48.0933 136.996 43.8142 138.011C42.0862 138.395 40.4678 138.696 38.8769 138.916C37.1488 139.163 35.4482 139.245 33.8573 139.245C29.0845 139.245 24.8878 138.203 21.4317 136.118C20.0054 135.268 18.7985 134.28 17.7562 133.073C16.4121 129.946 15.8087 126.189 15.8909 121.827L16.0829 112.693L30.072 109.402L29.9897 113.05C29.9897 114.147 29.9897 115.244 30.1817 116.204C30.2915 117.192 30.4835 118.097 30.7852 118.947C30.7852 119.084 30.8675 119.249 30.9223 119.331L31.0595 119.633L31.1692 119.907C31.1692 119.907 31.2241 120.017 31.2241 120.072L31.3612 120.291C31.5258 120.675 31.7178 121.032 31.9647 121.361C32.047 121.471 32.1292 121.58 32.1841 121.69C32.2938 121.855 32.3761 121.964 32.4035 121.992C32.4858 122.129 32.623 122.266 32.7327 122.376L32.8973 122.513C33.0618 122.705 33.2264 122.87 33.3636 122.979C33.583 123.199 33.775 123.363 34.0493 123.555C34.159 123.638 34.2962 123.747 34.4333 123.857C36.0791 124.927 38.1089 125.475 40.4953 125.475C40.989 125.475 41.5376 125.475 42.1136 125.393C43.5674 125.969 45.3503 126.134 47.5172 125.832C48.2578 125.722 48.9984 125.585 49.7939 125.421C53.2774 124.598 56.0478 123.254 58.105 121.361C61.0674 118.728 62.5761 114.97 62.6583 110.17L62.9052 96.8389L62.9601 94.1234L63.3715 71.878C63.3715 70.1225 63.2618 68.5865 62.9052 67.2973C62.4663 65.4869 61.616 64.1154 60.4091 63.1828C59.7508 60.8513 58.5713 59.0684 56.7336 57.7518C56.4867 57.5597 56.1575 57.3678 55.7187 57.1758C55.6638 57.1209 55.5815 57.0935 55.5267 57.0386C55.2524 56.874 55.0604 56.8192 54.9506 56.7917C54.6215 56.6272 54.2649 56.49 53.9632 56.4351C53.6066 56.3254 53.2226 56.2157 52.8386 56.1608C52.5917 56.106 52.29 56.0511 51.906 56.0237C51.4397 55.9689 50.9185 55.9414 50.4248 55.9414C50.123 55.9414 49.8487 55.9414 49.547 55.9414C49.1081 55.9414 48.6144 56.0237 48.0384 56.0785C47.1058 56.2157 46.3378 56.3803 45.652 56.5174C44.7194 56.7369 43.8691 56.9838 43.0462 57.3129C42.8542 57.3678 42.7171 57.45 42.5525 57.5049C42.1685 57.6695 41.7296 57.8341 41.3456 58.0261C41.2633 58.0809 41.1536 58.1084 41.0713 58.1632C40.8518 58.2729 40.6598 58.3826 40.4404 58.4924C40.1112 58.6569 39.837 58.8215 39.4255 59.0409C39.3158 59.0958 39.2335 59.1781 39.1786 59.2055C38.7672 59.4798 38.3009 59.7815 37.9169 60.1107C37.4231 60.4947 36.902 60.9336 36.4357 61.3725C36.134 61.6468 35.8871 61.8936 35.6951 62.1405C34.9271 62.9085 34.2962 63.7314 33.7202 64.6091L33.5556 64.856C33.391 65.1029 33.199 65.3772 33.0893 65.6241C32.7875 66.1178 32.4858 66.6389 32.1841 67.2698L32.0744 67.5167C31.9921 67.6813 31.8824 67.8733 31.8001 68.0653C31.5806 68.5316 31.3887 69.0528 31.1966 69.5739C31.0869 69.8208 31.0046 70.0402 30.9223 70.2871C30.7852 70.5888 30.7029 70.8357 30.6755 70.9454C30.5932 71.1923 30.5383 71.3843 30.456 71.6037L16.7687 74.813L17.811 20.2555L78.7321 5.90988L78.4852 17.156L33.8024 27.689C32.6504 27.9633 31.8001 28.9782 31.7727 30.1851H31.8549Z" fill="#E4675B"/>
<path d="M105.778 22.0659C105.915 21.8739 95.4368 14.5228 89.8137 10.6826C85.7267 7.88481 85.5073 7.96708 85.3702 8.15909C85.233 8.35109 85.3153 8.6254 89.3474 11.3684C94.9705 15.2085 105.641 22.2579 105.778 22.0659Z" fill="#333333"/>
<path d="M105.695 26.6466C105.832 26.4546 95.3543 19.1035 89.7312 15.2634C85.6442 12.4655 85.4248 12.5478 85.2876 12.7398C85.1505 12.9318 85.2328 13.2061 89.2649 15.9491C94.888 19.7892 105.558 26.8386 105.695 26.6466Z" fill="#333333"/>
<path d="M105.613 31.2548C105.75 31.0628 95.272 23.7117 89.649 19.8715C85.562 17.0737 85.3425 17.156 85.2054 17.348C85.0682 17.54 85.1505 17.8143 89.1827 20.5573C94.8057 24.3974 105.476 31.4468 105.613 31.2548Z" fill="#333333"/>
<path d="M42.2509 39.9774C42.388 39.7854 40.3308 38.1671 39.1787 37.3716C38.3559 36.7956 38.2187 36.9328 38.0816 37.1248C37.9444 37.3168 37.8896 37.4813 38.7124 38.0574C39.8645 38.8528 42.1137 40.1694 42.2509 39.9774Z" fill="#333333"/>
<path d="M38.9044 42.3638C39.0415 42.1718 38.4106 41.5135 38.0266 41.2666C37.7523 41.0746 37.6426 41.2118 37.5054 41.4038C37.3683 41.5958 37.286 41.7603 37.5603 41.9523C37.9443 42.2266 38.7672 42.5558 38.9044 42.3638Z" fill="#333333"/>
<path d="M54.21 65.2675C54.3472 65.0755 52.2899 63.512 51.1379 62.7714C50.315 62.2228 50.1779 62.3599 50.0681 62.5519C49.931 62.7439 49.8761 62.9085 50.699 63.4571C51.851 64.1977 54.1003 65.4595 54.21 65.2675Z" fill="#333333"/>
<path d="M54.1276 69.8756C54.2648 69.6836 49.5743 66.3921 47.0234 64.7189C45.1856 63.512 45.021 63.6217 44.8839 63.8137C44.7467 64.0057 44.7467 64.1977 46.5571 65.4046C49.108 67.0778 53.9905 70.0402 54.1276 69.8482V69.8756Z" fill="#333333"/>
<path d="M54.1552 74.7855C54.2924 74.5935 47.627 69.9305 44.0337 67.5167C41.4279 65.7612 41.2359 65.8709 41.1262 66.0629C40.989 66.2549 41.0165 66.4744 43.5948 68.2025C47.1881 70.6163 54.0455 74.9775 54.1827 74.7855H54.1552Z" fill="#333333"/>
<path d="M54.4569 79.6406C54.5941 79.4486 46.5847 73.8803 42.2508 70.9728C39.1238 68.8607 38.9318 68.9704 38.7947 69.1625C38.6575 69.3545 38.7124 69.6013 41.7845 71.6586C46.1183 74.5661 54.3198 79.8326 54.4295 79.6406H54.4569Z" fill="#333333"/>
<path d="M54.1552 84.1116C54.2924 83.9195 45.5423 77.8576 40.8245 74.7032C37.3958 72.3991 37.2038 72.5088 37.0666 72.6734C36.9295 72.8654 36.9843 73.1123 40.3582 75.3615C45.076 78.5159 54.0181 84.2761 54.1278 84.0841L54.1552 84.1116Z" fill="#333333"/>
<path d="M100.676 66.2549C100.813 66.0629 92.4743 60.2479 87.9484 57.2306C84.6843 55.0363 84.4923 55.1185 84.3551 55.3105C84.218 55.5025 84.2728 55.7494 87.4821 57.9164C91.9805 60.9336 100.539 66.4469 100.648 66.2549H100.676Z" fill="#333333"/>
<path d="M104.708 73.6335C104.845 73.4415 94.3668 66.2001 88.7163 62.4149C84.6293 59.6719 84.4099 59.7268 84.2728 59.9188C84.1356 60.1108 84.2179 60.3851 88.25 63.1006C93.9005 66.8859 104.571 73.8255 104.68 73.6335H104.708Z" fill="#333333"/>
<path d="M104.625 78.2142C104.763 78.0222 94.2845 70.7808 88.6341 66.9955C84.547 64.2526 84.3276 64.3074 84.1905 64.4994C84.0533 64.6915 84.1356 64.9658 88.1678 67.6813C93.8182 71.4666 104.488 78.4062 104.598 78.2142H104.625Z" fill="#333333"/>
<path d="M104.543 82.8224C104.68 82.6304 94.202 75.389 88.5516 71.6037C84.4645 68.8607 84.2451 68.9156 84.108 69.1076C83.9708 69.2996 84.0531 69.5739 88.0853 72.2894C93.7357 76.0747 104.406 83.0144 104.516 82.8224H104.543Z" fill="#333333"/>
<path d="M104.461 87.4306C104.598 87.2386 94.12 79.9972 88.4695 76.2119C84.3825 73.469 84.1631 73.5238 84.0259 73.7158C83.8888 73.9078 83.9711 74.1821 88.0032 76.8977C93.6537 80.6829 104.324 87.6226 104.434 87.4306H104.461Z" fill="#333333"/>
<path d="M104.379 92.0387C104.516 91.8467 94.0377 84.6053 88.3872 80.82C84.3002 78.0771 84.0808 78.1319 83.9436 78.3239C83.8065 78.5159 83.8888 78.7903 87.9209 81.5058C93.5714 85.2911 104.242 92.2307 104.351 92.0387H104.379Z" fill="#333333"/>
<path d="M104.297 96.6469C104.434 96.4549 93.9557 89.2135 88.3052 85.4282C84.2182 82.6853 83.9988 82.7401 83.8616 82.9321C83.7245 83.1241 83.8068 83.3984 87.8389 86.114C93.4894 89.8992 104.16 96.8389 104.269 96.6469H104.297Z" fill="#333333"/>
<path d="M104.214 101.255C104.351 101.063 93.8732 93.8217 88.2227 90.0364C84.1357 87.2934 83.9162 87.3483 83.7791 87.5403C83.642 87.7323 83.7242 88.0066 87.7564 90.7221C93.4069 94.5074 104.077 101.447 104.187 101.255H104.214Z" fill="#333333"/>
<path d="M104.132 105.836C104.269 105.644 93.7909 98.4024 88.1404 94.6171C84.0534 91.8742 83.834 91.929 83.6968 92.121C83.5597 92.313 83.642 92.5873 87.6741 95.3029C93.3246 99.0881 103.995 106.028 104.104 105.836H104.132Z" fill="#333333"/>
<path d="M104.05 110.444C104.187 110.252 93.7086 103.011 88.0581 99.2253C83.9711 96.4824 83.7517 96.5372 83.6145 96.7292C83.4774 96.9212 83.5597 97.1955 87.5918 99.9111C93.2423 103.696 103.912 110.636 104.022 110.444H104.05Z" fill="#333333"/>
<path d="M103.967 115.052C104.104 114.86 93.6261 107.619 87.9756 103.833C83.8886 101.091 83.6692 101.145 83.532 101.337C83.3949 101.529 83.4772 101.804 87.5093 104.519C93.1598 108.304 103.83 115.244 103.94 115.052H103.967Z" fill="#333333"/>
<path d="M103.912 119.66C104.049 119.468 93.5712 112.227 87.9207 108.442C83.8337 105.699 83.6142 105.754 83.4771 105.946C83.3399 106.138 83.4222 106.412 87.4544 109.127C93.1049 112.913 103.775 119.852 103.885 119.66H103.912Z" fill="#333333"/>
<path d="M103.83 124.268C103.967 124.076 93.2697 116.67 87.5095 112.803C83.3402 110.005 83.0933 110.06 82.9836 110.252C82.8465 110.444 82.9288 110.718 87.0706 113.489C92.8308 117.356 103.72 124.46 103.858 124.268H103.83Z" fill="#333333"/>
<path d="M103.117 128.438C103.254 128.246 92.4194 120.757 86.5769 116.835C82.3527 113.982 82.1059 114.065 81.9962 114.257C81.859 114.449 81.9413 114.723 86.138 117.521C91.9805 121.443 103.007 128.63 103.144 128.438H103.117Z" fill="#333333"/>
<path d="M101.937 132.333C102.075 132.141 91.1028 124.57 85.2054 120.62C80.9264 117.74 80.707 117.823 80.5698 118.015C80.4327 118.207 80.515 118.481 84.7391 121.306C90.6365 125.256 101.8 132.525 101.91 132.333H101.937Z" fill="#333333"/>
<path d="M47.0507 119.167C47.1879 118.975 41.6471 115.052 38.6298 113.022C36.4355 111.569 36.2709 111.678 36.1612 111.843C36.024 112.035 36.024 112.254 38.1909 113.681C41.2082 115.71 46.941 119.331 47.0507 119.139V119.167Z" fill="#333333"/>
<path d="M42.6073 120.84C42.7444 120.648 39.4803 118.234 37.67 117.027C36.3808 116.149 36.2162 116.286 36.1065 116.478C35.9693 116.67 35.9419 116.862 37.2311 117.713C39.014 118.92 42.4976 121.032 42.6073 120.84Z" fill="#333333"/>
<path d="M129.704 5.67416H126.844V13H126.052V5.67416H123.192V4.97323H129.704V5.67416ZM138.907 4.97323V13H138.127V9.24664H133.368V13H132.576V4.97323H133.368V8.54571H138.127V4.97323H138.907Z" fill="#828282"/>
</svg>
