<svg width="140" height="160" viewBox="0 0 140 160" fill="none" xmlns="http://www.w3.org/2000/svg">
<path d="M35.4406 67.8739C35.5253 68.6645 35.6664 69.4268 35.8641 70.1044C35.9205 70.3585 36.0052 70.5844 36.0899 70.8103C36.0899 70.8667 36.09 70.9232 36.1464 70.9797C36.3723 71.5161 36.5981 72.0243 36.8805 72.4761C37.1911 72.956 37.5016 73.3796 37.9251 73.7466C38.1228 73.9443 38.2922 74.0854 38.518 74.2548C40.2121 75.5253 42.5272 75.977 45.5482 75.5535C46.2541 75.4688 47.0164 75.3277 47.7787 75.1583C56.4747 73.1255 60.8792 67.7328 61.0204 58.9803L61.585 29.7302C61.6697 25.6363 60.5968 22.8411 58.3946 21.3448C58.3381 21.2883 58.2817 21.26 58.2252 21.2318C57.9711 21.0624 57.717 20.893 57.4064 20.8083C57.35 20.7518 57.2935 20.7236 57.237 20.7236C56.9829 20.6107 56.7288 20.4977 56.4182 20.413C56.2206 20.3565 56.0794 20.3001 55.8536 20.2719C55.5148 20.1872 55.2042 20.1307 54.8372 20.1025C54.4137 20.046 53.9054 20.0178 53.4255 20.0178C52.7479 20.0178 52.0138 20.0177 51.2515 20.1589C50.4609 20.2718 49.6421 20.4412 48.7669 20.6106C47.7505 20.8648 46.847 21.1471 45.9718 21.4576C45.8024 21.5141 45.6894 21.5706 45.5765 21.627C45.4353 21.7117 45.2942 21.7682 45.1812 21.8247C44.8424 21.9658 44.5036 22.1071 44.193 22.22C43.9954 22.3047 43.7978 22.4176 43.6001 22.5305C43.5437 22.5305 43.5154 22.5305 43.459 22.6152C43.2613 22.6999 43.1201 22.8129 42.9225 22.9258C42.1884 23.3211 41.539 23.801 40.9179 24.281C40.6356 24.5069 40.4097 24.7328 40.1556 24.9587C38.5745 26.4833 37.4169 28.3185 36.7111 30.4925C36.6264 30.7466 36.5417 31.0007 36.4852 31.283C36.3723 31.5653 36.3158 31.8194 36.2593 32.13C36.2029 32.3559 36.1464 32.5818 36.1182 32.8077C36.1182 33.0053 36.0617 33.2029 36.0335 33.4005C35.9488 33.7676 35.9205 34.1346 35.8923 34.5016C35.8358 34.9816 35.8076 35.5181 35.8076 36.0263L35.2429 64.9941C35.2429 65.5023 35.2429 66.0388 35.2429 66.5188C35.2429 66.9705 35.2994 67.4504 35.3558 67.8739H35.4406Z" fill="#828282"/>
<path d="M56.3334 114.996C58.8179 112.399 60.0603 108.898 60.145 104.55L60.4555 89.1622L60.5684 84.2496C60.2296 84.5601 59.9191 84.8142 59.552 85.0966C59.3262 85.2942 59.1567 85.4636 58.9309 85.6613C58.3662 86.113 57.8297 86.593 57.2368 86.9883C56.4181 87.6094 55.571 88.2305 54.724 88.7669C54.4982 88.9363 54.3005 89.0775 54.0747 89.2187C53.877 89.3316 53.7077 89.4728 53.4818 89.5857C52.3242 90.3198 51.1101 90.9692 49.8961 91.5621C49.4443 91.8162 48.9644 92.0138 48.4844 92.2114C48.1174 92.4091 47.7221 92.5503 47.3268 92.7197C46.9033 92.9173 46.4516 93.0867 46.0281 93.2279C45.8304 93.2844 45.661 93.3408 45.4634 93.4255C44.0799 93.9055 42.6682 94.329 41.2283 94.6678C39.7037 95.0349 38.2355 95.3172 36.8238 95.4866C34.5651 95.7971 32.4194 95.8536 30.4712 95.7407C29.4266 95.6842 28.4102 95.5431 27.422 95.3454C27.422 95.3454 27.3655 95.3454 27.3373 95.3454C26.8008 95.2607 26.2926 95.1195 25.7562 94.9784C24.768 94.696 23.8363 94.3572 22.961 93.9055C22.0576 93.5102 21.2106 93.002 20.4482 92.4655L49.5573 112.173C51.5619 113.556 53.8488 114.516 56.3616 115.024L56.3334 114.996Z" fill="#828282"/>
<path d="M34.424 110.366C34.424 111.072 34.424 111.778 34.5087 112.399C34.5087 112.625 34.5087 112.794 34.5087 113.02C34.5087 113.02 34.5087 113.02 34.5087 113.076C34.5087 113.133 34.5087 113.161 34.5087 113.189C34.5652 113.754 34.7063 114.234 34.8475 114.742C34.904 114.968 34.9322 115.194 34.9887 115.42C34.9887 115.533 34.9887 115.617 35.0452 115.702C35.0452 115.702 35.0451 115.758 35.1016 115.787C35.6945 117.537 36.7391 118.836 38.1791 119.655C39.8166 120.53 41.9342 120.784 44.5599 120.445C45.294 120.361 46.0563 120.219 46.8751 120.05C49.4726 119.457 51.7031 118.525 53.5665 117.34L34.5087 104.437L34.3958 110.422L34.424 110.366Z" fill="#828282"/>
<path d="M113.224 40.3179C113.224 40.0073 113.168 39.7249 113.168 39.4425C113.14 38.9626 113.111 38.4544 113.055 37.9744C113.055 37.7768 112.999 37.6073 112.97 37.4097C112.886 36.845 112.801 36.3086 112.716 35.7722C112.632 35.2922 112.547 34.784 112.434 34.3322C112.321 33.824 112.18 33.3441 112.01 32.8641C111.926 32.5535 111.869 32.243 111.756 31.9606C111.7 31.8194 111.643 31.6783 111.587 31.5371C111.446 31.1701 111.305 30.8313 111.163 30.4925C111.05 30.2102 110.937 29.9278 110.825 29.6454C110.712 29.4478 110.599 29.2502 110.486 29.0525C110.373 28.8549 110.288 28.6573 110.175 28.4597C110.09 28.3185 110.006 28.1491 109.921 28.0079C109.639 27.5562 109.356 27.1327 109.018 26.7092C109.018 26.6809 108.961 26.6527 108.961 26.6245C108.933 26.568 108.876 26.5115 108.848 26.4833C108.622 26.2009 108.396 25.9186 108.142 25.6363C107.86 25.3257 107.578 25.0434 107.295 24.7893C107.295 24.7893 107.267 24.761 107.239 24.7328C106.928 24.4222 106.589 24.1399 106.251 23.8858C105.968 23.6599 105.658 23.434 105.347 23.2364L76.2382 3.52924C76.9158 3.98098 77.5652 4.51743 78.1581 5.0821C78.1581 5.0821 78.1863 5.1103 78.2145 5.13854C78.7792 5.64675 79.2874 6.23967 79.7674 6.83258C79.7956 6.88905 79.8521 6.94553 79.8803 6.97376C80.3321 7.53843 80.7274 8.15956 81.0944 8.80894C81.2073 9.00657 81.3203 9.20423 81.405 9.40186C81.6591 9.8536 81.8567 10.3618 82.0826 10.8418C82.2237 11.1806 82.3932 11.5194 82.5061 11.8864C82.6755 12.31 82.7884 12.7899 82.9296 13.2417C83.0707 13.7216 83.2119 14.2016 83.3531 14.7098C83.466 15.1898 83.5507 15.6698 83.6354 16.1497C83.7201 16.6862 83.833 17.2226 83.8895 17.7873C83.9742 18.4367 84.0307 19.1143 84.0872 19.8201C84.0872 20.1025 84.1437 20.413 84.1437 20.6954C84.2001 21.7683 84.2283 22.8694 84.2001 24.0269L82.7602 99.8629C82.7602 101.077 82.6472 102.263 82.5343 103.42C82.4778 103.816 82.3932 104.211 82.3367 104.606C82.2238 105.368 82.139 106.131 81.9696 106.865C81.8849 107.288 81.7438 107.684 81.6591 108.079C81.4897 108.785 81.3203 109.519 81.0944 110.196C80.7838 111.185 80.4168 112.145 80.0215 113.105C79.9368 113.274 79.8803 113.443 79.7956 113.613C79.4568 114.403 79.0898 115.166 78.6945 115.928C78.5816 116.154 78.4404 116.38 78.3275 116.605C77.8475 117.481 77.311 118.356 76.7464 119.175C76.6899 119.231 76.6334 119.316 76.6052 119.372C76.0688 120.163 75.5041 120.925 74.8829 121.688C74.7135 121.913 74.5159 122.139 74.3465 122.337C73.6689 123.156 72.963 123.946 72.2007 124.737C71.3537 125.584 70.5067 126.403 69.6315 127.193C69.2362 127.56 68.8127 127.871 68.3892 128.21C67.881 128.633 67.3728 129.085 66.8363 129.48C65.7917 130.271 64.747 131.033 63.6459 131.739C63.5047 131.823 63.3636 131.908 63.2224 131.993C62.0084 132.755 60.7379 133.489 59.4391 134.139C58.9591 134.393 58.4791 134.647 57.9992 134.873C57.5756 135.07 57.1804 135.268 56.7569 135.466C56.1075 135.748 55.4299 136.03 54.7523 136.313C54.3288 136.482 53.9335 136.651 53.51 136.793C52.7477 137.075 51.9854 137.329 51.2231 137.583C50.856 137.696 50.489 137.837 50.122 137.95C48.9644 138.289 47.8068 138.628 46.5927 138.91C44.7293 139.362 42.9223 139.672 41.1719 139.927C33.3793 140.943 26.8291 139.87 21.5494 136.651C21.2388 136.454 20.9282 136.256 20.6177 136.058L49.7267 155.766C50.0373 155.963 50.3478 156.161 50.6584 156.359C55.9381 159.549 62.4883 160.65 70.2809 159.634C72.0314 159.408 73.8383 159.069 75.7017 158.617C76.8876 158.335 78.0734 158.024 79.231 157.657C79.598 157.544 79.965 157.403 80.3321 157.29C81.0944 157.036 81.8567 156.782 82.619 156.5C83.0425 156.33 83.466 156.161 83.8895 156.02C84.5671 155.737 85.2448 155.483 85.8941 155.173C86.3176 154.975 86.7412 154.777 87.1364 154.58C87.4188 154.439 87.7293 154.326 88.0117 154.156C88.2093 154.072 88.3787 153.931 88.5763 153.846C89.8751 153.168 91.1456 152.462 92.3596 151.7C92.4726 151.644 92.5855 151.587 92.6985 151.502C92.7267 151.502 92.7549 151.446 92.7832 151.446C93.8843 150.74 94.9289 149.978 95.9736 149.187C96.0018 149.187 96.03 149.131 96.0583 149.131C96.5665 148.735 97.0182 148.34 97.4982 147.945C97.9217 147.606 98.3452 147.267 98.7405 146.929C98.7405 146.929 98.797 146.872 98.8252 146.872C99.6722 146.138 100.463 145.347 101.253 144.557C101.253 144.557 101.31 144.5 101.338 144.472C101.931 143.879 102.467 143.258 103.004 142.637C103.173 142.439 103.314 142.242 103.456 142.072C103.625 141.846 103.823 141.649 103.992 141.423C104.161 141.197 104.359 140.971 104.557 140.745C104.952 140.209 105.347 139.672 105.714 139.108C105.771 139.051 105.827 138.967 105.855 138.91C105.855 138.91 105.884 138.854 105.912 138.854C106.335 138.233 106.731 137.583 107.126 136.934C107.239 136.736 107.352 136.538 107.437 136.341C107.549 136.115 107.691 135.889 107.804 135.663C107.945 135.409 108.086 135.155 108.199 134.901C108.453 134.393 108.679 133.856 108.905 133.348C108.989 133.179 109.074 133.009 109.131 132.84C109.131 132.783 109.187 132.727 109.215 132.67C109.582 131.823 109.893 130.948 110.175 130.073C110.175 130.016 110.175 129.988 110.203 129.932C110.429 129.226 110.599 128.52 110.768 127.814C110.853 127.419 110.994 127.052 111.079 126.685C111.079 126.657 111.079 126.628 111.079 126.6C111.248 125.866 111.333 125.104 111.446 124.342C111.502 123.946 111.587 123.551 111.643 123.156C111.784 121.998 111.841 120.784 111.869 119.598L113.309 43.7623C113.309 43.7623 113.309 43.6494 113.309 43.5929C113.309 42.4918 113.309 41.4472 113.253 40.459L113.224 40.3179Z" fill="#828282"/>
<path d="M57.5191 29.3349C57.6603 29.1373 54.1028 26.5397 52.1547 25.241C50.743 24.3092 50.6018 24.4222 50.4607 24.6198C50.3195 24.8174 50.2913 25.0151 51.6747 25.9468C53.6229 27.2456 57.3779 29.5325 57.5191 29.3349Z" fill="#333333"/>
<path d="M57.4347 34.0781C57.5759 33.8804 51.5621 29.6454 48.3152 27.4714C45.9436 25.8903 45.7742 26.0033 45.6612 26.2009C45.5201 26.3986 45.5201 26.6244 47.8635 28.1772C51.1104 30.3512 57.3218 34.2757 57.4629 34.0781H57.4347Z" fill="#333333"/>
<path d="M57.378 38.7933C57.5192 38.5957 49.8396 33.2595 45.6893 30.4926C42.6682 28.488 42.4989 28.5726 42.3577 28.7702C42.2165 28.9679 42.2447 29.1938 45.2093 31.1984C49.3597 33.9653 57.2369 38.9909 57.3498 38.7933H57.378Z" fill="#333333"/>
<path d="M57.2933 43.5365C57.4345 43.3388 48.8232 37.3533 44.1646 34.2475C40.7766 31.9888 40.5789 32.0736 40.466 32.2712C40.3248 32.4689 40.3813 32.7229 43.7129 34.9534C48.3714 38.0591 57.1804 43.7341 57.3216 43.5365H57.2933Z" fill="#333333"/>
<path d="M57.2086 48.2797C57.3497 48.0821 48.569 42.0118 43.8258 38.8496C40.3812 36.5627 40.1836 36.6474 40.0424 36.8451C39.9013 37.0427 39.9577 37.2968 43.3458 39.5555C48.0891 42.7177 57.0674 48.4773 57.1804 48.2797H57.2086Z" fill="#333333"/>
<path d="M57.1239 53.0231C57.265 52.8254 48.4843 46.7551 43.741 43.5929C40.2965 41.306 40.0989 41.3907 39.9577 41.5883C39.8166 41.786 39.873 42.0401 43.2611 44.2988C48.0043 47.4609 56.9827 53.2207 57.0956 53.0231H57.1239Z" fill="#333333"/>
<path d="M57.0391 57.7663C57.1803 57.5686 48.3996 51.4984 43.6563 48.3362C40.2118 46.0493 40.0142 46.1339 39.873 46.3316C39.7318 46.5292 39.7883 46.7834 43.1763 49.0421C47.9196 52.2042 56.898 57.9639 57.0109 57.7663H57.0391Z" fill="#333333"/>
<path d="M56.531 62.2272C56.6722 62.0295 48.1173 56.1005 43.487 53.023C40.1272 50.7926 39.9296 50.8773 39.7884 51.0749C39.6472 51.2725 39.7037 51.5266 43.007 53.7289C47.6374 56.8064 56.3898 62.4248 56.531 62.2272Z" fill="#333333"/>
<path d="M55.0065 65.9823C55.1477 65.7847 47.327 60.3637 43.0919 57.5404C40.0144 55.5075 39.845 55.5922 39.7038 55.7899C39.5627 55.9875 39.5909 56.2416 42.6119 58.2462C46.847 61.0696 54.8654 66.18 54.9783 65.9823H55.0065Z" fill="#333333"/>
<path d="M52.1828 68.8904C52.324 68.6928 45.9149 64.2036 42.4704 61.8884C39.9576 60.2226 39.7882 60.3073 39.647 60.505C39.5058 60.7026 39.5059 60.9285 41.9904 62.5943C45.4632 64.9094 52.0416 69.0881 52.1828 68.8904Z" fill="#333333"/>
<path d="M47.8068 70.7821C47.9479 70.5844 43.7694 67.5635 41.4824 66.0671C39.8167 64.966 39.6755 65.0789 39.5343 65.2765C39.3931 65.4742 39.3649 65.6718 41.0024 66.7729C43.2894 68.2975 47.6656 70.9797 47.8068 70.8103V70.7821Z" fill="#333333"/>
<path d="M47.5808 117.227C47.722 117.029 43.007 113.669 40.4377 111.947C38.5743 110.705 38.4049 110.818 38.292 111.015C38.1508 111.213 38.1508 111.41 39.986 112.653C42.5553 114.375 47.4679 117.424 47.5808 117.227Z" fill="#333333"/>
<path d="M42.0752 118.384C42.2164 118.187 40.4659 116.803 39.5059 116.154C38.8001 115.674 38.6589 115.815 38.546 116.013C38.433 116.21 38.3484 116.38 39.0542 116.86C40.0424 117.509 41.9623 118.582 42.1035 118.384H42.0752Z" fill="#333333"/>
<path d="M104.359 27.2738C104.5 27.0762 96.2837 21.3447 91.8227 18.3802C88.6041 16.2344 88.4065 16.3192 88.2653 16.5168C88.1241 16.7144 88.1806 16.9685 91.3428 19.086C95.7755 22.0506 104.217 27.4714 104.33 27.2738H104.359Z" fill="#333333"/>
<path d="M108.227 34.6429C108.368 34.4453 98.0912 27.3586 92.5856 23.6599C88.5764 20.9777 88.3506 21.0625 88.2094 21.2601C88.0682 21.4578 88.1529 21.74 92.1057 24.3658C97.6395 28.0644 108.086 34.8406 108.227 34.6429Z" fill="#333333"/>
<path d="M109.074 40.0073C109.215 39.8096 98.4862 32.4124 92.6983 28.5444C88.4915 25.7492 88.2656 25.8057 88.1527 26.0033C88.0115 26.201 88.0962 26.4833 92.2466 29.2502C98.0345 33.1182 108.961 40.2049 109.102 40.0355L109.074 40.0073Z" fill="#333333"/>
<path d="M108.989 44.7506C109.131 44.5529 98.4018 37.1557 92.6138 33.2877C88.407 30.4925 88.1811 30.549 88.0682 30.7466C87.927 30.9443 88.0117 31.2266 92.1621 33.9935C97.95 37.8615 108.876 44.9482 109.018 44.7788L108.989 44.7506Z" fill="#333333"/>
<path d="M108.905 49.4939C109.046 49.2962 98.3172 41.8989 92.5293 38.0309C88.3225 35.2075 88.0967 35.2922 87.9837 35.4898C87.8426 35.6875 87.9272 35.9698 92.0776 38.7367C97.8655 42.6047 108.792 49.6914 108.933 49.522L108.905 49.4939Z" fill="#333333"/>
<path d="M108.82 54.2088C108.961 54.0112 98.2323 46.6139 92.4444 42.7459C88.2376 39.9508 88.0117 40.0072 87.8988 40.2049C87.7576 40.4025 87.8423 40.6848 91.9927 43.4517C97.7806 47.3198 108.707 54.4065 108.848 54.2371L108.82 54.2088Z" fill="#333333"/>
<path d="M108.735 58.9521C108.876 58.7545 98.1474 51.3572 92.3594 47.4892C88.1526 44.694 87.9267 44.7505 87.8138 44.9482C87.6726 45.1458 87.7574 45.4281 91.9077 48.195C97.6957 52.0631 108.622 59.1498 108.763 58.9804L108.735 58.9521Z" fill="#333333"/>
<path d="M108.651 63.6955C108.792 63.4978 98.0629 56.1005 92.275 52.2325C88.0681 49.4373 87.8423 49.4938 87.7293 49.6915C87.5882 49.8891 87.6729 50.1714 91.8232 52.9383C97.6111 56.8063 108.538 63.893 108.679 63.7236L108.651 63.6955Z" fill="#333333"/>
<path d="M108.566 68.4387C108.707 68.2411 97.9784 60.8438 92.1905 56.9758C87.9837 54.1524 87.7578 54.2372 87.6449 54.4348C87.5037 54.6324 87.5884 54.9147 91.7387 57.6817C97.5267 61.5497 108.453 68.6363 108.594 68.4669L108.566 68.4387Z" fill="#333333"/>
<path d="M108.481 73.1819C108.622 72.9843 97.8931 65.5871 92.1052 61.719C87.8984 58.8957 87.6725 58.9804 87.5596 59.178C87.4466 59.3756 87.5031 59.658 91.6534 62.4249C97.4414 66.2929 108.368 73.3796 108.509 73.2102L108.481 73.1819Z" fill="#333333"/>
<path d="M108.396 77.9252C108.537 77.7275 97.8086 70.3303 92.0207 66.4623C87.8139 63.6671 87.588 63.7236 87.4751 63.9213C87.3621 64.1189 87.4186 64.4012 91.569 67.1681C97.3569 71.0361 108.283 78.1228 108.425 77.9534L108.396 77.9252Z" fill="#333333"/>
<path d="M108.34 82.6402C108.481 82.4426 97.7525 75.0454 91.9646 71.1773C87.7577 68.354 87.5319 68.4387 87.4189 68.6363C87.306 68.834 87.3625 69.1163 91.5129 71.8832C97.3008 75.7512 108.227 82.8379 108.368 82.6685L108.34 82.6402Z" fill="#333333"/>
<path d="M108.255 87.3835C108.396 87.1859 97.6674 79.7886 91.8795 75.9206C87.6726 73.1254 87.4468 73.1819 87.3338 73.3796C87.1927 73.5772 87.2773 73.8595 91.4277 76.6264C97.2156 80.4945 108.142 87.5812 108.283 87.4118L108.255 87.3835Z" fill="#333333"/>
<path d="M108.17 92.1268C108.311 91.9291 97.5824 84.5319 91.7945 80.6639C87.5877 77.8687 87.3618 77.9252 87.2489 78.1229C87.1077 78.3205 87.1924 78.6028 91.3427 81.3697C97.1307 85.2377 108.057 92.3244 108.198 92.155L108.17 92.1268Z" fill="#333333"/>
<path d="M108.086 96.8701C108.227 96.6725 97.4979 89.2751 91.71 85.4071C87.5032 82.612 87.2773 82.6684 87.1644 82.8661C87.0232 83.0637 87.1079 83.346 91.2583 86.1129C97.0462 89.981 107.973 97.0677 108.114 96.8983L108.086 96.8701Z" fill="#333333"/>
<path d="M108.001 101.613C108.142 101.416 97.4135 94.0185 91.6256 90.1504C87.4187 87.3553 87.1928 87.4118 87.0799 87.6094C86.9387 87.8071 87.0234 88.0894 91.1738 90.8563C96.9617 94.7243 107.888 101.811 108.029 101.642L108.001 101.613Z" fill="#333333"/>
<path d="M107.917 106.357C108.058 106.159 97.329 98.7617 91.5411 94.8937C87.3342 92.0985 87.1084 92.155 86.9954 92.3526C86.8543 92.5503 86.939 92.8326 91.0893 95.5995C96.8773 99.4675 107.804 106.554 107.945 106.385L107.917 106.357Z" fill="#333333"/>
<path d="M107.832 111.1C107.973 110.902 97.244 103.505 91.4561 99.637C87.2493 96.8419 87.0234 96.8984 86.9105 97.096C86.7693 97.2936 86.854 97.576 91.0044 100.343C96.7923 104.211 107.719 111.298 107.86 111.128L107.832 111.1Z" fill="#333333"/>
<path d="M107.719 115.9C107.86 115.702 97.0745 108.22 91.2866 104.324C87.0798 101.5 86.8539 101.557 86.7127 101.754C86.5716 101.952 86.6563 102.234 90.8067 105.03C96.5946 108.926 107.577 116.097 107.719 115.9Z" fill="#333333"/>
<path d="M107.578 120.53C107.719 120.332 96.6798 112.766 90.7224 108.813C86.4027 105.933 86.1768 106.018 86.0357 106.215C85.8945 106.413 85.9792 106.695 90.2425 109.519C96.1998 113.472 107.437 120.728 107.55 120.53H107.578Z" fill="#333333"/>
<path d="M106.759 124.765C106.9 124.567 95.7198 116.86 89.706 112.822C85.3298 109.886 85.1039 109.971 84.9627 110.168C84.8216 110.366 84.9063 110.648 89.226 113.528C95.2398 117.565 106.618 124.963 106.759 124.765Z" fill="#333333"/>
<path d="M78.0452 4.99739C74.516 1.6658 69.4339 0 62.8272 0C60.8509 0 58.7051 0.169413 56.4182 0.451751C54.1312 0.762322 51.7314 1.18582 49.1621 1.80696C25.7845 7.28431 13.8981 20.2154 13.5028 40.5154L12.8535 74.4525C12.6841 82.8944 15.2251 88.8799 20.3919 92.4374C21.1824 92.9738 22.0294 93.482 22.9047 93.8772C23.1588 93.9902 23.4129 94.1032 23.6952 94.2161C24.3446 94.5267 25.0222 94.7525 25.6998 94.9501C26.208 95.0913 26.7445 95.2325 27.2809 95.3172C27.2809 95.3172 27.3374 95.3172 27.3656 95.3172C28.3538 95.5431 29.342 95.656 30.4148 95.7125C31.0078 95.769 31.6571 95.7689 32.2783 95.7689C33.7182 95.7689 35.2146 95.6843 36.7674 95.4584C38.1791 95.289 39.6473 95.0349 41.1719 94.6396C42.6119 94.3008 44.0236 93.8773 45.407 93.3973C46.0564 93.1714 46.6775 92.9456 47.2704 92.6915C47.6657 92.5221 48.061 92.3527 48.428 92.1833C48.908 91.9856 49.3879 91.7597 49.8397 91.5339C51.0537 90.941 52.2678 90.2915 53.4254 89.5575C53.8489 89.3034 54.2724 89.0493 54.6677 88.7388C55.5429 88.2023 56.3899 87.5812 57.1805 86.96C57.7452 86.5647 58.2816 86.0848 58.8745 85.633C59.4109 85.2095 59.9474 84.7013 60.5121 84.2213L60.3991 89.134L60.3427 91.6186L60.0886 104.55C60.0039 108.898 58.7616 112.399 56.277 114.996C55.4864 115.843 54.5547 116.634 53.5383 117.283C51.7031 118.469 49.4727 119.401 46.8469 119.993C46.0281 120.191 45.2658 120.332 44.5317 120.389C43.7694 120.502 43.0636 120.558 42.4142 120.558C41.8778 120.558 41.3696 120.558 40.8896 120.445C39.8449 120.304 38.9415 120.05 38.1509 119.598C36.711 118.779 35.6664 117.509 35.0734 115.73C35.017 115.617 34.9887 115.476 34.9605 115.391C34.7064 114.714 34.5935 113.98 34.5088 113.161C34.5088 113.161 34.5088 113.104 34.5088 113.048C34.5088 112.822 34.4523 112.625 34.4523 112.37C34.3676 111.749 34.3676 111.043 34.3676 110.338V108.813L34.4805 104.352L12.1476 109.66L12.0065 116.351C11.8371 125.923 14.9992 132.67 21.4647 136.538C22.2553 136.99 23.0458 137.442 23.8929 137.781C27.3374 139.39 31.2619 140.181 35.6099 140.181C37.3886 140.181 39.1956 140.039 41.0872 139.814C42.8377 139.588 44.6447 139.277 46.4799 138.797C51.1667 137.724 55.4864 136.115 59.4956 134.054C60.8791 133.32 62.2343 132.529 63.5331 131.711C66.6388 129.678 69.4904 127.306 72.1161 124.652C76.3512 120.276 79.344 115.448 80.9815 110.14C82.0262 106.865 82.6191 103.392 82.6756 99.7216V99.2699L83.8332 39.8096V38.5956L84.1437 23.914C84.3131 15.218 82.2521 8.86541 77.9888 4.99739H78.0452ZM81.2356 38.5673V39.7814L80.0498 99.2982V99.7216C79.9933 103.053 79.4851 106.3 78.4687 109.349C76.9723 114.177 74.2054 118.695 70.281 122.76C67.7681 125.301 65.0012 127.56 62.1778 129.424C60.9073 130.242 59.5803 131.005 58.3098 131.654C54.4418 133.659 50.2914 135.155 45.9152 136.2C44.2494 136.595 42.5554 136.934 40.8049 137.16C39.0262 137.414 37.3039 137.498 35.6663 137.498C30.7819 137.498 26.4904 136.426 22.9047 134.252C21.4648 133.376 20.2225 132.388 19.1496 131.174C16.1004 127.701 14.6604 122.845 14.7734 116.436L14.8581 111.834L31.7701 107.853V109.519L31.7136 110.394C31.7136 111.128 31.7136 111.89 31.7983 112.624C31.7983 112.907 31.7983 113.161 31.883 113.443C31.883 113.528 31.883 113.613 31.883 113.697C31.9959 114.686 32.1654 115.476 32.4195 116.21C32.4195 116.38 32.5042 116.549 32.6171 116.775C33.4359 119.118 34.8758 120.869 36.9369 122.055C38.4897 122.902 40.3531 123.325 42.4707 123.325C43.0071 123.325 43.5436 123.325 44.1082 123.212C44.3906 123.212 44.6164 123.156 44.8988 123.127C45.7458 123.043 46.5928 122.873 47.4963 122.704C50.3761 122.026 52.8889 120.982 55.0065 119.626C56.1923 118.864 57.2934 117.932 58.2533 116.916C61.1897 113.81 62.7143 109.688 62.8272 104.634L63.1378 89.6422V89.2469L63.2507 84.3343C63.2507 83.2614 62.6578 82.2732 61.6696 81.8214C61.3026 81.652 60.9074 81.5673 60.5403 81.5673C59.8909 81.5673 59.2416 81.8215 58.7334 82.2732C58.2251 82.6967 57.7169 83.1767 57.2087 83.5719L56.8417 83.9107C56.4464 84.2495 56.0511 84.5319 55.5994 84.8989C54.8653 85.4354 54.0748 86.0283 53.2842 86.5365C53.2277 86.593 53.1713 86.6212 53.1148 86.6494C52.776 86.9035 52.4654 87.1011 52.0419 87.3552C50.9973 88.0046 49.9244 88.5976 48.7386 89.1905L48.3433 89.3881C48.061 89.5292 47.8069 89.6704 47.5245 89.7551C47.4398 89.7551 47.3551 89.8116 47.2704 89.8681C46.9598 90.0093 46.6493 90.1504 46.2823 90.2633C45.7458 90.5174 45.1811 90.7151 44.5317 90.941C43.2894 91.3645 41.9907 91.7598 40.5508 92.0986C39.1391 92.4374 37.7839 92.6915 36.4569 92.8609C35.017 93.0585 33.6335 93.1432 32.3348 93.1432C31.7701 93.1432 31.2054 93.1432 30.5843 93.0867C29.709 93.0867 28.9185 92.9455 28.1279 92.7479C28.0432 92.7479 27.9585 92.7479 27.8738 92.6915C27.3938 92.5785 26.8856 92.4656 26.4904 92.3527C25.7845 92.1268 24.994 91.8444 24.0622 91.4209C23.3564 91.0821 22.6506 90.6869 21.9447 90.2351C21.0695 89.6422 20.2789 88.9646 19.6578 88.2023C16.7779 85.0684 15.4792 80.6074 15.5921 74.5372L16.2415 40.6001C16.5803 21.5141 27.5632 9.68419 49.8397 4.46094C52.1266 3.9245 54.4418 3.44451 56.7852 3.16217C58.931 2.87983 60.9638 2.73868 62.8272 2.73868C64.8883 2.73868 66.7517 2.90809 68.474 3.27513C71.8903 3.95274 74.629 5.33618 76.6336 7.36901C79.9651 10.7853 81.6027 16.3474 81.4615 23.8858L81.1792 38.5673H81.2356ZM60.0886 19.199C59.9192 19.0578 59.7497 18.9449 59.665 18.8884C59.4109 18.719 59.1286 18.5496 58.7616 18.4084C58.5639 18.2955 58.3945 18.1825 58.1686 18.1261C57.8863 18.0131 57.5757 17.872 57.1522 17.7873C56.8981 17.7308 56.7005 17.6461 56.4182 17.6179C55.9947 17.505 55.5429 17.4485 55.2323 17.4202C54.6394 17.3355 54.103 17.3073 53.4819 17.3073C52.4937 17.3073 51.7031 17.3638 50.9408 17.4767C49.9809 17.6179 49.0774 17.8155 48.2021 17.9849C46.9598 18.2955 45.9717 18.5778 45.04 18.9449C44.927 18.9449 44.7576 19.0296 44.5882 19.1425C44.0235 19.3401 43.5435 19.5378 43.0353 19.7919C42.8942 19.8766 42.6965 19.9612 42.5554 20.0459C42.4142 20.1024 42.273 20.1871 42.1601 20.3C41.9625 20.3847 41.7931 20.4978 41.5672 20.6389C40.8331 21.0342 40.1273 21.5424 39.2803 22.1917C39.0544 22.3894 38.8568 22.5588 38.6309 22.7565L38.3203 23.0387C36.4286 24.8739 35.017 27.1326 34.1982 29.6737C34.1135 29.9842 34.0005 30.2666 33.9441 30.5772C33.8029 30.9442 33.7182 31.3112 33.6618 31.6218C33.6053 31.8759 33.5488 32.1018 33.5206 32.3277C33.4359 32.61 33.4076 32.8641 33.3794 33.1465C33.2947 33.6264 33.2665 34.0499 33.2665 34.2758C33.1818 34.8687 33.1535 35.4616 33.1535 36.0545L32.5889 65.0788C32.5889 65.6435 32.5889 66.2082 32.5889 66.7729C32.5889 67.2811 32.6453 67.8175 32.7018 68.241C32.8148 69.2574 32.9841 70.1044 33.21 70.895C33.2947 71.1773 33.3512 71.4032 33.4359 71.6291C33.4923 71.855 33.5771 71.9961 33.6335 72.1373C33.9159 72.7584 34.1699 73.3513 34.5652 73.9442C34.9605 74.65 35.4687 75.243 35.9769 75.7229C36.2875 76.0053 36.5416 76.2312 36.8522 76.4853C38.6309 77.8123 40.8331 78.4616 43.4871 78.4616C44.0235 78.4616 44.5882 78.4616 45.1811 78.3487C45.407 78.3487 45.6328 78.3487 45.8587 78.2922C46.734 78.2075 47.6092 78.0381 48.3998 77.8405C58.2534 75.5253 63.5613 69.0316 63.7307 59.065L64.2954 29.8149C64.3518 27.9232 64.1542 26.2292 63.759 24.761C63.1096 22.3329 61.8673 20.4695 60.0603 19.2272L60.0886 19.199ZM61.0485 58.9803C60.8791 67.761 56.4746 73.1255 47.8069 75.1583C47.0445 75.356 46.2823 75.4971 45.5764 75.5535C44.8423 75.6665 44.1647 75.6948 43.5154 75.6948C42.9789 75.6948 42.4707 75.6948 41.9907 75.6101C40.6355 75.4124 39.5061 74.9889 38.5462 74.2548C38.3203 74.0854 38.1509 73.916 37.9533 73.7466C37.558 73.3796 37.2192 72.956 36.9086 72.4761C36.6263 72.0243 36.4004 71.5161 36.1746 70.9797C36.1746 70.9232 36.1181 70.8668 36.1181 70.8103C36.0334 70.5844 35.9487 70.3586 35.8922 70.1044C35.6663 69.4268 35.5252 68.6645 35.4687 67.874C35.4122 67.4504 35.384 66.9705 35.3558 66.5188C35.3558 66.0388 35.3558 65.5024 35.3558 64.9941L35.9205 36.0263C35.9205 35.5181 35.9205 34.9816 36.0052 34.5016C36.0052 34.1346 36.0616 33.7676 36.1463 33.4006C36.1463 33.2029 36.1463 33.0053 36.231 32.8077C36.231 32.5818 36.3157 32.3559 36.3722 32.13C36.4286 31.8194 36.4851 31.5654 36.598 31.283C36.6545 31.0007 36.7392 30.7466 36.8239 30.4925C37.5298 28.3185 38.6874 26.4833 40.2684 24.9587C40.5225 24.7328 40.7484 24.5069 41.0308 24.281C41.6519 23.801 42.3013 23.3211 43.0353 22.9258C43.233 22.7847 43.4024 22.6999 43.5718 22.6152C43.6283 22.5588 43.6565 22.5305 43.713 22.5305C43.9106 22.4176 44.1083 22.3047 44.3059 22.22C44.7294 21.9659 45.2093 21.7964 45.6893 21.627C45.8305 21.5423 45.9717 21.5141 46.0846 21.4576C46.9598 21.1188 47.8916 20.8648 48.8798 20.6107C49.755 20.413 50.5738 20.2718 51.3643 20.1589C52.1266 20.046 52.8607 20.0178 53.5383 20.0178C54.0183 20.0178 54.4983 20.0178 54.95 20.1025C55.2888 20.1025 55.6276 20.1872 55.9664 20.2719C56.1923 20.2719 56.3334 20.3565 56.5311 20.413C56.8416 20.4977 57.0958 20.6107 57.3499 20.7236C57.4064 20.7236 57.4628 20.7236 57.5193 20.8083C57.8299 20.9213 58.084 21.0906 58.3381 21.2318C58.3946 21.2318 58.451 21.2883 58.5075 21.3448C59.2698 21.853 59.9191 22.5588 60.3709 23.4058C61.3026 24.9586 61.7261 27.0762 61.6696 29.7302L61.105 58.9803H61.0485ZM63.7872 24.7328C63.1378 22.3047 61.8955 20.4413 60.0886 19.199C59.9192 19.0578 59.7497 18.9449 59.665 18.8884C59.4109 18.719 59.1286 18.5496 58.7616 18.4084C58.5639 18.2955 58.3945 18.1825 58.1686 18.1261C57.8863 18.0131 57.5757 17.872 57.1522 17.7873C56.8981 17.7308 56.7005 17.6461 56.4182 17.6179C55.9947 17.505 55.5429 17.4485 55.2323 17.4202C54.6394 17.3355 54.103 17.3073 53.4819 17.3073C52.4937 17.3073 51.7031 17.3638 50.9408 17.4767C49.9809 17.6179 49.0774 17.8155 48.2021 17.9849C46.9598 18.2955 45.9717 18.5778 45.04 18.9449C44.927 18.9449 44.7576 19.0296 44.5882 19.1425C44.0235 19.3401 43.5435 19.5378 43.0353 19.7919C42.8942 19.8766 42.6965 19.9612 42.5554 20.0459C42.4142 20.1024 42.273 20.1871 42.1601 20.3C41.9625 20.3847 41.7931 20.4978 41.5672 20.6389C40.8331 21.0342 40.1273 21.5424 39.2803 22.1917C39.0544 22.3894 38.8568 22.5588 38.6309 22.7565L38.3203 23.0387C36.4286 24.8739 35.017 27.1326 34.1982 29.6737C34.1135 29.9842 34.0005 30.2666 33.9441 30.5772C33.8029 30.9442 33.7182 31.3112 33.6618 31.6218C33.6053 31.8759 33.5488 32.1018 33.5206 32.3277C33.4359 32.61 33.4076 32.8641 33.3794 33.1465C33.2947 33.6264 33.2665 34.0499 33.2665 34.2758C33.1818 34.8687 33.1535 35.4616 33.1535 36.0545L32.5889 65.0788C32.5889 65.6435 32.5889 66.2082 32.5889 66.7729C32.5889 67.2811 32.6453 67.8175 32.7018 68.241C32.8148 69.2574 32.9841 70.1044 33.21 70.895C33.2947 71.1773 33.3512 71.4032 33.4359 71.6291C33.4923 71.855 33.5771 71.9961 33.6335 72.1373C33.9159 72.7584 34.1699 73.3513 34.5652 73.9442C34.9605 74.65 35.4687 75.243 35.9769 75.7229C36.2875 76.0053 36.5416 76.2312 36.8522 76.4853C38.6309 77.8123 40.8331 78.4616 43.4871 78.4616C44.0235 78.4616 44.5882 78.4616 45.1811 78.3487C45.407 78.3487 45.6328 78.3487 45.8587 78.2922C46.734 78.2075 47.6092 78.0381 48.3998 77.8405C58.2534 75.5253 63.5613 69.0316 63.7307 59.065L64.2954 29.8149C64.3518 27.9232 64.1542 26.2292 63.759 24.761L63.7872 24.7328ZM61.0485 58.9803C60.8791 67.761 56.4746 73.1255 47.8069 75.1583C47.0445 75.356 46.2823 75.4971 45.5764 75.5535C44.8423 75.6665 44.1647 75.6948 43.5154 75.6948C42.9789 75.6948 42.4707 75.6948 41.9907 75.6101C40.6355 75.4124 39.5061 74.9889 38.5462 74.2548C38.3203 74.0854 38.1509 73.916 37.9533 73.7466C37.558 73.3796 37.2192 72.956 36.9086 72.4761C36.6263 72.0243 36.4004 71.5161 36.1746 70.9797C36.1746 70.9232 36.1181 70.8668 36.1181 70.8103C36.0334 70.5844 35.9487 70.3586 35.8922 70.1044C35.6663 69.4268 35.5252 68.6645 35.4687 67.874C35.4122 67.4504 35.384 66.9705 35.3558 66.5188C35.3558 66.0388 35.3558 65.5024 35.3558 64.9941L35.9205 36.0263C35.9205 35.5181 35.9205 34.9816 36.0052 34.5016C36.0052 34.1346 36.0616 33.7676 36.1463 33.4006C36.1463 33.2029 36.1463 33.0053 36.231 32.8077C36.231 32.5818 36.3157 32.3559 36.3722 32.13C36.4286 31.8194 36.4851 31.5654 36.598 31.283C36.6545 31.0007 36.7392 30.7466 36.8239 30.4925C37.5298 28.3185 38.6874 26.4833 40.2684 24.9587C40.5225 24.7328 40.7484 24.5069 41.0308 24.281C41.6519 23.801 42.3013 23.3211 43.0353 22.9258C43.233 22.7847 43.4024 22.6999 43.5718 22.6152C43.6283 22.5588 43.6565 22.5305 43.713 22.5305C43.9106 22.4176 44.1083 22.3047 44.3059 22.22C44.7294 21.9659 45.2093 21.7964 45.6893 21.627C45.8305 21.5423 45.9717 21.5141 46.0846 21.4576C46.9598 21.1188 47.8916 20.8648 48.8798 20.6107C49.755 20.413 50.5738 20.2718 51.3643 20.1589C52.1266 20.046 52.8607 20.0178 53.5383 20.0178C54.0183 20.0178 54.4983 20.0178 54.95 20.1025C55.2888 20.1025 55.6276 20.1872 55.9664 20.2719C56.1923 20.2719 56.3334 20.3565 56.5311 20.413C56.8416 20.4977 57.0958 20.6107 57.3499 20.7236C57.4064 20.7236 57.4628 20.7236 57.5193 20.8083C57.8299 20.9213 58.084 21.0906 58.3381 21.2318C58.3946 21.2318 58.451 21.2883 58.5075 21.3448C59.2698 21.853 59.9191 22.5588 60.3709 23.4058C61.3026 24.9586 61.7261 27.0762 61.6696 29.7302L61.105 58.9803H61.0485ZM63.7872 24.7328C63.1378 22.3047 61.8955 20.4413 60.0886 19.199C59.9192 19.0578 59.7497 18.9449 59.665 18.8884C59.4109 18.719 59.1286 18.5496 58.7616 18.4084C58.5639 18.2955 58.3945 18.1825 58.1686 18.1261C57.8863 18.0131 57.5757 17.872 57.1522 17.7873C56.8981 17.7308 56.7005 17.6461 56.4182 17.6179C55.9947 17.505 55.5429 17.4485 55.2323 17.4202C54.6394 17.3355 54.103 17.3073 53.4819 17.3073C52.4937 17.3073 51.7031 17.3638 50.9408 17.4767C49.9809 17.6179 49.0774 17.8155 48.2021 17.9849C46.9598 18.2955 45.9717 18.5778 45.04 18.9449C44.927 18.9449 44.7576 19.0296 44.5882 19.1425C44.0235 19.3401 43.5435 19.5378 43.0353 19.7919C42.8942 19.8766 42.6965 19.9612 42.5554 20.0459C42.4142 20.1024 42.273 20.1871 42.1601 20.3C41.9625 20.3847 41.7931 20.4978 41.5672 20.6389C40.8331 21.0342 40.1273 21.5424 39.2803 22.1917C39.0544 22.3894 38.8568 22.5588 38.6309 22.7565L38.3203 23.0387C36.4286 24.8739 35.017 27.1326 34.1982 29.6737C34.1135 29.9842 34.0005 30.2666 33.9441 30.5772C33.8029 30.9442 33.7182 31.3112 33.6618 31.6218C33.6053 31.8759 33.5488 32.1018 33.5206 32.3277C33.4359 32.61 33.4076 32.8641 33.3794 33.1465C33.2947 33.6264 33.2665 34.0499 33.2665 34.2758C33.1818 34.8687 33.1535 35.4616 33.1535 36.0545L32.5889 65.0788C32.5889 65.6435 32.5889 66.2082 32.5889 66.7729C32.5889 67.2811 32.6453 67.8175 32.7018 68.241C32.8148 69.2574 32.9841 70.1044 33.21 70.895C33.2947 71.1773 33.3512 71.4032 33.4359 71.6291C33.4923 71.855 33.5771 71.9961 33.6335 72.1373C33.9159 72.7584 34.1699 73.3513 34.5652 73.9442C34.9605 74.65 35.4687 75.243 35.9769 75.7229C36.2875 76.0053 36.5416 76.2312 36.8522 76.4853C38.6309 77.8123 40.8331 78.4616 43.4871 78.4616C44.0235 78.4616 44.5882 78.4616 45.1811 78.3487C45.407 78.3487 45.6328 78.3487 45.8587 78.2922C46.734 78.2075 47.6092 78.0381 48.3998 77.8405C58.2534 75.5253 63.5613 69.0316 63.7307 59.065L64.2954 29.8149C64.3518 27.9232 64.1542 26.2292 63.759 24.761L63.7872 24.7328ZM61.0485 58.9803C60.8791 67.761 56.4746 73.1255 47.8069 75.1583C47.0445 75.356 46.2823 75.4971 45.5764 75.5535C44.8423 75.6665 44.1647 75.6948 43.5154 75.6948C42.9789 75.6948 42.4707 75.6948 41.9907 75.6101C40.6355 75.4124 39.5061 74.9889 38.5462 74.2548C38.3203 74.0854 38.1509 73.916 37.9533 73.7466C37.558 73.3796 37.2192 72.956 36.9086 72.4761C36.6263 72.0243 36.4004 71.5161 36.1746 70.9797C36.1746 70.9232 36.1181 70.8668 36.1181 70.8103C36.0334 70.5844 35.9487 70.3586 35.8922 70.1044C35.6663 69.4268 35.5252 68.6645 35.4687 67.874C35.4122 67.4504 35.384 66.9705 35.3558 66.5188C35.3558 66.0388 35.3558 65.5024 35.3558 64.9941L35.9205 36.0263C35.9205 35.5181 35.9205 34.9816 36.0052 34.5016C36.0052 34.1346 36.0616 33.7676 36.1463 33.4006C36.1463 33.2029 36.1463 33.0053 36.231 32.8077C36.231 32.5818 36.3157 32.3559 36.3722 32.13C36.4286 31.8194 36.4851 31.5654 36.598 31.283C36.6545 31.0007 36.7392 30.7466 36.8239 30.4925C37.5298 28.3185 38.6874 26.4833 40.2684 24.9587C40.5225 24.7328 40.7484 24.5069 41.0308 24.281C41.6519 23.801 42.3013 23.3211 43.0353 22.9258C43.233 22.7847 43.4024 22.6999 43.5718 22.6152C43.6283 22.5588 43.6565 22.5305 43.713 22.5305C43.9106 22.4176 44.1083 22.3047 44.3059 22.22C44.7294 21.9659 45.2093 21.7964 45.6893 21.627C45.8305 21.5423 45.9717 21.5141 46.0846 21.4576C46.9598 21.1188 47.8916 20.8648 48.8798 20.6107C49.755 20.413 50.5738 20.2718 51.3643 20.1589C52.1266 20.046 52.8607 20.0178 53.5383 20.0178C54.0183 20.0178 54.4983 20.0178 54.95 20.1025C55.2888 20.1025 55.6276 20.1872 55.9664 20.2719C56.1923 20.2719 56.3334 20.3565 56.5311 20.413C56.8416 20.4977 57.0958 20.6107 57.3499 20.7236C57.4064 20.7236 57.4628 20.7236 57.5193 20.8083C57.8299 20.9213 58.084 21.0906 58.3381 21.2318C58.3946 21.2318 58.451 21.2883 58.5075 21.3448C59.2698 21.853 59.9191 22.5588 60.3709 23.4058C61.3026 24.9586 61.7261 27.0762 61.6696 29.7302L61.105 58.9803H61.0485Z" fill="#E0E0E0"/>
<path d="M76.6619 7.34083C74.6573 5.308 71.9186 3.92451 68.5023 3.2469C66.3565 3.19044 64.0414 3.35986 61.585 3.67044C59.2981 3.98101 56.8982 4.4045 54.3289 5.02564C30.9514 10.503 19.065 23.4341 18.6697 43.7342L18.0203 77.6711C17.9356 81.7368 18.4721 85.2377 19.6861 88.1458C20.3073 88.9081 21.0978 89.5857 21.9731 90.1787C22.6789 90.6304 23.3848 91.0539 24.0906 91.3645C25.0223 91.7598 25.8129 92.0703 26.5187 92.2962C26.914 92.4091 27.4222 92.5221 27.9021 92.6351C27.9868 92.6351 28.0716 92.635 28.1563 92.6915C28.9751 92.8891 29.7656 93.0021 30.6126 93.0303C31.2055 93.0868 31.7702 93.0867 32.3631 93.0867C33.6618 93.0867 35.0453 93.0021 36.4852 92.8045C37.8122 92.6351 39.1674 92.4091 40.5791 92.0421C42.019 91.7033 43.3178 91.308 44.5601 90.8845C45.1812 90.6586 45.7459 90.461 46.3106 90.2069C46.6494 90.0657 46.9882 89.9246 47.2988 89.8117C47.3835 89.7552 47.4682 89.727 47.5529 89.6987C47.8352 89.5858 48.0893 89.4446 48.3716 89.3317L48.7669 89.134C49.9527 88.5411 51.0539 87.9482 52.0703 87.2988C52.4938 87.0447 52.8326 86.8471 53.1431 86.593C53.1996 86.593 53.2561 86.5365 53.3125 86.48C54.1031 86.0001 54.8936 85.4072 55.6277 84.8425C56.0795 84.5037 56.4747 84.1931 56.87 83.8543L57.237 83.5155C57.7452 83.1203 58.2535 82.6403 58.7617 82.2168C59.2699 81.7651 59.9193 81.511 60.5686 81.511C60.9357 81.511 61.3309 81.5956 61.698 81.765C62.6861 82.2168 63.3073 83.2049 63.2791 84.2778L63.1661 89.1905V89.5858C63.4767 89.3317 63.7591 89.1058 64.0696 88.8517C64.6061 88.4282 65.1425 87.9199 65.7072 87.44L65.5942 92.3527L65.2837 107.74C65.199 112.088 63.9567 115.589 61.4721 118.187C60.6815 119.034 59.7499 119.824 58.7335 120.474C56.8983 121.659 54.6678 122.591 52.042 123.184C51.2232 123.382 50.461 123.523 49.7269 123.579C47.4682 123.89 45.6047 123.72 44.1083 123.127C43.5719 123.212 43.0355 123.24 42.4708 123.24C40.3532 123.24 38.4898 122.817 36.937 121.97C34.8759 120.812 33.436 119.034 32.6172 116.69C32.5043 116.464 32.4478 116.295 32.4196 116.125C32.1372 115.391 31.996 114.573 31.8831 113.613C31.8831 113.528 31.8831 113.443 31.8831 113.359C31.8266 113.076 31.7984 112.822 31.7984 112.54C31.7137 111.806 31.7137 111.043 31.7137 110.309V109.434L17.3145 112.85L17.1733 119.542C17.0886 124.031 17.738 127.871 19.1214 131.118C20.1661 132.303 21.4366 133.32 22.8765 134.195C26.4622 136.369 30.7538 137.442 35.6382 137.442C37.2758 137.442 38.998 137.329 40.7768 137.103C42.5273 136.877 44.2213 136.567 45.8871 136.143C50.2915 135.099 54.4419 133.63 58.2817 131.598C59.524 130.948 60.851 130.186 62.1497 129.367C64.9731 127.532 67.7118 125.273 70.2528 122.704C74.1773 118.638 76.9725 114.121 78.4406 109.293C79.457 106.215 79.9652 102.997 80.0217 99.6652V99.2418L81.1793 39.7249V38.5109L81.4899 23.8293C81.631 16.3191 79.9935 10.7289 76.6619 7.31257V7.34083ZM66.1589 62.1991C65.9895 70.9798 61.585 76.3441 52.9173 78.377C52.1549 78.5746 51.3927 78.7158 50.6868 78.7723C48.4846 79.0828 46.6776 78.9134 45.1812 78.2923C44.6166 78.377 44.0519 78.4052 43.4872 78.4052C40.8615 78.4052 38.631 77.7558 36.8523 76.4288C36.5417 76.1747 36.2876 75.9489 35.977 75.6665C35.4688 75.1866 34.9606 74.5936 34.5653 73.8878C34.1983 73.2949 33.916 72.702 33.6336 72.0809C33.5772 71.9397 33.4924 71.7702 33.436 71.5726C33.3513 71.3467 33.2948 71.1209 33.2101 70.8386C32.956 70.048 32.8149 69.1728 32.7019 68.1846C32.6455 67.7611 32.6172 67.2246 32.589 66.7164C32.589 66.18 32.589 65.6154 32.589 65.0224L33.1536 35.998C33.1536 35.4334 33.1536 34.8405 33.2666 34.2194C33.2666 33.9653 33.2666 33.5699 33.3795 33.09C33.3795 32.8076 33.436 32.5536 33.5207 32.2713C33.5207 32.0454 33.6054 31.8195 33.6619 31.5654C33.7183 31.2548 33.803 30.916 33.9442 30.5208C34.0006 30.2102 34.1136 29.9278 34.1983 29.6173C35.0171 27.1045 36.4287 24.8458 38.3204 22.9823L38.631 22.7C38.8569 22.5023 39.0545 22.333 39.2804 22.1353C40.1274 21.486 40.8332 21.0059 41.5673 20.5824C41.7932 20.4413 41.9626 20.3283 42.1602 20.2436C42.3014 20.1307 42.4425 20.046 42.5555 19.9895C42.7249 19.9048 42.8943 19.8202 43.0354 19.7355C43.5154 19.4814 44.0236 19.2837 44.5883 19.086C44.7859 18.9731 44.9554 18.9167 45.0401 18.8884C45.9718 18.5496 46.9317 18.2391 48.2022 17.9285C49.0775 17.7309 49.981 17.5614 50.9409 17.4203C51.7032 17.3073 52.522 17.2509 53.482 17.2509C54.0749 17.2509 54.6113 17.2509 55.2325 17.3638C55.5713 17.3638 55.9948 17.4485 56.4183 17.5614C56.7006 17.5614 56.8982 17.6744 57.1523 17.7308C57.5476 17.8438 57.8864 17.9849 58.1687 18.0696C58.3946 18.1261 58.564 18.2391 58.7617 18.352C59.1005 18.5214 59.411 18.6908 59.6651 18.832C59.7781 18.8884 59.9475 19.0014 60.0887 19.1425C61.8674 20.3848 63.1379 22.2765 63.7873 24.6764C65.8483 26.201 66.8365 28.9397 66.7518 32.8924L66.1872 62.1425L66.1589 62.1991Z" fill="#E4675B"/>
<path d="M129.704 5.67416H126.844V13H126.052V5.67416H123.192V4.97323H129.704V5.67416ZM138.907 4.97323V13H138.127V9.24664H133.368V13H132.576V4.97323H133.368V8.54571H138.127V4.97323H138.907Z" fill="#828282"/>
</svg>
