<svg width="140" height="160" viewBox="0 0 140 160" fill="none" xmlns="http://www.w3.org/2000/svg">
<path d="M27.5966 55.6648L36.9777 53.4325C38.5883 53.0652 40.1141 52.6131 41.4987 52.1045C50.8232 48.742 55.5703 42.4409 55.7398 33.2576L55.8246 29.0192C55.9094 25.5154 55.0617 23.0006 53.338 21.503C53.1402 21.3335 52.9707 21.1922 52.7447 21.0792C52.4339 20.8814 52.123 20.7118 51.7557 20.5705C51.0493 20.2315 50.2299 20.0337 49.2974 19.9207C48.8453 19.8641 48.365 19.8359 47.8846 19.8359C47.1782 19.8359 46.4153 19.8924 45.5958 20.0054C44.7764 20.1184 43.9287 20.288 43.0245 20.4858C42.0073 20.7401 41.0748 20.9944 40.1706 21.3335C40.0294 21.39 39.8881 21.4465 39.775 21.503C39.6055 21.5595 39.4925 21.616 39.3512 21.7008C39.1252 21.7856 38.9556 21.8703 38.7296 21.9551C38.5035 22.0399 38.334 22.1246 38.1362 22.2377C33.9543 24.2439 31.383 27.4368 30.507 31.76C30.507 31.8448 30.507 31.9295 30.507 32.0426C30.394 32.5229 30.3092 33.0598 30.2527 33.5684C30.1679 34.1053 30.1397 34.6421 30.1397 35.2073L29.9419 44.3623L7.33691 49.6745L27.5119 63.3505L27.6531 55.7778L27.5966 55.6648Z" fill="#828282"/>
<path d="M54.7508 85.0795C54.8638 79.513 53.3945 75.6419 50.3711 73.5792C50.3711 73.5792 50.3711 73.5792 50.3146 73.5227C50.0321 73.3532 49.7777 73.1836 49.4669 73.0424C49.1561 72.8728 48.8453 72.7315 48.4779 72.6185C48.1389 72.4772 47.7998 72.3642 47.4325 72.2794C47.0651 72.1664 46.6695 72.0817 46.3022 71.9969C46.0761 71.9404 45.8501 71.9121 45.5958 71.8839C45.285 71.8273 45.0025 71.7991 44.6634 71.7708C44.2395 71.7708 43.7592 71.7143 43.2788 71.7143C42.2333 71.7143 41.1596 71.7991 40.0011 71.9686C38.8426 72.1099 37.5993 72.336 36.3278 72.6468L27.2292 74.766L54.5531 93.2738L54.7226 85.1078L54.7508 85.0795Z" fill="#828282"/>
<path d="M107.025 42.2713C107.025 40.915 106.968 39.6435 106.855 38.372C106.855 38.2024 106.855 38.0046 106.855 37.8351C106.855 37.5808 106.77 37.3547 106.714 37.1004C106.657 36.6766 106.573 36.2245 106.488 35.8006C106.403 35.3203 106.29 34.8399 106.149 34.3596C106.064 33.964 105.951 33.5401 105.81 33.1728C105.753 32.975 105.697 32.8055 105.64 32.6077C105.555 32.3251 105.414 32.1273 105.329 31.8448C105.16 31.5057 105.018 31.1384 104.905 30.7993C104.821 30.6298 104.764 30.4602 104.708 30.3472C104.482 29.9516 104.284 29.5843 104.058 29.2169C104.001 29.1039 103.945 28.9626 103.86 28.8779C103.86 28.8779 103.86 28.7931 103.803 28.7648C103.493 28.3127 103.21 27.8606 102.871 27.4651C102.786 27.3238 102.673 27.2108 102.56 27.0977C102.475 26.9847 102.391 26.8717 102.278 26.7587C102.165 26.6174 102.023 26.4478 101.91 26.3348C101.571 25.9957 101.232 25.6284 100.865 25.2893C100.865 25.2893 100.78 25.2328 100.752 25.1763C100.695 25.1198 100.611 25.0633 100.526 25.0068C100.271 24.7525 100.017 24.5547 99.7346 24.3286C99.3955 24.0461 99.0564 23.82 98.6891 23.5657L69.6134 3.89937C70.0655 4.21019 70.5177 4.52101 70.9132 4.88834C71.0828 5.02962 71.2241 5.1709 71.3653 5.28393C71.4219 5.28393 71.4784 5.34044 71.5066 5.39695C73.2868 6.9793 74.6713 8.90072 75.6885 11.133C75.8298 11.472 75.9994 11.7829 76.0841 12.1502C76.2819 12.574 76.4232 13.0261 76.5362 13.4782C76.7058 14.0151 76.847 14.6085 76.9883 15.2019C77.1013 15.7105 77.2144 16.2191 77.2991 16.756C77.4122 17.4058 77.5252 18.0557 77.5817 18.7339C77.6947 19.9489 77.7795 21.2487 77.7512 22.6332C77.7512 22.718 77.7512 22.831 77.7512 22.9441L77.6099 29.8951C77.6099 31.2514 77.4404 32.5512 77.2709 33.8227C77.2709 34.1618 77.1861 34.4726 77.1296 34.8117C77.0448 35.3768 76.9318 35.9419 76.7623 36.5353C76.7058 36.8461 76.621 37.1287 76.5362 37.4395C76.4797 37.7221 76.395 37.9481 76.3102 38.2307C76.2537 38.3437 76.2537 38.4567 76.1971 38.5698C75.9993 39.1914 75.8015 39.7848 75.5755 40.3782C75.0386 41.7345 74.3887 43.0342 73.5976 44.2775C73.315 44.7579 73.0042 45.2665 72.6369 45.7468C72.5804 45.8316 72.5238 45.9446 72.4391 46.0294C72.1 46.538 71.6761 47.0749 71.2523 47.5835C70.9132 48.0073 70.5176 48.4312 70.1503 48.8268C69.5852 49.4484 68.9918 50.0418 68.3419 50.6069C67.8333 51.059 67.2965 51.5394 66.7313 51.935C66.1379 52.4436 65.5163 52.9239 64.8664 53.3478C64.3013 53.7151 63.7644 54.0824 63.1428 54.4215C62.4929 54.8171 61.8147 55.2127 61.1366 55.58C60.6562 55.8343 60.1476 56.0886 59.6955 56.3712C59.2152 56.6537 58.7065 56.8798 58.1979 57.1341C58.4522 57.1341 58.7066 57.1906 58.9609 57.2189C63.4819 57.7275 67.0987 58.9425 69.8678 60.8074C69.9808 60.8922 70.0938 60.9487 70.2068 61.0335L70.4611 61.2313C70.8002 61.4856 71.0828 61.7116 71.3936 61.9942C71.4784 62.0507 71.5631 62.1072 71.6196 62.192C71.9305 62.4463 72.1847 62.7006 72.4391 62.9831C72.6086 63.1527 72.7499 63.3222 72.8629 63.4635C72.9477 63.5483 73.0325 63.6613 73.1172 63.7461C73.4563 64.1416 73.7389 64.5937 74.0214 65.0176C74.078 65.0741 74.1345 65.1589 74.191 65.2436C74.191 65.2436 74.1909 65.3001 74.2475 65.3284C74.304 65.4132 74.3322 65.4697 74.3605 65.5545C74.6431 65.95 74.8126 66.4304 75.0387 66.8542C75.1799 67.1368 75.293 67.3911 75.3777 67.6737C75.4342 67.8432 75.4907 68.0127 75.5755 68.154C75.632 68.3801 75.7168 68.5496 75.8016 68.7757C75.8016 68.8887 75.8581 69.0017 75.8863 69.1147C75.9428 69.3125 75.9994 69.5103 76.0559 69.7364C76.1407 70.1037 76.2537 70.5275 76.3384 70.8949C76.3949 71.2622 76.4514 71.6013 76.508 71.9686C76.5645 72.3359 76.621 72.675 76.6492 73.0424C76.734 73.9748 76.7905 74.9355 76.7905 75.9527V76.2918L76.3384 100.818C76.3384 102.005 76.2254 103.192 76.1124 104.322C76.0559 104.718 75.9711 105.085 75.9146 105.452C75.8016 106.215 75.6885 106.978 75.5473 107.713C75.4342 108.108 75.293 108.532 75.2082 108.956C75.0104 109.606 74.8691 110.284 74.6713 110.962C74.3605 111.923 74.0214 112.855 73.6259 113.788C73.5411 113.986 73.4563 114.155 73.3715 114.353C73.0324 115.088 72.6651 115.822 72.2978 116.557C72.1848 116.755 72.0717 116.953 71.9587 117.15C71.5066 117.998 70.9698 118.846 70.4329 119.637C70.3199 119.806 70.2069 119.948 70.0938 120.061C69.6135 120.795 69.0483 121.474 68.5114 122.152C68.3419 122.349 68.2289 122.519 68.0876 122.66C67.3812 123.508 66.6466 124.299 65.8554 125.119C65.1207 125.853 64.3296 126.588 63.5101 127.294C63.058 127.662 62.5777 128.057 62.0973 128.453C61.6735 128.792 61.2214 129.187 60.7693 129.527C59.9216 130.176 59.0456 130.77 58.1979 131.363C58.0001 131.476 57.8306 131.618 57.6328 131.731C56.3048 132.578 54.9202 133.369 53.5074 134.104C53.027 134.358 52.4902 134.613 52.0098 134.839C51.586 135.065 51.1339 135.234 50.7383 135.432C50.0884 135.743 49.4385 135.997 48.7604 136.252C48.3648 136.421 47.9127 136.591 47.5171 136.76C46.7542 137.043 46.0195 137.269 45.2566 137.523C44.8893 137.636 44.5219 137.777 44.1546 137.89C43.0243 138.229 41.8376 138.54 40.6508 138.851C38.7294 139.275 36.8362 139.642 35.0278 139.897C27.1726 140.942 20.6172 139.897 15.3333 136.788L43.4199 155.861C43.759 156.087 44.0981 156.285 44.4654 156.511C49.7776 159.619 56.3048 160.637 64.16 159.619C65.9684 159.365 67.8616 159.026 69.783 158.574C70.9698 158.263 72.1565 157.981 73.2868 157.613C73.6541 157.5 74.0214 157.359 74.3887 157.274C75.1517 157.02 75.8863 156.794 76.6492 156.511C77.0448 156.342 77.4969 156.172 77.8925 156.003C78.5707 155.748 79.2206 155.494 79.8705 155.183C80.266 154.985 80.7181 154.816 81.142 154.618C81.4811 154.449 81.8201 154.279 82.1592 154.138C82.3287 154.053 82.4983 153.94 82.6396 153.855C84.0524 153.12 85.4369 152.329 86.765 151.482C86.765 151.482 86.765 151.482 86.8215 151.482C86.991 151.369 87.1606 151.227 87.3019 151.114C88.2061 150.549 89.0537 149.928 89.9014 149.278C89.9862 149.221 90.0992 149.165 90.184 149.08C90.5513 148.797 90.8904 148.515 91.2577 148.204C91.7381 147.837 92.2184 147.441 92.6705 147.045C92.7835 146.961 92.8966 146.876 92.9813 146.791C93.6877 146.169 94.3659 145.52 95.0158 144.87L95.3266 144.559C95.92 143.965 96.4569 143.344 97.022 142.722C97.1068 142.637 97.1915 142.524 97.2763 142.411C97.4458 142.242 97.5588 142.072 97.7001 141.903C97.9544 141.564 98.2087 141.281 98.4913 140.942C98.7739 140.575 98.9999 140.179 99.2825 139.84C99.3955 139.671 99.5085 139.529 99.6216 139.416C99.6216 139.331 99.7346 139.247 99.7911 139.162C100.158 138.569 100.554 137.975 100.893 137.354C100.978 137.212 101.063 137.071 101.147 136.93C101.26 136.732 101.373 136.562 101.486 136.336C101.656 136.025 101.826 135.743 101.967 135.432C102.193 135.037 102.334 134.556 102.56 134.132C102.645 133.935 102.73 133.765 102.814 133.567C102.871 133.482 102.899 133.398 102.928 133.313C103.267 132.493 103.577 131.646 103.86 130.826C103.86 130.826 103.86 130.77 103.86 130.742C104.086 130.092 104.199 129.414 104.397 128.735C104.482 128.34 104.623 127.944 104.708 127.549V127.492C104.849 126.757 104.962 125.995 105.075 125.232C105.132 124.864 105.216 124.497 105.273 124.101C105.386 122.971 105.471 121.784 105.499 120.598L105.951 96.0712V95.7321C105.951 94.7149 105.894 93.7824 105.81 92.8217C105.81 92.6804 105.81 92.5391 105.81 92.4261C105.81 92.2001 105.725 91.974 105.697 91.748C105.64 91.4089 105.584 91.0416 105.527 90.6742C105.442 90.3069 105.329 89.9113 105.245 89.5157C105.16 89.2049 105.047 88.8941 104.962 88.555C104.905 88.4137 104.877 88.2725 104.849 88.1877C104.764 87.9334 104.623 87.7073 104.538 87.4813C104.425 87.1705 104.312 86.9162 104.199 86.6336C104.199 86.5488 104.143 86.4358 104.086 86.351C103.86 85.9272 103.662 85.5033 103.408 85.1078C103.408 85.1078 103.408 85.0512 103.351 85.023C103.097 84.6274 102.871 84.2601 102.588 83.921C102.475 83.7797 102.362 83.6667 102.278 83.5537C102.193 83.4689 102.108 83.3559 102.023 83.2711C101.939 83.1581 101.854 83.0451 101.769 82.9603C101.486 82.6495 101.204 82.3669 100.893 82.0843C100.893 82.0278 100.808 81.9996 100.752 81.9713C100.695 81.8866 100.611 81.83 100.526 81.7735C100.328 81.604 100.158 81.4345 99.9324 81.2649C99.6498 81.0389 99.3672 80.8411 99.0282 80.615L90.8621 75.0768C91.3425 74.7942 91.8511 74.5399 92.3315 74.2291C92.5293 74.1161 92.6988 74.0313 92.8966 73.9183C93.8008 73.3249 94.6767 72.7315 95.4679 72.1099C95.5244 72.0534 95.5809 71.9969 95.6374 71.9686C95.7222 71.8838 95.8352 71.7991 95.92 71.7143C96.4004 71.347 96.9372 70.9231 97.3893 70.5276C97.8979 70.0755 98.4065 69.5668 98.8869 69.0865C98.8869 69.0865 98.9717 69.0017 98.9999 68.9735C99.0564 68.9169 99.0847 68.8887 99.1412 68.8322C99.4803 68.4648 99.8194 68.0975 100.158 67.7302C100.526 67.3063 100.893 66.8542 101.232 66.4021C101.402 66.2043 101.515 66.0066 101.656 65.8088C101.713 65.724 101.769 65.6392 101.854 65.5262C101.967 65.3567 102.108 65.2154 102.221 65.0458C102.532 64.5937 102.815 64.1134 103.097 63.6613C103.408 63.1809 103.662 62.6441 103.916 62.1354C104.171 61.5986 104.425 61.0617 104.651 60.4683C104.934 59.8184 105.16 59.1403 105.386 58.4621C105.386 58.4621 105.386 58.3774 105.386 58.3491C105.442 58.2361 105.442 58.1231 105.499 58.01C105.725 57.2471 105.923 56.456 106.121 55.6365C106.177 55.2974 106.205 54.9584 106.29 54.591C106.347 54.252 106.403 53.9411 106.431 53.6021C106.629 52.3305 106.77 51.0308 106.77 49.6745L106.912 42.7234V42.6104C106.912 42.6104 106.912 42.4691 106.912 42.4126L107.025 42.2713Z" fill="#828282"/>
<path d="M77.1299 15.1453C77.2429 15.654 77.3559 16.1343 77.4407 16.6712C77.4124 16.4734 77.3842 16.2756 77.3559 16.0778C77.2994 15.767 77.2147 15.4562 77.1582 15.1453H77.1299Z" fill="#828282"/>
<path d="M28.6702 112.205C28.6702 112.545 28.7267 112.855 28.7832 113.166C28.7832 113.223 28.7832 113.279 28.7832 113.307C28.7832 113.364 28.7832 113.449 28.7832 113.505C28.868 113.929 28.981 114.325 29.0658 114.72C29.1223 114.975 29.1788 115.257 29.2353 115.511C29.2353 115.568 29.2353 115.625 29.2353 115.681C29.2353 115.738 29.2918 115.794 29.3201 115.851C29.5461 116.5 29.8287 117.066 30.1678 117.574C30.1678 117.574 30.2243 117.631 30.2243 117.659C30.2243 117.659 30.2243 117.715 30.2808 117.715C30.2808 117.772 30.3373 117.8 30.3656 117.857C30.3656 117.857 30.5068 118.055 30.5916 118.139C30.6764 118.252 30.7894 118.365 30.8742 118.478L30.959 118.563C30.959 118.563 31.072 118.648 31.1285 118.704C31.2415 118.817 31.3828 118.93 31.4958 119.044C31.6089 119.157 31.7219 119.241 31.8349 119.326C33.502 120.428 35.7908 120.824 38.7294 120.428C39.4923 120.315 40.2553 120.174 41.0747 120.004C44.6632 119.157 47.4889 117.772 49.6363 115.822L28.755 101.666L28.5854 110.595C28.5854 111.188 28.5854 111.753 28.5854 112.319L28.6702 112.205Z" fill="#828282"/>
<path d="M77.7231 18.6491C77.6666 18.2253 77.6383 17.7732 77.5536 17.3776C77.5536 17.1233 77.4688 16.9255 77.4405 16.6712C77.3275 16.1626 77.2428 15.6257 77.1015 15.1453C77.1015 14.9758 77.0449 14.8063 76.9884 14.6367C76.9037 14.2411 76.7906 13.8173 76.6494 13.45C76.5081 12.9979 76.3385 12.5458 76.1972 12.1219C76.0277 11.7828 75.8864 11.4438 75.8017 11.1047C74.7562 8.87246 73.3716 6.95103 71.6198 5.36868L71.5067 5.25566C71.3372 5.11438 71.1959 4.9731 71.0264 4.86007C70.6308 4.521 70.1787 4.18192 69.7266 3.8711C69.2462 3.53203 68.7094 3.19295 68.1725 2.88213C64.6405 0.960712 60.3738 0 55.4007 0C53.564 0 51.5861 0.141281 49.5234 0.395587C47.5737 0.678149 45.511 1.04548 43.3635 1.55409C32.9652 4.01238 24.6014 8.33559 18.272 14.6085C11.2079 21.5312 7.6194 29.8103 7.42161 39.3892L7.22384 49.5614L12.4512 48.3464L29.8288 44.2492L30.0266 35.0942C30.0266 34.5291 30.0266 34.0205 30.1396 33.4554C30.1961 32.8337 30.2809 32.2404 30.4222 31.6752C31.3264 27.352 33.8694 24.1873 38.0513 22.1529C38.2491 22.0399 38.4187 21.9551 38.6447 21.8703C38.9273 21.729 39.1816 21.5878 39.4924 21.5312C39.549 21.5312 39.6337 21.4747 39.7185 21.4465C39.8598 21.39 40.0011 21.3334 40.1141 21.2769C41.0183 20.9379 41.9507 20.6836 42.9679 20.4293C43.9004 20.2032 44.7481 20.0619 45.5393 19.9489C46.3587 19.8359 47.1216 19.7794 47.828 19.7794C48.3084 19.7794 48.817 19.7794 49.2408 19.8641C50.1733 19.9772 50.9927 20.2032 51.6991 20.514C52.0382 20.6553 52.3773 20.8248 52.6881 21.0226C52.9141 21.1639 53.0837 21.3052 53.2815 21.4465C53.7901 21.8986 54.2422 22.4637 54.6095 23.1136C55.4572 24.5829 55.8245 26.5326 55.768 28.9909L55.6832 33.2293C55.5137 42.4126 50.7667 48.7137 41.4421 52.0762C40.0576 52.5848 38.5317 53.0369 36.9211 53.4043L27.54 55.6365L27.3988 63.2092L27.1727 74.7095L32.4001 73.4944L36.2995 72.5902C37.571 72.2794 38.786 72.0534 39.9728 71.9121C41.1313 71.7426 42.2333 71.6578 43.2505 71.6578C43.7309 71.6578 44.2112 71.6578 44.6351 71.7143C44.9741 71.7143 45.2567 71.7708 45.5675 71.8273C45.8218 71.8273 46.0479 71.8838 46.2739 71.9404C46.6412 72.0251 47.0368 72.1099 47.4041 72.2229C47.7432 72.3359 48.1106 72.449 48.4497 72.562C48.7887 72.7033 49.1278 72.8445 49.4386 72.9858C49.7494 73.1554 50.0037 73.3249 50.2863 73.4662C50.2863 73.4662 50.2863 73.5227 50.3428 73.5227C51.0775 74.0031 51.7274 74.6247 52.2642 75.3311C53.9879 77.5633 54.7791 80.7845 54.7225 84.9947L54.553 93.1608L54.327 104.068C54.2139 109.041 52.6598 112.912 49.6364 115.624C47.4889 117.574 44.6633 118.959 41.0748 119.806C40.2554 120.004 39.4924 120.145 38.7295 120.23C37.9948 120.343 37.2884 120.372 36.6385 120.372C36.1017 120.372 35.5648 120.372 35.0562 120.258C33.8129 120.089 32.7109 119.722 31.835 119.128C31.722 119.043 31.6089 118.959 31.4959 118.846C31.3546 118.733 31.2133 118.62 31.1286 118.507C31.0721 118.45 31.0156 118.422 30.959 118.365L30.8743 118.281C30.8743 118.281 30.6765 118.055 30.5917 117.941C30.5069 117.857 30.4222 117.772 30.3656 117.659C30.3656 117.659 30.2809 117.574 30.2526 117.518C30.2526 117.518 30.2526 117.518 30.1961 117.461C30.1961 117.461 30.1961 117.405 30.1396 117.376C29.8006 116.896 29.518 116.303 29.2919 115.653C29.2919 115.54 29.2071 115.427 29.1789 115.314C28.9811 114.72 28.8398 114.042 28.7551 113.307C28.7551 113.251 28.7551 113.166 28.7551 113.11C28.7551 113.11 28.7551 113.025 28.7551 112.968C28.6986 112.658 28.6703 112.347 28.642 112.008C28.642 111.471 28.642 110.906 28.642 110.284L28.7268 105.791L28.8116 101.327L6.20661 106.639L6.0088 116.077C5.81101 125.825 8.94744 132.635 15.4464 136.449C16.181 136.873 16.9439 137.269 17.7351 137.608C21.1824 139.162 25.11 139.925 29.4897 139.925C31.2699 139.925 33.1913 139.812 35.141 139.557C36.9494 139.303 38.8425 138.964 40.764 138.512C45.4262 137.438 49.7494 135.856 53.7053 133.765C55.1181 133.059 56.5027 132.267 57.8025 131.391C60.7694 129.498 63.5102 127.294 65.9968 124.78C72.75 117.998 76.2538 109.888 76.4233 100.451L76.5928 91.7197V91.0981L76.9037 75.8962C76.9602 73.2401 76.6494 70.8384 75.9995 68.7191C75.2083 66.0065 73.852 63.746 71.9023 61.9659C70.4048 60.5531 68.5963 59.4511 66.4206 58.6034C64.3297 57.784 61.8996 57.2189 59.187 56.908C58.9327 56.908 58.6784 56.8515 58.4241 56.8233C58.7067 56.682 58.9327 56.569 59.2153 56.4559C59.4696 56.3429 59.6956 56.2016 59.9217 56.0886C61.7866 55.1562 63.5102 54.1672 65.0926 53.0369C65.7425 52.6131 66.3641 52.1327 66.9575 51.6241C67.4944 51.2003 68.0312 50.7482 68.5681 50.2961C69.218 49.731 69.8113 49.1376 70.3765 48.5159C70.7438 48.1204 71.1394 47.6965 71.4785 47.2727C71.8741 46.7641 72.2979 46.2554 72.6652 45.7186C72.75 45.6338 72.8065 45.5208 72.863 45.436C73.2021 44.9557 73.5129 44.447 73.8237 43.9667C74.6149 42.7234 75.2648 41.4236 75.8017 40.0673C75.8864 39.8413 75.9995 39.6152 76.0842 39.3609C76.282 38.9088 76.4233 38.4002 76.5364 37.9199C76.6211 37.6373 76.7059 37.4112 76.7624 37.1287C76.8472 36.8179 76.9319 36.5353 76.9884 36.2245C77.1297 35.6594 77.2428 35.1225 77.3275 34.5009C77.6383 32.9185 77.7796 31.3079 77.8079 29.5843L77.9492 22.6332C77.9492 21.1639 77.9491 19.7794 77.7513 18.4513L77.7231 18.6491ZM75.067 29.7256C75.067 31.3079 74.8975 32.749 74.6432 34.2183C74.5302 34.7552 74.4171 35.292 74.3041 35.8006C74.3041 35.8572 74.3041 35.8854 74.3041 35.9419C74.2476 36.168 74.1911 36.3658 74.1063 36.6201C74.1063 36.6766 74.1063 36.7331 74.1063 36.8179C74.1063 36.9309 74.0215 37.0722 73.9933 37.1852L73.9368 37.4112C73.8238 37.7786 73.7107 38.2024 73.5694 38.5415C73.5694 38.598 73.5694 38.6545 73.5129 38.7393C73.5129 38.8241 73.4282 38.9371 73.3999 39.0218L73.2869 39.3044C72.8065 40.5477 72.2131 41.7062 71.535 42.8082C71.2242 43.2603 70.9416 43.7406 70.6308 44.1645C70.6308 44.1645 70.6308 44.221 70.5743 44.2775C70.5178 44.2775 70.4895 44.3623 70.4612 44.4188C70.1787 44.7861 69.9244 45.1252 69.6418 45.4925L69.3592 45.8316C69.0484 46.1989 68.7376 46.5663 68.342 46.9618C67.8052 47.527 67.2683 48.0638 66.7032 48.5442C66.2511 48.968 65.7142 49.3919 65.1491 49.844C64.6687 50.2396 64.1319 50.6634 63.4537 51.0873C62.0126 52.1327 60.4303 53.0369 58.6784 53.9129C58.5936 53.9694 58.5089 53.9976 58.4241 54.0542C58.3111 54.1389 58.1698 54.2237 57.9438 54.3367L57.6046 54.5063L57.1808 54.7323C56.1071 55.2409 55.5137 56.4559 55.7115 57.6427C55.9375 58.8012 56.8983 59.7337 58.1133 59.8467L58.4806 59.9032H58.8479C66.9575 60.8639 71.7045 64.0851 73.3716 69.8776C73.9368 71.7143 74.2193 73.8335 74.1628 76.207L73.852 91.4371V92.0023L73.6824 100.733C73.4847 109.521 70.3482 116.839 64.0471 123.169C61.7018 125.514 59.1022 127.605 56.2484 129.442C55.1181 130.205 53.8183 130.939 52.3773 131.674C48.704 133.624 44.5786 135.121 40.1141 136.167C38.1361 136.619 36.3842 136.958 34.7454 137.184C32.9087 137.438 31.1286 137.523 29.4332 137.523C24.5449 137.523 20.2782 136.478 16.7744 134.415C15.3051 133.539 14.0336 132.522 12.9881 131.25C9.93642 127.803 8.55187 122.886 8.66489 116.416L8.80618 109.097L25.986 105.057V106.724L25.8729 110.567C25.8729 111.216 25.8729 111.81 25.8729 112.488C25.8729 112.827 25.9577 113.194 25.986 113.534C25.986 113.703 26.0425 113.844 26.0707 113.957C26.1555 114.749 26.3533 115.54 26.5793 116.359C26.5793 116.444 26.6359 116.557 26.6924 116.698C26.6924 116.698 26.6924 116.755 26.6924 116.783C26.9749 117.602 27.3422 118.394 27.8508 119.128C27.8508 119.128 27.8508 119.147 27.8508 119.185C27.8508 119.185 27.9356 119.326 27.9921 119.383C27.9921 119.439 28.0769 119.496 28.1052 119.552C28.2465 119.75 28.3595 119.891 28.4442 120.004C28.5008 120.004 28.529 120.089 28.5855 120.145C28.6703 120.258 28.8398 120.428 28.9246 120.513C29.0376 120.598 29.1224 120.682 29.2354 120.767C29.3484 120.88 29.4897 120.993 29.6028 121.106C29.7723 121.276 29.9418 121.417 30.0831 121.502C30.0831 121.502 30.1679 121.558 30.1961 121.587C31.9197 122.717 34.039 123.31 36.5255 123.31C37.0059 123.31 37.571 123.31 38.1361 123.225C38.4187 123.225 38.7013 123.169 39.0121 123.141C39.9163 122.999 40.7639 122.858 41.5834 122.66C45.624 121.7 48.8452 120.145 51.3035 117.885C54.9203 114.664 56.7852 110.115 56.9265 104.35L57.1526 93.4433L57.3221 85.2773C57.3786 82.3669 57.0396 79.8521 56.2766 77.7046C55.4007 75.1051 53.9314 73.0706 51.9252 71.6295C51.8121 71.5448 51.6708 71.4317 51.5578 71.347C51.247 71.1774 50.9645 71.0079 50.6254 70.8101C50.1733 70.5558 49.6929 70.3863 49.3821 70.2732C49.0148 70.1037 48.5344 69.9342 48.0541 69.8211C47.6302 69.6799 47.1781 69.5951 46.839 69.5103C46.5282 69.4255 46.2174 69.369 45.8501 69.3408C45.511 69.2843 45.1437 69.256 44.7198 69.1995C44.2395 69.1995 43.7026 69.143 43.1657 69.143C42.0072 69.143 40.7922 69.2278 39.5489 69.4255C38.4187 69.5668 37.1472 69.7646 35.5931 70.1602L32.4001 70.9231L29.9136 71.4882L30.0831 63.4635L30.1961 57.9818L37.5145 56.2299C39.3511 55.806 40.9335 55.3257 42.3181 54.8171C52.6033 51.0873 58.1698 43.7124 58.3393 33.4554L58.4241 29.2169C58.4806 27.4933 58.3111 25.9675 57.9438 24.5829C57.4069 22.5202 56.4179 20.8248 54.9768 19.5816C54.6943 19.3273 54.44 19.1577 54.1291 18.9599C53.7053 18.6491 53.225 18.4231 52.6881 18.197C51.7274 17.7732 50.6819 17.4906 49.4951 17.3493C48.9865 17.2646 48.3649 17.2363 47.7433 17.2363C46.9238 17.2363 46.0196 17.2928 45.1154 17.4341C44.2395 17.5471 43.307 17.7449 42.2333 17.971C41.0465 18.2818 40.0293 18.5643 39.0403 18.9317L38.7013 19.073C38.7013 19.073 38.5882 19.1295 38.5317 19.1295C38.1361 19.2707 37.7688 19.4403 37.4862 19.5533C37.2037 19.6663 36.9776 19.7794 36.7233 19.8924C31.7785 22.2942 28.7268 26.1088 27.7096 31.1949C27.5401 31.8165 27.427 32.4947 27.3705 33.2858C27.2575 33.9075 27.2292 34.5009 27.2292 35.179L27.088 42.2148L12.423 45.6621L9.93641 46.2554L10.0777 39.587C10.2472 30.6297 13.525 23.1418 20.1087 16.6712C26.0707 10.7939 34.0672 6.64021 43.9004 4.3232C45.8501 3.8711 47.828 3.47552 49.8059 3.22121C51.7274 2.9669 53.5923 2.85388 55.3159 2.85388C57.3221 2.85388 59.2153 3.02342 60.9671 3.39075C63.1146 3.78634 65.0643 4.46448 66.7879 5.39694C67.2118 5.65124 67.6639 5.90555 68.0312 6.18811C68.0877 6.18811 68.116 6.24463 68.1725 6.27288C68.5116 6.49893 68.8507 6.75324 69.1615 7.0358C69.218 7.0358 69.2745 7.12057 69.331 7.14882C69.444 7.23359 69.5571 7.31836 69.6418 7.43139C69.6983 7.43139 69.7266 7.4879 69.7548 7.54441C71.1959 8.78769 72.3262 10.3983 73.2304 12.2632C73.3434 12.6023 73.5129 12.9131 73.6542 13.2804C73.7672 13.6195 73.9085 13.9868 73.9933 14.3542C73.9933 14.4107 73.9933 14.4672 74.0498 14.5237C74.1346 14.778 74.2193 15.0323 74.2758 15.3431C74.2758 15.4279 74.3324 15.5974 74.3606 15.6539L74.4171 15.9648C74.5302 16.3886 74.6149 16.869 74.6997 17.3211V17.5189C74.6997 17.5189 74.7845 17.8014 74.8127 17.8862C74.8127 17.971 74.8127 18.0275 74.8127 18.1122C74.8127 18.31 74.8692 18.4796 74.8975 18.7056L74.954 19.1577C75.0952 20.3162 75.1518 21.5595 75.1235 22.9723L74.9823 29.9233L75.067 29.7256Z" fill="#E0E0E0"/>
<path d="M75.2084 22.8028L75.0671 29.7538C75.0671 31.3362 74.8976 32.7772 74.6433 34.2466C74.5303 34.7834 74.4172 35.3203 74.3042 35.8289C74.3042 35.8854 74.3042 35.9137 74.3042 35.9702C74.2477 36.1962 74.1912 36.394 74.1064 36.6483C74.1064 36.7048 74.1064 36.7614 74.1064 36.8461C74.1064 36.9592 74.0216 37.1004 73.9934 37.2135L73.9369 37.4395C73.8239 37.8068 73.7108 38.2307 73.5695 38.5698C73.5695 38.6263 73.5695 38.6828 73.513 38.7675C73.513 38.8523 73.4283 38.9653 73.4 39.0501L73.287 39.3327C72.8066 40.5759 72.2132 41.7345 71.5351 42.8364C71.2243 43.2885 70.9417 43.7689 70.6309 44.1927C70.6309 44.1927 70.6309 44.2493 70.5744 44.3058C70.5179 44.3058 70.4896 44.3905 70.4613 44.447C70.1788 44.8144 69.9245 45.1535 69.6419 45.5208L69.3593 45.8599C69.0485 46.2272 68.7377 46.5945 68.3421 46.9901C67.8053 47.5552 67.2684 48.0921 66.7033 48.5725C66.2512 48.9963 65.7143 49.4201 65.1492 49.8722C64.6688 50.2678 64.132 50.6917 63.4538 51.1155C62.0127 52.161 60.4304 53.0652 58.6785 53.9411C58.5937 53.9977 58.509 54.0259 58.4242 54.0824C58.3112 54.1672 58.1699 54.252 57.9439 54.365L57.6047 54.5345L57.1809 54.7606C56.1072 55.2692 55.5138 56.4842 55.7116 57.671C55.9376 58.8295 56.8984 59.7619 58.1134 59.8749L58.4807 59.9315H58.848C66.9576 60.8922 71.7046 64.1134 73.3717 69.9059C73.9368 71.7426 74.2194 73.8618 74.1629 76.2353L73.8521 91.4654V92.0305L73.6825 100.762C73.4848 109.549 70.3483 116.868 64.0472 123.197C61.7019 125.542 59.1023 127.633 56.2485 129.47C55.1182 130.233 53.8184 130.968 52.3774 131.702C48.7041 133.652 44.5787 135.15 40.1142 136.195C38.1362 136.647 36.3843 136.986 34.7455 137.212C32.9088 137.467 31.1287 137.551 29.4333 137.551C24.545 137.551 20.2783 136.506 16.7745 134.443C15.3052 133.567 14.0337 132.55 12.9882 131.278C11.6319 128.057 11.0103 124.158 11.095 119.609L11.2928 110.171L25.9578 106.724L25.873 110.567C25.873 111.217 25.873 111.81 25.873 112.488C25.873 112.827 25.9578 113.194 25.9861 113.534C25.9861 113.703 26.0426 113.844 26.0708 113.957C26.1556 114.749 26.3534 115.54 26.5794 116.359C26.5794 116.444 26.636 116.557 26.6925 116.698C26.6925 116.698 26.6925 116.755 26.6925 116.783C26.975 117.602 27.3423 118.394 27.8509 119.128C27.8509 119.128 27.8509 119.147 27.8509 119.185C27.8509 119.185 27.9357 119.326 27.9922 119.383C27.9922 119.439 28.077 119.496 28.1053 119.552C28.2466 119.75 28.3596 119.891 28.4443 120.004C28.5009 120.004 28.5291 120.089 28.5856 120.145C28.6704 120.258 28.8399 120.428 28.9247 120.513C29.0377 120.598 29.1225 120.682 29.2355 120.767C29.3485 120.88 29.4898 120.993 29.6029 121.106C29.7724 121.276 29.9419 121.417 30.0832 121.502C30.0832 121.502 30.168 121.558 30.1962 121.587C31.9198 122.717 34.0391 123.31 36.5256 123.31C37.006 123.31 37.5711 123.31 38.1362 123.225C39.6338 123.819 41.4987 123.988 43.7592 123.678C44.5221 123.564 45.2851 123.423 46.1045 123.254C49.693 122.406 52.5186 121.021 54.6661 119.072C57.7178 116.359 59.2719 112.488 59.3567 107.515L59.5827 96.608L59.7522 88.442C59.8653 83.4689 58.7068 79.8521 56.305 77.6764C55.429 75.0768 53.9597 73.0423 51.9535 71.6013C51.8405 71.5165 51.6992 71.4035 51.5862 71.3187C51.2754 71.1492 50.9928 70.9796 50.6537 70.7818C50.2016 70.5275 49.7213 70.358 49.4105 70.245C49.0431 70.0754 48.5628 69.9059 48.0824 69.7929C47.6586 69.6516 47.2065 69.5668 46.8674 69.4821C46.5566 69.3973 46.2458 69.3408 45.8784 69.3125C45.5394 69.256 45.172 69.2278 44.7482 69.1712C44.2678 69.1712 43.731 69.1147 43.1941 69.1147C42.0356 69.1147 40.8206 69.1995 39.5773 69.3973C38.4471 69.5386 37.1755 69.7364 35.6214 70.132L32.4285 70.8949L32.5132 66.6282L32.6545 59.0555L42.0356 56.8233C43.6462 56.4559 45.172 56.0038 46.5566 55.4952C55.8812 52.1327 60.6282 45.8316 60.7977 36.6483L60.8825 32.4099C60.9672 28.9061 60.1196 26.3913 58.396 24.8937C58.2547 24.7807 58.1134 24.6677 58.0003 24.5829C57.4635 22.5202 56.4745 20.8248 55.0335 19.5816C54.7509 19.3273 54.4966 19.1577 54.1858 18.9599C53.7619 18.6491 53.2816 18.4231 52.7447 18.197C51.784 17.7732 50.7385 17.4906 49.5518 17.3493C49.0431 17.2646 48.4215 17.2363 47.7999 17.2363C46.9804 17.2363 46.0762 17.2928 45.172 17.4341C44.2961 17.5471 43.3636 17.7449 42.2899 17.971C41.1031 18.2818 40.0859 18.5643 39.097 18.9317L38.7579 19.073C38.7579 19.073 38.6448 19.1295 38.5883 19.1295C38.1927 19.2708 37.8254 19.4403 37.5429 19.5533C37.2603 19.6663 37.0342 19.7794 36.7799 19.8924C31.8351 22.2942 28.7834 26.1088 27.7662 31.1949C27.5966 31.8165 27.4836 32.4947 27.4271 33.2858C27.3141 33.9075 27.2858 34.5009 27.2858 35.179L27.1445 42.2148L12.4796 45.6621L12.5361 42.7799C12.7339 33.2011 16.3224 24.922 23.3865 17.9992C29.7159 11.7546 38.0515 7.40314 48.478 4.94485C50.6255 4.43623 52.6882 4.04065 54.6379 3.78634C56.8984 3.47552 59.0176 3.3625 61.0238 3.41901C63.1712 3.8146 65.1209 4.49275 66.8445 5.4252C67.2684 5.67951 67.7205 5.93381 68.0878 6.21638C68.1443 6.21638 68.1726 6.27289 68.2291 6.30115C68.5682 6.5272 68.9072 6.7815 69.2181 7.06406C69.2746 7.06406 69.3311 7.14883 69.3876 7.17709C69.5007 7.26186 69.6137 7.34663 69.6985 7.45965C69.755 7.45965 69.7832 7.51616 69.8115 7.57268C71.2525 8.81595 72.3828 10.4266 73.287 12.2915C73.4 12.6305 73.5695 12.9414 73.7108 13.3087C73.8239 13.6478 73.9651 14.0151 74.0499 14.3824C74.0499 14.4389 74.0499 14.4954 74.1064 14.552C74.1912 14.8063 74.276 15.0606 74.3325 15.3714C74.3325 15.4562 74.389 15.6257 74.4172 15.6822L74.4737 15.993C74.5867 16.4169 74.6715 16.8972 74.7563 17.3493V17.5471C74.7563 17.5471 74.841 17.8297 74.8693 17.9145C74.8693 17.9992 74.8693 18.0557 74.8693 18.1405C74.8693 18.3383 74.9258 18.5078 74.9541 18.7339L75.0106 19.186C75.1519 20.3445 75.2084 21.5878 75.1801 23.0006L75.2084 22.8028Z" fill="#E4675B"/>
<path d="M98.8869 28.1149C99.0282 27.9171 90.4665 21.9833 85.8608 18.9034C82.4983 16.6712 82.3005 16.7559 82.1875 16.9537C82.0745 17.1515 82.1027 17.4058 85.4087 19.6098C90.0145 22.6897 98.7739 28.3127 98.9152 28.1149H98.8869Z" fill="#333333"/>
<path d="M102.476 35.4051C102.617 35.2073 92.1624 27.9454 86.5111 24.1591C82.414 21.4182 82.1879 21.4747 82.0749 21.6725C81.9336 21.8703 82.0184 22.1529 86.059 24.8655C91.682 28.6518 102.363 35.6028 102.476 35.4051Z" fill="#333333"/>
<path d="M102.871 40.4064C103.012 40.2086 92.3032 32.8337 86.5389 28.9626C82.357 26.1652 82.131 26.25 81.9897 26.4195C81.8484 26.6173 81.9332 26.8999 86.0586 29.669C91.8229 33.5401 102.73 40.6042 102.843 40.4064H102.871Z" fill="#333333"/>
<path d="M102.871 45.21C103.013 45.0122 92.2752 37.609 86.4827 33.7097C82.2725 30.8841 82.0465 30.9688 81.9335 31.1666C81.7922 31.3644 81.877 31.647 86.0306 34.4161C91.8232 38.2872 102.758 45.4077 102.9 45.21H102.871Z" fill="#333333"/>
<path d="M102.871 49.9287C103.012 49.7309 91.9642 42.13 86.0304 38.1459C81.7072 35.2637 81.4812 35.3203 81.3399 35.5181C81.1986 35.7158 81.2833 35.9984 85.55 38.8523C91.4838 42.8364 102.73 50.1265 102.871 49.9287Z" fill="#333333"/>
<path d="M102.307 54.4497C102.448 54.2519 91.1171 46.4532 85.0138 42.3561C80.5775 39.3892 80.3515 39.4739 80.2102 39.6435C80.0689 39.8413 80.1537 40.1238 84.5334 43.0625C90.6368 47.1596 102.165 54.6475 102.307 54.4497Z" fill="#333333"/>
<path d="M100.017 58.01C100.158 57.8122 89.2513 50.2961 83.374 46.3402C79.1073 43.4863 78.8812 43.5711 78.7399 43.7406C78.5987 43.9384 78.6834 44.221 82.8936 47.0183C88.7709 50.946 99.8756 58.1795 100.017 57.9818V58.01Z" fill="#333333"/>
<path d="M99.3392 61.9659C99.4805 61.7681 87.952 53.8281 81.7639 49.6744C77.2711 46.651 77.0168 46.7358 76.9038 46.9336C76.7625 47.1314 76.8473 47.4139 81.3118 50.3808C87.4999 54.5345 99.2263 62.1637 99.3675 61.9659H99.3392Z" fill="#333333"/>
<path d="M96.8523 65.2719C96.9936 65.0741 85.6063 57.0776 79.503 52.9239C75.0668 49.9005 74.8125 49.957 74.6994 50.1548C74.5582 50.3526 74.6429 50.6352 79.0226 53.6303C85.1542 57.8122 96.711 65.4979 96.8523 65.3001V65.2719Z" fill="#333333"/>
<path d="M93.9422 67.928C94.0834 67.7302 82.8375 59.9597 76.7624 55.9191C72.3544 52.9804 72.1284 53.0369 71.9871 53.2347C71.8458 53.4325 71.9306 53.7151 76.282 56.6255C82.3289 60.6944 93.8009 68.1258 93.9139 67.928H93.9422Z" fill="#333333"/>
<path d="M90.0431 70.2167C90.1844 70.0189 79.334 62.531 73.485 58.6317C69.2465 55.806 69.0205 55.8626 68.8792 56.0604C68.7379 56.2581 68.8227 56.5407 73.0046 59.3381C78.8536 63.2374 89.9018 70.4145 90.0148 70.2167H90.0431Z" fill="#333333"/>
<path d="M99.0851 85.3621C99.2264 85.1643 89.9866 78.6088 84.9852 75.1616C81.3684 72.675 81.1424 72.7598 81.0294 72.9576C80.8881 73.1554 80.9446 73.4097 84.5049 75.868C89.5062 79.287 98.9438 85.5598 99.0851 85.3621Z" fill="#333333"/>
<path d="M101.939 91.7762C102.08 91.5784 91.3147 84.147 85.4939 80.2477C81.2837 77.422 81.0576 77.5068 80.9164 77.7046C80.7751 77.9024 80.8599 78.185 85.0136 80.9541C90.8061 84.8534 101.798 91.974 101.911 91.7762H101.939Z" fill="#333333"/>
<path d="M101.939 96.5515C102.08 96.3537 91.2579 88.8941 85.4371 84.9947C81.1987 82.1691 80.9727 82.2256 80.8596 82.4234C80.7184 82.6212 80.8031 82.9037 84.985 85.7011C90.8058 89.6005 101.826 96.7493 101.967 96.5515H101.939Z" fill="#333333"/>
<path d="M101.939 101.355C102.08 101.157 91.2295 93.6694 85.3804 89.7418C81.142 86.8879 80.916 86.9726 80.7747 87.1704C80.6334 87.3682 80.7182 87.6508 84.9001 90.4482C90.7491 94.3758 101.797 101.553 101.939 101.355Z" fill="#333333"/>
<path d="M101.656 105.961C101.798 105.763 91.032 98.3317 85.2395 94.4606C81.0293 91.6349 80.8033 91.7197 80.662 91.9175C80.5207 92.1153 80.6055 92.3978 84.7591 95.167C90.5516 99.0381 101.515 106.159 101.656 105.961Z" fill="#333333"/>
<path d="M101.657 110.764C101.798 110.567 91.0041 103.107 85.1834 99.2076C80.9732 96.382 80.7188 96.4667 80.6058 96.6363C80.4645 96.8341 80.5493 97.1166 84.703 99.8857C90.5238 103.785 101.515 110.934 101.657 110.736V110.764Z" fill="#333333"/>
<path d="M101.459 115.427C101.6 115.229 90.8626 107.826 85.0701 103.955C80.8599 101.157 80.6339 101.214 80.5209 101.412C80.3796 101.609 80.4644 101.892 84.618 104.661C90.4106 108.532 101.346 115.624 101.487 115.427H101.459Z" fill="#333333"/>
<path d="M101.458 120.372C101.6 120.174 90.6927 112.658 84.8154 108.702C80.5487 105.848 80.3226 105.933 80.1813 106.102C80.0401 106.3 80.1248 106.582 84.335 109.38C90.2123 113.307 101.317 120.541 101.458 120.343V120.372Z" fill="#333333"/>
<path d="M43.9004 116.585C44.0417 116.387 38.56 112.488 35.5648 110.51C33.4173 109.069 33.2478 109.182 33.1065 109.38C32.9652 109.578 32.9652 109.804 35.0844 111.216C38.0513 113.223 43.7591 116.783 43.8721 116.585H43.9004Z" fill="#333333"/>
<path d="M39.4925 118.422C39.6338 118.224 36.3843 115.822 34.6041 114.635C33.3043 113.76 33.1631 113.901 33.0501 114.099C32.9088 114.296 32.8805 114.494 34.1521 115.342C35.9322 116.529 39.3794 118.62 39.5207 118.422H39.4925Z" fill="#333333"/>
<path d="M100.639 124.949C100.78 124.751 89.7322 117.122 83.7702 113.138C79.447 110.256 79.2209 110.312 79.0796 110.51C78.9383 110.708 79.0231 110.99 83.2898 113.844C89.2519 117.828 100.498 125.147 100.639 124.949Z" fill="#333333"/>
<path d="M100.102 128.961C100.243 128.764 88.9689 120.993 82.9221 116.953C78.5141 114.014 78.2881 114.07 78.1468 114.268C78.0055 114.466 78.0903 114.749 82.4417 117.659C88.5168 121.728 99.9606 129.159 100.102 128.961Z" fill="#333333"/>
<path d="M51.784 30.4884C51.9252 30.2906 47.4043 27.0412 44.9177 25.4023C43.1376 24.2156 42.968 24.3286 42.8267 24.5264C42.6855 24.7242 42.6572 24.922 44.4374 26.1087C46.8957 27.7476 51.6427 30.6862 51.7557 30.4884H51.784Z" fill="#333333"/>
<path d="M51.7838 26.024C51.9251 25.8262 50.3427 24.4134 49.4385 23.7352C48.7886 23.2549 48.6474 23.3961 48.5061 23.5657C48.3648 23.7635 48.28 23.933 48.9299 24.4134C49.8341 25.0915 51.6425 26.1935 51.7838 26.024Z" fill="#333333"/>
<path d="M51.7841 35.292C51.9254 35.0942 45.1722 30.3472 41.5271 27.9171C38.871 26.137 38.7015 26.25 38.5602 26.4478C38.4189 26.6456 38.4472 26.8716 41.0467 28.6235C44.6918 31.0818 51.6428 35.4898 51.7841 35.292Z" fill="#333333"/>
<path d="M50.7666 39.3892C50.9079 39.1914 43.194 33.7944 39.0121 31.0253C35.9887 28.9909 35.7909 29.1039 35.6496 29.3017C35.5083 29.4995 35.5365 29.7538 38.5317 31.7317C42.7136 34.5291 50.6254 39.587 50.7384 39.4174L50.7666 39.3892Z" fill="#333333"/>
<path d="M48.5064 42.7799C48.6477 42.5821 41.2446 37.27 37.2322 34.5008C34.3218 32.4946 34.124 32.6077 33.9827 32.7772C33.8414 32.975 33.8697 33.2011 36.7518 35.179C40.7642 37.9481 48.3934 42.9494 48.5064 42.7517V42.7799Z" fill="#333333"/>
<path d="M45.6241 45.549C45.7654 45.3512 39.6621 41.0563 36.3561 38.8523C33.9543 37.2417 33.7848 37.3547 33.6435 37.5525C33.5022 37.7503 33.5022 37.9764 35.8758 39.5587C39.1817 41.7627 45.4828 45.7468 45.5959 45.5773L45.6241 45.549Z" fill="#333333"/>
<path d="M41.9508 47.8378C42.0921 47.64 37.8536 44.6166 35.5366 43.0907C33.8695 41.9887 33.7 42.1018 33.5869 42.2995C33.4457 42.4973 33.4175 42.6951 35.0846 43.7971C37.4016 45.323 41.8378 48.0356 41.9508 47.8378Z" fill="#333333"/>
<path d="M117.006 13V4.97323H120.398C120.744 4.97323 121.061 5.04483 121.347 5.18803C121.634 5.33123 121.883 5.52719 122.094 5.77591C122.312 6.01709 122.478 6.28841 122.591 6.58989C122.712 6.88383 122.772 7.1853 122.772 7.49431C122.772 7.87869 122.697 8.24046 122.546 8.57962C122.403 8.91878 122.195 9.20518 121.924 9.43883C121.66 9.67247 121.347 9.82698 120.986 9.90234L122.953 13H122.06L120.172 10.038H117.798V13H117.006ZM117.798 9.33708H120.42C120.737 9.33708 121.012 9.25041 121.246 9.07706C121.479 8.90371 121.66 8.6776 121.788 8.39874C121.916 8.11234 121.981 7.81086 121.981 7.49431C121.981 7.17023 121.905 6.87252 121.754 6.60119C121.611 6.32233 121.415 6.09999 121.167 5.93418C120.925 5.76083 120.654 5.67416 120.353 5.67416H117.798V9.33708ZM126.062 13V4.97323H128.787C129.639 4.97323 130.347 5.15411 130.912 5.51588C131.485 5.87012 131.915 6.35248 132.201 6.96296C132.487 7.56591 132.631 8.2367 132.631 8.97531C132.631 9.78929 132.472 10.4978 132.156 11.1007C131.847 11.7037 131.402 12.1709 130.822 12.5026C130.249 12.8342 129.571 13 128.787 13H126.062ZM131.839 8.97531C131.839 8.33467 131.719 7.76564 131.478 7.26821C131.244 6.77077 130.901 6.38262 130.449 6.10376C129.997 5.81736 129.443 5.67416 128.787 5.67416H126.854V12.2991H128.787C129.45 12.2991 130.008 12.1521 130.46 11.8582C130.912 11.5642 131.255 11.1685 131.489 10.6711C131.722 10.1661 131.839 9.60087 131.839 8.97531Z" fill="#828282"/>
</svg>
