<svg width="140" height="160" viewBox="0 0 140 160" fill="none" xmlns="http://www.w3.org/2000/svg">
<path d="M41.7842 52.9162C45.7835 42.741 50.5446 33.11 56.0403 23.9415L13 34.0623L41.0496 53.0522L41.7842 52.8889V52.9162Z" fill="#828282"/>
<path d="M81.1789 0L80.8796 15.5076L80.7163 15.7796C80.6075 15.9157 80.5259 16.0789 80.4443 16.2421C78.7847 18.7179 77.2339 21.2481 75.7104 23.8327C75.4927 24.1863 75.2479 24.5401 75.0302 24.8937C74.6766 25.5195 74.3229 26.1724 73.9692 26.7981C73.5883 27.4511 73.2346 28.104 72.8809 28.757C72.0648 30.2533 71.2486 31.7769 70.4868 33.3005C70.2419 33.763 69.9971 34.2254 69.7522 34.7152C69.6978 34.8512 69.6162 34.9601 69.5618 35.0961C68.5824 37.0549 67.6573 39.041 66.7323 41.027C66.6507 41.2175 66.5691 41.4351 66.4603 41.6256C65.6713 43.394 64.8823 45.1624 64.1477 46.9852C64.0933 47.1484 64.0389 47.2844 63.9573 47.4477C63.3588 48.9168 62.7874 50.4132 62.2161 51.9095C61.8624 52.8345 61.5087 53.7324 61.1551 54.6574C60.5021 56.4258 59.9036 58.2486 59.305 60.0714C59.0874 60.6972 58.8697 61.3229 58.6521 61.9759C58.6521 62.0031 58.6521 62.0303 58.6249 62.0575C57.6454 65.1318 56.7204 68.2877 55.877 71.4436C55.6322 72.3142 55.4145 73.1848 55.1969 74.0554C54.5167 76.64 53.891 79.279 53.3197 81.9453C53.2108 82.4622 53.0748 82.9519 52.966 83.4688C52.9116 83.6592 52.8844 83.8769 52.8571 84.0673C52.1226 87.6314 51.4424 91.2225 50.8439 94.8954C50.7079 95.7388 50.599 96.555 50.463 97.3984C49.9461 100.799 49.4836 104.254 49.0755 107.764C49.0211 108.199 48.9667 108.635 48.9122 109.097C48.5041 112.933 48.1777 116.851 47.9056 120.796C47.8512 121.721 47.7968 122.673 47.7424 123.598C47.4975 127.625 47.3343 131.705 47.2527 135.868L25.4604 141.01L53.5101 160L75.3023 154.858C75.3839 150.695 75.5744 146.642 75.792 142.588C75.8464 141.636 75.9008 140.711 75.9553 139.786C76.2273 135.841 76.5538 131.923 76.9619 128.087C77.0163 127.652 77.0707 127.216 77.1251 126.754C77.5332 123.244 77.9957 119.789 78.5126 116.388C78.6487 115.545 78.7575 114.702 78.8935 113.885C79.4921 110.213 80.145 106.594 80.9068 103.057C81.0428 102.35 81.2333 101.67 81.3693 100.962C81.9678 98.2962 82.5936 95.6572 83.2465 93.0726C83.4642 92.202 83.6818 91.3313 83.9267 90.4607C84.7973 87.2776 85.6951 84.1489 86.6745 81.0746C86.8922 80.3945 87.137 79.7415 87.3547 79.0886C87.9532 77.2657 88.5517 75.4701 89.2047 73.6745C89.5312 72.7495 89.9121 71.8517 90.2657 70.9267C90.8371 69.4303 91.4084 67.934 92.0069 66.4649C92.8231 64.506 93.6393 62.5744 94.5099 60.6427C94.5915 60.4523 94.6732 60.2347 94.782 60.017C95.7614 57.8677 96.768 55.7728 97.8019 53.7052C98.0467 53.2426 98.2916 52.7801 98.5364 52.2904C99.3254 50.7668 100.114 49.2433 100.931 47.747C101.284 47.094 101.665 46.4411 102.019 45.7881C102.59 44.7815 103.162 43.8021 103.76 42.8227C105.284 40.2653 106.862 37.7079 108.494 35.2321C108.657 34.9872 108.793 34.7423 108.956 34.5247L109.256 19.0172L81.2061 0.0271913L81.1789 0Z" fill="#828282"/>
<path d="M13.3536 15.9429L13.0271 34.0895L17.4617 33.0556L56.0674 23.9688C55.1152 25.5467 54.1902 27.1246 53.3196 28.757C48.9394 36.4836 45.1305 44.5095 41.8113 52.9434C31.5274 78.9254 26.0589 108.281 25.4332 141.037L29.895 140.003L47.1982 135.895C47.8511 102.704 53.374 73.3209 63.794 47.7742C65.78 42.9315 67.9565 38.1976 70.2691 33.6269C73.4794 27.3423 77.0162 21.3025 80.8795 15.562L81.1243 4.217L81.206 0.0544434L13.3536 15.9973V15.9429ZM78.2949 14.7186C74.5949 20.2415 71.1397 26.1724 67.9293 32.4299C65.5624 37.0549 63.3587 41.8704 61.3454 46.7675C51.0886 71.9333 45.457 101.207 44.6408 133.8L29.9766 137.256L28.1266 137.691C29.0516 106.757 34.4656 78.5989 44.2327 53.8956C47.7423 44.9448 51.932 36.266 56.7748 27.9408C57.2645 27.043 57.7814 26.1996 58.3255 25.3018C58.8424 24.404 58.788 23.2886 58.1895 22.418C57.6998 21.7378 56.8836 21.3569 56.0674 21.3569C55.8497 21.3569 55.6865 21.3569 55.4689 21.4385L17.5161 30.3622L15.7205 30.7703L15.9654 18.0378L78.5398 3.34638V4.7883L78.3221 14.7186H78.2949Z" fill="#E0E0E0"/>
<path d="M78.4583 4.76111L78.2679 14.6914C74.5678 20.2142 71.1126 26.1452 67.9023 32.4026C65.5354 37.0277 63.3317 41.8432 61.3184 46.7404C51.0616 71.9062 45.4299 101.18 44.6138 133.773L29.9496 137.228C31.1467 107.22 36.5607 80.1769 46.1101 56.0177C50.1094 45.8426 54.8705 36.2115 60.3662 27.043L56.7205 27.9136C57.2102 27.0158 57.7272 26.1724 58.2713 25.2746C58.7882 24.3768 58.7338 23.2613 58.1353 22.3907C57.6455 21.7106 56.8294 21.3297 56.0132 21.3297C55.7955 21.3297 55.6323 21.3297 55.4146 21.4114L17.4619 30.335L17.6796 19.0443L78.4583 4.76111Z" fill="#E4675B"/>
<path d="M105.12 20.6224C105.256 20.4319 94.7275 13.059 89.0686 9.22294C84.9605 6.4207 84.7428 6.50234 84.6068 6.69278C84.4708 6.88323 84.5524 7.15527 88.6061 9.9031C94.265 13.7392 104.984 20.8128 105.12 20.6224Z" fill="#333333"/>
<path d="M105.039 25.193C105.175 25.0025 94.646 17.6296 88.9871 13.7936C84.8789 10.9913 84.6613 11.073 84.5252 11.2634C84.3892 11.4538 84.4708 11.7259 88.5246 14.4737C94.1835 18.3098 104.903 25.3834 105.039 25.193Z" fill="#333333"/>
<path d="M104.957 29.7636C105.093 29.5732 94.5644 22.2003 88.9055 18.3642C84.7974 15.562 84.5797 15.6436 84.4437 15.834C84.3077 16.0245 84.3893 16.2965 88.443 19.0443C94.1019 22.8804 104.821 29.954 104.957 29.7636Z" fill="#333333"/>
<path d="M104.358 34.0622C104.494 33.8717 93.5031 26.1995 87.5994 22.2002C83.3008 19.2891 83.0831 19.3436 82.9471 19.5341C82.8111 19.7245 82.8927 19.9965 87.1369 22.8804C93.0406 26.9069 104.222 34.2526 104.358 34.0894V34.0622Z" fill="#333333"/>
<path d="M102.372 37.2998C102.508 37.1094 91.5716 29.4644 85.695 25.4651C81.4236 22.554 81.206 22.6356 81.07 22.8261C80.9339 23.0165 81.0156 23.2886 85.2325 26.1452C91.1091 30.1446 102.264 37.4903 102.372 37.2998Z" fill="#333333"/>
<path d="M100.196 40.5101C100.332 40.3196 89.4494 32.7291 83.6 28.7569C79.3558 25.8731 79.1382 25.9275 79.0022 26.1179C78.8661 26.3084 78.9478 26.5804 83.1375 29.4371C88.9869 33.4092 100.06 40.7005 100.196 40.5373V40.5101Z" fill="#333333"/>
<path d="M98.5908 44.0198C98.7268 43.8293 87.7627 36.1843 81.8861 32.1578C77.6147 29.2468 77.3699 29.3284 77.2611 29.4917C77.125 29.6821 77.2066 29.9542 81.4508 32.8108C87.3546 36.8101 98.5091 44.183 98.618 43.9926L98.5908 44.0198Z" fill="#333333"/>
<path d="M96.5504 47.0941C96.6864 46.9036 85.8039 39.2858 79.9273 35.3137C75.6832 32.4298 75.4383 32.4843 75.3295 32.6747C75.1935 32.8651 75.2751 33.1372 79.492 35.9939C85.3414 39.966 96.4415 47.2845 96.5776 47.0941H96.5504Z" fill="#333333"/>
<path d="M94.7005 50.7669C94.8365 50.5764 83.9268 42.9587 78.0503 38.9866C73.7789 36.1028 73.5612 36.1572 73.4252 36.3476C73.2892 36.5381 73.3708 36.8101 77.5877 39.6668C83.4643 43.6661 94.5645 50.9846 94.6733 50.7941L94.7005 50.7669Z" fill="#333333"/>
<path d="M92.9048 54.2765C93.0408 54.086 82.1583 46.4139 76.309 42.4146C72.0648 39.5035 71.82 39.5579 71.7112 39.7483C71.5751 39.9388 71.6567 40.2109 75.8465 43.0947C81.6958 47.0941 92.796 54.4669 92.9048 54.2765Z" fill="#333333"/>
<path d="M91.3268 57.7045C91.4629 57.5141 80.6076 49.9235 74.7582 45.9514C70.5141 43.0676 70.2964 43.1492 70.1604 43.3124C70.0243 43.5029 70.106 43.7749 74.2957 46.6043C80.1451 50.5765 91.1908 57.8677 91.3268 57.6773V57.7045Z" fill="#333333"/>
<path d="M89.7219 61.2685C89.8579 61.0781 79.0026 53.4331 73.1532 49.4338C68.9091 46.5227 68.6914 46.6043 68.5554 46.7675C68.4194 46.958 68.501 47.23 72.6907 50.0867C78.5401 54.086 89.5858 61.459 89.7219 61.2685Z" fill="#333333"/>
<path d="M88.2253 64.9141C88.3613 64.7236 77.506 57.1331 71.6567 53.161C67.4125 50.2771 67.1948 50.3587 67.0588 50.5219C66.9228 50.6852 67.0044 50.9845 71.1942 53.814C77.0435 57.7861 88.0892 65.0773 88.2253 64.8868V64.9141Z" fill="#333333"/>
<path d="M86.8377 68.5054C86.9737 68.3149 76.064 60.7516 70.1875 56.7795C65.9161 53.8956 65.6984 53.9772 65.5624 54.1676C65.4264 54.3581 65.508 54.6302 69.725 57.4596C75.6015 61.4317 86.7017 68.6958 86.8377 68.5054Z" fill="#333333"/>
<path d="M85.3958 72.151C85.5318 71.9606 74.6766 64.4244 68.8544 60.5067C64.6102 57.6501 64.3926 57.7045 64.2566 57.895C64.1205 58.0854 64.2022 58.3574 68.3919 61.1869C74.2141 65.1318 85.2598 72.3414 85.3958 72.151Z" fill="#333333"/>
<path d="M84.1444 75.9327C84.2804 75.7422 73.4251 68.2061 67.603 64.2884C63.3588 61.4317 63.1411 61.4862 63.0051 61.6766C62.8691 61.8671 62.9507 62.1391 67.1404 64.9686C72.9626 68.9135 84.0083 76.1231 84.1444 75.9327Z" fill="#333333"/>
<path d="M82.8384 79.6599C82.9745 79.4695 72.1192 71.9333 66.297 68.0156C62.0529 65.1589 61.8352 65.2134 61.6992 65.4038C61.5632 65.5942 61.6448 65.8663 65.8345 68.6957C71.6567 72.6406 82.7024 79.8504 82.8384 79.6599Z" fill="#333333"/>
<path d="M81.7772 83.6048C81.9132 83.4144 71.0579 75.8782 65.2358 71.9605C60.9916 69.1039 60.7739 69.1583 60.6379 69.3487C60.5019 69.5392 60.5835 69.8112 64.7733 72.6407C70.5954 76.5856 81.6411 83.7952 81.7772 83.6048Z" fill="#333333"/>
<path d="M80.6075 87.4682C80.7435 87.2777 69.8882 79.7416 64.0661 75.8239C59.8219 72.9672 59.6043 73.0216 59.4682 73.212C59.3322 73.4025 59.4138 73.6746 63.6036 76.504C69.4257 80.4489 80.4715 87.6586 80.6075 87.4682Z" fill="#333333"/>
<path d="M79.628 91.413C79.764 91.2226 68.9087 83.6865 63.0866 79.7688C58.8424 76.9121 58.6248 76.9665 58.4887 77.157C58.3527 77.3474 58.4343 77.6195 62.6241 80.4489C68.4462 84.3938 79.492 91.6035 79.628 91.413Z" fill="#333333"/>
<path d="M78.6214 95.4668C78.7574 95.2764 67.9021 87.7402 62.08 83.8225C57.8358 80.9659 57.6182 81.0202 57.4821 81.2107C57.3461 81.4011 57.4277 81.6732 61.6175 84.5027C67.4396 88.4476 78.4854 95.6573 78.6214 95.4668Z" fill="#333333"/>
<path d="M77.4786 99.3028C77.6147 99.1124 66.9498 91.7124 61.2093 87.8219C57.0467 85.0196 56.8291 85.074 56.6931 85.2645C56.557 85.4549 56.6387 85.727 60.7468 88.502C66.4873 92.3653 77.3426 99.4933 77.4786 99.3028Z" fill="#333333"/>
<path d="M76.6625 103.357C76.7985 103.166 66.1065 95.7116 60.366 91.7939C56.2034 88.9645 55.9586 89.0189 55.8497 89.2093C55.7137 89.3998 55.7953 89.6719 59.9307 92.4741C65.6712 96.3918 76.5537 103.547 76.6897 103.357H76.6625Z" fill="#333333"/>
<path d="M75.7919 107.438C75.9279 107.247 65.3447 99.7654 59.6314 95.8749C55.496 93.0454 55.2784 93.0998 55.1424 93.2902C55.0063 93.4807 55.0879 93.7528 59.1689 96.555C64.8822 100.473 75.6559 107.628 75.7919 107.465V107.438Z" fill="#333333"/>
<path d="M75.0574 111.6C75.1934 111.41 64.583 103.982 58.8697 100.119C54.7343 97.3168 54.4895 97.3712 54.3806 97.5617C54.2446 97.7521 54.3262 98.0242 58.4072 100.799C64.1205 104.69 74.9214 111.791 75.0574 111.6Z" fill="#333333"/>
<path d="M74.4588 115.708C74.5948 115.518 64.0116 108.172 58.3255 104.336C54.1901 101.561 53.9725 101.615 53.8364 101.806C53.7004 101.996 53.782 102.268 57.863 105.016C63.5491 108.852 74.3228 115.899 74.4588 115.708Z" fill="#333333"/>
<path d="M73.8057 120.034C73.9417 119.844 63.3585 112.498 57.6724 108.662C53.5371 105.887 53.3194 105.941 53.1834 106.132C53.0473 106.322 53.129 106.594 57.2099 109.342C62.896 113.178 73.6697 120.224 73.7785 120.034H73.8057Z" fill="#333333"/>
<path d="M73.2617 124.333C73.3977 124.142 62.8689 116.824 57.21 113.015C53.1018 110.24 52.8842 110.321 52.7481 110.485C52.6121 110.648 52.6937 110.947 56.7475 113.668C62.4064 117.477 73.1256 124.496 73.2617 124.305V124.333Z" fill="#333333"/>
<path d="M72.8265 128.25C72.9625 128.06 62.4609 120.769 56.802 116.96C52.6939 114.185 52.4762 114.266 52.3402 114.457C52.2042 114.647 52.2858 114.919 56.3395 117.64C61.9984 121.449 72.6905 128.441 72.7993 128.25H72.8265Z" fill="#333333"/>
<path d="M72.4182 132.63C72.5542 132.44 62.107 125.176 56.4753 121.367C52.3944 118.619 52.1767 118.674 52.0407 118.864C51.9047 119.054 51.9863 119.327 56.0128 122.047C61.6445 125.856 72.2822 132.821 72.4182 132.63Z" fill="#333333"/>
<path d="M72.0648 137.065C72.2008 136.875 61.7536 129.638 56.1491 125.829C52.0682 123.081 51.8506 123.135 51.7145 123.326C51.5785 123.516 51.6601 123.788 55.6866 126.509C61.2911 130.291 71.9288 137.255 72.0648 137.065Z" fill="#333333"/>
<path d="M71.7384 141.418C71.8744 141.228 61.4816 133.991 55.8771 130.236C51.8234 127.489 51.5786 127.57 51.4697 127.761C51.3337 127.951 51.4153 128.223 55.4146 130.917C61.0191 134.698 71.6024 141.609 71.7384 141.445V141.418Z" fill="#333333"/>
<path d="M71.5205 146.125C71.6565 145.934 61.2638 138.725 55.6865 134.943C51.6327 132.195 51.4151 132.277 51.2791 132.467C51.143 132.658 51.2246 132.93 55.224 135.623C60.8012 139.405 71.3845 146.315 71.5205 146.125Z" fill="#333333"/>
<path d="M129.704 5.67416H126.844V13H126.052V5.67416H123.192V4.97323H129.704V5.67416ZM138.907 4.97323V13H138.127V9.24664H133.368V13H132.576V4.97323H133.368V8.54571H138.127V4.97323H138.907Z" fill="#828282"/>
</svg>
