<svg width="34" height="34" viewBox="0 0 34 34" fill="none" xmlns="http://www.w3.org/2000/svg">
<path d="M17.516 0H15.5545V8.28094H17.516V0Z" fill="#E4675B"/>
<path d="M17.516 24.8828H15.5545V33.1637H17.516V24.8828Z" fill="#E4675B"/>
<path d="M17.516 0H15.5545V8.28094H17.516V0Z" fill="#E4675B"/>
<path d="M17.516 24.8828H15.5545V33.1637H17.516V24.8828Z" fill="#E4675B"/>
<path d="M33.0509 15.5977H24.7931V17.5646H33.0509V15.5977Z" fill="#E4675B"/>
<path d="M8.25782 15.5977H0V17.5646H8.25782V15.5977Z" fill="#E4675B"/>
<path d="M33.0509 15.5977H24.7931V17.5646H33.0509V15.5977Z" fill="#E4675B"/>
<path d="M8.25782 15.5977H0V17.5646H8.25782V15.5977Z" fill="#E4675B"/>
<path d="M27.5308 4.15621L21.6917 10.0117L23.0786 11.4026L28.9178 5.54707L27.5308 4.15621Z" fill="#E4675B"/>
<path d="M9.99531 21.747L4.15616 27.6025L5.54313 28.9934L11.3823 23.1379L9.99531 21.747Z" fill="#E4675B"/>
<path d="M27.5308 4.15621L21.6917 10.0117L23.0786 11.4026L28.9178 5.54707L27.5308 4.15621Z" fill="#E4675B"/>
<path d="M9.99531 21.747L4.15616 27.6025L5.54313 28.9934L11.3823 23.1379L9.99531 21.747Z" fill="#E4675B"/>
<path d="M23.0818 21.7107L21.6948 23.1016L27.5339 28.9571L28.9209 27.5662L23.0818 21.7107Z" fill="#E4675B"/>
<path d="M5.54008 4.14528L4.15311 5.53613L9.99226 11.3916L11.3792 10.0008L5.54008 4.14528Z" fill="#E4675B"/>
<path d="M23.0818 21.7107L21.6948 23.1016L27.5339 28.9571L28.9209 27.5662L23.0818 21.7107Z" fill="#E4675B"/>
<path d="M5.54008 4.14528L4.15311 5.53613L9.99226 11.3916L11.3792 10.0008L5.54008 4.14528Z" fill="#E4675B"/>
</svg>
