<svg width="35" height="40" viewBox="0 0 35 40" fill="none" xmlns="http://www.w3.org/2000/svg">
<g clip-path="url(#clip0_313_12945)">
<path d="M34.591 18.4836L33.6974 17.3177C33.5784 17.1696 33.4728 17.0114 33.3806 16.8432L31.3471 13.1366C30.8928 12.2314 30.0093 11.5786 28.9649 11.4507L27.022 11.2152L26.8577 11.0402C27.017 10.4379 27.1041 9.80525 27.1041 9.15243C27.1041 8.222 26.9298 7.33196 26.6146 6.51257L24.7689 1.42803C24.6432 1.13191 24.3515 0.924957 24.0112 0.924957C23.6105 0.924957 23.2769 1.21098 23.2031 1.59123L22.9249 2.70001C22.7974 3.17616 22.717 3.67081 22.6902 4.17893C22.6214 4.08639 22.5527 3.99386 22.4806 3.90468L19.7028 0.54471C19.5519 0.364681 19.3256 0.251953 19.0725 0.251953C18.6282 0.251953 18.2678 0.603598 18.2494 1.04442L17.8521 3.94675C17.8051 4.28156 17.7816 4.62311 17.7816 4.96971C17.7816 6.60848 18.3198 8.12105 19.2301 9.33919L20.0766 10.4934C20.4874 11.02 20.7304 11.6812 20.7304 12.4014C20.7304 12.4199 20.7304 12.4384 20.7304 12.4569L20.6483 15.4534C20.6416 15.5342 20.6332 15.615 20.6198 15.6974C20.3583 17.3564 18.8311 18.4988 17.1832 18.2885L14.3785 17.9048C13.7884 17.8174 13.1833 17.7719 12.568 17.7719C5.76516 17.7753 0.251465 23.3074 0.251465 30.1333C0.251465 30.9611 0.315168 31.7401 0.487838 32.5528C0.658832 33.3654 0.814737 33.9055 0.955555 34.3733C1.49368 36.1567 2.84822 37.5751 4.57994 38.206L6.48434 38.8992C7.09791 39.1163 7.75673 39.234 8.44406 39.234L16.3902 39.7489C16.3986 39.7489 16.407 39.7489 16.417 39.7489C16.5579 39.7489 16.6769 39.6648 16.7305 39.5436L17.1899 38.6351C17.272 38.4719 17.319 38.2885 17.319 38.0933C17.319 37.9435 17.2921 37.7988 17.2418 37.6659C17.2284 37.6289 17.2117 37.5936 17.1949 37.5582L17.1832 37.5381C18.5058 37.4119 19.7732 37.0922 20.9551 36.6076L21.0188 36.6463L24.2844 38.7511C24.3381 38.7865 24.4018 38.8067 24.4705 38.8067H27.5869C28.2458 38.8067 28.7805 38.27 28.7805 37.6087C28.7805 37.173 28.5475 36.791 28.2005 36.5807L25.7848 35.0278C25.5166 34.8073 25.3456 34.4742 25.3456 34.099C25.3456 33.7709 25.478 33.4731 25.6909 33.2561L25.82 33.1164C27.9574 30.8938 29.2717 27.8687 29.2717 24.5373C29.2717 23.9299 29.2281 23.3309 29.1443 22.7471C29.2533 22.7471 29.3606 22.7421 29.4662 22.7353C29.5701 22.7286 29.6724 22.7168 29.7747 22.7034L31.4175 22.4745C32.2976 22.3366 33.0554 21.8251 33.5248 21.1067L34.6295 19.4124C34.7083 19.2862 34.7536 19.1348 34.7536 18.9749C34.7536 18.7932 34.6949 18.625 34.596 18.487L34.591 18.4836Z" fill="white"/>
<path d="M29.4913 15.7636C29.3924 15.6273 29.2583 15.4406 29.2818 15.0485C29.2985 14.776 29.2013 14.5118 29.0085 14.3066C28.8023 14.0861 28.5106 13.96 28.2072 13.96C27.6138 13.96 27.1326 14.4445 27.1326 15.0384C27.1326 15.5297 27.4629 15.9588 27.9457 16.085L29.1175 16.3104C29.1544 16.3155 29.1896 16.3188 29.2231 16.3188H29.2298C29.4176 16.3188 29.5684 16.1657 29.5684 15.979C29.5684 15.91 29.5483 15.8444 29.5047 15.7821L29.4913 15.7653V15.7636Z" fill="#231F20"/>
<path d="M34.7904 18.3293L33.8919 17.1582C33.7813 17.022 33.684 16.8756 33.6002 16.7208L31.5718 13.0226C31.0672 12.0165 30.1049 11.3351 28.9934 11.2005L27.1293 10.975C27.2768 10.3811 27.3539 9.76866 27.3539 9.15286C27.3539 8.3789 27.2382 7.61672 27.0086 6.88483C26.96 6.73341 25.2031 1.89451 24.9986 1.33087C24.8292 0.932111 24.4403 0.674687 24.0095 0.674687C23.4982 0.674687 23.0539 1.03979 22.9567 1.53108L22.6801 2.63649C22.6013 2.93262 22.5426 3.23379 22.5007 3.53832L19.8939 0.383612C19.6894 0.139648 19.3893 0 19.0725 0C18.4975 0 18.0281 0.447548 17.9979 1.02128L17.6023 3.91184C17.5536 4.26012 17.5285 4.61681 17.5285 4.97014C17.5285 6.61563 18.0465 8.17868 19.0255 9.48936L19.8755 10.6503C20.2677 11.155 20.4756 11.7607 20.4756 12.4035L20.3935 15.437C20.3868 15.5111 20.3784 15.5868 20.3667 15.6608C20.1253 17.1902 18.7372 18.235 17.2117 18.0416L14.4087 17.6579C13.8018 17.5688 13.1799 17.5233 12.5613 17.5233C5.63608 17.5233 0 23.1799 0 30.1338C0 31.0406 0.0771147 31.8264 0.241402 32.6054C0.417425 33.4416 0.57836 33.9934 0.714149 34.446C1.27072 36.2901 2.68225 37.7841 4.49444 38.442L6.40052 39.1352C7.05432 39.3657 7.73997 39.4835 8.42226 39.4835H8.42729L16.3701 39.9983C16.3852 39.9983 16.4003 39.9983 16.4154 39.9983C16.6501 39.9983 16.8646 39.8587 16.9535 39.6551L17.4128 38.7465C17.5168 38.5413 17.5687 38.3209 17.5687 38.0904C17.5687 37.9743 17.5536 37.8599 17.5268 37.7505C18.6953 37.6108 19.8386 37.3231 20.9299 36.8874L24.1453 38.9602C24.2408 39.0241 24.3531 39.0561 24.4688 39.0561H27.5853C28.3832 39.0561 29.0303 38.405 29.0303 37.6058C29.0303 37.0994 28.7621 36.6232 28.3346 36.3658L25.9306 34.8196C25.7177 34.6395 25.5954 34.3754 25.5954 34.0961C25.5954 33.8454 25.6926 33.6081 25.8736 33.4248L25.9977 33.2885C28.2692 30.9262 29.5198 27.8169 29.5198 24.5344C29.5198 24.0162 29.4863 23.4979 29.4243 22.9865C29.4427 22.9865 29.4612 22.9865 29.4796 22.9848C29.5886 22.9764 29.6975 22.9663 29.8048 22.9511L31.451 22.7223C32.3815 22.5759 33.2113 22.0375 33.7293 21.2434L34.8374 19.544C34.943 19.3724 35 19.1756 35 18.9737C35 18.7432 34.9296 18.5228 34.7904 18.3326V18.3293ZM23.1663 2.761L23.4462 1.64045C23.4999 1.37293 23.7346 1.17776 24.0078 1.17776C24.2375 1.17776 24.4453 1.31572 24.5308 1.51426C25.0706 3.0016 26.4822 6.89156 26.5291 7.03458C26.7437 7.71599 26.851 8.42938 26.851 9.15117C26.851 9.74678 26.7756 10.339 26.628 10.9128L24.033 10.5981C24.2324 9.91167 24.3347 9.19997 24.3347 8.47649C24.3347 6.91175 23.8435 5.37899 22.945 4.10869C22.9751 3.65441 23.0489 3.20182 23.1663 2.75932V2.761ZM34.4149 19.2698L34.0059 19.8974C33.7662 19.8233 33.5298 19.7493 33.5298 19.7493C33.4711 19.7291 33.4208 19.6887 33.389 19.6349C33.3135 19.5053 33.2582 19.4128 33.166 19.0898C33.1275 18.9552 32.9866 18.8778 32.8542 18.9181C32.7201 18.9568 32.6446 19.0965 32.6815 19.2311C32.7838 19.5878 32.8542 19.719 32.9548 19.8923C33.0487 20.0505 33.1962 20.1716 33.3739 20.2305C33.3739 20.2305 33.5315 20.2793 33.7192 20.3382L33.3102 20.9658C32.871 21.6405 32.1652 22.0998 31.379 22.2226L29.7378 22.4514C29.6405 22.4649 29.5433 22.475 29.4444 22.4817C29.0253 22.512 28.5911 22.4817 28.0832 22.3774C27.8065 22.3202 25.4579 21.5849 24.5811 21.309C24.214 21.1845 23.9022 20.9304 23.7027 20.5939C23.3926 20.069 23.1495 19.6534 22.7421 18.1778C22.7052 18.0432 22.5661 17.9642 22.432 18.0012C22.2979 18.0382 22.2191 18.1778 22.2576 18.3124C22.6834 19.8536 22.9416 20.2928 23.2702 20.8514C23.53 21.2939 23.9391 21.6253 24.4252 21.7902C24.7521 21.8928 27.6305 22.7997 27.9809 22.872C28.3162 22.9427 28.6246 22.9814 28.918 22.9932C28.9817 23.503 29.0169 24.0195 29.0169 24.5361C29.0169 27.6874 27.8166 30.6722 25.6322 32.9436L25.5099 33.0765C25.24 33.349 25.0924 33.7125 25.0924 34.0978C25.0924 34.5352 25.2852 34.9441 25.6239 35.2217C25.6306 35.2284 25.639 35.2335 25.6473 35.2385L28.0697 36.7965C28.3564 36.9698 28.5274 37.2727 28.5274 37.6075C28.5274 38.1291 28.1049 38.553 27.5853 38.553H24.4688C24.4504 38.553 24.4336 38.548 24.4185 38.5379L21.1479 36.4297L21.0842 36.391C21.0154 36.349 20.9316 36.3422 20.8578 36.3725C19.7229 36.8386 18.531 37.1381 17.3089 37.2676C17.0876 36.9462 16.7406 36.7157 16.3366 36.6552C16.3315 36.6552 16.3248 36.6552 16.3198 36.6535L10.7022 36.211C13.0994 35.3681 14.8228 33.0731 14.8228 30.3828C14.8228 26.9791 12.0634 24.2096 8.67205 24.2096C7.13814 24.2096 5.66793 24.78 4.533 25.8164C4.43074 25.9107 4.42236 26.0705 4.51624 26.1731C4.61012 26.2758 4.76937 26.2842 4.87164 26.19C5.91268 25.2393 7.26219 24.7144 8.67205 24.7144C11.7868 24.7144 14.3199 27.2567 14.3199 30.3828C14.3199 33.5089 11.7868 36.0512 8.67205 36.0512C8.53626 36.0512 8.42562 36.1588 8.42059 36.2934C8.41556 36.428 8.51782 36.5441 8.65193 36.5542L16.2712 37.1532C16.7238 37.2255 17.0658 37.626 17.0658 38.0887C17.0658 38.2384 17.0323 38.3831 16.9652 38.516L16.4992 39.4364C16.4875 39.4616 16.4539 39.4902 16.4053 39.4902L8.44406 38.9754C7.80032 38.9754 7.16999 38.8677 6.56983 38.6557L4.66544 37.9625C3.00244 37.3585 1.70658 35.9872 1.19528 34.2946C1.06116 33.8521 0.905259 33.312 0.732589 32.496C0.575007 31.7523 0.502922 31.0003 0.502922 30.1287C0.502922 23.4542 5.91436 18.0231 12.5647 18.0231C13.1581 18.0231 13.7549 18.0668 14.3417 18.1526L17.1496 18.5379C18.9501 18.7667 20.5829 17.5351 20.8662 15.7348C20.8796 15.6473 20.8897 15.5599 20.8981 15.4589L20.9802 12.459V12.3984C20.9802 11.643 20.7355 10.9296 20.2778 10.3407L19.4312 9.18314C18.5176 7.95828 18.0331 6.49954 18.0331 4.96509C18.0331 4.63363 18.0566 4.30218 18.1018 3.97577L18.4991 1.07344C18.4991 1.07344 18.5008 1.0583 18.5008 1.04989C18.5142 0.740305 18.7657 0.499706 19.0725 0.499706C19.2418 0.499706 19.401 0.573736 19.5083 0.701607L22.2811 4.05822C23.2802 5.30327 23.8301 6.87137 23.8301 8.47312C23.8301 9.24371 23.7061 10.0025 23.463 10.726C23.4579 10.7395 23.4563 10.7529 23.4529 10.7681C23.4529 10.7714 23.4512 10.7748 23.4512 10.7782C23.4512 10.7782 23.4512 10.7849 23.4512 10.7866C23.4512 10.8 23.4496 10.8135 23.4512 10.827C23.4512 10.8354 23.4546 10.8421 23.4546 10.8505C23.4546 10.8589 23.4563 10.8673 23.4596 10.8757C23.4613 10.8842 23.4663 10.8926 23.4697 10.901C23.473 10.9077 23.4747 10.9144 23.4781 10.9212C23.4814 10.9296 23.4864 10.9363 23.4915 10.943C23.4948 10.9498 23.4982 10.9565 23.5032 10.9616C23.5082 10.9683 23.5149 10.9733 23.52 10.9801C23.525 10.9851 23.53 10.9918 23.5367 10.9969C23.5434 11.0036 23.5518 11.0087 23.5602 11.0137C23.5652 11.0171 23.5703 11.0221 23.577 11.0255C23.5904 11.0339 23.6055 11.0406 23.6222 11.0457C23.6306 11.049 23.639 11.0507 23.6491 11.0524C23.6574 11.0541 23.6641 11.0575 23.6725 11.0575L28.9348 11.6934C29.8769 11.8095 30.695 12.3883 31.1275 13.2498L33.161 16.9547C33.2582 17.1347 33.3739 17.308 33.4996 17.4628L34.3898 18.6237C34.4619 18.723 34.4988 18.8391 34.4988 18.9619C34.4988 19.0696 34.4686 19.1756 34.4149 19.2614V19.2698Z" fill="#231F20"/>
</g>
<defs>
<clipPath id="clip0_313_12945">
<rect width="35" height="40" fill="white"/>
</clipPath>
</defs>
</svg>
